<svg width="35" height="35" fill="none" xmlns="http://www.w3.org/2000/svg"><path d="M17.055 3.348l.14.079c.22.153.22.153.419.085l.158-.094c.447-.214.989-.215 1.466-.094.407.18.735.53.932.926.078.24.076.442.071.693l-.003.26-.005.197.171.002c.257.004.513.01.769.016l.27.003.259.006.238.005c.25.044.334.107.48.31v.274l.119-.002c.41-.006.82-.01 1.23-.013l.459-.006c1.643-.025 1.643-.025 2.43.294l.144.058c1.14.505 1.926 1.385 2.435 2.506.227.616.326 1.167.319 1.824l.002.213c-.002.429-.056.75-.233 1.141.073-.005.146-.01.222-.017.256.017.256.017.407.13.234.307.165.681.123 1.05-.092.349-.21.656-.41.956.078.002.078.002.158.002.238.004.476.01.713.016l.25.003.24.006.222.005c.194.037.194.037.348.13.298.451.289 1.14.357 1.671l.028.21.059.45.093.71a1524.964 1524.964 0 01.489 3.726l.086.657.025.196c.055.412.107.757.418 1.055l.12.116.123.118a108.84 108.84 0 01.353.34c.225.236.167.537.168.842l.001.193c.002.21.002.421.003.632l.001.218.003 1.142c0 .394.003.788.006 1.181l.003.907c0 .145 0 .29.002.436.002.203.002.405.001.608l.003.183c-.004.406-.004.406-.159.618-.213.148-.443.226-.688.306l-.32.116c-.166.06-.333.118-.501.173-.696.204-.696.204-1.176.7-.093.251-.093.251-.145.5-.14.58-.657 1.011-1.148 1.317-.664.367-1.475.375-2.207.228-.713-.231-1.21-.71-1.62-1.322l-.274-.752H9.842l-.273.752c-.454.677-1.026 1.203-1.846 1.367-.849.092-1.599.02-2.307-.491-.428-.36-.735-.74-.92-1.272l-.07-.203-.052-.153-.272-.002a144.45 144.45 0 01-.998-.012 64.286 64.286 0 01-1.053-.012h-.196l-.182-.005-.16-.002c-.22-.053-.286-.125-.42-.309-.042-.224-.038-.447-.035-.674l-.002-.21.001-.698-.001-.5c-.002-.406-.001-.812 0-1.218v-4.101c.002-.768.002-1.535 0-2.303v-2.958a767.888 767.888 0 010-1.13c-.002-.444-.001-.887 0-1.33v-.49c0-.222 0-.444.002-.666l-.002-.197c.005-.435.005-.435.166-.654a.679.679 0 01.44-.139l.165-.006.171-.003.174-.007c.142-.004.283-.008.424-.01l-.072-.14-.094-.185-.094-.183c-.14-.302-.164-.56-.171-.894l-.008-.233c.03-.211.03-.211.134-.375.23-.15.433-.14.698-.127l.145.004c.117.003.234.008.35.013l-.1-.223c-.138-.37-.138-.727-.134-1.118l.002-.22c.026-1.244.524-2.33 1.395-3.224a5.279 5.279 0 011.709-1.025l.14-.052c.65-.211 1.31-.186 1.986-.188l.397-.004a249.1 249.1 0 011.038-.007l1.06-.008 2.078-.015.094-.2c.111-.21.111-.21.248-.278a6.49 6.49 0 01.313-.022l.185-.008.194-.009a977.017 977.017 0 00.675-.03l-.01-.19c-.027-.927-.027-.927.284-1.313.538-.566 1.24-.849 2.017-.55zm-1.018 1.207c-.144.21-.152.321-.11.572.152.195.242.263.478.342.095.004.19.006.286.004l.26-.004c.02-.384.008-.622-.204-.957-.257-.128-.474-.119-.71.043zm2.077.162a1.259 1.259 0 00-.073.491l.005.26c.383.02.621.008.957-.204.097-.194.09-.332.068-.547-.103-.171-.103-.171-.274-.274-.335-.055-.477.007-.683.274zm-3.965 1.846c-.125.374-.24.729-.335 1.108l-.034.137-.11.44-.078.308a471.468 471.468 0 00-.366 1.467 453.492 453.492 0 00-.402 1.606c-.05.197-.05.197-.042.402h4.17V8.135l-.684.41c-.378.18-.818.192-1.23.137-.15-.103-.196-.16-.233-.338l.002-.14-.002-.142c.037-.177.087-.231.233-.337.185-.053.185-.053.397-.094.426-.1.664-.207.918-.577.143-.23.143-.23.189-.491h-2.393zm4.307 0c.143.43.274.688.658.935.27.106.543.177.825.244l.157.051c.107.213.107.452.069.684-.08.118-.08.118-.206.205-.75.126-1.305-.141-1.913-.547v3.896h1.709c.124-.374.24-.729.335-1.108.01-.045.022-.09.034-.137l.11-.44.077-.308a490.632 490.632 0 00.367-1.467 677.795 677.795 0 00.34-1.363l.06-.243c.05-.197.05-.197.044-.402h-2.666zm-9.229.546a5498.332 5498.332 0 00-.167.454.655.655 0 00.03.435c.394-.216.696-.452.957-.82v-.069h-.82zm15.313 0l-.107.291-.06.163a.655.655 0 00.03.435c.482-.296.482-.296.889-.683v-.137l-.752-.069zm-16.612 0c-1.172.117-2.065.5-2.83 1.418-.53.752-.832 1.673-.697 2.597.106.373.261.563.588.77.373.133.701.156 1.091.153h.18l.585-.002h.407l1.068-.004 1.092-.003c.713-.001 1.426-.004 2.14-.007.12-.35.232-.699.322-1.058l.062-.247.065-.26.068-.272a389.328 389.328 0 00.322-1.29l.14-.56.1-.397.06-.242.053-.214c.045-.18.045-.18.038-.382h-1.436l-.175.376c-.414.82-1 1.31-1.863 1.637a3.146 3.146 0 01-1.38.107C7.8 9.14 7.8 9.14 7.723 9.024c-.056-.471.055-.884.182-1.334.082-.29.082-.29.023-.58zm14.287 0a17.21 17.21 0 00-.449 1.566 10763.718 10763.718 0 01-.53 2.121l-.1.398-.06.242-.053.214c-.045.18-.045.18-.038.381a803.56 803.56 0 003.595.016 224.486 224.486 0 001.52.006c.196.002.393.002.589.002l.173.002c.416-.002.869-.05 1.205-.318.354-.39.383-.758.36-1.259-.093-1.006-.514-1.89-1.29-2.55-.304-.26-.304-.26-.683-.342-.12.15-.12.15-.24.342-.439.625-1.018 1.002-1.743 1.23l-.126.04c-.21.04-.415.043-.63.046l-.255.005c-.22-.022-.22-.022-.35-.11-.164-.258-.106-.58-.047-.865.058-.243.121-.483.186-.724.069-.23.069-.23.06-.443h-1.094zM3.417 13.125c.229.459.476.745.931.983.324.085.637.12.971.12a176.453 176.453 0 00.498 0h1.037l.821.002a2153.595 2153.595 0 002.915 0l3.706.002h.403l3.241.001a3357.247 3357.247 0 005.197.002 766.875 766.875 0 002.403.001 167.513 167.513 0 001.138 0c.625-.002 1.19-.016 1.69-.427.209-.215.383-.397.478-.684H3.416zm.957 2.188c-.012.532-.012.532.205.957.194.097.332.09.547.068.194-.153.263-.243.341-.479v-.546H4.374zm2.187 0c-.011.532-.011.532.205.957.194.097.332.09.547.068.195-.153.263-.243.342-.479v-.546H6.56zm2.188 0c-.012.532-.012.532.205.957.194.097.332.09.547.068.194-.153.263-.243.341-.479v-.546H8.75zm2.187 0c-.011.532-.011.532.205.957.194.097.332.09.547.068.195-.153.263-.243.342-.479v-.546h-1.094zm2.188 0c-.012.532-.012.532.205.957.194.097.332.09.546.068.195-.153.264-.243.342-.479v-.546h-1.093zm2.187 0c-.011.532-.011.532.205.957.194.097.332.09.547.068.195-.153.263-.243.342-.479v-.546H15.31zm2.188 0c-.012.532-.012.532.205.957.194.097.331.09.546.068.195-.153.264-.243.342-.479v-.546H17.5zm2.187 0c-.011.532-.011.532.205.957.194.097.332.09.547.068.195-.153.263-.243.342-.479v-.546h-1.094zm-17.5 0v15.312h2.188l.341-.82c.384-.58.9-1.074 1.586-1.27.902-.14 1.747-.08 2.503.467.555.468.748.927 1.038 1.623h13.672V15.313h-1.64l-.002.445c-.003 1.38-.009 2.762-.014 4.143-.004.71-.006 1.42-.008 2.13a717.978 717.978 0 01-.01 2.84 167.733 167.733 0 01-.005 1.265c0 .155-.001.309-.003.463v.263c-.027.208-.027.208-.112.322-.152.116-.236.117-.426.117l-.192.002-.21-.002a150.826 150.826 0 01-.968.001l-.533.001h-2.81l-2.858-.001h-2.455a1502.542 1502.542 0 01-3.152 0h-.151l-1.054.001a352.738 352.738 0 01-1.94 0c-.236 0-.473 0-.71-.002l-.21.002-.191-.002h-.166c-.178-.032-.238-.087-.346-.23-.026-.21-.026-.21-.027-.472l-.001-.146a223.764 223.764 0 00-.003-.833l-.003-.945-.005-.987-.006-1.87-.008-2.127-.015-4.378H2.186zm22.422 0v15.312h1.094l.14-.372c.33-.78.846-1.341 1.637-1.674.733-.209 1.657-.168 2.324.2.624.38.985.925 1.3 1.573l.507-.188.143-.053c.361-.134.704-.286 1.058-.443v-3.623l-.752-.068c-.273-.205-.273-.205-.31-.353l.003-.16-.003-.16c.037-.148.037-.148.151-.266.191-.104.336-.12.552-.134l.204-.013.155-.008c.027-.33.035-.485-.13-.777-.331-.387-.644-.628-1.16-.679a12.966 12.966 0 00-.919 0c-.133.001-.266.002-.4.001-.348 0-.696.005-1.044.012-.56.009-1.119.01-1.678.012-.195.001-.39.005-.585.008l-.357.004-.165.004c-.197.001-.357 0-.534-.092-.109-.211-.097-.424-.095-.656l-.002-.16v-.892l.001-.766c.002-.328 0-.656 0-.983a158.257 158.257 0 010-1.117v-.658c.002-.189.008-.337.101-.504.203-.111.382-.1.612-.101l.148-.002.483-.003.335-.004c.293-.004.587-.006.88-.007l1.058-.01c.535-.006 1.07-.01 1.605-.013l-.273-2.187h-6.084zm-18.88 1.982c-.329.137-.329.137-1.354.137v4.306l.888-.341a8.81 8.81 0 01.936-.045l.269-.003c.24-.002.48-.001.721 0 .253 0 .505-.002.758-.004.476-.002.953-.003 1.43-.003.543 0 1.086-.003 1.63-.005 1.116-.005 2.232-.008 3.348-.009l.164-.36.093-.203a16 16 0 00.278-.663l.098-.245.148-.374.147-.368.087-.22c.079-.164.079-.164.216-.233.104-.007.208-.01.313-.01.065-.002.13-.002.197-.003h.213l.22-.002.457-.001c.235 0 .469-.003.703-.005l.445-.001.213-.003h.372c.185.032.24.082.353.23.08.187.151.371.22.562l.129.339c.067.177.133.355.198.533.063.173.128.345.194.516l.056.16c.201.509.346.479.912.761v-4.306h-1.026c-.316-.145-.316-.145-.546-.274-.187.034-.187.034-.342.137-.416.2-.848.182-1.299.137-.172-.066-.172-.066-.312-.145-.22-.154-.22-.154-.419-.086l-.158.094c-.416.2-.847.182-1.299.137-.171-.066-.171-.066-.311-.145-.22-.154-.22-.154-.42-.086l-.157.094c-.416.2-.848.182-1.299.137-.172-.066-.172-.066-.312-.145-.22-.154-.22-.154-.419-.086l-.158.094c-.416.2-.847.182-1.299.137-.171-.066-.171-.066-.311-.145-.22-.154-.22-.154-.42-.086l-.157.094c-.416.2-.847.182-1.299.137-.172-.066-.172-.066-.312-.145-.22-.154-.22-.154-.419-.086l-.158.094a2.031 2.031 0 01-1.478.075 5.698 5.698 0 01-.367-.212c-.16-.012-.16-.012-.355.137zm21.068 1.299v3.828h4.785a21.834 21.834 0 00-.165-1.679l-.024-.168-.09-.605-.2-1.376h-4.306zm-10.528 1.094c-.42.79-.42.79-.615 1.64h1.435c.421-.79.421-.79.616-1.64h-1.436zm2.256 1.093c-.086.199-.137.328-.137.547h.41a4.09 4.09 0 00-.136-.547h-.137zM4.715 22.97c-.26.363-.284.633-.341 1.094h4.921v-1.641a423.968 423.968 0 00-1.91-.01l-.7-.003-.217-.002c-.68 0-1.259.057-1.753.562zm5.674-.547v1.64h4.922v-1.64H10.39zm6.016 0v1.64h4.375c-.12-.747-.12-.747-.547-1.298-.503-.345-1.035-.352-1.625-.349a4093.797 4093.797 0 01-.793.003h-.41l-1 .004zM4.374 25.156v1.094h4.921v-1.094H4.374zm6.015 0v1.094h4.922v-1.094H10.39zm6.016 0v1.094h4.375v-1.094h-4.375zM5.77 30.276c-.282.41-.284.824-.235 1.306.12.454.44.764.82 1.026.41.2.88.211 1.32.094a1.96 1.96 0 00.948-.941c.13-.411.129-.897-.046-1.294a1.916 1.916 0 00-1.06-.867c-.782-.093-1.243.087-1.747.677zm21.328 0c-.282.41-.284.824-.235 1.306.121.454.44.764.82 1.026.41.2.88.211 1.32.094a1.96 1.96 0 00.948-.941c.13-.411.13-.897-.046-1.294a1.916 1.916 0 00-1.06-.867c-.781-.093-1.242.087-1.747.677z" fill="#C18539"/><path d="M27.342 24.85l.204-.004c.301.002.497.009.763.157.14.17.174.243.17.462l.002.155c-.072.242-.167.303-.387.426-.251.04-.498.038-.752.034l-.204.003c-.3-.002-.497-.009-.763-.157-.14-.17-.173-.243-.17-.461l-.002-.156c.158-.527.69-.467 1.14-.46zM6.524 9.959c.244.021.244.021.376.094.118.214.107.373.073.61-.145.142-.145.142-.342.206-.218-.043-.218-.043-.41-.137-.137-.205-.137-.205-.12-.414.074-.29.124-.332.423-.359zm1.669.551h.291c.128.018.128.018.265.155.018.128.018.128.017.273v.145c-.017.128-.017.128-.154.265-.128.018-.128.018-.274.017l-.145.001c-.128-.018-.128-.018-.265-.155-.018-.128-.018-.128-.017-.273v-.145c.025-.186.097-.257.282-.283zM24.6 9.963l.145.001.145-.001c.128.018.128.018.265.155.018.128.018.128.017.273l.001.146c-.018.128-.018.128-.155.264-.128.018-.128.018-.273.018h-.146c-.128-.018-.128-.018-.264-.154-.019-.128-.019-.128-.018-.274v-.145c.026-.186.097-.257.282-.283zm-14.22-.547a7463.863 7463.863 0 00.291 0c.128.018.128.018.265.155.018.128.018.128.017.273l.001.146c-.018.128-.018.128-.155.264-.128.019-.128.019-.273.018h-.145c-.129-.018-.129-.018-.265-.154-.018-.128-.018-.128-.017-.274l-.001-.145c.026-.186.097-.257.283-.283zm15.86-.136h.291c.128.017.128.017.265.154.018.128.018.128.017.274v.145c-.017.128-.017.128-.154.265-.128.018-.128.018-.274.017h-.145c-.128-.017-.128-.017-.265-.154-.018-.128-.018-.128-.017-.273l-.001-.146c.026-.185.098-.256.283-.283z" fill="#C18539"/></svg>