<svg width="35" height="35" fill="none" xmlns="http://www.w3.org/2000/svg"><path d="M5.278 11.04l.236-.001h.78l.56-.001h2.951l3.004.001c.86.002 1.718.001 2.578 0 .997-.001 1.995-.002 2.993-.001H22c.248 0 .497 0 .745.002l.22-.002c.398.005.652.029.958.31.337.364.313.72.309 1.189v.238c.002.219.002.437 0 .655a335.511 335.511 0 01.001 2.09v1.609c.002 1.016 0 2.032 0 3.048a876.36 876.36 0 000 2.614 1336.193 1336.193 0 010 3.36v.161l.001 1.123v1.368c-.002.232-.002.465 0 .698l-.002.756.001.223c-.004.4-.026.659-.31.966-.362.333-.71.312-1.178.308l-.235.001c-.26.002-.52 0-.781 0l-.56.001h-2.951c-1.001.001-2.002 0-3.004-.001-.859-.002-1.718-.001-2.577 0a1298.388 1298.388 0 01-3.312 0h-.159l-1.106.002-1.349-.001h-.688c-.248 0-.497 0-.746-.002l-.22.002c-.397-.004-.652-.029-.958-.31-.336-.364-.312-.719-.308-1.189l-.001-.238v-.655l-.001-.706v-2.993c-.001-1.016 0-2.032.001-3.047.002-.872.001-1.743 0-2.615-.001-1.012-.002-2.024-.001-3.036v-3.674c0-.252 0-.504.002-.756l-.002-.223c.004-.4.027-.658.31-.966.363-.333.711-.312 1.178-.308zm-.357 1.129v18.457h18.183V12.169H4.921zm1.575-8.614c.17.103.17.103.273.274.055.374.015.563-.202.875-.086.113-.174.226-.263.338l-.134.173a34.57 34.57 0 01-.247.318c-.107.137-.211.276-.316.415h16.611c-.51-.653-.51-.653-1.038-1.29-.15-.194-.224-.33-.239-.577.047-.252.047-.252.145-.423a.982.982 0 01.63-.15c.336.098.506.393.708.663l.172.218c.127.159.252.319.377.48.25.322.507.639.763.956.248.308.354.465.348.87-.033.236-.155.371-.306.552l-.092.112c-.065.08-.132.16-.199.24-.111.132-.221.267-.33.403l-.455.56a79.58 79.58 0 00-.662.823c-.149.184-.149.184-.295.202-.433.014-.433.014-.659-.119-.137-.239-.15-.452-.098-.717.116-.207.265-.376.423-.551l.238-.276.107-.121c.165-.2.312-.414.462-.625H5.608L6.7 8.614c.11.22.1.446.068.684-.102.17-.102.17-.273.273-.37.053-.37.053-.547 0-.343-.289-.599-.664-.867-1.021l-.146-.193-.288-.385a35.629 35.629 0 00-.358-.466l-.187-.246-.162-.211c-.138-.263-.181-.472-.111-.76.114-.219.26-.405.414-.597l.262-.34.139-.178c.146-.188.288-.378.429-.57l.14-.189.27-.365.124-.166.11-.148c.203-.242.484-.22.778-.18zm22.761 7.929c.209.119.209.119.41.287l.112.091c.08.066.16.132.239.2.133.111.268.22.404.33.187.15.373.303.56.455.272.222.547.442.823.661.184.15.184.15.202.295.014.433.014.433-.119.66-.239.137-.452.15-.717.098a3.1 3.1 0 01-.552-.424l-.275-.237-.121-.108c-.2-.165-.414-.312-.625-.462v16.611l1.436-1.093c.22-.11.446-.101.684-.069.17.103.17.103.273.274.053.37.053.37 0 .546-.29.344-.665.6-1.021.868a229.27 229.27 0 01-.578.434c-.157.118-.312.237-.466.358l-.246.186-.211.163c-.264.137-.472.18-.76.11a3.647 3.647 0 01-.598-.414l-.34-.262-.177-.139a30.792 30.792 0 00-.57-.428l-.189-.14a491.5 491.5 0 00-.365-.27l-.166-.125-.148-.11c-.112-.094-.112-.094-.18-.23-.04-.483-.04-.483.102-.718.24-.145.448-.159.718-.103.242.13.451.295.666.466l.173.133.318.247c.137.108.276.212.415.316V13.33c-.653.51-.653.51-1.29 1.038-.194.15-.33.225-.577.24-.252-.048-.252-.048-.423-.146a.982.982 0 01-.15-.63c.098-.335.393-.506.662-.707l.22-.175c.202-.16.405-.319.61-.477l.395-.31.13-.104.25-.197c.358-.282.593-.452 1.062-.378z" fill="#C18539"/></svg>