<svg width="35" height="35" fill="none" xmlns="http://www.w3.org/2000/svg"><g clip-path="url(#clip0_6665_36128)"><path d="M28.985.615l.2.102c.56.303.994.683 1.441 1.129l.167.162c1.065 1.098 1.562 2.608 1.576 4.115l.009.214c.008.853-.236 1.662-.453 2.482l-.065.245c-.158.596-.32 1.192-.482 1.787l-.406 1.494-.049.18c-.287 1.06-.571 2.121-.854 3.184l-.064.238c-.188.707-.377 1.415-.564 2.123l-.12.449-.059.222-.455 1.704c-.11.407-.217.814-.324 1.222l-.204.768-.093.357a45.2 45.2 0 01-.129.487l-.035.143c-.089.319-.216.5-.472.71-.205.042-.205.042-.41 0-.201-.133-.201-.133-.342-.343.018-.594.202-1.167.356-1.738l.09-.337a467.347 467.347 0 01.447-1.675c.508-1.907 1.021-3.811 1.538-5.715.412-1.522.82-3.045 1.227-4.568l.137-.514a1098.61 1098.61 0 00.4-1.498l.06-.228c.359-1.418.11-2.85-.632-4.098a6.687 6.687 0 00-.547-.683l-.13-.147c-.53-.566-1.202-.943-1.92-1.22L27.65 1.3c-.998-.314-2.282-.27-3.246.135l-.132.054c-.712.301-1.247.69-1.782 1.245l-.137.13c-.766.78-1.039 1.92-1.298 2.946l.662.196.215.064c.47.137.94.266 1.412.39l.168.045.673.176c1.73.444 1.73.444 2.202 1.18.277.541.377 1.088.228 1.683A2.378 2.378 0 0125.5 10.87c-.799.314-1.637.123-2.433-.102l-.271-.074a94.886 94.886 0 01-.703-.194c-.24-.067-.481-.132-.722-.198-.47-.128-.939-.258-1.408-.389l-.41 1.504c.46.173.46.173.924.311l.21.055a566.453 566.453 0 01.691.18c.245.065.49.13.736.193l.715.188.22.056c.74.197 1.434.466 1.855 1.14a2.26 2.26 0 01.208 1.627c-.208.624-.466.962-1.052 1.266-.59.284-1.09.3-1.724.133l-.142-.037-.458-.121-.318-.084a227.244 227.244 0 01-1.289-.341c-.58-.154-1.16-.308-1.738-.464.028.445.199.763.414 1.15a97.857 97.857 0 01.276.5c.062.127.062.127.062.264l.177.038c.661.147 1.317.317 1.97.495l.292.077c.819.214 1.425.485 1.867 1.236.266.555.285 1.1.099 1.683-.243.598-.594.927-1.176 1.194-.872.355-1.75.018-2.604-.242-.155-.046-.155-.046-.352-.038l-.067.21-.09.277-.045.138a5.076 5.076 0 01-.345.81l.149-.006c1.061-.03 1.945.265 2.763.94.28.273.497.587.711.913l.159-.058c1.498-.506 3.023-.273 4.43.392.524.262.986.577 1.427.964l.157.127c.43.358.769.772 1.073 1.24v.137l.206-.068c1.376-.007 2.534.343 3.554 1.299.806.837 1.227 1.89 1.256 3.046-.02.82-.21 1.53-.765 2.151-.67.639-1.421.653-2.296.649l-.359.001H29.35l-1.703-.001a430.77 430.77 0 00-1.97 0c-.563.002-1.128.002-1.692.001H21.68c-.158 0-.317 0-.475-.002h-.268c-.222-.035-.222-.035-.387-.156-.117-.164-.143-.234-.143-.431l-.002-.167.002-.18v-.193c-.002-.21 0-.42 0-.63v-.438c0-.308.001-.615.003-.922.002-.392.001-.783 0-1.175a211.169 211.169 0 01.002-1.34c-.002-1.156.045-2.32.88-3.217.19-.186.19-.186.188-.38-.316-.664-.839-1.017-1.517-1.265-.838-.249-1.867.002-2.625.381l-.178.098-.184.1c-1.311.768-2.062 2.037-2.442 3.484-.081.36-.117.702-.122 1.072l-.002.141-.006.46-.004.32-.01.84-.011.857-.021 1.68c.056 0 .113 0 .172-.002l1.605-.015c.275-.002.55-.004.825-.008.266-.004.531-.006.797-.007l.303-.003c.142-.003.284-.003.426-.003l.245-.002c.207.04.207.04.372.199.108.184.108.184.104.431-.064.23-.089.296-.27.436-.212.02-.41.028-.622.027h-.196A362.243 362.243 0 0017 35.03c-.423.002-.846.001-1.269.001h-1.058c-.88.002-1.76.001-2.64 0-.764 0-1.528 0-2.292.002-.785.002-1.57.003-2.354.002l-1.321.001c-.414.002-.829.001-1.243 0h-.456c-.208.002-.416 0-.623 0-.06 0-.12 0-.182.002-.503-.006-.862-.145-1.224-.498-.366-.544-.383-1.014-.375-1.654v-.403c0-.144.002-.287.003-.43.002-.301.002-.601.002-.902 0-.853.001-1.707.006-2.56.003-.473.004-.945.003-1.418-.001-.297 0-.595.004-.893.002-.23 0-.46 0-.69 0-.081.003-.163.004-.247-.008-.623-.223-.948-.617-1.416-1.054-1.604-1.34-3.64-.963-5.502.295-1.287.903-2.406 1.784-3.385l.141-.159c1.294-1.37 3.149-2.121 5.015-2.195.303.005.42.011.68.175.132.235.166.343.11.607-.136.181-.248.317-.474.378a6.46 6.46 0 01-.474.036 6.439 6.439 0 00-4.401 2.224c-1.026 1.34-1.517 3.002-1.334 4.68.141.995.5 2.189 1.211 2.94.441.476.492.842.48 1.477l.002.276c.001.248 0 .496-.003.743-.002.26 0 .52 0 .78.001.492 0 .984-.003 1.476-.003.722-.003 1.445-.003 2.167v.478a161.272 161.272 0 01-.003 1.504c0 .132-.002.263-.003.395v.441c.004.187.004.187.152.375.245.1.51.077.77.076H4.2a158.922 158.922 0 00.827-.001l.892-.002.91-.001 1.784-.003-.12-.16-.153-.208-.154-.207c-.12-.178-.12-.178-.12-.314l-.259.005c-.32.006-.639.01-.959.014-.138.001-.276.004-.414.007-1.508.031-1.508.031-1.99-.368-.155-.158-.155-.158-.244-.312l-.094-.154c-.122-.25-.15-.47-.148-.747v-.197a3959.731 3959.731 0 01.005-.68v-.25c.003-.482.002-.964.002-1.446 0-.51 0-1.02.003-1.53.004-.448.003-.897.002-1.346 0-.171 0-.342.002-.512.058-1.046.058-1.046-.377-1.944a9.6 9.6 0 00-.314-.247c-.882-1.15-1.102-2.627-.927-4.033a5.471 5.471 0 011.132-2.53l.136-.171A5.078 5.078 0 017 14.818c.418-.024.837-.02 1.256-.018h.402c.28 0 .558 0 .838.002.355.002.71.002 1.065.001a176.074 176.074 0 011.221.001c1.66-.002 3.121.384 4.348 1.56 1.026 1.082 1.488 2.451 1.471 3.924-.043 1.32-.499 2.521-1.399 3.501l-.118.1c-.122.148-.102.26-.087.447l.126-.077.173-.107.19-.116c.179-.101.354-.172.545-.247.644-.315.928-1.214 1.156-1.848.505-1.556.328-3.32-.405-4.776-.839-1.566-2.157-2.55-3.826-3.097a6.861 6.861 0 00-1.746-.207l-.436-.004a96.08 96.08 0 00-.68 0c-.22 0-.44-.002-.661-.005l-.205.002c-.32-.004-.471-.009-.733-.206-.129-.181-.129-.181-.171-.386.06-.286.15-.37.384-.547.24-.05.474-.046.718-.043h.214c.15 0 .3 0 .45.002.225.003.449.002.674 0 2.035.002 3.824.49 5.384 1.829.152.135.152.135.353.263l.023-.196c.048-.333.136-.653.223-.978l.055-.207.181-.678.128-.48a882.3 882.3 0 01.607-2.277 1113.338 1113.338 0 011.3-4.842c.298-1.115.656-2.125 1.448-2.989l.111-.14C22.398.962 23.843.193 25.134.016c1.343-.133 2.648-.046 3.851.6zm-8.271 6.29l-.2.687-.058.196-.056.191-.05.175c-.055.22-.085.44-.115.665a9845.046 9845.046 0 002.133.582l.778.212.245.067.228.062.2.055c.455.122.86.222 1.296-.004.323-.277.423-.465.457-.89-.007-.233-.077-.373-.21-.563a1.569 1.569 0 00-.727-.398l-.232-.063-.25-.064a777.861 777.861 0 01-.816-.217c-.316-.082-.631-.166-.947-.25a242.98 242.98 0 00-1.676-.443zm-1.504 5.673c-.133.38-.251.762-.359 1.15l-.073.262a.81.81 0 00.022.502c.524.145 1.048.29 1.572.432l.73.2c.236.065.471.13.707.193l.397.11c.47.125.833.192 1.31.09.268-.169.42-.45.518-.747.048-.258.003-.453-.086-.697-.32-.455-.91-.534-1.415-.667l-.268-.072-.56-.15a145.546 145.546 0 01-1.27-.34 251.78 251.78 0 01-.633-.17l-.212-.056c-.178-.047-.178-.047-.38-.04zm-14.629 4.58c-.785.988-1.302 2.202-1.162 3.487.182 1.024.541 1.816 1.272 2.564.231.24.317.375.317.704l.002.206-.001.225v.237l.001.51a632.094 632.094 0 01.007 3.104c0 .468.002.936.005 1.404v.535c0 .25.001.499.003.748l-.002.225c-.001.386-.001.386.158.726a.66.66 0 00.428.122h.162l.172-.004.178-.001c.188-.002.375-.005.562-.009l.382-.004c.311-.003.623-.007.934-.013l.025-.208.034-.276.016-.136c.097-.762.412-1.38.882-1.978l.128-.171c.806-.939 2.453-1.561 3.649-1.728.657-.08.657-.08 1.202-.417.21-.3.353-.623.49-.962.068-.14.068-.14.255-.324.32-.355.186-.988.174-1.431 0-.71 0-.71.274-1.023a7.96 7.96 0 01.254-.233c.782-.871 1.138-1.873 1.115-3.04-.1-1.139-.57-2.237-1.389-3.044-.82-.682-1.697-1.033-2.763-1.037l-.171-.002a172.718 172.718 0 00-.752-.003l-1.017-.003a180.97 180.97 0 01-1.042-.006l-.808-.003c-.128 0-.256 0-.384-.002-1.348-.013-2.632.209-3.59 1.261zm14.902 1.504l.137 2.051.7.2.22.064.175.05c.059.017.117.034.178.05.429.12.796.206 1.21.003.251-.222.363-.4.412-.736.018-.302-.003-.48-.148-.75-.45-.45-1.304-.553-1.897-.71l-.243-.065c-.367-.11-.367-.11-.744-.157zm2.854 8.006c-.57.61-.826 1.254-.818 2.084v.172a252.008 252.008 0 01.003.947l.003 1.02c.002.408.002.817.003 1.225.001.62.004 1.24.006 1.859h5.4c.012-1.108.012-1.108.021-2.215.014-1.157.084-2.124.943-2.987a2.6 2.6 0 01.677-.472c-.1-.591-.748-1.026-1.203-1.353-1.456-.971-3.603-1.618-5.035-.28zM10.05 29.737l-.146.14c-.528.548-.865 1.256-.884 2.023.03.638.247 1.121.714 1.558.553.454 1.107.529 1.813.523h.15l.468-.002h.32l.778-.004.002-.182a1937.098 1937.098 0 01.046-3.749c.007-.584.022-1.162.088-1.743-1.003 0-2.644.737-3.35 1.436zm18.525-.137c-.465.577-.567 1.07-.56 1.798v.224l.005.704.002.478.006 1.17a362.627 362.627 0 002.416.016 107.552 107.552 0 001.021.006c.911.016.911.016 1.72-.354l.107-.137.111-.136c.337-.523.3-1.162.184-1.754-.265-.93-.776-1.694-1.628-2.177-1.074-.544-2.45-.764-3.384.162z" fill="#C18539"/></g><defs><clipPath id="clip0_6665_36128"><path fill="#fff" d="M0 0h35v35H0z"/></clipPath></defs></svg>