<svg width="24" height="24" fill="none" xmlns="http://www.w3.org/2000/svg"><path d="M10.5 7.25a.5.5 0 000 1h3a.5.5 0 000-1h-3zm-1 5.5a1 1 0 11-2 0 1 1 0 012 0zm0 3.5a1 1 0 11-2 0 1 1 0 012 0zm2.5-2.5a1 1 0 100-2 1 1 0 000 2zm1 2.5a1 1 0 11-2 0 1 1 0 012 0zm2.5-2.5a1 1 0 100-2 1 1 0 000 2z" fill="#000"/><path fill-rule="evenodd" clip-rule="evenodd" d="M8 3.5a.5.5 0 01.5.5v1h7V4a.5.5 0 011 0v1.003c.245.002.463.01.654.026.365.03.685.093.981.243a2.5 2.5 0 011.092 1.093c.151.296.214.616.244.98.029.355.029.792.029 1.334v7.642c0 .542 0 .98-.029 1.333-.03.365-.093.685-.244.981a2.5 2.5 0 01-1.092 1.092c-.296.151-.616.214-.98.244-.355.029-.792.029-1.333.029H8.179c-.542 0-.98 0-1.333-.029-.365-.03-.685-.093-.981-.244a2.5 2.5 0 01-1.093-1.092c-.15-.296-.213-.616-.243-.98C4.5 17.3 4.5 16.862 4.5 16.32V8.68c0-.475 0-.868.02-1.197l.009-.136c.03-.365.093-.685.243-.981a2.5 2.5 0 011.093-1.093c.296-.15.616-.213.98-.243a9.3 9.3 0 01.655-.026V4a.5.5 0 01.5-.5zm-.5 3v-.497c-.191.002-.382.01-.573.023-.302.024-.476.07-.608.137a1.5 1.5 0 00-.656.656c-.067.132-.113.306-.137.608C5.5 7.736 5.5 8.132 5.5 8.7v.55h13V8.7c0-.568 0-.964-.026-1.273-.024-.302-.07-.476-.137-.608a1.5 1.5 0 00-.656-.656c-.132-.067-.306-.113-.608-.137a9.002 9.002 0 00-.573-.023V6.5a.5.5 0 01-1 0V6h-7v.5a.5.5 0 11-1 0zm11 3.75h-13v6.05c0 .568 0 .965.026 1.273.024.302.07.476.137.608a1.5 1.5 0 00.656.656c.132.067.306.113.608.137C7.236 19 7.632 19 8.2 19h7.6c.568 0 .965 0 1.273-.026.302-.024.476-.07.608-.137a1.5 1.5 0 00.656-.656c.067-.132.113-.306.137-.608.026-.308.026-.705.026-1.273v-6.05z" fill="#000"/></svg>