<svg width="43" height="43" fill="none" xmlns="http://www.w3.org/2000/svg"><path d="M12.967 31.087c.215.758 1.014 1.39 1.636 1.813a7.02 7.02 0 002.407 1.02c.838.188 1.695.288 2.553.317.836.029 1.688-.013 2.469-.34a4.23 4.23 0 001.05-.637c.097.066.215.113.326.162.314.137.636.259.964.357a9.03 9.03 0 001.94.345 8.281 8.281 0 003.918-.671c.248-.11.459-.25.633-.417a8.507 8.507 0 001.896-1.004c.02.004.042-.004.048-.03l.001-.005c.876-.63 1.618-1.44 2.1-2.412.371-.745.666-1.682.506-2.52-.165-.865-.947-1.472-1.762-1.69-.491-.132-1.009-.12-1.508-.05-.506.073-1.057.184-1.528.396a4.995 4.995 0 00-.283-.42c-1.042-1.387-2.698-1.833-4.368-1.758a.256.256 0 00-.07.013 7.341 7.341 0 00-.39-1.147c-.313-.715-.767-1.471-1.393-1.969l.007-.153c.073-.475.069-.948.01-1.42v-.072a.037.037 0 00-.012-.027 8.976 8.976 0 00-.334-1.428 14.249 14.249 0 00-.77-1.948c-.08-.168-.207-.353-.252-.535-.02-.082-.006-.169-.026-.25a.363.363 0 00-.128-.205c.25-1.62-.049-3.335-1.442-4.292.075-.13.147-.262.213-.396.09-.122.174-.247.256-.374.027-.043-.014-.081-.053-.078.09-.226.166-.457.224-.694.114-.465.115-.907.146-1.38.02-.311.058-.512-.08-.749.187-.468.266-.982.304-1.483.11-1.442-.012-3.492-1.842-3.695-1.455-.161-2.75.805-3.622 1.874-.443.543-.941 1.118-1.269 1.742-.198.377-.313.839-.177 1.23-1.523.234-3.052.945-3.803 2.35-.346.647-.492 1.398-.36 2.123.047.258.133.508.246.748a.207.207 0 00-.04.197l.018.059c-.678.719-1.174 1.646-1.555 2.548-.404.96-.69 1.97-.82 3.005-.13 1.04-.154 2.143.051 3.175.043.216.108.418.199.604-1.216 1.626-1.108 3.969-.598 5.834.565 2.066 1.937 4.483 4.364 4.337zm12.697-6.5c.166 1.541-.138 3.092-.637 4.547-.344 1.002-.772 2.062-1.434 2.919.526-.802.904-1.727 1.198-2.596.64-1.899.843-3.98.573-5.966a8.383 8.383 0 00-.112-.645c.211.559.348 1.148.412 1.74zm-3.168.73c-.647 1.049-1.536 1.92-2.448 2.74-.87.782-1.77 1.666-2.89 2.075-.43.157-.88.24-1.333.306.27-.099.533-.206.788-.322 1.208-.548 2.206-1.443 3.076-2.43.88-.997 1.68-2.071 2.402-3.187.626-.968 1.265-1.988 1.698-3.067-.207 1.368-.569 2.71-1.293 3.884zm-3.028 8.447c1.755-1.006 3.218-2.651 3.862-4.583.013-.039-.05-.066-.068-.027-.86 1.856-2.113 3.418-3.856 4.515-.037.023-.031.068-.007.091a12.114 12.114 0 01-1.614-.215l-.09-.019c.702-.239 1.386-.577 1.915-1.08.048-.045-.013-.12-.069-.09-.724.39-1.403.801-2.157 1.1a7.913 7.913 0 01-1.735-.634c.93.005 1.885-.22 2.615-.81.057-.046-.016-.124-.074-.096-.91.425-1.813.76-2.82.755l-.051-.03a5.76 5.76 0 01-1.116-.842 4.564 4.564 0 01-.353-.4c1.487.044 2.982-.146 4.349-.776.056-.026.017-.114-.04-.098-1.43.39-2.883.732-4.372.797l-.148-.18 1.636-.235c.586-.083 1.184-.15 1.749-.337 1.113-.366 1.991-1.184 2.85-1.947.953-.848 1.898-1.725 2.627-2.78a8.242 8.242 0 00.944-1.84c-.08.553-.198 1.1-.355 1.638-.22.755-.54 1.46-.847 2.181-.023.055.05.101.083.047.78-1.298 1.156-2.893 1.297-4.394a11.014 11.014 0 00.449-2.411l.041.053c.054.86.071 1.72.033 2.58-.044.995-.186 1.971-.316 2.958-.01.074.099.108.117.03.408-1.727.467-3.597.31-5.373a4.203 4.203 0 01.468 1.005c.04.124.074.25.105.376.123.718.125 1.436.071 2.18-.003.038.061.047.069.008.043-.233.068-.47.077-.709.082 1.16.007 2.326-.229 3.464a13.223 13.223 0 01-1.155 3.33c-.608 1.195-1.406 2.182-2.718 2.608a.246.246 0 00-.156.14 6.94 6.94 0 01-1.32.05zm11.743-7.716c.344.512.586 1.059.85 1.622.025.053.105.016.092-.038-.138-.586-.46-1.132-.832-1.612l.058-.015c.112.102.221.206.319.322.143.169.243.365.379.538.043.055.119-.006.108-.062-.064-.325-.307-.64-.59-.853.187-.047.374-.09.565-.118a3.85 3.85 0 01.284-.031c.106.292.213.585.33.873.007.015.033.004.027-.011a22.337 22.337 0 00-.312-.866 3.74 3.74 0 01.317-.009c.264.388.448.8.627 1.242.014.035.065.023.057-.015-.094-.446-.313-.858-.585-1.225.26.012.518.054.766.139.28.096.555.25.776.455.07.224.116.456.139.694.001.02.032.02.031 0a2.717 2.717 0 00-.08-.604c.127.137.232.295.3.472.183.474.074 1.033-.055 1.506a5.222 5.222 0 01-1.128 2.063 3.263 3.263 0 00-.172-.937c-.008-.025-.046-.015-.04.01.08.335.123.682.123 1.027a6.495 6.495 0 01-.622.598 5.545 5.545 0 00-.008-1.379c-.004-.03-.053-.023-.053.007.004.493-.012.985-.064 1.474-.236.19-.485.363-.744.522.267-.657.363-1.443.067-2.064-.02-.043-.094-.023-.09.025.03.428.11.827.055 1.259a3.399 3.399 0 01-.247.908 7.725 7.725 0 01-.494.257 2.29 2.29 0 00.081-.324c.129-.727.11-1.503.1-2.24-.01-.736-.075-1.486-.244-2.205.36.703.567 1.45.66 2.24.001.011.019.012.018 0a5.863 5.863 0 00-.698-2.322 6.24 6.24 0 00-.444-1.242c.125-.022.25-.05.373-.081zm-4.892-2.036c.242.739.41 1.494.565 2.257.006.028.054.023.05-.006-.085-.773-.295-1.52-.565-2.248l.137.01c.442.746.675 1.54.82 2.398.006.03.055.023.053-.007-.047-.845-.369-1.672-.82-2.386.35.03.699.076 1.037.152a8.92 8.92 0 01.617 2.028c.004.025.047.02.044-.006a6.259 6.259 0 00-.603-2.01c.162.039.32.083.477.136.42.818.693 1.653.92 2.553.01.038.074.032.07-.01-.073-.866-.402-1.745-.86-2.496.26.098.51.22.746.375.657.911.956 1.917 1.069 3.042.004.041.063.043.065 0 .05-.884-.233-1.791-.703-2.557.754 1.005 1.109 2.324 1.202 3.544a13.29 13.29 0 01-.018 2.305c-.086.868-.393 1.726-1.264 2.065a.25.25 0 00-.138.125 11.65 11.65 0 01-.773.181c.238-.308.269-.772.339-1.142.12-.634.237-1.265.31-1.907.005-.04-.06-.047-.07-.009-.135.508-.242 1.02-.339 1.536-.084.45-.093 1.247-.48 1.564a7.939 7.939 0 01-1.153.1c.16-1.25.347-2.499.453-3.753.002-.031-.05-.039-.055-.007-.206 1.246-.333 2.507-.486 3.76h-.021a7.556 7.556 0 01-3.027-.619 3.997 3.997 0 001.467-2.055c.013-.046-.055-.061-.071-.018a4.56 4.56 0 01-1.525 2.015l-.126-.057-.103-.052c.73-.778 1.239-1.784 1.625-2.774.481-1.235.84-2.55.928-3.88.061.78.085 1.562.09 2.352 0 .016.024.016.025 0a16.62 16.62 0 00-.1-2.63 9.05 9.05 0 00-.01-.887 7.905 7.905 0 00-.125-1c.109.004.217.01.326.018zM11.761 9.242c.012-.037.024-.073.038-.109.356-.926 1.059-1.515 1.89-1.897.048.853.356 1.746.828 2.44.037.055.113.01.087-.05-.192-.447-.387-.896-.528-1.363-.108-.357-.176-.723-.247-1.089a6.75 6.75 0 01.995-.328c-.044.882.467 1.91 1.108 2.452.043.036.122-.012.085-.065-.272-.39-.534-.787-.715-1.23-.162-.395-.212-.794-.295-1.201.187-.043.375-.08.562-.111.069.495.38.943.689 1.348.527.692 1.173 1.204 2.07 1.25.802.04 1.563-.291 2.17-.8.347-.293.643-.645.897-1.021.09-.134.177-.27.218-.41 0 .738-.345 1.397-.899 1.9-.022.02.008.061.034.043a2.1 2.1 0 00.817-1.139 3.54 3.54 0 01-.121.611 5.312 5.312 0 01-.225.605c-.11.19-.223.38-.336.573-.012.022.006.045.026.048a9.636 9.636 0 01-.425.678c-.834 1.225-1.945 2.502-3.365 3.04-1.323.5-2.763.181-3.875-.655-.677-.51-1.26-1.207-1.497-1.991a4.943 4.943 0 01.014-1.53zm4.251-2.172c.358.315.774.575 1.183.756.721.318 1.458.344 2.23.24.455-.061.907-.157 1.306-.354-.188.224-.398.43-.629.607-.522.401-1.162.642-1.826.598-.727-.048-1.25-.475-1.693-1.02a4.905 4.905 0 01-.57-.827zm-3.453 5.818c1.09.96 2.587 1.487 4.032 1.186 1.688-.352 2.97-1.697 3.955-3.029l.115-.158c-.572 1.776-2.234 3.027-4.073 3.35-1.49.262-3.06-.252-4.03-1.35zm8.688-10.553c.035.242.073.483.078.729.01.439-.02.878-.098 1.31-.005.029.036.04.044.012.144-.491.243-1.079.207-1.636.132.333.176.698.186 1.062a16.667 16.667 0 01-.427 1.794c-.007.024.028.032.036.01.177-.456.302-.926.391-1.403a26.91 26.91 0 01-.005.226c-.014.518-.049 1.063-.206 1.565a7.38 7.38 0 00-.085.235 2.742 2.742 0 01-.057.131c-.313.66-.864.98-1.562 1.123-.755.154-1.536.21-2.27-.07a3.524 3.524 0 01-.883-.512 2.396 2.396 0 01-.407-1.016l.019.041c.024.046.09.007.069-.039a1.97 1.97 0 01-.123-.37l-.002-.065a.03.03 0 00-.018-.027 2.138 2.138 0 01-.017-.629c.218-.334.476-.642.715-.96.056-.074.113-.148.172-.221a3.238 3.238 0 00-.159 1.014c0 .029.042.028.044 0 .034-.513.175-.954.395-1.352.412-.472.885-.905 1.434-1.188-.662 1.116-.784 2.577-.595 3.832.005.035.064.027.062-.008a9.64 9.64 0 01.118-1.993c.04-.248.098-.489.164-.727.3-.47.658-.97 1.186-1.198.47-.204 1.042-.157 1.407.223.014.015.035-.007.023-.022-.33-.386-.844-.481-1.32-.338-.565.17-.946.632-1.236 1.123.089-.298.187-.594.276-.896a.032.032 0 00-.009-.034c.247-.12.509-.208.787-.257.638-.11 1.274.018 1.666.531zM15.965 5.06c.012.19.05.378.111.562-.023.388.072.757.261 1.081a25.806 25.806 0 01-.313-.265c.028-.14-.03-.304-.158-.365-.15-.35-.101-.648.099-1.013zM9.488 19.299c1.125.945 2.828 1.454 4.217.912.032-.012.02-.063-.013-.052-.71.25-1.476.236-2.196.03-.759-.218-1.357-.653-2.018-1.046a12.2 12.2 0 01.033-1.512c.015-.203.037-.406.062-.608.139.221.296.435.473.619.043.045.102-.012.081-.062a4.124 4.124 0 00-.51-.864c.02-.135.043-.27.069-.404.294.621.761 1.146 1.4 1.442.05.023.088-.043.042-.074-.59-.398-1.09-.889-1.413-1.515.05-.247.108-.491.175-.734.553.83 1.73 1.25 2.664 1.334.022.002.027-.036.005-.04a4.148 4.148 0 01-1.5-.526c-.439-.253-.757-.6-1.127-.925a9.58 9.58 0 01.697-1.785c.049.199.17.383.27.561.105.187.22.365.363.525.033.037.1-.001.084-.049a2.906 2.906 0 00-.27-.576c-.107-.18-.208-.383-.362-.526a.046.046 0 00-.045-.014c.147-.288.306-.57.468-.852.356.68.79 1.293 1.33 1.846.035.037.085-.017.054-.054a14.355 14.355 0 01-1.318-1.904l.267-.454c.604 1.456 2.038 2.493 3.6 2.701 1.741.233 3.538-.493 4.76-1.729.606-.612 1.151-1.43 1.184-2.313.058.046.114.093.166.143-.283 1.43-.81 2.733-1.482 4.026-.024.047.042.083.071.04.8-1.176 1.275-2.6 1.473-4.005.04.04.079.083.116.126.063.154.106.318.136.486-.232.96-.55 1.88-.912 2.802-.01.025.032.042.044.018.419-.86.703-1.794.883-2.734.038.24.056.485.076.716.035.386.042.77 0 1.15a5.489 5.489 0 01-.758 1.707c-.01.015.014.033.025.019.29-.373.503-.792.65-1.234a3.574 3.574 0 01-.078.278c-.2.615-.528 1.194-.857 1.747-.348.588-.74 1.148-1.2 1.654-1.613 1.777-3.929 2.87-6.306 3.117a7.492 7.492 0 01-.971.047.06.06 0 00-.052-.037c-.73-.06-1.399-.32-2.001-.715a4.734 4.734 0 01-.535-.54 5.737 5.737 0 01-.014-.163zm.201 1.133l-.012-.04c.737.602 1.736.878 2.681.85a10.634 10.634 0 003.908-.904 9.935 9.935 0 003.293-2.314c.5-.537.926-1.138 1.299-1.769.367-.621.726-1.275.942-1.967.236-.756.214-1.535.117-2.312.144.412.217.851.234 1.276.037.941-.18 1.886-.562 2.743-.8 1.79-2.232 3.322-3.833 4.43-1.639 1.136-3.634 1.827-5.638 1.46-.864-.158-2.137-.519-2.429-1.453zm-.328 6.829a8.815 8.815 0 01-.424-1.842c1.115.805 2.658.763 3.974.723.038 0 .038-.06 0-.06-1.403.04-2.79.016-3.986-.754a8.38 8.38 0 01-.029-1.454c.78.958 2.308 1.27 3.445.984.05-.012.03-.089-.02-.076a3.462 3.462 0 01-1.934-.074c-.602-.2-1.034-.552-1.48-.967.052-.51.168-1 .326-1.48.539.784 1.308 1.407 2.23 1.685.042.013.072-.056.03-.075-.893-.389-1.662-.952-2.217-1.737.083-.24.176-.478.277-.714.075.077.158.149.25.215.416.303.937.506 1.428.656 2.103.64 4.379.1 6.223-1.01 1.843-1.108 3.529-2.77 4.478-4.716.213-.437.395-.927.527-1.442a2 2 0 00.072.167c-.023.75-.07 1.49-.236 2.226-.174.764-.456 1.494-.784 2.204-.024.052.05.097.08.045.727-1.25 1.124-2.828 1.034-4.29.039.074.078.148.111.221.219.477.408.967.573 1.465-.355 1.44-.83 2.834-1.36 4.221-.008.022.029.037.038.016.587-1.326 1.02-2.726 1.355-4.138l.02.059c.302.952.536 1.942.361 2.932a.15.15 0 00-.042.207l-.02.088c-.287 1.09-.925 2.097-1.515 3.046a28.696 28.696 0 01-2.14 2.996c-.754.922-1.569 1.828-2.562 2.5-.965.65-2.063.992-3.19 1.24-1.082.236-2.092.375-3.057-.29-.614-.423-1.058-1.04-1.393-1.709.663.334 1.467.39 2.187.28.054-.009.031-.09-.022-.083-.802.104-1.512-.072-2.242-.356a9.21 9.21 0 01-.366-.91z" fill="#fff"/><path d="M33.003 28.715c.024-.597-.16-1.187-.444-1.708-.017-.03-.063-.004-.047.027.283.534.398 1.083.441 1.681.003.032.049.033.05 0zm-3.365-.411c-.045-.516-.126-1.03-.193-1.543-.004-.03-.05-.018-.046.012.067.511.12 1.027.208 1.535.003.018.033.014.031-.004zM28.09 27.18c-.109-.997-.414-1.966-.812-2.884-.014-.032-.062-.005-.048.028.384.925.623 1.88.814 2.862.005.026.05.02.047-.006zm1.618 2.617a7.027 7.027 0 01-.371 2.864c-.025.07.086.098.11.03a6.08 6.08 0 00.296-2.899c-.003-.02-.037-.015-.035.005zm-3.745 1.265c-.105.699-.284 1.374-.619 2-.038.073.07.135.11.064.355-.636.58-1.323.582-2.055 0-.04-.066-.051-.073-.01zm.984-.974c-.181.69-.352 1.381-.583 2.057-.014.043.052.06.067.018.246-.67.46-1.354.57-2.061.005-.035-.045-.05-.055-.014zm1.156.319c.02.732-.086 1.428-.194 2.149-.004.028.036.04.044.011.197-.69.222-1.448.194-2.16-.001-.028-.044-.028-.044 0zm2.033.808c-.107.603-.303 1.167-.513 1.74-.01.028.034.045.048.02.288-.54.446-1.138.549-1.738.01-.054-.075-.077-.084-.022zm-6.59-3.147c.567-.992.95-2.08 1.233-3.185.013-.052-.067-.073-.08-.02-.296 1.1-.728 2.143-1.204 3.177-.015.033.032.06.05.028zm-2.81 5.4c1.033-.813 1.899-1.832 2.605-2.937.007-.01-.01-.02-.017-.01-.721 1.113-1.604 2.066-2.6 2.934-.01.008.003.02.012.013zm1.16-10.322c.874-1.19 1.423-2.61 1.716-4.05.005-.022-.029-.031-.034-.009-.346 1.447-.965 2.763-1.732 4.03-.02.033.029.058.05.029zm-.708-2.64c.806-.954 1.307-2.13 1.523-3.354.004-.027-.037-.039-.043-.011-.255 1.224-.787 2.328-1.51 3.342-.012.017.016.039.03.023zm-1.758 3.05c.82-.68 1.518-1.515 2.152-2.365.026-.035-.033-.067-.058-.033-.645.853-1.38 1.602-2.127 2.364-.022.022.01.053.034.034zm.17.803c.664-.417 1.276-.923 1.897-1.4.039-.029-.013-.097-.052-.068-.635.458-1.295.899-1.885 1.415-.029.025.008.073.04.053zm-.013-3.822a13.448 13.448 0 001.65-1.948c.021-.031-.03-.06-.053-.03a20.326 20.326 0 01-1.627 1.949c-.018.02.01.048.03.03zm-5.258 4.845c-1.093.293-2.196.331-3.317.203-.017-.002-.021.028-.004.031 1.107.205 2.252.109 3.331-.194.026-.007.015-.047-.01-.04zm-.243-1.247c.021-.002.021-.035 0-.034-1.01.078-2.011.057-3.022.023-.02 0-.019.028 0 .03 1.001.102 2.02.068 3.022-.019zm-.716-.668c-1.177-.068-2.315-.333-3.425-.724-.031-.01-.053.042-.022.055 1.094.462 2.263.695 3.447.759.058.003.058-.086 0-.09zm2.2 4.123c.04-.014.025-.079-.017-.065-.834.288-1.7.456-2.582.494-.893.039-1.741-.096-2.617-.248-.054-.01-.074.065-.022.082 1.663.542 3.621.326 5.239-.263zm.396 1.167c-1.342.526-2.678.99-4.127.973a5.216 5.216 0 01-.738-.258c-.062-.027-.116.063-.053.093 1.287.616 2.862.74 4.178.133.051-.024.016-.108-.037-.091-.974.293-1.971.391-2.944.213 1.292-.002 2.567-.533 3.742-1.012.029-.011.009-.062-.02-.05zm-2.942-1.847c.072-.015.043-.126-.03-.11-1.09.227-2.167.156-3.254-.053-.039-.007-.053.047-.016.06 1.06.363 2.214.345 3.3.104zm5.181-12.045c.606-.284 1.105-.745 1.524-1.259.049-.06-.034-.145-.085-.085-.434.502-.943.883-1.49 1.253-.057.038-.01.12.051.091zM18.2 17.01c.255-.156.507-.316.76-.475.015-.01.002-.033-.014-.024-.251.161-.504.321-.753.485-.009.006-.001.02.008.014zm-1.443 1.936c.588-.26 1.168-.533 1.75-.803.026-.012.004-.05-.02-.038-.583.27-1.166.537-1.742.818-.015.008-.003.03.012.023zm-2.912-3.591c-1.063-.367-1.903-1.005-2.69-1.792-.023-.023-.053.01-.034.033.678.864 1.684 1.452 2.716 1.79.02.006.027-.024.008-.03zm-.84.941c-.984-.507-2.094-1.041-2.591-2.094-.019-.039-.086-.012-.071.03.424 1.16 1.544 1.719 2.627 2.148.048.02.08-.06.034-.084zm1.852 1.364c.027-.001.027-.042 0-.042-1.748.038-3.461-.057-4.795-1.325-.029-.028-.065.012-.042.042 1.107 1.433 3.211 1.397 4.837 1.325zm-.569 1.222c-.795.2-1.619.345-2.44.272-.89-.08-1.634-.427-2.292-1.023-.026-.023-.059.012-.037.038 1.132 1.402 3.249 1.154 4.776.742.019-.005.011-.034-.007-.03zm.074-8.212c.648.57 1.542.842 2.39.894.023.001.023-.034 0-.036-.885-.08-1.62-.426-2.36-.896-.024-.015-.051.02-.03.039zm.344 1.694c-1.454-.31-2.375-1.586-2.523-3.012-.004-.043-.065-.044-.067 0-.086 1.48 1.177 2.8 2.578 3.056.029.006.04-.037.012-.044zm-1.03-2.244c-.677-.655-.765-1.468-.667-2.357.006-.049-.072-.068-.092-.024-.389.834.02 1.894.655 2.486.069.064.172-.038.104-.104zm3.253.169c-.626-.15-1.116-.482-1.577-.92-.037-.035-.105.01-.074.056.382.544.969.875 1.607 1.029.107.026.15-.14.044-.165zm-2.223-2.198c-.139-.27-.266-.554-.44-.803-.028-.04-.104-.019-.086.035.099.293.255.568.392.844.044.09.18.013.134-.076zm2.075.973a4.755 4.755 0 01-.736-.794c-.017-.022-.053-.004-.038.021.187.323.434.589.72.827.038.03.091-.023.054-.054zm3.209.621c.376-.27.68-.655.95-1.027.03-.042-.04-.081-.072-.04-.276.373-.604.677-.917 1.015-.024.026.008.075.04.052zm-.768 1.48c.336-.168.663-.348.99-.533.076-.043.008-.163-.066-.118-.321.197-.637.397-.947.61-.025.017-.005.055.023.041zm-.394-7.163c-.468.484-.573 1.282-.117 1.808.017.019.046-.005.035-.026-.294-.555-.295-1.245.13-1.734.027-.032-.018-.08-.049-.048zm-.892 2.576c-.011-.012-.028.006-.018.019.37.435.94.623 1.498.545.01 0 .007-.016-.002-.015-.57.07-1.082-.14-1.478-.549zM16.67 4.722c-.261.985-.002 2.536 1.273 2.586.048.002.046-.07 0-.073-.576-.047-.99-.507-1.151-1.038-.146-.478-.068-.978-.06-1.467 0-.035-.052-.041-.061-.008zm.445.376a5.38 5.38 0 01.159-.848 3.095 3.095 0 00.307 1.949c.034.065.129.01.098-.056-.43-.919-.364-1.947.041-2.862a.03.03 0 00.001-.025c.166-.242.372-.462.628-.65.03-.022.003-.071-.028-.05-.831.541-1.483 1.527-1.306 2.555.01.061.094.04.1-.013z" fill="#fff"/></svg>