<svg width="35" height="35" fill="none" xmlns="http://www.w3.org/2000/svg"><path d="M2.444 9.011l.19-.001H3.8l.527-.002h1.435l1.197-.001h2.987c.864 0 1.727-.001 2.591-.003a1305.36 1305.36 0 014.157-.003 326.162 326.162 0 011.921 0h.705L19.525 9c.521.005 1.039.08 1.453.417l.126.16.13.16c.248.358.288.598.287 1.04v1.154l-.003 1.113v1.163l-.004 2.203-.004 2.976c-.001 1.563-.005 3.126-.007 4.69h-9.846l-.158-1.34a4.185 4.185 0 00-1.88-2.5c-.985-.524-2.056-.671-3.14-.365-1.046.365-1.884 1.008-2.383 2.009-.357.777-.404 1.298-.473 2.195H0C0 22.5 0 22.5.262 22.154c.132-.127.132-.127.373-.264.181-.153.227-.236.275-.472.016-.288.016-.572.012-.86l.001-.333c.001-.238 0-.476-.002-.714-.003-.377-.002-.755-.001-1.132.001-.732-.001-1.465-.004-2.198-.003-.931-.004-1.863-.002-2.795 0-.374-.001-.749-.003-1.123a54.471 54.471 0 01-.001-.7c0-.16-.002-.319-.004-.478.003-.639.06-1.089.495-1.583l.135-.106.135-.11c.257-.177.459-.274.773-.275zm20.001 1.833c4.683 0 4.683 0 5.207.46l.12.15.136.166c.205.267.403.538.597.814.39.548.792 1.086 1.201 1.62a43.34 43.34 0 011.174 1.588c.258.369.387.49.83.582.444.106.769.254 1.132.527l.246.172c.385.333.65.806.768 1.295l.01.187-.141.018c-.322.054-.58.102-.809.346-.2.35-.21.499-.153.896.142.222.238.355.473.473.134.018.269.032.404.044l.217.02.167.015v.299l.01.39-.001.197c.006.188.017.35.07.531.219.192.219.192.472.316.581.597.394 1.308.394 2.126h-3.15l-.08-1.181c-.268-1.097-.858-1.98-1.811-2.6-.919-.55-1.936-.699-2.991-.509-.191.054-.37.118-.553.194l-.16.064a4.044 4.044 0 00-2.08 2.176c-.159.43-.22.827-.246 1.285l-.035.571h-1.418V10.844z" fill="#C18539"/><path d="M9.395 21.113c.67.461 1.087 1.143 1.295 1.923l.02.251.017.204a3.254 3.254 0 01-.743 2.256c-.702.696-1.5.989-2.474 1.036-.83-.01-1.572-.398-2.156-.975a4.278 4.278 0 01-.473-.709l-.099-.176c-.342-.71-.334-1.596-.093-2.34a3.49 3.49 0 011.851-1.85c1.01-.326 1.958-.16 2.855.38zm19.846-.253c.767.479 1.31 1.076 1.603 1.938.157.884.078 1.782-.39 2.555a4.584 4.584 0 01-.367.454l-.114.127c-.56.546-1.342.845-2.116.863a3.39 3.39 0 01-2.368-1.093c-.683-.817-.747-1.707-.679-2.732.136-.837.752-1.487 1.418-1.97.871-.517 2.096-.624 3.013-.142z" fill="#C18539"/><path d="M11.108 10.371c.278.042.278.042.394.158.005.185.006.37.005.556a1496.082 1496.082 0 00-.005.546l.247-.158.324-.201.162-.104.159-.098.145-.091c.182-.071.278-.04.46.022l.078.394a65.574 65.574 0 01-.546.392c-.242.16-.242.16-.424.23-.211.089-.36.165-.527.323-.1.337-.092.66-.083 1.01l-.002.279c-.001.227.001.453.007.68l.142-.086c.211-.13.423-.258.635-.386l.224-.137.214-.13c.065-.039.13-.078.197-.12.163-.086.163-.086.32-.086l-.002-.164-.007-.732a159.67 159.67 0 01-.008-.731c.017-.184.017-.184.175-.342.359.044.359.044.473.158a19.734 19.734 0 01.054.866l.024.473.124-.087c.45-.299.45-.299.733-.342.167.035.167.035.325.192-.005.15-.005.15-.079.315-.248.209-.516.373-.788.552l1.103.63v.394l-.079.078c-.519-.029-.835-.225-1.254-.502-.275-.175-.275-.175-.59-.17l-.204.121-.314.17-.34.194-.177.1-.429.245c.3.251.61.46.945.66l.144.09c.22.13.352.207.607.152l.194-.114.25-.136.526-.3c.244-.114.379-.15.642-.116.079.079.079.079.107.265-.028.208-.028.208-.19.341l-.212.113c-.26.14-.497.28-.729.463l.17.09.22.121.218.12c.18.141.18.141.25.35l.009.185c-.079.079-.079.079-.276.108-.386-.041-.66-.22-.985-.423l.006.287.004.373.004.19c.002.163-.005.326-.014.489l-.157.157c-.359-.043-.359-.043-.473-.157a7.16 7.16 0 01-.007-.404v-.247c.002-.128.002-.128.002-.26l.002-.26c0-.214.002-.427.003-.64-.065-.02-.13-.038-.197-.057-.326-.12-.601-.283-.896-.465l-.56-.345v1.97l.393.157c.18.096.356.195.532.3l.14.079c.221.132.338.215.432.458-.001.186-.001.186-.159.344-.314-.026-.533-.145-.797-.31l-.203-.125c-.14-.09-.279-.181-.417-.274l.005.236.004.306.006.304c-.015.257-.015.257-.173.414-.278-.042-.278-.042-.394-.157a13.338 13.338 0 01-.044-.517l-.02-.286-.014-.221-.21.14-.278.18-.138.093c-.226.145-.357.22-.629.197l-.163-.059-.079-.393.527-.34.15-.097.146-.094.134-.086c.146-.092.146-.092.358-.194.2-.118.2-.118.226-.335l-.006-.236-.004-.256-.01-.268-.005-.27a36.35 36.35 0 00-.02-.66c-.563.233-1.16.487-1.575.945-.189.503-.139 1.046-.078 1.571 0 .162 0 .162-.158.32-.359-.044-.359-.044-.473-.158a18.68 18.68 0 01-.005-.674l.001-.193.004-.472-.14.086-.19.11-.185.112a.957.957 0 01-.587.086l-.158-.158c.005-.151.005-.151.079-.315.18-.134.18-.134.399-.256l.219-.124.17-.092c-.295-.233-.612-.401-.942-.576-.161-.133-.161-.133-.19-.34.029-.187.029-.187.108-.266.519.03.838.225 1.26.496.255.168.255.168.547.193a2.73 2.73 0 00.485-.239c.06-.035.12-.07.18-.107l.186-.112.19-.112.46-.276c-.3-.252-.61-.461-.946-.66l-.143-.09c-.218-.129-.352-.207-.604-.155l-.198.117-.268.156c-.145.087-.29.175-.434.265-.357.213-.357.213-.587.193-.128-.063-.128-.063-.207-.141v-.394l1.103-.63-.867-.63c.079-.316.079-.316.158-.394.318-.031.5.034.772.197l.19.11.14.087-.005-.288-.005-.372c0-.063-.002-.125-.004-.19a8.396 8.396 0 01.014-.49l.158-.157c.359.044.359.044.472.158.007.134.009.269.008.403v.247l-.003.26v.261l-.005.64.212.064c.244.088.44.188.66.325l.194.12.195.121c.13.08.262.158.393.236.088-.618.181-1.282 0-1.89-.29-.355-.687-.523-1.1-.705-.306-.136-.306-.136-.411-.37.015-.185.015-.185.172-.343.363.02.634.208.93.4.072.044.072.044.143.09.116.072.23.146.345.22a552.72 552.72 0 00-.01-.541l-.005-.306c.015-.256.015-.256.173-.414z" fill="#F3F3F3"/><path d="M24.336 11.866l1.181-.05.37-.021c.778-.016.778-.016 1.092.225.163.203.296.41.429.633.086.119.174.236.264.352l.258.352.284.39.147.2c.152.207.306.414.46.621l.152.205.29.39.132.178.117.156c.101.15.101.15.259.464h-5.435v-4.095z" fill="#FDFDFD"/><path d="M28.684 22.237c.342.247.616.58.776.972.074.555.023 1.04-.315 1.496-.377.395-.731.575-1.275.59-.533-.008-.86-.145-1.246-.511-.36-.41-.427-.839-.42-1.37.058-.447.328-.77.657-1.062.58-.412 1.193-.469 1.823-.115z" fill="#F3F3F3"/><path d="M8.434 22.232c.317.233.605.545.782.899.051.607.072 1.088-.315 1.575-.411.41-.694.563-1.285.576-.518-.006-.762-.097-1.127-.47-.383-.418-.543-.768-.527-1.34.069-.52.35-.877.756-1.193.532-.369 1.156-.359 1.716-.047z" fill="#F2F2F2"/><path d="M28.042 22.658c.364.135.592.291.787.63.05.44.018.726-.236 1.102-.298.271-.608.277-.994.265-.27-.04-.402-.142-.581-.343-.197-.335-.224-.645-.158-1.024.274-.497.627-.677 1.182-.63zm-20.086-.001c.328.138.494.3.63.63.057.377.036.637-.138.98-.21.24-.365.333-.676.396-.306.019-.519.021-.778-.156-.243-.253-.41-.48-.431-.836.074-.42.22-.654.546-.926.291-.119.536-.134.847-.088z" fill="#C18539"/><path d="M25.483 16.96l.23-.003h.421c.214.035.283.091.41.265.051.404.051.404-.096.603-.274.207-.632.143-.962.14l-.227.005c-.548 0-.548 0-.814-.184-.106-.17-.106-.17-.1-.417.17-.524.678-.41 1.137-.408z" fill="#F3F3F3"/><path d="M10.948 15.332v1.97h-.236v-1.655l-.157-.079c.305-.236.305-.236.393-.236zm-.157-2.992h.157v1.969l-.393-.236.157-.08.079-1.653zm3.782.945l.02.144c.078.225.175.271.38.388l.174.102.135.075-.157.079c-.222-.113-.222-.113-.483-.271a264.235 264.235 0 01-.462-.28c.216-.237.216-.237.393-.237zM6.219 24.547l.472.394-.078.236c-.394-.453-.394-.453-.394-.63zm15.05-14.414l.236.079v.472l-.236-.157c-.015-.207-.015-.207 0-.394z" fill="#C18539"/></svg>