<svg width="36" height="35" fill="none" xmlns="http://www.w3.org/2000/svg"><path d="M32.603 9.707c.016 2.066.028 4.131.035 6.197l.003.732v.147l.015 2.358c.007.807.01 1.613.012 2.42 0 .453.003.906.008 1.36.004.425.006.852.005 1.278 0 .157.001.313.004.47.019 1.186.019 1.186-.231 1.489-.178.11-.334.172-.534.229l-.225.125-.198.105-.227.122c-.08.041-.158.083-.239.126L30.78 27l-.389.207c-.433.231-.866.464-1.298.696l-.223.12c-.526.284-1.051.57-1.576.857-.855.467-1.715.927-2.573 1.389-.83.446-1.659.893-2.485 1.345-.559.305-1.12.607-1.682.909-.369.198-.737.398-1.104.6l-.21.117-.392.218-.176.097-.153.086c-.133.06-.133.06-.338.06v-16.27a71.968 71.968 0 011.803-1.003l.467-.251.235-.126c.35-.188.7-.378 1.05-.568.571-.31 1.144-.619 1.717-.927a273.1 273.1 0 001.632-.884c.765-.419 1.534-.832 2.302-1.245.95-.511 1.901-1.023 2.85-1.537l.203-.109c.332-.18.662-.36.991-.545l.192-.106.356-.2.159-.09.139-.078c.122-.055.122-.055.327-.055zm-29.536 0c.281.05.49.134.741.27l.235.127a5650.45 5650.45 0 01.51.277l.65.354.533.29c.6.326 1.2.656 1.8.986l.191.105.467.257.002.248a2544.838 2544.838 0 00.043 4.647 267.58 267.58 0 01.01 1.05v.184c-.004.295-.004.295.082.57.446.035.797-.092 1.213-.243.128-.047.256-.092.384-.137l.17-.062c.147-.036.147-.036.352.032.12.157.23.314.337.479a310.074 310.074 0 00.307.455 53.891 53.891 0 00.65.94c.247.353.247.353.552.655.183.001.183.001.341-.068.111-.222.081-.466.083-.71l.002-.18.005-.59.005-.41a773.253 773.253 0 00.021-2.175c.008-.718.014-1.437.021-2.156.23.09.448.187.666.301l.189.098.2.105.21.11a121.206 121.206 0 012.337 1.265l.521.288.159.087c.358.2.358.2.435.276a17.898 17.898 0 01.008.827v1.154l-.001 1.31v1.23a3952.818 3952.818 0 01-.003 4.8v.879l-.004 6.07a2.154 2.154 0 01-.702-.252l-.212-.115-.227-.125-.36-.196-.372-.204a159.04 159.04 0 00-1.152-.621 305.85 305.85 0 01-1.807-.98c-.78-.427-1.563-.847-2.346-1.268a417.84 417.84 0 01-2.712-1.467c-.48-.262-.96-.521-1.44-.78l-.223-.12a387.142 387.142 0 00-1.883-1.008l-.211-.114-.185-.098-.182-.104-.213-.102c-.211-.184-.226-.2-.247-.46-.002-.12-.002-.241 0-.362v-.202c-.001-.224.001-.448.004-.672v-.481c0-.436.002-.872.005-1.308l.003-1.227c0-.81.003-1.62.007-2.431.004-.787.007-1.575.009-2.362v-.147l.001-.73c.005-2.02.012-4.04.021-6.059zm1.38 13.685c-.09.123-.09.123-.128.286.065.247.208.296.419.422.31.176.625.345.94.512l.508.27.26.14c.416.22.83.444 1.244.668l.202.11a38.462 38.462 0 011.416.8c.275.157.473.245.8.197.16-.13.16-.13.16-.356-.035-.194-.08-.251-.238-.374a10.742 10.742 0 00-.644-.338 41.934 41.934 0 01-1.807-.948l-.4-.218-.204-.11-.712-.383-.248-.133a302.13 302.13 0 00-.696-.373l-.193-.104c-.145-.081-.145-.081-.213-.15-.192-.02-.302-.026-.466.082zm-.081 1.422c-.009.238-.009.238.068.479.167.15.167.15.389.251l.24.125.251.124.251.128c.153.079.307.156.461.233.186.096.186.096.39.233.172.034.172.034.343 0 .137-.11.137-.11.205-.274 0-.171 0-.171-.069-.341-.154-.126-.154-.126-.353-.221l-.22-.115-.23-.117-.448-.234-.201-.103c-.188-.1-.188-.1-.37-.213-.26-.148-.49-.171-.707.046zM18.113 1.367c.16.073.312.148.466.232l.133.072.427.23.296.16c.245.131.489.264.732.396l.574.31c.723.392 1.442.792 2.157 1.198-.183.197-.35.33-.59.45a8.428 8.428 0 01-.19.097l-.202.103a310.7 310.7 0 00-.43.22l-.22.113c-.32.166-.636.339-.952.512-.547.3-1.096.598-1.645.893-.573.309-1.146.617-1.718.928-.572.31-1.144.619-1.717.927-.545.293-1.09.587-1.632.884-.841.46-1.686.913-2.53 1.367l-.727.391-.454.245-.21.112-.199.106a10.16 10.16 0 00-.524.306l-.139.086c-.237.09-.416.013-.64-.085l-.166-.088-.188-.098-.2-.107-.212-.112a141.89 141.89 0 01-1.754-.949c-.458-.251-.92-.499-1.38-.747l-.24-.128-.555-.299c.184-.197.352-.33.592-.45l.188-.097.203-.102.43-.22.22-.114c.32-.166.636-.339.952-.512.55-.302 1.101-.6 1.654-.898.548-.294 1.095-.59 1.64-.888.917-.501 1.837-.995 2.757-1.49.83-.445 1.657-.892 2.483-1.344.574-.313 1.15-.623 1.727-.933l.212-.114.206-.11c.138-.075.274-.153.408-.233l.198-.115.174-.106c.23-.088.35-.065.585.001zm9.572 5.147l.2.117.143.074c.176.092.35.188.523.285l.403.222.214.118c.303.166.608.33.913.493 1.145.613 1.145.613 1.67.91.072.04.144.08.218.123.154.099.154.099.222.236l-.19.1a229.802 229.802 0 00-3.273 1.751c-.414.227-.83.45-1.245.674l-1.726.931-.204.11-.608.33c-.845.459-1.69.916-2.538 1.372-.605.325-1.209.653-1.812.983-.349.19-.698.38-1.048.568l-.123.066-.592.318-.217.116-.19.102c-.182.096-.182.096-.352.222-.169.081-.169.081-.34.036l-.17-.091-.16-.078-.165-.086-.188-.098-.201-.106-.21-.11c-.662-.347-1.318-.703-1.972-1.064l-.546-.298-.34-.185-.158-.086c-.36-.198-.36-.198-.435-.35l.151-.081c1.264-.676 1.264-.676 2.523-1.36.914-.499 1.831-.991 2.749-1.485.768-.412 1.536-.826 2.301-1.244.917-.501 1.837-.995 2.757-1.49a473.49 473.49 0 002.714-1.469L26.55 7c.124-.069.247-.141.368-.215.498-.297.498-.297.767-.27zM23.92 4.512c.167.08.328.161.49.25l.141.075.446.24.295.158c.48.256.957.516 1.43.781v.137l-.137.074c-.888.478-1.775.956-2.662 1.437l-1.515.818c-.546.293-1.09.587-1.633.884-.916.5-1.837.995-2.757 1.49-.768.412-1.536.826-2.301 1.244-.56.306-1.122.611-1.684.915l-.218.118c-.14.075-.28.15-.422.222-.209.11-.209.11-.402.25-.214.14-.373.224-.624.273-.404-.11-.738-.31-1.094-.526l-.284-.161a32.7 32.7 0 01-.68-.399c-.202-.12-.405-.238-.608-.355l-.342-.2c.157-.173.316-.276.522-.386l.194-.104.212-.112.22-.118.463-.248 1.132-.608.226-.122c.47-.253.938-.507 1.406-.763.917-.501 1.837-.995 2.757-1.49a375.58 375.58 0 002.302-1.244c.922-.504 1.848-1.001 2.774-1.499l.49-.263.459-.247.21-.113.198-.105a8.96 8.96 0 00.444-.266c.248-.124.294-.114.552-.037z" fill="#C18539"/><path d="M8.953 12.852c.302.1.534.193.808.342l.227.123.234.128a172.007 172.007 0 00.661.36c.382.208.764.413 1.146.619v5.264a3.64 3.64 0 01-.497-.592l-.124-.182-.252-.377-.124-.18-.11-.166c-.14-.179-.14-.179-.465-.35l-1.504.48v-5.47z" fill="#C18539"/></svg>