<svg width="36" height="35" fill="none" xmlns="http://www.w3.org/2000/svg"><g clip-path="url(#clip0_6816_35257)" fill="#C18539"><path d="M.666 12.783h19.482c-.086.26-.2.325-.414.492-.67.538-1.195 1.144-1.705 1.832l-.09.12c-1.266 1.737-1.965 3.888-2.029 6.033l-.008.177c-.065 2.455.81 5.06 2.383 6.952.086.117.086.117.086.254a7242.07 7242.07 0 01-6.592.007h-.14l-2.244.003a1607.302 1607.302 0 01-3.596.004 411.86 411.86 0 01-1.663.002h-.611l-.177.001c-.761-.003-1.505-.154-2.067-.701-.426-.549-.648-1.067-.64-1.76v-.174a341.632 341.632 0 00.002-.997c0-.376 0-.751.002-1.126l.001-1.057.007-3.09.013-6.972zm2.392 8.272v1.64h7.52v-1.64h-7.52zm0 3.486v1.709H13.45v-1.709H3.06z"/><path d="M32.818 15.023c1.328 1.17 2.165 2.703 2.643 4.39l.07.244c.537 2.27.029 4.694-1.164 6.66-.354.546-.785 1.032-1.23 1.505l-.11.122c-1.321 1.423-3.45 2.322-5.372 2.418-2.608.088-4.87-.602-6.807-2.397-.05-.048-.1-.095-.153-.143l-.122-.11c-1.102-1.024-1.81-2.492-2.202-3.924l-.07-.243c-.52-2.185-.074-4.641 1.075-6.549a9.851 9.851 0 01.862-1.177c1.462-1.742 3.619-2.785 5.866-3.017 2.514-.183 4.803.586 6.714 2.221zm-2.432 3.775l-.12.122-.128.127-.418.42-.289.29-.76.764-.777.78-1.525 1.53c-.502-.425-.502-.425-.733-.657l-.133-.133-.137-.138-.146-.146-.453-.455-.31-.31-.754-.758c-.268.226-.531.454-.78.704l-.153.155-.156.157a273.28 273.28 0 00-.551.556c.396.486.843.92 1.287 1.363l.256.255.67.668.684.683 1.34 1.338c.366-.306.706-.628 1.042-.965l.164-.164.531-.533.37-.37.873-.874.994-.996c.681-.681 1.362-1.363 2.042-2.046-.115-.245-.251-.406-.444-.599l-.183-.184-.193-.19-.192-.195-.184-.183-.169-.168c-.262-.229-.35-.062-.565.152zM3.928 5.17l.368-.002h1.007l1.088-.001H8.52a1536.36 1536.36 0 001.98-.001h5.195c1.43 0 2.862 0 4.293-.002 1.47-.002 2.94-.002 4.41-.002l2.475-.001h4.521c.84-.005 1.7.032 2.376.598 1.245 1.283.732 3.042.732 4.77H.664c0-3.994 0-3.994.684-4.718.751-.649 1.638-.645 2.58-.641z"/></g><defs><clipPath id="clip0_6816_35257"><path fill="#fff" transform="translate(.664)" d="M0 0h35v35H0z"/></clipPath></defs></svg>