<svg width="41" height="42" fill="none" xmlns="http://www.w3.org/2000/svg"><g clip-path="url(#clip0_6816_35169)"><path d="M8.783 12.612c-1.34-.508-2.669-1.047-4.023-1.512-.857-.294-1.56-.804-2.232-1.363-.55-.46-.485-.81.15-1.157.836-.46 1.578-.672 2.58-.117 1.856 1.026 3.96 1.472 6.06 2.196-.101-.494-.377-.697-.598-.948C9.6 8.434 8.83 6.967 8.898 5.246c.081-2.02 1.595-2.997 3.566-2.457 1.837.503 3.308 1.57 4.535 2.98.976 1.124.915 1.126 1.78-.114 1.564-2.249 3.548-4.025 6.097-5.097.944-.396 1.928-.595 2.963-.353 1.306.307 2.088 1.234 2.212 2.574.154 1.634-.538 3.008-1.262 4.381-.108.205-.365.385-.207.636.15.238.437.135.667.131.81-.01 1.582.205 2.09.816.666.802 1.367.668 2.135.306 1.519-.716 2.947-1.591 4.346-2.517.466-.308.94-.606 1.391-.935.396-.288.676-.28.998.142 1.126 1.472 1.12 1.528-.47 2.582-1.688 1.115-3.379 2.218-5.243 3.027a7.556 7.556 0 01-1.988.57c-1.034.14-1.973-.116-2.658-.95-.391-.477-.827-.606-1.409-.46-1.829.466-3.587 1.103-5.275 2.115.359.224.718.203 1.036.206 1.565.015 3.132-.02 4.698-.022 1.884-.002 3.772-.053 5.654.038 1.444.07 2.466 1.263 2.506 2.732.025.957-.024 1.918.012 2.875.053 1.386-.744 2.226-1.876 2.683-.634.256-.7.58-.7 1.124.008 5.14.003 10.28 0 15.42 0 2.37-1.03 3.401-3.404 3.403-8.383.001-16.767-.024-25.15.019-1.769.01-3.361-.88-3.313-3.331.1-5.084.024-10.173.035-15.259.002-.712-.069-1.197-.92-1.481-.998-.334-1.61-1.146-1.669-2.308-.058-1.144-.139-2.286.008-3.427.195-1.513 1.043-2.27 2.567-2.435 1.859-.202 3.721.05 5.577-.091.182-.015.364-.018.548-.026l.003-.131h.005zm13.472 17.403h-.022c0 2.478-.002 4.955 0 7.43 0 1.062.081 1.16 1.123 1.164 2.5.011 5.004.01 7.505.003.958-.003 1.076-.13 1.076-1.136.004-4.98.002-9.962-.003-14.942 0-1.036-.086-1.202-1.113-1.223-2.501-.05-5.002-.019-7.504-.017-.745 0-1.086.335-1.076 1.13.032 2.53.013 5.06.013 7.59l.001.001zm-7.428-.075c0-2.53-.023-5.06.014-7.59.01-.689-.208-.922-.89-.973-2.606-.192-5.213-.07-7.82-.106-.69-.01-1.018.275-1.017 1 .013 5.112.013 10.225 0 15.34-.001.706.272 1.013.994 1.008 2.554-.018 5.109.003 7.665-.01.932-.005 1.05-.14 1.052-1.08.005-2.53.002-5.06.002-7.59v.001zM28.39 15.324c-1.329 0-2.658-.014-3.985.003-2.445.03-2.185-.4-2.153 2.315.011.974.227 1.14 1.21 1.142 2.895.007 5.792.027 8.688 0 2.56-.024 2.325.374 2.362-2.429.01-.751-.257-1.055-1.02-1.039-1.7.034-3.4.01-5.102.008zm-19.735.003v-.005c-1.702 0-3.405.025-5.106-.01-.77-.017-1.065.292-1.018 1.04.034.503.023 1.011.004 1.517-.024.634.244.93.894.922 3.535-.047 7.072.086 10.605-.109.52-.029.796-.227.788-.769-.006-.505.008-1.011.002-1.516-.012-.93-.131-1.06-1.064-1.066-1.703-.01-3.404-.004-5.106-.004h.001zm8.742 14.615h-.005c0 2.53-.003 5.06.001 7.59.002.973.122 1.079 1.123 1.082 1.102.003 1.25-.11 1.252-1.039.004-5.06.004-10.12 0-15.18 0-.94-.097-1.014-1.172-1.014-1.147 0-1.196.039-1.198 1.05-.003 2.503 0 5.008 0 7.51h-.001zm2.859-19.11c.41-.047.793-.117 1.166-.29 1.956-.91 3.485-2.328 4.722-4.061.646-.905 1.214-1.876 1.36-3.02.09-.696-.178-.953-.858-.827-.233.043-.465.12-.682.214-2.73 1.18-4.65 3.206-6.004 5.807a4.135 4.135 0 00-.414 1.283c-.073.495.095.908.71.893zm-8.27-5.543c-.772.044-.555.495-.406.845.878 2.062 2.367 3.55 4.357 4.554.246.123.516.204.754.025.282-.212.105-.468.017-.717-.69-1.962-2.153-3.229-3.84-4.29-.287-.18-.618-.294-.881-.417h-.002zm5.406 11.688c0 1.715 0 1.673 1.257 1.716.806.027 1.111-.321 1.111-1.066 0-.425-.02-.852.016-1.274.063-.722-.273-1-.966-1.03-1.294-.056-1.415.038-1.418 1.332v.322z" fill="#000"/></g><defs><clipPath id="clip0_6816_35169"><path fill="#fff" transform="translate(0 .102)" d="M0 0h41v41H0z"/></clipPath></defs></svg>