<svg width="35" height="35" fill="none" xmlns="http://www.w3.org/2000/svg"><path d="M20.422 32.084h-5.834c-5.499 0-8.25 0-9.957-1.71-1.708-1.708-1.71-4.457-1.71-9.957v-2.916c0-5.5 0-8.25 1.71-9.958 1.71-1.708 4.458-1.709 9.957-1.709h5.834c5.5 0 8.25 0 9.957 1.71C32.087 9.251 32.09 12 32.09 17.5v2.916c0 5.5 0 8.25-1.71 9.958-.952.954-2.228 1.375-4.124 1.56m-16.042-26.1V3.646m14.583 2.188V3.646m6.562 9.48H15.682m-12.76 0h5.65" stroke="#C18539" stroke-width="1.5" stroke-linecap="round"/><path d="M26.25 24.792a1.458 1.458 0 11-2.917 0 1.458 1.458 0 012.917 0zm0-5.834a1.458 1.458 0 11-2.916 0 1.458 1.458 0 012.916 0zm-7.292 5.834a1.458 1.458 0 11-2.917 0 1.458 1.458 0 012.917 0zm0-5.834a1.458 1.458 0 11-2.916 0 1.458 1.458 0 012.916 0zm-7.291 5.834a1.459 1.459 0 11-2.917 0 1.459 1.459 0 012.917 0zm0-5.834a1.458 1.458 0 11-2.917 0 1.458 1.458 0 012.917 0z" fill="#C18539"/></svg>