<svg width="27" height="26" fill="none" xmlns="http://www.w3.org/2000/svg"><path d="M21.456 6.692c.041-.764.102-1.869-.123-2.085-1.744-1.676-6.479-.646-7.372 1.633-.565 1.44-.79 3.409-.677 5.904-1.782 0-2.781.108-2.997.324-.202.202-.23 3.564 0 3.564.941 0 2.708.216 2.708.216s.069 8.677 0 8.747c-.314.323-10.51 0-11.881 0-.74 0 0-11.117 0-12.323 0-.861-.09-10.611 0-10.702.377-.38 3.993-.295 4.542-.295 3.257 0 17.32-1.63 19.541-.286.943.57.796 4.254.796 5.133 0 1.288-.047 17.865-.441 18.473-.355.547-7.998.248-8.49 0-.15-.075-.15-2.897 0-8.465 2.427.286 3.64.12 3.64-.498v-3.16c0-.27-1.124-.404-3.372-.404-.07-1.912.066-3.206.405-3.885.545-1.091 1.114-.907 2.554-.71" stroke="#fff" stroke-linecap="round" stroke-linejoin="round"/></svg>