<svg width="25" height="25" fill="none" xmlns="http://www.w3.org/2000/svg"><g clip-path="url(#clip0_6665_33857)" fill-rule="evenodd" clip-rule="evenodd" fill="#fff"><path d="M9.766 22.344a6.203 6.203 0 01-3.516 1.08A6.248 6.248 0 010 17.174a6.248 6.248 0 016.25-6.25 6.249 6.249 0 015.17 9.765l2.297 2.297a1.173 1.173 0 010 1.657 1.173 1.173 0 01-1.656 0l-2.297-2.297.002-.002zm1.175-5.172a4.681 4.681 0 01-4.688 4.688 4.681 4.681 0 01-4.687-4.688 4.681 4.681 0 014.687-4.687 4.681 4.681 0 014.688 4.687z"/><path d="M8.594 1.563a.781.781 0 00-.781.78v5.47a.781.781 0 01-1.563 0H4.687a1.562 1.562 0 00-1.562 1.562.781.781 0 01-1.563 0A3.13 3.13 0 014.688 6.25H6.25V2.344A2.344 2.344 0 018.594 0h7.172c.621 0 1.217.247 1.656.686l2.203 2.203c.44.44.686 1.035.686 1.656v1.703h1.562a3.13 3.13 0 013.125 3.125v6.25a3.135 3.135 0 01-1.78 2.829l1.624 2.171a.782.782 0 01-.625 1.25h-7.812a.781.781 0 110-1.562h6.25l-3.516-4.688h-4.295a.781.781 0 110-1.562h4.687a.782.782 0 01.625.312l2.078 2.766a1.563 1.563 0 001.203-1.52v-6.25a1.563 1.563 0 00-1.562-1.563h-1.563v2.344a2.344 2.344 0 01-2.343 2.344H13.28a.781.781 0 110-1.563h4.688a.781.781 0 00.781-.781V4.681h-2.344a.781.781 0 01-.781-.781V1.556h-7.03v.006z"/></g><defs><clipPath id="clip0_6665_33857"><path fill="#fff" d="M0 0h25v25H0z"/></clipPath></defs></svg>