<svg width="21" height="25" fill="none" xmlns="http://www.w3.org/2000/svg"><path d="M4.375 18.75h-1.25v1.563h1.25c.469 0 .781-.313.781-.782 0-.468-.312-.781-.781-.781zM12.5 0H0v25h20.313V7.812L12.5 0zM6.562 19.688c0 1.25-.937 2.187-2.187 2.187h-1.25v1.563H1.562v-6.25h2.813c1.25 0 2.188.937 2.188 2.187v.313zm6.407.78c0 1.563-1.25 2.97-2.969 2.97H7.812v-6.25H10c1.563 0 2.969 1.25 2.969 2.968v.313zm5.781-1.718h-3.125v1.563h2.344v1.562h-2.344v1.563h-1.563v-6.25h4.688v1.562zm0-3.125H1.562V1.562H12.5v6.25h6.25v7.813zM10 18.75h-.625v3.125H10c.938 0 1.563-.625 1.563-1.563 0-.937-.782-1.562-1.563-1.562z" fill="#000"/></svg>