<svg width="26" height="25" fill="none" xmlns="http://www.w3.org/2000/svg"><path d="M1.738 19.834c-.558-1.823-.295-3.744-.53-5.608-.2-1.586-.57-10.126.707-11.39C4.19.58 21.104-.667 23.489 2.484c1.732 2.288 1.415 6.775 1.415 9.463 0 2.903.679 7.388-1.592 9.638-3.417 3.386-15.733 3.068-20.336 1.928" stroke="#fff" stroke-linecap="round" stroke-linejoin="round"/><path d="M1.145 10.066c1.73-.602 6.67.369 6.861-.035.484-1.02 1.724-3.145 4.763-3.728 2.133-.41 5.309 0 6.332 2.087 5.021 10.25-5.594 13.268-8.626 11.64-2.681-1.44-2.469-3.39-2.469-4.915" stroke="#fff" stroke-linecap="round" stroke-linejoin="round"/><path d="M11.94 10.868c.572-.628 1.746-1.468 2.657-1.24 2.873.718 2.825 6.308-.177 6.909-2.82.563-4.944-3.551-2.48-4.783m8.915-1.736c.743-.103 3.134-.015 3.857-.143m-2.927-4.119v-.19" stroke="#fff" stroke-linecap="round" stroke-linejoin="round"/></svg>