<svg width="136" height="100" fill="none" xmlns="http://www.w3.org/2000/svg"><path d="M3.208 88.62h1.257v11.358H3.208v-6.481h-1.95v6.481H0V88.619h1.257v3.62h1.951v-3.62zm8.65 9.19H9.603l-.26 2.19H8.086l1.3-11.36h2.689l1.3 11.36h-1.279l-.238-2.19zm-.13-1.149l-.78-6.785h-.434l-.78 6.785h1.994zM20.073 100v-7.218l-1.864 1.886V100h-1.28V88.62h1.258v4.508l1.864-1.95V88.62h1.258v11.358h-1.236V100zm.26-12.573h-2.384v-.845h2.384v.845zm7.394 4.791c.325 0 .585.043.802.13a1.4 1.4 0 01.542.368c.13.152.238.347.303.564.065.216.109.433.109.672V98.2c0 .326-.044.586-.13.802a1.412 1.412 0 01-.369.542c-.152.13-.347.239-.564.304a2.296 2.296 0 01-.672.108h-2.47V88.62h3.901v1.257h-2.644v2.341h1.192zm.498 1.755a.655.655 0 00-.108-.347c-.065-.108-.195-.151-.39-.151h-1.214v5.246h1.214c.152 0 .26-.044.347-.109.086-.065.13-.195.13-.39v-4.249h.021zm9.495-5.353v11.358h-1.257V89.877H35.01l-.368 8.54c-.022.52-.13.91-.325 1.17-.196.261-.564.391-1.084.391h-.694v-1.257h.52c.13 0 .217-.022.26-.065.044-.044.066-.13.066-.26l.433-9.798h3.902v.021zM44.786 100v-7.22l-1.865 1.886V100h-1.257V88.62h1.257v4.508l1.865-1.951v-2.558h1.257v11.359h-1.257V100zm6.2-7.11l-1.43-4.25h1.322l1.236 3.73h.975v-3.75h1.258v3.728h.953l1.236-3.729h1.344l-1.43 4.249 1.517 7.11h-1.301l-1.41-6.59h-.931v6.59h-1.258v-6.59h-.932l-1.409 6.59h-1.3l1.56-7.088zm14.415-4.27v11.358h-1.278v-3.599h-1.28c-.238 0-.476-.043-.671-.108a1.77 1.77 0 01-.564-.303 1.413 1.413 0 01-.369-.542 2.222 2.222 0 01-.13-.802v-6.005h1.258v6.005c0 .195.043.303.151.39a.655.655 0 00.347.108h1.28V88.62H65.4zm7.457 9.19h-2.255l-.26 2.19h-1.257l1.3-11.36h2.689l1.3 11.36h-1.279l-.238-2.19zm-.13-1.149l-.78-6.785h-.434l-.78 6.785h1.994zm14.023-8.041v11.358h-1.257V89.876h-1.8v10.102h-1.257V88.619h4.314zm7.719 0v1.256h-2.515v2.341h1.907v1.28h-1.907v5.224h2.514v1.257h-3.793V88.619h3.793zm3.661 0h1.257v3.728h1.084l1.236-3.729h1.344l-1.431 4.249 1.517 7.11h-1.3l-1.409-6.59h-1.062v6.59h-1.258V88.619h.022zm11.817 9.19h-2.255l-.26 2.19h-1.257l1.3-11.36h2.688l1.301 11.36h-1.279l-.238-2.19zm-.13-1.149l-.781-6.785h-.433l-.781 6.785h1.995zm9.405-2.037c0 .325-.044.585-.13.802a1.256 1.256 0 01-.39.542c-.174.13-.347.238-.564.303a2.3 2.3 0 01-.672.108h-1.171v3.599h-1.257V88.619h2.428c.325 0 .585.043.802.13.217.087.412.217.542.369.152.151.238.347.303.563a2.3 2.3 0 01.109.672v4.27zm-1.279-4.249a.655.655 0 00-.109-.347c-.065-.108-.195-.152-.39-.152h-1.17v5.246h1.17c.152 0 .26-.043.347-.108.087-.065.13-.195.13-.39v-4.249h.022zm8.217-1.755h1.258v11.358h-1.258v-6.481h-1.951v6.481h-1.257V88.619h1.257v3.62h1.951v-3.62zm9.363 0v11.358h-1.257v-5.441h-.715l-1.236 5.441h-1.3l1.257-5.528a1.55 1.55 0 01-.78-.542c-.217-.26-.304-.628-.304-1.127v-2.428c0-.238.043-.477.108-.672.065-.216.174-.39.304-.563.13-.152.325-.282.542-.369a2.22 2.22 0 01.802-.13h2.579zm-1.257 1.256h-1.344c-.195 0-.303.044-.39.152a.654.654 0 00-.108.347v2.428c0 .173.043.303.151.368a.512.512 0 00.347.109h1.344v-3.404zm.759-65.594c-.499-.759-1.149-1.604-1.973-2.536a23.659 23.659 0 00-2.709-2.602c-.976-.78-1.821-1.214-2.537-1.235-2.818-.065-6.026.021-9.624.303a218.64 218.64 0 00-11.359 1.192 344.479 344.479 0 00-12.183 1.778 378.03 378.03 0 00-12.03 2.168c-3.88.78-7.544 1.56-10.969 2.34-3.425.781-6.416 1.54-8.974 2.255-.26.087-.152.412.303 1.02.477.606 1.084 1.256 1.8 1.95.736.694 1.473 1.3 2.21 1.843.737.52 1.258.737 1.561.628.52-.217 1.388-.498 2.58-.78 1.192-.304 2.644-.65 4.379-1.019a268.89 268.89 0 015.852-1.192c2.168-.412 4.466-.824 6.915-1.236a326.14 326.14 0 00-4.964 10.34 103.916 103.916 0 00-4.183 10.448c-.347 1.02-.65 2.06-.954 3.057-.109.065-.347.39-.694.976-.412.65-.91 1.495-1.517 2.492-.607 1.02-1.28 2.125-1.995 3.317-.715 1.192-1.409 2.341-2.059 3.425-.65 1.084-1.236 1.994-1.734 2.775-.499.78-.846 1.257-1.019 1.43-.087.087-.022-.412.195-1.495.217-1.084.542-2.45.976-4.14.433-1.692.975-3.578 1.582-5.658a132.561 132.561 0 011.908-6.048 62.235 62.235 0 011.994-5.225c.672-1.539 1.3-2.623 1.908-3.251.043-.043-.066-.13-.347-.282a5.38 5.38 0 00-1.17-.434 51.33 51.33 0 00-1.735-.498c-.65-.195-1.344-.39-2.06-.607-1.69-.455-3.598-.954-5.765-1.452-.347.13-.738.628-1.193 1.495-.455.867-.932 1.973-1.387 3.317a113.045 113.045 0 00-1.43 4.596 89.847 89.847 0 00-1.301 5.289c-.499.758-1.258 1.907-2.255 3.425-.997 1.517-1.994 3.056-3.013 4.617a520.72 520.72 0 01-2.774 4.205c-.846 1.236-1.388 1.973-1.648 2.19-.087.086-.022-.412.195-1.496s.542-2.45.976-4.14c.433-1.691.975-3.577 1.582-5.658a132.48 132.48 0 011.908-6.048 62.219 62.219 0 011.994-5.224c.672-1.54 1.3-2.623 1.907-3.252.044-.043-.065-.13-.346-.282a5.375 5.375 0 00-1.17-.433 51.097 51.097 0 00-1.735-.499c-.65-.195-1.344-.39-2.06-.607a157.68 157.68 0 00-5.766-1.452c-.411.13-.932.824-1.517 2.124-.238.542-.498 1.127-.737 1.778a13.26 13.26 0 00-.585 1.019c-.477.867-.954 1.82-1.648 3.013-.693 1.192-1.734 2.71-2.558 4.01a92.632 92.632 0 01-4.01 5.723c-1.517 2.016-3.056 3.967-4.66 5.614-1.605 1.648-2.927 2.905-4.466 4.01-1.366.998-3.663 1.886-5.463 1.561-2.73-.477-5.744-3.447-7.543-6.113-1.864-2.774-2.992-5.722-3.338-8.887-.369-3.144-.13-6.395.693-9.712a50.561 50.561 0 013.49-9.668 60.708 60.708 0 015.138-8.8c1.907-2.732 3.771-5.116 5.57-7.089 1.8-1.994 2.168-2.515 3.556-3.533 1.365-.998 2.861-2.385 3.967-2.016.043.021.065.021.086.043.737.585.542 1.56.325 3.338-.216 1.8-.78 3.599-1.278 6.178-.52 2.58-1.474 5.636-2.558 8.498a440.307 440.307 0 01-2.862 7.305c-.78 1.93-1.582 3.425-2.666 5.874-.455 1.04 5.766 1.02 7.565.109 2.255-1.127 3.36-2.948 4.9-5.311a68.078 68.078 0 004.14-7.392c1.235-2.58 2.254-4.964 3.056-7.197.802-2.233 1.387-4.118 1.648-5.68.368-2.405.238-3.576-.022-4.92-.607-3.252-2.948-6.46-4.596-8.086C38.237-.257 34.401-.17 30.13.112c-1.17.065-4.595.65-6.308 1.756-1.712 1.084-3.555 2.666-5.484 4.704-1.951 2.037-3.902 4.465-5.896 7.283-1.995 2.818-3.815 5.875-5.485 9.17a75.417 75.417 0 00-4.292 10.361C1.473 37.006.693 40.648.345 44.311a37.616 37.616 0 00.478 10.817c.672 3.534 1.734 6.59 3.23 9.343 1.235 2.146 3.641 5.463 7.305 8.28 1.82 1.41 4.14 2.667 6.806 3.47 2.212.65 4.488.888 6.33.758 1.366-.087 3.23-.499 4.552-1.106 1.626-.78 2.797-1.56 4.336-2.688 2.168-1.604 3.425-2.97 4.877-4.617a109.09 109.09 0 003.924-4.66c.087-.087.151-.196.217-.304a11.65 11.65 0 00-.044.867c-.087 1.778.044 3.057.39 3.859.412.975 1.15 1.842 2.19 2.601a16.333 16.333 0 003.251 1.864c1.15.477 2.211.846 3.187 1.084.997.239 1.669.325 2.06.282.216-.043.52-.282.953-.737.412-.434.91-1.04 1.496-1.8a89.137 89.137 0 001.864-2.6 92.221 92.221 0 002.016-3.035c.087 1.062.238 1.842.434 2.34.411.976 1.148 1.843 2.189 2.602a16.334 16.334 0 003.251 1.864c1.15.477 2.212.846 3.23 1.084 1.02.239 1.691.325 2.016.282.304-.043.824-.52 1.604-1.453.78-.932 1.67-2.102 2.667-3.511.412-.585.802-1.17 1.214-1.778.065.867.151 1.713.281 2.58 0 .108.152.26.456.433.303.174.693.369 1.192.586.498.216 1.019.455 1.604.715a55.24 55.24 0 001.843.715c1.474.564 3.121 1.17 4.964 1.8.065-3.079.498-6.46 1.279-10.08.78-3.642 1.799-7.392 3.1-11.294 1.3-3.902 2.84-7.89 4.638-11.944 1.8-4.075 3.75-8.086 5.896-12.03.065-.066-.216-.218-.91-.434-.672-.217-1.517-.434-2.493-.716a524.81 524.81 0 0110.622-1.387c3.577-.434 7.023-.759 10.318-.997 3.295-.217 6.352-.347 9.191-.347 2.818 0 5.246.173 7.24.498.066-.13-.086-.476-.563-1.235z" fill="#fff"/><path d="M120.937 49.34c-.217-1.083-.455-1.972-.737-2.687-.282-.715-.564-1.192-.846-1.453a15.16 15.16 0 00-2.254-1.365 24.745 24.745 0 00-2.255-.954c-.671-.238-1.235-.368-1.669-.412-.433-.043-.628.044-.542.26.261.846.391 1.951.434 3.295a39.42 39.42 0 01-.13 4.422 47.033 47.033 0 01-.694 4.964 34.977 34.977 0 01-1.322 4.834c-1.648-.455-2.861-1.495-3.642-3.078-.78-1.582-.824-3.706-.087-6.351a37.703 37.703 0 011.995-4.53c.737-1.41 1.582-2.645 2.558-3.707.173-.174-.022-.434-.542-.803-.521-.368-1.214-.736-2.06-1.105-.845-.39-1.777-.737-2.818-1.084a35.783 35.783 0 00-2.883-.824c-.585-.13-1.365.369-2.319 1.496s-1.908 2.601-2.84 4.422c-.954 1.843-1.82 3.902-2.601 6.2a38.332 38.332 0 00-1.648 6.806c-.325 2.233-.281 4.293.087 6.178.39 1.886 1.236 3.317 2.601 4.336a36.455 36.455 0 003.23 2.254 40.833 40.833 0 003.512 1.973c1.171.563 2.276.997 3.317 1.3 1.062.304 1.972.39 2.731.26 1.474-.26 2.796-.671 3.967-1.257a11.74 11.74 0 003.078-2.21 14.28 14.28 0 002.254-2.97c.326-.586 1.496-3.577 2.103-7.089.542-3.165.542-6.871.499-7.5-.109-1.344-.26-2.536-.477-3.62zm-13.613 17.212c-.976.954-2.06 1.474-3.295 1.561-.087.087-.13-.087-.152-.498-.022-.412 0-1.04.065-1.843a36.65 36.65 0 01.347-2.84c.173-1.105.39-2.276.628-3.555a16.495 16.495 0 002.255 1.973 17.178 17.178 0 002.688 1.582c-.716 1.474-1.561 2.667-2.536 3.62z" fill="#fff"/></svg>