<svg width="35" height="35" fill="none" xmlns="http://www.w3.org/2000/svg"><path d="M17.558 8.774c1.884.045 3.714.305 5.392 1.22.745.404 1.4.934 1.965 1.57.314.35.538.763.664 1.22.063.225.18.35.368.458 1.274.727 2.539 1.472 3.804 2.207.969.566 1.337 1.391 1.085 2.468-.053.242.054.323.198.44 1.247 1.004 2.162 2.233 2.512 3.83a6.759 6.759 0 01-.009 2.907c-.242 1.086-1.211 1.598-2.243 1.176a213.47 213.47 0 01-3.939-1.633c-.25-.108-.367-.072-.529.152-.538.763-1.382 1.077-2.279.826-1.211-.332-2.422-.709-3.625-1.077a.9.9 0 00-.681.045c-1.786.826-3.59.79-5.384.018-.26-.108-.475-.135-.744-.054-1.095.341-2.207.646-3.293.996-1.113.359-2.153.009-2.665-.852-.116-.198-.251-.135-.404-.072-1.31.547-2.62 1.095-3.938 1.633-.323.134-.646.224-.996.143-.691-.152-1.14-.556-1.283-1.256-.548-2.655.224-4.872 2.297-6.612.305-.26.448-.458.34-.897-.206-.826.27-1.678 1.095-2.163A324.04 324.04 0 019.07 13.26a.823.823 0 00.431-.529c.287-.969.987-1.615 1.758-2.198 1.274-.951 2.737-1.4 4.29-1.615.663-.09 1.327-.153 2-.144h.009zm-.135 1.122a11.765 11.765 0 00-2.027.152c-1.624.278-3.105.844-4.271 2.073-.736.771-.888 1.66-.502 2.638.233.583.493 1.148.744 1.722.799 1.83 1.606 3.66 2.396 5.5.403.924 1.067 1.525 2.036 1.813.727.215 1.463.35 2.216.269 1.544-.17 2.8-.754 3.392-2.324.233-.62.52-1.211.78-1.812.754-1.714 1.517-3.428 2.243-5.16.413-.968.243-1.866-.493-2.637a5.9 5.9 0 00-1.777-1.301c-1.462-.709-3.023-.942-4.746-.924l.01-.01zM9.994 24.6s.09-.009.144-.027c1.05-.305 2.09-.619 3.14-.915.198-.054.17-.135.072-.26-.296-.377-.493-.808-.682-1.247-.574-1.328-1.157-2.638-1.723-3.966-.502-1.166-1.094-2.297-1.48-3.517-.08-.27-.152-.278-.377-.144-1.05.628-2.117 1.239-3.176 1.849-.69.394-.843.942-.44 1.633.377.645.772 1.291 1.149 1.928.79 1.328 1.588 2.656 2.369 3.984.224.386.52.664 1.013.682h-.009zm19.847-7.258c-.045-.413-.225-.718-.584-.924l-1.534-.889c-.592-.34-1.184-.682-1.767-1.031-.162-.1-.26-.144-.314.116a4.95 4.95 0 01-.314.861c-.718 1.642-1.427 3.293-2.163 4.926-.457 1.023-.78 2.108-1.462 3.033-.144.197.036.197.143.224.96.287 1.912.583 2.872.861.6.17 1.013 0 1.327-.52 1.203-2.01 2.396-4.02 3.598-6.03.117-.197.18-.412.198-.627zM2.485 23.578c0 .18-.01.368 0 .547.018.207.045.404.08.61.1.53.377.691.88.485 1.238-.511 2.467-1.032 3.714-1.534.243-.099.278-.198.144-.422a342.403 342.403 0 01-2.315-3.894c-.117-.197-.206-.224-.386-.072-1.346 1.122-2.153 2.504-2.126 4.29l.009-.01zm30.11 0a5.71 5.71 0 00-.063-.88c-.224-1.435-1.014-2.53-2.108-3.435-.144-.117-.233-.1-.314.062-.117.216-.251.431-.386.646-.655 1.095-1.301 2.19-1.956 3.284-.08.135-.206.287.036.386 1.319.547 2.638 1.104 3.975 1.633.34.134.6-.045.682-.404a4.79 4.79 0 00.134-1.283v-.009z" fill="#C18539"/><path d="M15.987 21.372c0 .27-.116.44-.34.52-.225.081-.431.036-.584-.152a1.211 1.211 0 01-.17-.296 733.179 733.179 0 01-1.705-3.903c-.161-.377-.072-.709.242-.834.296-.126.593.018.754.386.574 1.31 1.149 2.62 1.723 3.938.053.117.098.234.08.341zm6.953-8.677c0 .404-.403.664-.762.476-.215-.108-.395-.26-.6-.386-.862-.502-1.813-.709-2.791-.825a1.355 1.355 0 01-.332-.063c-.26-.108-.404-.305-.35-.592.054-.296.27-.476.556-.449 1.418.135 2.782.449 3.957 1.32.18.134.323.286.323.528v-.009zM6.559 17.764c.018-.395.143-.727.448-.942.26-.188.539-.35.817-.484.269-.126.511-.054.682.206.152.242.098.53-.153.718a3.043 3.043 0 01-.467.278c-.215.108-.233.233-.107.43.332.53.646 1.068.96 1.607.09.143.17.296.143.475a.545.545 0 01-.367.449c-.207.08-.422.026-.53-.135-.511-.763-1.023-1.525-1.382-2.378-.035-.08-.026-.179-.044-.242v.018zm21.944-.008c-.027.17-.036.34-.117.493-.394.673-.79 1.355-1.202 2.019-.18.296-.475.35-.736.197-.269-.161-.34-.457-.179-.771.045-.08.09-.162.135-.233.287-.485.574-.978.879-1.463.134-.215.116-.34-.117-.457-.17-.09-.34-.18-.493-.306-.189-.152-.27-.367-.162-.61.099-.215.26-.34.503-.332.619.01 1.435.781 1.48 1.4v.072l.009-.01z" fill="#C18539"/></svg>