<svg width="34" height="35" fill="none" xmlns="http://www.w3.org/2000/svg"><g clip-path="url(#clip0_6665_37183)"><path d="M16.98 35H8.2c-1.409 0-2.343-.664-2.659-2.001a253.76 253.76 0 01-1.445-6.577c-.124-.596-.325-1.044-.864-1.426C-.41 22.404-1.09 17.07 1.786 13.773c1.043-1.196 2.408-1.885 3.972-2.174.404-.074.6-.23.731-.632.719-2.198 2.363-3.39 4.566-3.904.43-.101.654-.27.735-.696.202-1.05.845-1.818 1.69-2.435.491-.358 1.006-.682 1.508-1.023.793-.538 1.242-1.237 1.181-2.231-.04-.659.024-.691.692-.672.813.022 1.535.358 2.233.716 3.154 1.617 5.298 4.057 6.178 7.496.091.353.268.51.621.621 2.982.934 5.494 2.503 7.118 5.234 1.843 3.1 1.053 7.05-1.872 9.214a1.88 1.88 0 00-.777 1.198c-.61 2.816-1.248 5.625-1.865 8.439C28.202 34.268 27.317 35 25.92 35c-2.98.004-5.96 0-8.94.001V35zm1.434-17.569c.485 0 .97-.006 1.455.001.626.01 1.04.357 1.028.848-.013.495-.372.787-1.006.79-.88.006-1.763.038-2.64-.018-2.135-.134-4.245-.42-6.27-1.155-2.217-.803-3.97-2.06-4.516-4.49-.06-.265-.217-.309-.43-.257-.985.243-1.915.594-2.671 1.301-2.01 1.88-2.288 5.471-.593 7.809 1.205 1.662 2.94 2.508 4.875 2.996 2.335.59 4.714.652 7.106.432 3.038-.28 5.806-1.234 8.218-3.115.648-.505 1.296-1.016 2.026-1.4 1.188-.626 2.417-1.112 3.803-.68.547.17 1.09.44 1.249.997.155.544.332.328.575.134 1.591-1.273 1.864-3.008 1.625-4.848-.184-1.415-1.01-2.554-2.003-3.56-1.584-1.608-3.51-2.614-5.726-3.08-.396-.085-.576-.233-.645-.676-.542-3.478-2.657-5.775-5.754-7.315-.36-.18-.538-.118-.666.27-.214.659-.643 1.184-1.202 1.594-.532.391-1.077.766-1.629 1.129-.973.642-1.495 1.516-1.412 2.683.04.53-.178.665-.681.646-1.157-.042-2.186.345-3.105 1.02-2.114 1.55-2.14 4.12-.059 5.71.6.46 1.265.805 1.974 1.07 2.279.855 4.657 1.12 7.072 1.166l.003-.002zM5.767 26.4c.483 2.16.937 4.194 1.395 6.227.128.567.523.738 1.078.736 2.442-.01 4.882-.001 7.323 0 3.429.001 6.857.004 10.286 0 .709 0 .844-.108.995-.775.494-2.171.987-4.342 1.47-6.516.237-1.069.523-2.133.466-3.244-.03-.593-.337-.916-.92-.86-1.032.1-1.976.447-2.825 1.143.636.225.762.653.682 1.21-.212 1.467-.405 2.938-.607 4.407-.092.664-.173 1.332-.288 1.994-.086.493-.52.786-.969.7-.467-.089-.721-.49-.642-.994.047-.297.076-.595.117-.892.26-1.886.522-3.771.791-5.708l-2.114 1.348c-.116.074-.163.179-.174.311-.033.405-.08.808-.108 1.214-.086 1.25-.154 2.503-.255 3.753-.047.583-.446.944-.922.912-.458-.03-.752-.4-.723-.997.055-1.128.152-2.256.208-3.385.043-.865.026-.865-.776-.57-.219.08-.435.184-.663.218-.488.071-.582.354-.555.787.06.987.097 1.977.117 2.966.012.587-.343.978-.831.983-.486.005-.833-.375-.835-.977-.003-.69-.067-1.376-.102-2.064-.059-1.124-.041-1.125-1.133-1.077-.755.033-.83.126-.728.865.101.735.216 1.468.29 2.206.06.585-.256.993-.748 1.047-.473.052-.846-.31-.917-.903-.082-.684-.153-1.369-.24-2.053-.118-.944-.12-.941-1.067-.974a4.75 4.75 0 01-.59-.052c-.358-.059-.456.075-.369.413.198.77.385 1.543.569 2.317.155.65-.063 1.109-.572 1.236-.512.128-.91-.19-1.065-.854l-.67-2.892c-.044-.195-.086-.407-.32-.443-1.007-.156-1.983-.439-3.058-.758V26.4z" fill="#C18539"/></g><defs><clipPath id="clip0_6665_37183"><path fill="#fff" d="M0 0h34v35H0z"/></clipPath></defs></svg>