<svg width="35" height="35" fill="none" xmlns="http://www.w3.org/2000/svg"><g clip-path="url(#clip0_6665_37202)" fill="#C18539"><path d="M.002 22.604c.295-1.035.962-1.678 2.019-1.903.267-.056.442-.207.572-.44.502-.891 1.285-1.323 2.292-1.358a.834.834 0 00.601-.267c.875-.88 1.682-1.099 2.859-.781.013-.093-.074-.103-.117-.132-.89-.603-1.287-1.455-1.114-2.499.179-1.075.856-1.76 1.933-2.007a1.02 1.02 0 00.703-.529c.483-.836 1.238-1.25 2.189-1.293a.967.967 0 00.714-.326c.77-.821 1.71-1.038 2.772-.725a.95.95 0 00.781-.073c.843-.457 1.7-.456 2.545-.009.256.136.492.174.78.087 1.074-.323 2.023-.101 2.8.732.19.204.4.3.684.313.98.043 1.745.475 2.233 1.339a.902.902 0 00.629.47c1.103.246 1.802.93 1.98 2.04.17 1.064-.255 1.913-1.16 2.51a.232.232 0 00-.078.08c.47-.12.944-.154 1.416-.061a2.43 2.43 0 011.393.804c.191.22.413.318.712.33.966.043 1.728.463 2.211 1.316.16.281.376.432.684.505 1.065.259 1.82 1.021 1.94 2.002.134 1.091-.243 1.968-1.202 2.555-.302.185-.529.423-.66.755-.072.183-.023.25.17.247.285-.005.57-.01.854.004.618.03.857.288.856.9-.002 1.887-1.374 3.712-3.226 4.243-.398.114-.625.297-.81.69-.877 1.857-2.358 2.855-4.429 2.86-6.02.013-12.043-.013-18.064.016-1.712.008-3.76-1.001-4.575-3.133-.067-.173-.144-.277-.339-.33-1.891-.5-3.055-1.714-3.505-3.614-.01-.044-.03-.086-.044-.129V26.7c.259-.337.617-.43 1.02-.416.204.007.409-.01.611.003.291.02.296-.105.195-.322-.113-.243-.26-.462-.494-.588-.687-.373-1.11-.945-1.333-1.682v-1.093l.002.002zm10.365 3.681c2.117 0 4.233-.01 6.35.01.402.004.604-.127.71-.504a2.853 2.853 0 011.369-1.756c.425-.246.585-.636.5-1.103-.079-.435-.382-.7-.805-.786-.74-.152-1.283-.542-1.642-1.21-.205-.38-.548-.563-.984-.566-.672-.006-1.242-.25-1.692-.755-.372-.417-.82-.545-1.353-.365-.64.218-1.248.151-1.84-.177-.394-.218-.81-.23-1.207-.008a2.244 2.244 0 01-1.905.175c-.521-.177-.958-.027-1.317.38-.43.49-.977.743-1.623.745-.497.002-.849.216-1.086.637a2.283 2.283 0 01-.583.705c-.313.244-.681.35-1.058.45-.386.103-.667.345-.758.754-.085.386.038.714.313.991.142.144.26.166.436.02.33-.278.677-.54 1.037-.778 3.392-2.232 7.002-2.934 10.904-1.522.59.213 1.162.468 1.707.775.416.234.552.637.362 1.008-.191.372-.596.484-1.03.28-.144-.067-.282-.146-.426-.217-1.96-.973-4.014-1.358-6.189-.983-1.901.327-3.586 1.138-5.115 2.296-.269.203-.34.465-.212.785.037.095.082.19.105.289.077.328.264.442.611.44 2.14-.016 4.28-.008 6.419-.008l.002-.002zm7.115 1.463H1.916c-.423 0-.442.028-.29.42.499 1.29 1.686 2.059 3.199 2.06l24.952.001c.376 0 .75-.018 1.123-.066 1.085-.137 2.186-1.08 2.493-2.129.065-.221.01-.298-.21-.287-.102.004-.204 0-.307 0H17.482zm-7.153-10.301c.588 0 1.029.161 1.45.399.175.099.359.096.559.034 1.125-.351 2.11-.134 2.918.753.153.167.33.267.566.268.523.003 1.016.131 1.452.428.156.106.279.1.432-.004a2.515 2.515 0 011.385-.42.861.861 0 00.656-.302c.783-.852 1.742-1.066 2.829-.737a.887.887 0 00.748-.083c.382-.219.791-.353 1.237-.32.241.017.402-.065.545-.262.188-.26.437-.466.72-.62.466-.252.676-.64.582-1.159-.085-.469-.414-.714-.865-.806-.704-.143-1.212-.537-1.557-1.164a1.084 1.084 0 00-1.003-.595c-.673-.003-1.241-.246-1.692-.753-.37-.416-.815-.552-1.352-.368a2.14 2.14 0 01-1.81-.162c-.418-.234-.849-.24-1.27-.007-.59.328-1.198.392-1.839.17-.518-.181-.964-.052-1.325.355-.459.519-1.034.767-1.72.767-.397 0-.736.159-.92.493-.393.72-.97 1.123-1.77 1.311-.771.183-.994 1.127-.454 1.69.17.178.309.214.52.04.34-.283.7-.545 1.07-.79 1.904-1.264 3.982-2.044 6.278-2.161 2.179-.112 4.216.421 6.133 1.443.09.048.182.098.26.162.294.239.362.607.179.917a.714.714 0 01-.882.315c-.138-.052-.269-.124-.399-.192-1.899-.995-3.908-1.392-6.04-1.114-2.076.27-3.884 1.153-5.62 2.476v-.002zm8.135 3.136c.13.122.284.118.422.154.486.126.915.36 1.239.742.158.186.287.182.496.11 1.53-.525 3.093-.787 4.724-.659 1.71.134 3.296.64 4.797 1.442.463.246.61.657.4 1.048-.2.375-.613.479-1.064.24-1.27-.673-2.604-1.13-4.042-1.268-1.52-.145-2.992.072-4.42.599-.14.051-.22.127-.237.292-.091.927-.544 1.622-1.361 2.077-.274.153-.417.41-.537.685-.069.156-.032.24.148.238l.308.002c3.824 0 7.648.003 11.472-.002.665 0 .628.14.888-.614.24-.694.656-1.24 1.297-1.61.401-.233.612-.588.553-1.049-.063-.482-.38-.767-.845-.868-.71-.154-1.244-.522-1.594-1.17-.217-.398-.564-.605-1.033-.605a2.137 2.137 0 01-1.657-.749c-.371-.416-.815-.55-1.35-.368a2.174 2.174 0 01-1.842-.172 1.214 1.214 0 00-1.239-.004c-.592.328-1.2.393-1.84.175-.534-.18-.982-.05-1.352.37-.45.506-1.02.744-1.693.752-.23.003-.445.052-.638.213zm-.962 11.098c-3.835 0-7.669-.001-11.504.003-.171 0-.42-.096-.499.08-.071.16.129.323.24.461.762.968 1.791 1.35 2.995 1.35 5.711-.001 11.424-.002 17.136.002.41 0 .82-.008 1.224-.075.996-.166 1.765-.69 2.323-1.53.147-.221.08-.307-.172-.293-.079.005-.16 0-.239 0H17.503l-.001.002zM17.828 0c.632.533.676 1.25.605 1.992a2.38 2.38 0 01-.295.902c-.234.433-.215.865.009 1.303.417.81.43 1.636.042 2.46-.21.444-.62.596-1.015.402a.69.69 0 01-.33-.926c.216-.498.18-.956-.062-1.437-.403-.807-.371-1.627.041-2.424.202-.39.227-.78.084-1.185-.19-.533-.136-.74.307-1.087h.615-.001zm-3.46 2.8c-.002.576-.082.999-.295 1.385-.265.48-.25.943-.003 1.428.393.766.396 1.552.054 2.338-.204.47-.61.66-1.014.488-.39-.164-.523-.568-.332-1.037a1.424 1.424 0 00-.054-1.25c-.437-.85-.426-1.704.014-2.55.203-.39.237-.798.048-1.182-.233-.47.053-.923.345-1.04.416-.165.795.014 1.009.496.148.335.23.689.226.923h.002zm8.192.159c-.005.45-.1.877-.317 1.276-.242.445-.231.889 0 1.335.396.763.42 1.543.094 2.335-.203.495-.61.704-1.02.534-.403-.166-.53-.564-.335-1.062.157-.404.152-.8-.048-1.186-.453-.873-.446-1.743.007-2.611.198-.378.194-.763.05-1.153-.176-.48-.055-.876.324-1.04.41-.177.799.002 1.013.48.155.345.238.71.231 1.092h.001z"/></g><defs><clipPath id="clip0_6665_37202"><path fill="#fff" d="M0 0h35v35H0z"/></clipPath></defs></svg>