<svg width="35" height="35" fill="none" xmlns="http://www.w3.org/2000/svg"><g clip-path="url(#clip0_6665_37195)" fill="#C18539"><path d="M0 29.805c.18-1.154.496-2.263 1.04-3.303.963-1.84 2.363-3.278 4.062-4.44 2.304-1.578 4.873-2.486 7.595-3.008 2.046-.391 4.114-.498 6.186-.397 3.168.155 6.222.822 9.073 2.259 2.33 1.174 4.318 2.752 5.685 5.02.69 1.143 1.145 2.375 1.315 3.705.008.056.028.11.044.164v1.846c-.16.609-.382 1.188-.758 1.702-.651.888-1.543 1.39-2.592 1.647H3.35c-.6-.154-1.168-.371-1.676-.737C.77 33.613.256 32.714 0 31.651v-1.846zm7.159-7.37c-.13-.036-.185.01-.242.042-1.56.893-2.936 2-4.001 3.46-1.134 1.555-1.77 3.275-1.677 5.227.024.517.197.98.49 1.398.648.924 1.579 1.253 2.664 1.253H30.09c.228 0 .456.003.684-.001 1.5-.03 2.657-.904 2.936-2.275.142-.697.072-1.407-.065-2.104-.445-2.248-1.7-3.995-3.404-5.456-.424-.364-.429-.354-.64.145-.565 1.332-1.122 2.665-1.7 3.99-.287.66-.811 1.045-1.53 1.09-1.357.087-2.281-1.248-1.752-2.518.627-1.502 1.266-3 1.9-4.499.186-.437.19-.443-.233-.612-.444-.178-.888-.357-1.341-.509-.763-.256-.588-.272-.867.378-.861 2.01-1.703 4.027-2.569 6.033-.42.975-1.447 1.394-2.372 1.004-.924-.39-1.326-1.415-.927-2.397.287-.706.592-1.405.889-2.108.501-1.185.999-2.37 1.507-3.552.114-.264.07-.36-.23-.383-.567-.043-1.132-.106-1.7-.135-.293-.015-.424.099-.529.354-.455 1.106-.924 2.205-1.392 3.305-.565 1.33-1.114 2.669-1.703 3.989a1.78 1.78 0 01-2.561.813 1.827 1.827 0 01-.697-2.3c.804-1.861 1.583-3.731 2.37-5.599.042-.1.156-.213.078-.313-.072-.092-.217-.04-.325-.021-.582.104-1.161.224-1.744.323-.23.04-.348.158-.436.37-.6 1.44-1.21 2.874-1.819 4.31-.43 1.017-.844 2.042-1.304 3.046-.394.86-1.331 1.226-2.21.918a1.766 1.766 0 01-1.146-2.073c.117-.512.378-.975.579-1.458.433-1.04.873-2.075 1.32-3.134l.002-.001zm6.192 4.938c.402-.027.541-.26.659-.538.874-2.077 1.756-4.151 2.633-6.227.296-.701.293-.687-.47-.701-.31-.007-.46.095-.579.385-.517 1.264-1.06 2.518-1.593 3.776-.356.839-.715 1.676-1.06 2.519-.159.389.095.79.41.787zm6.438 0c.364-.028.512-.237.626-.507.806-1.918 1.625-3.83 2.428-5.749.264-.63.407-.547-.406-.74-.32-.077-.462-.003-.588.303-.67 1.617-1.362 3.225-2.046 4.837-.155.366-.32.729-.456 1.102-.137.374.124.758.44.754h.002zm-9.514-6.302l-.068-.066c-.318.117-.632.243-.954.347a.692.692 0 00-.468.448c-.193.498-.412.986-.62 1.478-.548 1.299-1.1 2.597-1.643 3.898-.125.301-.01.597.252.72.274.127.554.024.72-.27.04-.069.067-.144.098-.217l1.944-4.585c.247-.583.493-1.168.739-1.753zm15.987 6.868c.318 0 .453-.218.56-.47.554-1.312 1.109-2.622 1.661-3.934.294-.695.288-.69-.375-1.058-.207-.115-.315-.103-.41.132-.259.644-.54 1.28-.81 1.92-.37.87-.744 1.738-1.101 2.612-.177.433.055.803.474.797v.001zM17.772 0c.598.381.678.753.363 1.379-.951 1.889-.769 3.69.462 5.394.552.766 1.213 1.458 1.652 2.3 1.075 2.059 1.157 4.114-.148 6.113-.52.795-1.282 1.316-2.151 1.679-.392.163-.791.085-1.038-.183-.26-.281-.303-.659-.1-1.044 1.048-1.983.827-3.851-.498-5.624-.49-.656-1.042-1.27-1.447-1.986-1.171-2.07-1.302-4.16-.012-6.232.422-.679 1.043-1.169 1.752-1.539.161-.084.32-.17.481-.255h.684V0zm-1.189 1.763a3.147 3.147 0 00-1.245 1.912c-.34 1.51-.04 2.891.874 4.136.371.505.759.996 1.135 1.498.919 1.223 1.421 2.576 1.346 4.131a8.208 8.208 0 01-.264 1.657c.424-.224.854-.744 1.057-1.32.539-1.523.381-2.976-.48-4.346-.415-.657-.925-1.242-1.386-1.864-.899-1.21-1.384-2.545-1.316-4.073a8.323 8.323 0 01.28-1.731zM23.927 0c.478.442.495.59.296 1.196-.429 1.31-.424 2.554.626 3.615.192.194.36.41.546.61 1.334 1.423 1.05 3.425.03 4.687-.542.67-1.222 1.152-1.997 1.511-.311.145-.598.113-.852-.122a.708.708 0 01-.187-.842c.24-.58.294-1.184.306-1.804.012-.652-.21-1.202-.62-1.69a26.4 26.4 0 00-.784-.901c-1.446-1.573-1.03-3.637.167-4.943C21.982.745 22.626.345 23.312 0h.615zm-.01 9.882c.211-.222.383-.375.523-.551.695-.88.92-2.16-.026-3.131-.174-.179-.334-.373-.5-.56-.544-.61-.994-1.274-1.139-2.1-.083-.475-.037-.952-.031-1.43 0-.063.027-.149-.051-.181-.076-.032-.122.04-.169.087-.292.292-.54.617-.692 1.004-.355.896-.25 1.712.422 2.432.201.216.394.44.59.662.536.607.955 1.278 1.073 2.095.076.528.038 1.063 0 1.673zm-13.83 3.889c.044-.339.247-.727.313-1.158.165-1.079-.025-2.035-.816-2.831a10.96 10.96 0 01-.635-.714c-1.116-1.338-1.108-3.12.017-4.55.539-.684 1.224-1.181 2.01-1.547.324-.15.626-.127.884.117.257.243.303.542.17.876-.29.733-.394 1.49-.262 2.272.082.489.332.892.644 1.26.286.34.592.662.87 1.009.973 1.216.985 2.53.314 3.868-.517 1.029-1.4 1.694-2.426 2.165-.542.248-1.078-.103-1.082-.768v.001zm1.578-1.08c.038.002.067.013.08.003 1.017-.79 1.458-2.417.535-3.437-.191-.21-.37-.432-.566-.64-.93-.986-1.424-2.122-1.216-3.505.013-.094.04-.201-.069-.344-.142.155-.284.296-.41.45-.684.823-1.024 2.154.055 3.236.209.208.396.438.59.662.522.606.905 1.282 1.014 2.087.067.495.04.992-.013 1.489z"/></g><defs><clipPath id="clip0_6665_37195"><path fill="#fff" d="M0 0h35v35H0z"/></clipPath></defs></svg>