<svg width="90" height="90" fill="none" xmlns="http://www.w3.org/2000/svg"><path d="M39.112 2.76c-9.51.58-17.93 3.165-24.38 7.471-3.903 2.602-6.909 5.696-9.071 9.387-.844 1.424-.914 1.881-.299 2.285.65.422 1.055.176 1.81-1.142C11.779 12.763 22.08 6.874 34.719 4.976c3.04-.457 12.04-.457 15.292 0 8.333 1.177 16.014 3.62 20.655 6.556 3.445 2.18 6.697 5.203 9.193 8.543 5.045 6.733 7.858 14.397 8.156 22.201.282 7.594-1.916 15.293-6.416 22.465-6.732 10.723-18.386 18.07-32.115 20.198-3.287.51-10.23.562-13.166.087-4.746-.755-8.156-1.793-12.023-3.656-4.272-2.039-7.067-4.043-10.899-7.787-7.611-7.453-11.46-16.137-11.46-25.857 0-6.838 1.44-13.518 4.007-18.633 1.055-2.127 1.951-3.393 3.498-5.01 1.371-1.441 1.53-1.898 1.037-2.813l-.246-.421-1.617 1.564c-3.885 3.78-5.678 7.348-7.277 14.502-2.32 10.371-1.547 18.914 2.39 26.79 2.952 5.905 8.12 11.916 13.852 16.117 4.008 2.936 7.787 4.711 12.48 5.836 10.037 2.444 19.67 2.092 28.16-1.002 3.692-1.336 10.547-4.552 13.114-6.152 5.062-3.147 9.105-7.734 13.394-15.223 1.776-3.129 2.725-5.133 3.516-7.506 2.18-6.609 2.303-14.15.334-22.025C85.659 22.026 77.52 12.077 66.99 7.384c-3.287-1.477-7.945-2.83-12.322-3.586-4.57-.791-11.795-1.266-15.557-1.037z" fill="#fff"/><path d="M31.853 26.825c-1.072.756-1.406 2.514-1.617 8.508-.228 6.328-.228 16.049-.017 18.809.351 4.412.685 5.255 2.53 6.45.827.546 1.003.599 1.846.51 1.178-.105 1.864-.456 6.54-3.41C49.273 52.577 56.972 47.163 60.61 44c1.319-1.143 2.848-2.76 2.848-3.023 0-.088-.123-.44-.264-.791-.264-.598-.527-.756-4.71-2.813-7.718-3.797-19.161-8.648-24.522-10.406-1.512-.492-1.6-.51-2.11-.14zm9.756 9.457c1.6.493 4.852 1.776 5.485 2.145.562.334.474.299-2.62-.774a93.889 93.889 0 00-4.605-1.459c-2.584-.685-3.375-1.16-1.16-.685.861.193 2.162.527 2.9.773zm-4.025 1.178c.597.193 1.09.37 1.09.387 0 .053-3.41-.07-3.463-.123-.018-.018-.088-.37-.158-.774l-.123-.738.773.44c.422.228 1.266.597 1.88.808zm-1.81 4.711c-.194.809-.44.844-.44.053 0-.598.052-.703.281-.615.193.07.246.228.158.562zm8.665-.387a1.805 1.805 0 01-.615 0c-.176-.053-.035-.088.299-.088.334 0 .474.035.316.088zm1.582.176a1.804 1.804 0 01-.615 0c-.176-.053-.035-.088.299-.088.334 0 .474.035.316.088zm-4.675 2.18c-.264.105-.528.088-.704-.018-.228-.123-.14-.158.405-.158.615 0 .65.017.299.176zm6.1 1.635c-.423.369-11.04 4.746-11.18 4.605-.053-.035-.018-.299.07-.563.14-.404.369-.544 1.652-.949a66.98 66.98 0 003.41-1.23c2.637-1.037 6.434-2.197 6.047-1.863z" fill="#fff"/></svg>