<svg width="21" height="21" fill="none" xmlns="http://www.w3.org/2000/svg"><g clip-path="url(#clip0_6665_35005)"><path d="M14.25-.156c.26 0 .514.039.762.117.247.078.475.195.683.351.209.157.39.333.547.528a2.3 2.3 0 01.371.683l3.545 10.625c.228.671.342 1.361.342 2.07 0 .606-.114 1.173-.342 1.7a4.423 4.423 0 01-2.324 2.324 4.381 4.381 0 01-1.709.352c-.58 0-1.136-.11-1.67-.332a4.439 4.439 0 01-1.426-.948 4.343 4.343 0 01-1.28-3.096V9.845H9.251v4.375c0 .58-.11 1.136-.332 1.67a4.44 4.44 0 01-.947 1.425 4.342 4.342 0 01-3.096 1.28 4.239 4.239 0 01-1.7-.342 4.423 4.423 0 01-2.323-2.324 4.381 4.381 0 01-.352-1.71c0-.709.114-1.399.342-2.07a190.191 190.191 0 00.654-1.973c.17-.52.361-1.093.576-1.718.215-.625.43-1.26.645-1.904l.625-1.875a419.675 419.675 0 00.908-2.754c.091-.28.14-.423.146-.43A2.794 2.794 0 015.314.303c.202-.15.427-.26.674-.332.248-.072.502-.114.762-.127.482 0 .876.078 1.182.234.306.156.553.365.742.625.189.26.325.563.41.908.085.345.137.703.156 1.075.02.37.03.742.03 1.113 0 .37-.007.72-.02 1.045h2.5c0-.32-.003-.664-.01-1.035-.006-.372-.003-.746.01-1.123.013-.378.068-.733.166-1.065.098-.332.231-.635.4-.908.17-.274.417-.485.743-.635.325-.15.722-.228 1.191-.234zm-9.375 17.5a3.056 3.056 0 002.197-.918c.28-.287.505-.619.674-.996.17-.378.254-.782.254-1.211a3.054 3.054 0 00-.918-2.197 3.401 3.401 0 00-.996-.674 2.926 2.926 0 00-1.211-.254 3.054 3.054 0 00-2.197.918c-.28.286-.505.618-.674.996a2.91 2.91 0 00-.254 1.21 3.054 3.054 0 00.918 2.197c.286.281.618.506.996.675.378.17.781.254 1.211.254zM8 2.344c0-.176-.033-.339-.098-.489a1.253 1.253 0 00-.263-.39 1.362 1.362 0 00-.4-.274 1.059 1.059 0 00-.489-.097c-.254 0-.492.078-.713.234a1.26 1.26 0 00-.469.606L2.746 10.39a4.665 4.665 0 012.129-.547c.215 0 .475.029.781.088.306.058.615.146.928.263.312.117.596.258.85.42.253.163.442.345.566.547V2.344zm3.75 6.25v-2.5h-2.5v2.5h2.5zM13 11.162c.117-.202.303-.384.557-.547.253-.162.537-.3.85-.41a7.62 7.62 0 01.927-.264c.306-.065.57-.097.791-.097a4.417 4.417 0 012.129.547l-2.822-8.457a1.204 1.204 0 00-.46-.606 1.228 1.228 0 00-.722-.234 1.211 1.211 0 00-.878.361 1.32 1.32 0 00-.274.4 1.058 1.058 0 00-.098.489v8.818zm3.125 6.182a3.057 3.057 0 002.197-.918c.28-.287.505-.619.674-.996.17-.378.254-.782.254-1.211a3.054 3.054 0 00-.918-2.197 3.4 3.4 0 00-.996-.674 2.926 2.926 0 00-1.211-.254 3.055 3.055 0 00-2.197.918c-.28.286-.505.618-.674.996a2.91 2.91 0 00-.254 1.21 3.054 3.054 0 00.918 2.197 3.4 3.4 0 00.996.675c.378.17.781.254 1.211.254z" fill="#fff"/></g><defs><clipPath id="clip0_6665_35005"><path fill="#fff" transform="translate(.5 .5)" d="M0 0h20v20H0z"/></clipPath></defs></svg>