<svg width="149" height="38" fill="none" xmlns="http://www.w3.org/2000/svg"><path fill-rule="evenodd" clip-rule="evenodd" d="M1.138.297V1.37H2.25V.297h.67v2.795h-.67V1.924H1.138v1.168H.46V.297h.677zm139.278 10.88c-.931 0-1.69.64-1.69 1.422 0 .785.759 1.424 1.69 1.424.932 0 1.689-.64 1.689-1.424 0-.783-.757-1.422-1.689-1.422zm1.345 1.422c0 .628-.602 1.135-1.345 1.135s-1.345-.509-1.345-1.135c0-.622.603-1.132 1.345-1.132.743 0 1.345.51 1.345 1.132zm-1.04-.24l-.078.053a.699.699 0 01-.199.022h-.372v-.298h.423c.093 0 .167.015.203.045l.054.101-.03.078h-.001zm.559.883l-.282-.378a1.17 1.17 0 00-.167-.176.545.545 0 00.194-.105.4.4 0 00.139-.302.418.418 0 00-.08-.251.485.485 0 00-.227-.164 1.242 1.242 0 00-.373-.043h-.818v1.539h.406v-.61h.156l.101.005.067.025.083.072c.043.043.092.105.158.186l.213.286.028.035h.494l-.091-.12h-.001zm-10.213 23.99V35.11h-.681v-1.04h2.563v1.04h-.681v2.12h-1.201zm-3.695 0v-3.163h2.262v.867h-1.067v.302h.96v.81h-.96v.327h1.088v.856h-2.283zm-4.323 0v-3.163h1.194v1.351l.766-1.35h1.379l-1.025 1.562 1.163 1.6h-1.471l-.812-1.321v1.32h-1.194zm-2.553-1.752h.284c.172 0 .255-.086.255-.256 0-.175-.091-.261-.27-.261h-.269v.517zm-.005.828v.923h-1.22V34.07h1.504c.466 0 .819.092 1.058.272.237.181.354.472.354.874 0 .31-.124.564-.369.777-.249.207-.592.316-1.03.316h-.297zm-3.561-.224l-.241-1.052h-.024l-.241 1.052h.506zm-2.103 1.145l1.194-3.16h1.347l1.184 3.16h-1.309l-.106-.399h-.909l-.108.4h-1.293zm-1.86-1.825l-.148.612-.382 1.215h-.726l-.379-1.215-.157-.612-.054.579-.141 1.248h-1.19l.576-3.162h1.251l.479 1.61.483-1.61h1.249l.531 3.162h-1.189l-.145-1.248-.058-.58zm-5.531.076h.29c.17 0 .253-.086.253-.256 0-.175-.091-.261-.273-.261h-.27v.517zm-.002.828v.923h-1.218V34.07h1.501c.47 0 .821.092 1.06.272.234.181.358.472.358.874-.001.31-.129.564-.374.777-.251.207-.591.316-1.028.316h-.299zm-4.39.923V34.07h2.263v.867h-1.068v.302h.964v.81h-.964v.327h1.088v.856h-2.283zm-4.072 0V34.07h3.167v3.162h-1.215v-2.295h-.74v2.295h-1.212zm-2.085 0V34.07h1.232v3.162h-1.232zm-2.988 0V34.07h2.116v.867h-.9v2.295h-1.216zm-4.89-3.41c-.227 0-.436-.057-.634-.17-.192-.114-.29-.294-.29-.538l.61.001c0 .204.11.304.318.304.207 0 .31-.101.31-.304h.613c0 .246-.095.425-.292.54-.197.11-.405.166-.637.166l.001.001zm-1.566 3.416v-3.168h1.214v1.697l.743-1.697h1.216v3.167H89.4v-1.59l-.743 1.59h-1.214zm-4.035-.006V34.07h1.212v1.695l.745-1.695h1.213v3.162h-1.213v-1.586l-.745 1.586h-1.213zm-4.046 0V34.07h1.211v1.06h.744v-1.06h1.214v3.162h-1.214v-1.108h-.744v1.108h-1.21zm-2.342-.778c.187 0 .277-.089.277-.255 0-.162-.101-.246-.29-.246h-.273v.501h.285zm-.01.778h-1.427V34.07h1.151v1.177h.281c.453 0 .805.072 1.06.211.259.14.382.383.382.725 0 .369-.13.635-.395.8-.264.17-.613.25-1.052.25zm-4.09-1.535c0 .406-.03.723-.097.952-.061.23-.172.396-.333.505-.156.105-.372.159-.64.159-.241 0-.416-.017-.519-.05v-.993c.16 0 .267-.052.327-.162.06-.107.089-.257.089-.45V34.07h3.019v3.162h-1.21v-2.295h-.637v.76zm-4.666 1.535V34.07h2.261v.867h-1.07v.302h.963v.81h-.962v.327h1.09v.856h-2.282zm-2.272-.778c.188 0 .28-.086.28-.255 0-.162-.1-.246-.299-.246h-.282v.501h.302-.001zm-.035-1.197c.152 0 .235-.077.235-.231a.185.185 0 00-.064-.15l-.16-.049h-.278v.43h.267zm-1.409 1.975V34.07h1.622c.35 0 .623.072.822.216a.67.67 0 01.298.57c0 .215-.043.374-.13.479a.967.967 0 01-.41.257c.455.107.684.35.684.724 0 .61-.426.916-1.27.916H64.54zm-2.124 0V34.07h1.233v3.162h-1.233zm-2.977-.856h.74v-1.44h-.532v.61c0 .327-.066.603-.208.83zm1.964.002h.185v1.45H60.38l.065-.596h-1.208l.063.596h-1.204v-1.452h.089c.245-.249.368-.641.368-1.175v-1.13H61.4v2.308zm-5.89-1.14l.552-1.168h1.38l-1.786 3.162h-1.38l.454-.81-.993-2.352h1.38l.393 1.169zm-3.966 1.216c.188 0 .284-.089.284-.255 0-.162-.1-.246-.296-.246h-.275v.501h.287zm.832-2.384v.867H51.26v.31h.28c.452 0 .81.072 1.066.211.256.14.387.383.387.725 0 .369-.134.635-.398.8-.266.17-.618.25-1.057.25h-1.435V34.07h2.276zm-28.404.605c-7.683 0-13.932-5.271-13.932-11.747 0-5.938 5.25-10.854 12.044-11.635v3.216c0 .622.416 1.158 1.031 1.425v3.031h-6.421c-.435 0-.825.189-1.045.495a.893.893 0 00-.038 1.013l7.276 11.708c.209.342.628.55 1.085.55.458 0 .874-.208 1.083-.55l7.276-11.707a.887.887 0 00-.036-1.014c-.22-.306-.622-.495-1.047-.495h-6.42v-3.031c.617-.267 1.038-.803 1.038-1.426l-.001-3.215c6.788.784 12.036 5.698 12.036 11.635 0 6.477-6.247 11.747-13.928 11.747h-.001zM25.866 9.09V6.91c0-.882-.85-1.594-1.893-1.594-1.046.001-1.887.712-1.887 1.594v2.177c-8.227.792-14.64 6.694-14.64 13.84 0 7.684 7.413 13.93 16.527 13.93 9.116 0 16.525-6.247 16.525-13.93 0-7.143-6.406-13.044-14.632-13.837zm65.743 16.166h-1.15V9.344h-5.49v15.912H83.27V9.344h-5.495v19.871h10.039v1.964H50.1v1.484h82.837V31.18H91.61v-5.922zm41.962-10.7c-1.173 0-2.132.81-2.132 1.797 0 .99.959 1.795 2.132 1.795 1.18 0 2.136-.805 2.136-1.795-.001-.988-.955-1.798-2.136-1.798zm.396 2.976l-.604-.982v.982h-.89v-2.357h.89v1.012l.568-1.012h1.024l-.761 1.163.869 1.194h-1.096zm4.513-3.83a2.887 2.887 0 00-.748-1.375c-.372-.381-.921-.67-1.659-.868-.735-.202-1.781-.305-3.139-.305h-5.049v18.062h4.994v-7.282h1.353c1.095 0 1.984-.142 2.665-.425.68-.28 1.146-.688 1.396-1.215.254-.527.379-1.367.379-2.519v-1.57c0-1.129-.065-1.964-.191-2.501l-.001-.001zm-4.909 5.017c-1.544 0-2.804-1.063-2.804-2.366.003-1.303 1.26-2.365 2.804-2.365 1.546.001 2.809 1.062 2.809 2.365 0 1.303-1.263 2.365-2.809 2.366zm-57.925-7.566h-4.994v18.062h4.994V11.154zm43.093 18.062h4.995v-14.44h2.994v-3.62h-10.937v3.62h2.948v14.44zm-10.644-7.578h1.547v7.578h4.993V11.153h-4.993v6.486h-1.547v-6.486h-4.993v18.062h4.993v-7.578zm-52.498 3.62H51.55V20.88H55v-3.79h-3.45v-3.786h3.694v-3.96h-9.187v19.872h9.538v-3.959zM62.1 14.731h1.548v14.483h4.994v-18.1H57.11v18.1h4.992V14.732zm39.552 10.864h-3.697v-3.959h3.147v-3.45h-3.147v-3.412h3.349v-3.62h-8.34v18.06h8.688v-3.619zm45.478-22.95c.066.008.144.008.259.008.308 0 .577-.112.577-.403 0-.28-.269-.393-.605-.393h-.231v.787zm0-1.24h.219c.353 0 .543-.137.543-.344 0-.21-.172-.324-.474-.324-.149 0-.231.007-.289.016v.652h.001zm-.673-1.07c.182-.032.539-.057.873-.057.412 0 .667.037.882.157.209.104.362.294.362.545 0 .25-.16.481-.495.599v.01c.342.086.596.325.596.685 0 .254-.129.453-.31.596-.217.161-.581.252-1.176.252a5.35 5.35 0 01-.731-.044V.335h-.001zm-.58-.039v2.796h-.677V.297h.677zm-2.529.532h-.803V.297h2.296V.83h-.818v2.264h-.675V.83zm-1.17 1.082h-1.095v.664h1.229v.518h-1.908V.297h1.842v.52h-1.162v.581h1.095v.514h-.001zm-3.78-1.614V1.46h.057l.82-1.163h.82l-1.04 1.241c.387.091.558.34.682.676.104.299.204.603.343.878l-.725.001c-.1-.19-.156-.407-.226-.613-.103-.316-.241-.555-.604-.555h-.127v1.168h-.669V.297h.669zm-2.576 1.308c.059.013.13.017.227.017.359.001.579-.17.579-.456 0-.257-.187-.412-.524-.412-.136 0-.23.013-.281.026v.825h-.001zm-.669-1.27c.214-.031.503-.056.916-.056.413 0 .711.073.912.223a.807.807 0 01.316.646c0 .274-.095.508-.274.663-.23.205-.57.297-.969.297a1.94 1.94 0 01-.231-.013v.999h-.669V.336h-.001zm-1.451 1.57l-.187-.595c-.05-.165-.104-.374-.146-.538h-.012c-.043.165-.089.375-.137.537l-.18.597h.662zm-.755.471l-.212.717h-.702l.915-2.796h.88l.931 2.796h-.728l-.228-.717h-.856zm-1.921-.353c-.011-.335-.027-.743-.027-1.147h-.011a14.19 14.19 0 01-.334 1.083l-.361 1.09h-.525l-.318-1.079a11.039 11.039 0 01-.272-1.094h-.008c-.018.375-.032.807-.053 1.156l-.054 1.061h-.622l.188-2.796h.896l.296.936c.09.32.182.672.249 1l.016.001c.081-.326.186-.696.28-1.006l.321-.93h.88l.161 2.795h-.655l-.047-1.07zm-4.368-.418a.986.986 0 00.224.017c.358.001.583-.17.583-.456 0-.257-.193-.412-.529-.412a1.26 1.26 0 00-.277.026v.825h-.001zm-.67-1.27a6.27 6.27 0 01.912-.056c.418 0 .711.073.911.223a.794.794 0 01.318.646c0 .274-.098.508-.272.663-.233.205-.57.297-.969.297a2.05 2.05 0 01-.23-.013v.999h-.67V.336zm-.589 1.576h-1.097v.664h1.225v.518h-1.902V.297h1.839v.52h-1.162v.581h1.097v.514zM123.037.297v2.795h-.677V.815h-1.058v2.277h-.675V.297h2.41zm-2.993 0v2.795h-.676V.297h.676zm-1.041 0v.519h-1.127v2.277h-.675V.297h1.802zm-3.839 2.795l-.272-.505c-.11-.195-.178-.34-.265-.502h-.008c-.063.162-.137.307-.231.502l-.248.505h-.768l.863-1.413-.831-1.382h.773l.259.511c.091.17.158.306.227.464l.007.001c.071-.178.13-.303.205-.465l.254-.511h.767l-.838 1.367.887 1.428h-.781zM111.156.297v.829c0 .45-.006.892-.036 1.266h.017c.156-.326.356-.696.533-.995l.642-1.1h.691v2.796h-.621V2.27c0-.434.007-.816.05-1.18h-.012c-.14.332-.33.702-.507.995l-.607 1.008h-.768V.297h.618zm-2.63 0V1.46h.056l.827-1.163h.815l-1.037 1.241c.382.091.554.34.679.676.107.299.202.603.345.878l-.724.001c-.104-.19-.16-.407-.234-.613-.101-.316-.235-.555-.599-.555h-.127v1.168h-.666V.297h.666-.001zm-2.672 2.338c.077.01.156.014.255.014.326 0 .594-.148.594-.464 0-.32-.263-.455-.584-.455-.101 0-.178.013-.264.02v.886h-.001zm.007-2.338v.972c.095-.012.234-.02.361-.02.644 0 1.187.284 1.187.907a.826.826 0 01-.238.61c-.288.275-.789.357-1.255.357-.33 0-.577-.022-.728-.044V.297h.673zm-1.118 2.716c-.124.06-.404.126-.766.126-1.029 0-1.561-.603-1.561-1.403 0-.953.726-1.482 1.627-1.482.351 0 .618.064.736.124l-.138.502a1.49 1.49 0 00-.566-.106c-.536 0-.952.304-.952.926 0 .558.356.914.955.914a1.7 1.7 0 00.563-.096l.102.495zm-4.084-1.408c.059.013.13.017.227.017.36.001.583-.17.583-.456 0-.257-.193-.412-.531-.412-.134 0-.228.013-.279.026v.825zm-.665-1.27c.208-.031.497-.056.91-.056.417 0 .71.073.912.223a.805.805 0 01.318.646c0 .274-.098.508-.275.663-.231.205-.57.297-.967.297a1.91 1.91 0 01-.233-.013v.999h-.665V.336zm-1.455 1.57l-.184-.595c-.055-.165-.108-.374-.156-.538h-.004c-.047.165-.092.375-.138.537l-.18.597h.662zm-.756.471l-.213.717h-.697l.91-2.796h.886l.923 2.796h-.724l-.231-.717h-.854zm-2.738-1.19c0 .325-.043.637-.134.915a2.09 2.09 0 01-.207.478h.99V.813h-.649v.374zm1.327-.889v2.298l.297.02-.032 1.188h-.513l-.033-.71h-1.746l-.034.71h-.513l-.026-1.189.247-.02a2.81 2.81 0 00.283-.621c.083-.28.12-.588.12-.928V.297h1.95zm-4.856 1.406c0 .549.275.934.728.934.454 0 .713-.404.713-.949 0-.502-.254-.934-.722-.934-.454 0-.72.407-.72.95zm2.158-.037c0 .919-.592 1.473-1.468 1.473-.884.001-1.402-.626-1.402-1.424 0-.834.572-1.46 1.449-1.46.919 0 1.42.64 1.42 1.411zM90.354.297v2.796h-.677V.816h-1.058v2.277h-.675V.297h2.41zm-2.857 2.717c-.121.06-.4.125-.762.125-1.03.001-1.564-.603-1.564-1.402 0-.953.726-1.482 1.63-1.482.346 0 .612.064.733.123l-.137.503a1.492 1.492 0 00-.565-.106c-.537 0-.953.304-.953.926 0 .558.355.913.956.913.204 0 .429-.042.562-.095l.1.495zm-4.787-1.31c0 .548.274.933.725.933.458 0 .718-.404.718-.949 0-.502-.255-.934-.723-.934-.454 0-.72.407-.72.95zm2.153-.038c0 .919-.592 1.473-1.465 1.473-.883.001-1.401-.626-1.401-1.424 0-.834.571-1.46 1.451-1.46.916 0 1.416.64 1.415 1.411zM81.919.297v.52h-1.127v2.277h-.675V.298h1.803zm-2.23 1.495v.423h-1.158v-.423h1.159zm-3.6-.089c0 .549.276.934.727.934.454 0 .717-.404.717-.949 0-.502-.257-.934-.722-.934-.457 0-.722.407-.722.95zm2.155-.037c0 .919-.592 1.473-1.46 1.473-.888.001-1.406-.626-1.406-1.424 0-.834.571-1.46 1.451-1.46.916 0 1.416.64 1.415 1.411zM73.14.297v1.075h1.109V.297h.675v2.796h-.675V1.925H73.14v1.168h-.676V.297h.676zm-2.679 2.339c.075.01.154.014.254.014.326 0 .592-.149.592-.464-.001-.32-.262-.455-.584-.455-.1 0-.18.012-.262.02v.886-.001zm.006-2.339v.973c.091-.013.234-.02.361-.02.643-.001 1.187.283 1.187.907a.833.833 0 01-.239.61c-.286.274-.788.357-1.252.357-.334 0-.58-.022-.731-.044V.297h.674zm-1.264 0v2.796h-.672V.816h-.677v.664c0 .72-.098 1.275-.549 1.52-.152.08-.353.14-.594.14l-.084-.51a.617.617 0 00.343-.15c.18-.18.225-.536.225-.957V.298h2.008zm-2.915 1.615h-1.095v.664h1.225v.518h-1.902V.298h1.838v.52h-1.161v.581h1.095v.514-.001zm-3.779.733c.067.01.146.01.26.01.305 0 .575-.113.575-.404 0-.28-.27-.393-.604-.393h-.23v.787zm0-1.239h.22c.356 0 .548-.137.548-.344 0-.21-.176-.324-.478-.324a1.97 1.97 0 00-.29.016v.652zM61.84.336c.18-.032.537-.057.873-.057.412 0 .663.037.879.157.209.104.358.294.358.545 0 .25-.153.481-.49.599v.01c.34.086.595.325.595.685a.739.739 0 01-.308.596c-.219.161-.583.252-1.176.252-.333 0-.58-.022-.73-.044V.335zm-.585-.039v2.796h-.676V.297h.676zm-2.684.89c0 .324-.044.636-.132.914-.052.174-.13.345-.208.478h.993V.813h-.653v.374zm1.326-.89v2.298l.3.02-.032 1.188h-.515l-.034-.71h-1.742l-.036.71h-.513L57.3 2.614l.247-.02c.118-.196.216-.401.283-.621.083-.28.12-.588.12-.928V.297h1.95zM55.646.294l.432 1.005c.08.198.144.365.207.534h.017c.04-.121.088-.308.161-.542l.325-.997h.709l-.559 1.379c-.18.435-.365.856-.588 1.113a.992.992 0 01-.795.371.971.971 0 01-.329-.046l.044-.507c.057.012.126.021.225.021a.43.43 0 00.403-.262l-.01-.13-1.005-1.94h.763v.001zm-2.382 2.342c.077.01.169.014.26.014a.67.67 0 00.437-.145.408.408 0 00.148-.326.374.374 0 00-.158-.313.787.787 0 00-.448-.123c-.074 0-.154.008-.239.015v.878zM54.578.297v.52h-1.312v.477c.104-.012.247-.02.367-.02.3 0 .612.07.84.229.205.14.343.36.343.667a.787.787 0 01-.28.629c-.29.243-.757.325-1.214.325a5.068 5.068 0 01-.727-.044V.298h1.983zm-4.908 1.61l-.184-.596c-.054-.165-.107-.374-.152-.539l-.008.001c-.046.164-.091.375-.14.537l-.177.597h.661zm-.759.47l-.213.717h-.697l.91-2.796h.886l.926 2.796h-.727l-.228-.717h-.857zM44.809.297l.737 1.164h.065V.297h.644v1.164h.063l.744-1.164h.782l-1.018 1.25c.404.043.596.32.724.68.102.29.177.593.308.865l-.681.001c-.093-.185-.152-.419-.213-.617-.098-.298-.237-.551-.602-.551h-.106v1.168h-.644V1.925h-.115c-.361 0-.5.251-.596.55-.06.2-.12.432-.212.618h-.683c.133-.272.219-.575.314-.85.124-.36.316-.629.72-.695L44.02.298h.788zM43.7 1.912h-1.098v.664h1.225v.518h-1.905V.298h1.844v.52h-1.165v.581H43.7v.514-.001zm-3.68-.307a.992.992 0 00.224.018c.359 0 .578-.17.578-.457 0-.256-.189-.411-.525-.411-.138 0-.23.013-.278.025v.826zM39.35.336a6.11 6.11 0 01.912-.056c.418 0 .712.073.912.223.19.141.318.374.318.646 0 .274-.095.508-.273.663-.232.205-.571.297-.969.297-.09 0-.167-.007-.23-.014v1h-.67V.337zm-.59 1.576h-1.098v.664h1.228v.518h-1.904V.298h1.841v.52h-1.165v.581h1.098v.514-.001zm-2.995.111a24.537 24.537 0 01-.029-1.147h-.013c-.092.357-.218.755-.332 1.083l-.363 1.09h-.525l-.318-1.078c-.098-.332-.2-.732-.27-1.095h-.01c-.018.376-.03.808-.053 1.157l-.053 1.06h-.623l.188-2.795h.898l.294.935c.092.32.187.673.254 1.001h.011c.084-.325.185-.695.282-1.006l.32-.93h.88l.166 2.796h-.662l-.042-1.07zm-5.793-.117l-.185-.595a9.834 9.834 0 01-.149-.539l-.011.001c-.042.164-.087.375-.138.537l-.175.597h.658zm-.755.47l-.213.718h-.698l.911-2.796h.884l.925 2.796h-.724l-.23-.717h-.855zM26.149.298v1.075h1.109V.297h.673v2.796h-.673V1.925h-1.109v1.168h-.677V.297h.677zm-2.68 2.339c.076.01.155.014.254.014.326 0 .592-.149.592-.464 0-.32-.26-.455-.585-.455-.094 0-.177.012-.262.02v.886-.001zm.004-2.339v.973c.093-.013.236-.02.363-.02.643-.001 1.187.283 1.187.907a.823.823 0 01-.239.61c-.287.274-.788.357-1.252.357-.333 0-.582-.022-.731-.044V.297h.672zm-1.263 0v2.796h-.672V.816h-.677v.664c0 .72-.098 1.275-.55 1.52-.149.08-.352.14-.591.14l-.085-.51a.587.587 0 00.339-.15c.183-.18.225-.536.225-.957V.298h2.011zm-3.78 1.61l-.185-.596c-.053-.165-.105-.374-.152-.539l-.007.001c-.046.164-.091.375-.138.537l-.178.597h.66zm-.756.47l-.215.717h-.698l.913-2.796h.885l.926 2.796h-.727l-.23-.717h-.854zm-3.07-2.08v1.075h1.112V.297h.673v2.796h-.673V1.925h-1.113v1.168h-.676V.297h.676zm-3.275 1.406c0 .549.273.934.725.934.455 0 .718-.404.718-.949 0-.502-.26-.934-.724-.934-.454 0-.72.407-.72.95zm2.153-.037c0 .919-.593 1.473-1.462 1.473-.887.001-1.404-.626-1.404-1.424 0-.834.57-1.46 1.45-1.46.917 0 1.417.64 1.417 1.411zM10.167.297v2.796h-.675V.297h.675zm-3.074 0v2.278h1.046V.297h.672v2.298l.302.02-.031 1.188h-.516l-.033-.71H6.417V.299h.676zm-2.129 1.61L4.78 1.31c-.053-.165-.106-.374-.151-.539l-.01.001c-.044.164-.09.375-.137.537l-.178.597h.661zm-.756.47l-.212.717h-.701L4.207.298h.884l.926 2.796h-.724l-.234-.717h-.852.001z" fill="#254287"/></svg>