<svg width="149" height="47" fill="none" xmlns="http://www.w3.org/2000/svg"><path fill-rule="evenodd" clip-rule="evenodd" d="M35.248 38.357l4.55-5.593 4.038 5.6-8.59-.009.002.002zm-.108-11.685h8.829L57.805 46.08H48.89c-1.385-3.42-14.641-4.146-19.227 0h-8.428L35.14 26.672zm95.064 6.118l4.591 5.62-8.632-.048c.232-.757 3.552-4.136 4.041-5.571zm-4.069-6.118h8.017c.831 1.406 12.646 16.668 14.74 19.408h-8.166c-3.362-1.729-4.903-2.772-9.997-2.79-4.094-.016-7.729.576-10.124 2.79h-9.085c3.138-4.733 10.706-14.425 14.615-19.408zm-20.318 8.776c2.403-1.788 3.199-3.528 3.177-6.058-.009-.906-.006-1.812-.006-2.718h-8.022c.014 2.245.412 4.54-1.45 5.916-2.597 1.917-3.528 1.442-7.702 1.442v-7.358h-8.05l-.03 19.408h8.083l-.047-7.417c11.834-.003 10.511 2.123 10.724 7.417h8.008c0-3.314.491-6.445-3.144-8.893-2.862-1.927-2.055-1.091-2.411-.997l.87-.742zm-35.505 10.59l11.779-19.366H73.42l-7.362 12.302-7.936-12.302h-8.583l12.73 19.366h8.043zM1.03 26.726C.722 30.058-.051 39.206 2.507 41.64c4.483 4.265 9.983 4.427 18.599 4.44v-4.633c-5.718.017-11.13-.416-12.44-3.63-.731-1.792-.077-8.59-.273-11.131l-7.361.04z" fill="#92CC1A"/><path d="M26.438 23.23c-.11-2.447.334-4.318 1.616-5.611 1.376-1.386 3.597-2.088 6.948-2.088 3.414 0 5.452.852 6.635 2.323 1.08 1.345 1.348 3.195 1.292 5.367l-2.151-.015c.05-1.987-.169-3.648-1.072-4.774-.804-.999-2.243-1.579-4.702-1.579-2.524 0-4.154.487-5.107 1.447-1.047 1.055-1.406 2.695-1.307 4.894l-2.152.035v.002zM40.222 1.55a2.433 2.433 0 00-.472-.305 1.128 1.128 0 00-.47-.129.637.637 0 00-.387.134c-.353.275.479.727 1.346 1.195.238.128.478.259.707.39 1.166-.86 1.765-1.32 1.892-1.768l-.124.02c-.44.08-.895.26-1.072.43l-.666.642-.75-.607-.004-.001zm.586-1.135l.13.064a5.67 5.67 0 011.279-.4l.003-.002c.334-.063.68-.09.991-.071.434.027.807.137 1.07.353.229.186.34.43.287.742-.139.817-.91 1.383-2.506 2.56l-1.08.799-.663-.495c-.329-.246-.779-.49-1.22-.73-1.484-.804-2.91-1.576-1.562-2.633.13-.101.28-.194.445-.27a3.09 3.09 0 011.334-.267c.478.007.99.111 1.495.352l-.003-.002zm-30.03 6.082c.986 0 1.884.245 2.53.64.647.396 1.047.943 1.047 1.549 0 .603-.4 1.15-1.046 1.548-.647.396-1.542.64-2.53.64-.99 0-1.885-.245-2.531-.64C7.602 9.838 7.2 9.29 7.2 8.686c0-.606.4-1.153 1.047-1.549.646-.395 1.541-.64 2.53-.64zm1.31 1.39c-.335-.205-.799-.332-1.31-.332-.51 0-.975.127-1.31.331-.333.205-.54.487-.54.801 0 .313.207.595.54.8.335.204.8.331 1.31.331.511 0 .975-.127 1.31-.331.334-.205.541-.487.541-.8 0-.312-.207-.596-.541-.8zm14.626-6.194c1.12 0 2.133.277 2.868.727.735.45 1.188 1.07 1.188 1.754 0 .685-.453 1.305-1.188 1.755-.738.448-1.752.727-2.868.727-1.116 0-2.13-.278-2.864-.727l-.003-.002c-.735-.45-1.188-1.07-1.188-1.753 0-.683.456-1.303 1.19-1.753.733-.45 1.747-.728 2.865-.728zm1.647 1.474c-.42-.257-1.003-.418-1.647-.418-.643 0-1.226.16-1.646.418h-.003c-.42.257-.68.612-.68 1.007 0 .394.26.75.68 1.008l.003.001c.42.257 1 .416 1.646.416.644 0 1.227-.159 1.647-.416v-.001c.42-.257.682-.614.682-1.008s-.26-.75-.682-1.007zm6.32 7.772c.85 0 1.624.211 2.185.554l.003.002c.56.343.906.816.906 1.337 0 .522-.348.996-.906 1.339h-.003c-.56.343-1.334.554-2.185.554-.853 0-1.627-.211-2.188-.554-.56-.343-.906-.817-.906-1.339 0-.52.346-.994.906-1.337v-.002c.561-.343 1.334-.554 2.188-.554zm.967 1.301c-.246-.15-.589-.243-.967-.243s-.718.093-.967.245c-.246.15-.4.36-.4.592 0 .231.152.44.4.591.246.15.589.245.967.245.379 0 .721-.093.967-.243.246-.152.398-.362.398-.592 0-.231-.152-.44-.398-.591v-.004zM2.06 23.016c.028-2.657.177-4.55.633-6.009.483-1.54 1.3-2.613 2.654-3.563l-.002-.002c1.281-.9 3.176-1.406 5.245-1.66 2.434-.299 5.136-.246 7.293-.088.693-.721 1.497-1.37 2.414-1.998 1.707-1.166 4.282-1.82 7.091-2.12 3.442-.368 7.276-.21 10.224.171l-.44 1.29c-2.72-.351-6.253-.498-9.413-.16-2.376.253-4.517.779-5.86 1.697-1.795 1.225-3.102 2.545-3.941 4.454-.865 1.966-1.246 4.553-1.16 8.274l-2.152.015c-.089-3.856.314-6.555 1.229-8.63.276-.631.602-1.204.972-1.735-1.815-.101-3.928-.11-5.837.125-1.638.201-3.11.58-4.038 1.232h-.006c-1.088.764-1.754 1.65-2.16 2.945-.434 1.377-.575 3.198-.6 5.766l-2.151-.005.005.001zm61.962-8.189h-1.9c0-.783-.213-1.386-.642-1.814-.519-.51-1.336-.766-2.45-.766-1.433 0-2.403.6-2.906 1.799-.29.678-.436 1.663-.436 2.956 0 1.439.121 2.492.367 3.16.49 1.323 1.48 1.986 2.978 1.986 1.022 0 1.77-.26 2.243-.783.35-.385.597-.975.732-1.768l.116-.798h1.9l-.09.72c0 .533-.07.98-.205 1.346-.138.365-.403.745-.801 1.14a4.674 4.674 0 01-1.602.978c-.61.224-1.32.336-2.13.336-1.633 0-2.884-.333-3.754-1-.718-.553-1.204-1.356-1.464-2.41-.169-.697-.251-1.658-.251-2.876 0-1.096.107-1.997.32-2.707.304-1 .818-1.768 1.533-2.298.87-.636 2.07-.954 3.594-.954 1.572 0 2.784.36 3.64 1.079.81.678 1.213 1.568 1.213 2.674h-.005zm5.359 8.209h-1.9v-11.73h1.9v11.73zm11.542-2.596l3.411-9.133h3.34v11.729h-1.9V11.885l-.57 1.579-3.6 9.57h-2.267l-3.594-9.71-.503-1.44v11.152h-1.9v-11.73h3.356l3.384 9.147c.119.343.207.634.268.87.058.235.088.524.088.87.075-.293.13-.511.16-.658.106-.418.219-.783.324-1.096h.003zm18.936 2.596h-8.632v-11.73h8.585v1.174h-6.685v3.877H99.4v1.173h-6.273v4.333h6.732v1.173zm4.621-2.157v1.313c.107-.22.218-.448.331-.688.113-.24.218-.438.31-.593l4.878-9.603h3.091v11.73h-1.854v-11.15a9.873 9.873 0 01-.682 1.768l-4.793 9.388-3.132-.005v-11.73h1.853v9.572l-.002-.002zm-.138-12.84h1.121c.138.418.414.722.837.915.42.192.95.289 1.591.289.671 0 1.202-.092 1.591-.274.39-.183.661-.492.812-.93h1.122c0 .708-.331 1.24-.997 1.596-.663.355-1.539.532-2.622.532-1.005 0-1.815-.167-2.428-.5-.688-.375-1.03-.918-1.03-1.626l.003-.002zm14.22 14.997h-1.898v-11.73h1.898v4.896h6.571v-4.895h1.904v11.729h-1.904v-5.661h-6.571v5.66zm10.532 0l4.9-11.73h2.519l4.832 11.73-2.094-.004-1.367-3.375h-5.423l-1.271 3.375-2.093.004h-.003zm8.353-4.55l-2.221-6.256-2.323 6.255h4.544z" fill="#2B2A29"/></svg>