<svg width="150" height="30" fill="none" xmlns="http://www.w3.org/2000/svg"><path d="M146.126 3.234H3.871C2.225 3.234.89 4.38.89 5.794v20.81c0 1.413 1.334 2.56 2.98 2.56h142.255c1.646 0 2.981-1.147 2.981-2.56V5.793c0-1.414-1.335-2.56-2.981-2.56z" fill="#64283E"/><path fill-rule="evenodd" clip-rule="evenodd" d="M20.544 21.719c-2.95 1.821-9.482-.806-12.235 6.172 3.57-2.938 11.653.473 12.235-6.172z" fill="#B0CB1F"/><path fill-rule="evenodd" clip-rule="evenodd" d="M26.01 16.146c.638-2.647-1.313-4.289-3.192-4.267 5.673-5.607 1.766-10.098-2.89-10.853-2.832-.459-6.93.449-9.51 4.033C7.54 9.054 7.204 15.671 7.693 24.551c5.602-3.667 8.56-3.052 12.603-4.026 3.702-.893 5.266-2.53 5.712-4.379z" fill="#EF7F1A"/><path d="M34.836 19.894c1.194 0 2.236-.35 3.125-1.026.89-.676 1.346-1.746 1.346-3.164v-3.361c0-1.331-.508-2.38-1.524-3.1-1.016-.72-2.261-1.09-3.71-1.09-1.448 0-2.692.37-3.709 1.09-1.016.72-1.524 1.769-1.524 3.1V23.45c0 .655.686.982 2.033.982 1.346 0 2.032-.327 2.032-.982v-3.97c.534.284 1.169.415 1.93.415zm-1.93-7.66c0-1.528 2.337-1.528 2.337 0v3.579c0 1.528-2.338 1.528-2.338 0v-3.58zm19.359-3.012c0-.655-.686-.982-2.032-.982-1.347 0-2.033.327-2.033.982v6.591c0 1.528-2.338 1.528-2.338 0v-6.59c0-.656-.686-.983-2.032-.983-1.347 0-2.033.327-2.033.982v6.482c0 1.419.432 2.488 1.321 3.165.89.676 1.957 1.026 3.15 1.026.788 0 1.423-.153 1.931-.459v.851c0 .786-.686 1.31-1.6 1.31-.585 0-1.169-.175-1.754-.546-.61-.414-1.473-.152-2.083.655-.584.786-.533 1.397.153 1.833 1.041.655 2.363.982 3.963.982 1.601 0 2.896-.37 3.887-1.134.991-.764 1.5-1.768 1.5-3.056V9.222zm8.994.459c0 1.135-.584 2.008-1.779 2.597a1.55 1.55 0 00-.407.262V9.222c0-.655-.686-.982-2.032-.982-1.347 0-2.033.327-2.033.982v9.603c0 .655.686.982 2.033.982 1.346 0 2.032-.327 2.032-.982v-2.728c0-.153.127-.306.381-.458l.559-.305c.61.414 1.042.829 1.27 1.287.23.437.356 1.113.356 2.03v.175c0 .654.686.981 2.032.981 1.347 0 2.033-.327 2.033-.981v-.306c0-1.31-.177-2.313-.533-3.011-.356-.72-1.016-1.353-2.007-1.943 1.625-1.026 2.16-2.051 2.16-3.95v-.393c0-.655-.687-.982-2.034-.982-1.346 0-2.032.327-2.032.982v.458zm25.203 9.951c2.948 0 4.574-1.375 4.574-3.273 0-1.244-.559-2.118-1.651-2.598.838-.502 1.27-1.222 1.27-2.16 0-1.921-1.575-3.187-4.32-3.187h-4.852c-.712 0-.915.262-.915 1.048v9.122c0 .786.204 1.048.915 1.048h4.98zm-1.829-4.43h1.22c1.448-.131 1.448 2.051 0 1.92h-1.22v-1.92zm.915-4.277c.61 0 1.041.348 1.041.894s-.431.873-1.041.873h-.915v-1.768h.915zm13.796 7.9c0 .654.686.982 2.032.982 1.347 0 2.033-.328 2.033-.982V9.222c0-.655-.686-.982-2.033-.982-.965 0-1.575.153-1.803.436l-2.21 2.794V9.222c0-.655-.687-.982-2.033-.982-1.347 0-2.033.327-2.033.982v9.603c0 .654.686.982 2.033.982 1.346 0 2.032-.328 2.032-.982V15.55l1.982-2.51v5.784zm13.059 0c0 .654.686.982 2.032.982 1.347 0 2.033-.328 2.033-.982V9.222c0-.655-.686-.982-2.033-.982-1.346 0-2.032.327-2.032.982v3.23c0 1.528-2.338 1.528-2.338 0v-3.23c0-.655-.686-.982-2.032-.982-1.347 0-2.033.327-2.033.982v3.12c0 1.42.432 2.489 1.321 3.165.889.677 1.956 1.026 3.15 1.026.788 0 1.423-.153 1.931-.458v2.75h.001zm13.059-9.145c0 1.135-.584 2.008-1.779 2.598a1.56 1.56 0 00-.407.261V9.222c0-.655-.686-.982-2.032-.982-1.347 0-2.033.327-2.033.982v9.603c0 .654.686.982 2.033.982 1.346 0 2.032-.328 2.032-.982v-2.728c0-.154.127-.306.381-.459l.559-.305c.61.415 1.042.83 1.271 1.287.228.437.355 1.114.355 2.03v.175c0 .655.686.982 2.033.982 1.346 0 2.032-.327 2.032-.982v-.305c0-1.31-.177-2.314-.533-3.012-.356-.72-1.016-1.353-2.007-1.943 1.625-1.025 2.159-2.05 2.159-3.95v-.393c0-.655-.686-.982-2.033-.982-1.346 0-2.032.327-2.032.982v.459h.001zm12.754 6.679c.152 1.222-2.388 1.222-2.236 0 0-.59.33-.939.966-1.092l.66-.13c.28-.045.483-.132.61-.24v1.462zm-2.134-4.758c-.153-1.092 2.286-1.179 2.134.087v.393c0 .284-.279.502-.839.611l-2.082.415c-2.262.458-3.38 1.506-3.38 3.143 0 .981.483 1.833 1.423 2.553.941.72 2.185 1.091 3.71 1.091 1.448 0 2.693-.35 3.709-1.07 1.016-.72 1.524-1.767 1.524-3.12v-3.361c0-1.331-.508-2.357-1.499-3.078-.991-.741-2.236-1.113-3.734-1.113-1.525 0-2.744.327-3.659 1.004-.914.677-1.372 1.462-1.372 2.357v.175c0 .654.686.981 2.033.981 1.346 0 2.033-.327 2.033-.981V11.6h-.001zM74.013 16.36c.152 1.222-2.388 1.222-2.236 0 0-.59.33-.939.966-1.092l.66-.13c.28-.045.483-.132.61-.24v1.462zm-2.134-4.76c-.153-1.092 2.286-1.179 2.134.087v.393c0 .284-.28.502-.839.611l-2.083.415c-2.261.458-3.379 1.506-3.379 3.143 0 .981.483 1.833 1.423 2.553.94.72 2.185 1.091 3.71 1.091 1.448 0 2.693-.35 3.709-1.07 1.016-.72 1.524-1.767 1.524-3.12v-3.361c0-1.331-.508-2.357-1.499-3.078-.99-.741-2.236-1.113-3.734-1.113-1.525 0-2.745.327-3.659 1.004-.915.677-1.372 1.462-1.372 2.357v.175c0 .654.686.981 2.033.981 1.346 0 2.033-.327 2.033-.981V11.6z" fill="#FEFEFE"/><path fill-rule="evenodd" clip-rule="evenodd" d="M23.167 15.47c.438-2.674-2.407-2.279-3.69-2.264 3.872-3.827 3.581-7.572-.316-8.829-1.843-.594-4.91.553-6.672 3-1.964 2.727-2.517 7.058-2.183 13.119 1.989-1.205 5.338-1.341 8.097-2.007 2.528-.61 4.554-1.74 4.763-3.02z" fill="#FEFEFE"/></svg>