<svg width="149" height="42" fill="none" xmlns="http://www.w3.org/2000/svg"><path fill-rule="evenodd" clip-rule="evenodd" d="M61.034.777c-6.777.11-11.521 3.401-13.748 5.35 0 0-.098.082-.175.152a3.479 3.479 0 01-.273-.068c-4.649-1.189-9.9-1.41-15.192-.65-5.095.744-12.399 2.612-17.712 5.639C4.622 16.522-.279 22.935.13 29.265c.235 3.665 2.617 6.828 6.875 9.15 6.99 3.83 18.53 2.945 23.179 2.391 5.193-.62 86.485-10.933 97.167-12.384 9.705-1.314 18.94-3.65 20.797-11.763.113-.478.175-.964.175-1.45v-.057c0-1.99-.88-3.842-2.401-5.1-2.852-2.337-7.636-2.613-10.975-2.627-4.648-.013-54.519.664-60.182.747h-.372c-.02-.124-.038-.25-.038-.25-.278-1.567-1.212-3.043-2.675-4.229C69.96 2.313 66.717.681 61.035.777z" fill="#FE8422"/><path fill-rule="evenodd" clip-rule="evenodd" d="M60.975 12.554c2.83-.082 5.604-.98 5.82-3.068.155-1.396-1.368-2.833-4.472-2.958a9.636 9.636 0 00-.599-.018c-1.367 0-2.706.297-3.834.848-.865.461-1.475 1.128-1.718 1.88-.312.898-.156 1.644.449 2.224.82.76 2.382 1.147 4.354 1.092z" fill="#fff"/><path fill-rule="evenodd" clip-rule="evenodd" d="M142.091 15.954c-.41.637-1.25 1.299-1.991 1.383l-.33.055s.293-1.41.312-1.825c.06-1.935-.587-3.952-4.841-3.787-2.617.111-6.424 1.713-7.009 5.183v.014l-.019.014v.005a.122.122 0 01-.02.063c-.645 1.203-1.835 2.902-2.694 2.972a.717.717 0 01-.469-.111.567.567 0 01-.235-.484c.086-.566.25-1.128.487-1.672.366-.95.631-1.924.782-2.903.312-2.364-1.739-2.834-3.867-2.722-1.267.088-2.467.461-3.418 1.065l-.763.608s.353-1.16.449-1.48c-.605.014-4.373.112-4.764.112l-1.679 4.795c-.588.553-1.387 1.009-2.07 1.134l-.33.055-.04-.249a3.354 3.354 0 00-.156-.732c-.098-.539-.763-2.377-3.301-2.225-6.541.388-6.345 6.123-2.439 5.308l.448-.096-.079.345c-.527 2.28-1.895 3.483-3.788 3.663a1.136 1.136 0 01-.76-.18c-.324-.27-.5-.613-.5-.966 0-.05.003-.103.01-.154.04-1.12 3.184-10.434 3.184-10.434s-5.663.152-6.074.166c-.294.857-1.54 4.56-1.54 4.56l-.195.484a11.58 11.58 0 00-.508 1.479v.028l-.02.014c-.019.028-.019.055-.038.069-.957 1.756-2.617 3.663-3.905 3.76a.906.906 0 01-.123.008.882.882 0 01-.522-.16c-.177-.133-.274-.31-.274-.493 0-.011 0-.022.002-.033v-.014l.118-.758s3.221-8.336 3.456-8.888c-.722.014-6.913.096-6.913.096l-.604 1.521c-.156-1.243-3.848-2.902-6.62-1.133-2.93 1.866-3.73 4.672-4.18 7.436l-.038.11c-.624 3.331-1.72 5.612-4.98 5.902a4.214 4.214 0 01-.604.044c-.447 0-.888-.071-1.289-.21.94-.462 1.747-1.057 2.363-1.743 1.211-1.423.664-2.667-.605-3.262-2.538-1.174-5.31.261-5.8 2.088-.054.211-.08.428-.08.643 0 .7.286 1.385.822 1.969-.88.36-1.583.746-2.792.857a2.558 2.558 0 01-.25.012c-.532 0-1.04-.153-1.409-.425-.722-.692.255-2.918.391-3.208 0 0 4.491-9.44 4.745-10.02-.78.028-9.04.222-9.45.236-.274.595-1.33 2.902-2.402 5.03-2.109 4.162-8.24 9.855-14.568 11.016-3.358.623-5.994.511-7.654-.221-2.265-.995-3.574-3.358-2.694-6.675.348-1.585 1.044-3.13 2.047-4.562 5.291-7.962 13.805-6.165 13.277-5.557-.56.141-1.105.317-1.621.526-1.367.511-3.553 2.019-3.632 3.883-.058 1.203.41 2.17 1.329 2.806.897.621 2.226.913 3.73.815 3.358-.221 6.092-2.003 6.21-4.658.058-1.437-.509-2.612-1.68-3.484-1.894-1.396-4.099-2.087-9.023-1.99-7.635.153-19.195 4.009-22.515 12.538-1.113 2.875.353 6.358 2.793 7.934 3.377 2.199 7.575 3 14.937 2.019 6.56-.872 11.931-4.036 15.894-7.353.002.008.002.016.002.024a.473.473 0 01-.02.127c-.937 2.432.332 5.03 6.094 4.506 2.4-.222 6.62-1.189 9.568-2.82 1.348.83 3.692 1.327 6.345 1.051 1.094-.11 3.886-.636 6.345-3.138 1.934-1.962 2.91-5.806 3.455-7.878.254-.969.41-1.604.624-1.866.152-.304.458-.555.859-.705 1.034-.304 1.561.401 1.367.94-.195.525-1.27 3.165-1.27 3.178l-.195.415c-.624 1.285-1.349 2.751-1.406 4.298-.039 1.134.371 2.033 1.211 2.585.782.511 1.895.719 3.202.58 3.619-.377 6.195-2.974 7.408-4.481l.176-.221.235-.304.136.566c.566 2.254 3.085 3.166 6.873 2.765 4.901-.511 7.849-2.309 8.748-5.432l.039-.137.175-.041a7.592 7.592 0 001.348-.498l.372-.18-1.739 5.017c.703-.069 5.291-.621 5.663-.65.098-.304 2.109-6.387 2.109-6.387.352-1.051 1.307-3.055 2.401-3.11h.029c.21 0 .41.06.556.167.231.2.359.45.359.709a.733.733 0 01-.006.093 7.102 7.102 0 01-.665 2.268 15.12 15.12 0 00-.995 3.552c-.274 2.114 2.245 2.1 2.987 2.018 1.777-.18 4.14-.842 6.152-3.967l.098.331c.391 1.482 2.205 2.555 4.318 2.555.227 0 .456-.013.681-.039 2.831-.303 4.764-1.396 5.839-3.193l.077-.124.175-.014c1.113-.082 2.636-.994 3.027-2.06-.138-.054-.158-.262-.371-.454l-.008-.002zM67.086 22.63c1.015.027 1.425.471.86 1.355-.274.428-1.075 1.077-2.11 1.63-1.268-1.423-.019-3.026 1.25-2.985zm37.611-3.8c-.195.193-.588.318-1.231.4-.664.084-.84-.18-.859-.29-.137-.415.509-1.092 1.055-1.27.114-.043.239-.065.368-.065.154 0 .304.031.433.092.449.372.235 1.132.235 1.132h-.001zm30.13-1.368c-.41.871-.957 1.81-2.051 1.907-.067.01-.138.014-.208.014a1.43 1.43 0 01-.71-.18c-.372-.235-.528-.456-.507-1.244.058-1.852 1.425-6.481 3.28-6.538h.029c.248 0 .487.076.653.208.39.303.546.885.448 1.576l-.019.082s-1.933.055-2.147 2.101a1.974 1.974 0 00-.004.109c0 .694.505 1.338 1.331 1.701l-.099.262.004.002zm-.703-3.428c-.624-.277-.604-1.093-.254-1.383a.584.584 0 01.407-.148.73.73 0 01.181.023c1.272 1.21 1.96 2.685 1.96 4.2 0 .18-.012.362-.031.542l-2.265-3.235h.002z" fill="#fff"/></svg>