<svg width="149" height="22" fill="none" xmlns="http://www.w3.org/2000/svg"><path fill-rule="evenodd" clip-rule="evenodd" d="M.324.683L118.75.682v20.703H.324V.683z" fill="#EC1B24"/><path fill-rule="evenodd" clip-rule="evenodd" d="M84.509 4.406c1.02 0 1.65.343 2.604 1.457l7.087 9.275c.377.485.34 1.26-.31 1.762-.575.446-1.595.485-2.147-.183l-1.696-2.146H78.885l-1.695 2.186c-.597.648-1.329.648-1.992.243-.69-.42-.866-1.235-.443-1.803l7.153-9.335c.91-1.155 1.628-1.46 2.602-1.46l-.001.004zm.424 3.431c-.187-.25-.255-.274-.455-.274-.223 0-.31.102-.46.286-.245.298-3.087 4.129-3.119 4.129h7.176c-.014 0-2.746-3.604-3.142-4.14zM36.174 4.422h10.208c2.535 0 2.767 2.665 2.767 2.665h-12.56c-.622 0-1.198.429-1.198 1.176 0 .852.707 1.257 1.155 1.257h8.876c1.759 0 4.26 1.339 4.26 3.652 0 3.002-2.907 4.07-3.918 4.07H35.379c-3.087 0-2.916-2.692-2.916-2.692h12.87c.515 0 1.274-.467 1.274-1.164 0-.667-.665-1.177-1.154-1.177h-8.698c-2.468 0-4.38-1.674-4.38-3.948-.005-2.556 2.394-3.841 3.797-3.841l.002.002zm65.433-.018h10.543c1.597 0 4.076 1.195 4.076 4.05v.183c0 1.52-1.042 2.856-2.502 3.502 0 0 .106.147 2.369 2.957.293.363.309 1.235-.331 1.762-.614.503-1.633.565-2.148.02-.719-.76-1.55-1.763-3.831-4.415h-4.119c-1.174 0-2.768-.852-2.768-2.734h8.902c.483-.018 1.259-.442 1.259-1.273 0-.768-.745-1.296-1.263-1.296h-9.831l.007 8.523c.002.931-.779 1.558-1.619 1.558-.798 0-1.593-.648-1.593-1.519V7.038c-.004-1.46 1.68-2.632 2.851-2.632l-.002-.002zm-43.447.022h10.542c1.597 0 4.076 1.196 4.076 4.05v.183c0 1.521-1.041 2.855-2.502 3.504 0 0-.755.223-1.464.304H62.19c-1.175 0-2.68-.87-2.68-2.754h8.813c.484-.018 1.282-.403 1.282-1.234 0-.768-.744-1.296-1.262-1.296l-9.831-.002.005 8.525c.002.931-.779 1.558-1.619 1.558-.798 0-1.593-.646-1.593-1.518V7.06c-.002-1.46 1.681-2.632 2.854-2.632l.002-.003z" fill="#fff"/><path fill-rule="evenodd" clip-rule="evenodd" d="M124.395 11.311c0 3.973 2.187 7.53 6.039 9.27 3.621 1.637 8.446 1.637 12.078 0 3.581-1.613 6.029-5.297 6.029-9.27 0-6.077-5.315-11.041-12.073-11.041-6.789 0-12.072 4.927-12.072 11.041h-.001z" fill="#157946"/><path fill-rule="evenodd" clip-rule="evenodd" d="M136.474 3.131c-1.214 3.768-4.837 9.29-7.477 11.996h6.263l.014 1.64c-.014.931-.824 1.896-2 1.882-1.635-.018-3.68-.709-4.915-2.627-.901-1.4-1.554-2.504-1.554-4.713 0-4.83 4.253-8.832 9.665-8.832 5.351 0 9.666 4.119 9.666 8.832 0 2.211-1.128 4.124-1.502 4.674a5.99 5.99 0 01-4.89 2.666c-1.074.012-2.065-.709-2.065-1.888v-1.637h6.358c-2.738-2.706-6.358-8.227-7.563-11.996v.003z" fill="#fff"/></svg>