<svg width="48" height="48" viewBox="0 0 48 48" fill="none" xmlns="http://www.w3.org/2000/svg">
<path d="M27.6005 26.5221C25.2055 29.0421 19.0965 22.9881 21.5005 20.4581C22.9685 18.9131 21.3105 17.1481 20.3925 15.8491C18.6695 13.4141 14.8885 16.7761 15.0025 18.9151C15.3655 25.6611 22.6625 33.6551 29.7285 32.9571C31.9385 32.7391 34.4785 28.7471 31.9435 27.2881C30.6755 26.5581 28.9345 25.1181 27.6005 26.5211M26.0005 15.0001C27.857 15.0001 29.6375 15.7376 30.9503 17.0504C32.263 18.3631 33.0005 20.1436 33.0005 22.0001M26.0005 19.0001C26.7962 19.0001 27.5592 19.3162 28.1218 19.8788C28.6845 20.4414 29.0005 21.2045 29.0005 22.0001" stroke="#C18539" stroke-width="1.5" stroke-linecap="round" stroke-linejoin="round"/>
</svg>
