<svg width="18" height="20" viewBox="0 0 18 20" fill="none" xmlns="http://www.w3.org/2000/svg">
<path d="M11.8629 12H10.6562V13.2267H11.8629V12Z" fill="black"/>
<path fill-rule="evenodd" clip-rule="evenodd" d="M14.6787 5.89826C14.6787 4.92236 13.8827 4.02276 12.8987 4.02276H11.8733C11.92 3.79786 11.9493 3.56493 11.9493 3.3253C11.9493 1.49264 10.4627 0 8.63733 0C6.81067 0 5.32533 1.49264 5.32533 3.3253C5.32533 3.56493 5.35333 3.79786 5.40133 4.02276H4.40933C3.42933 4.02276 2.63333 4.92236 2.63333 5.89826L0 18.2316C0 19.2088 0.797333 20 1.78133 20H15.532C16.5133 20 17.3093 19.2088 17.3093 18.2316L14.6787 5.89826ZM6.656 3.34404C6.656 2.23481 7.55296 1.33333 8.65663 1.33333C9.75778 1.33333 10.656 2.23481 10.656 3.34404C10.656 3.5757 10.6096 3.79226 10.5382 4H6.77501C6.70235 3.79352 6.656 3.5757 6.656 3.34404ZM8.052 12.0067H6.716V13.2707H8.052V14.6933H6.632V13.3533H5.38V14.6933H3.93867V7.88133H5.38V11.9227H6.632V10.5827H8.052V12.0067ZM13.3853 17.364H12.052V18.728H10.636V17.384L10.7213 17.3L11.9107 17.2773L11.9267 14.6947H9.304L9.29333 10.6027L13.3867 10.62V17.364H13.3853Z" fill="black"/>
</svg>
