<svg width="21" height="20" viewBox="0 0 21 20" fill="none" xmlns="http://www.w3.org/2000/svg">
<path d="M11.7445 17.7613C11.6543 17.7612 11.5672 17.7287 11.4988 17.6699C11.4304 17.6111 11.3853 17.5298 11.3716 17.4406C11.3579 17.3515 11.3765 17.2604 11.4241 17.1837C11.4717 17.1071 11.5451 17.05 11.6311 17.0228L15.78 15.7247C15.8744 15.6985 15.9754 15.71 16.0616 15.7568C16.1477 15.8036 16.2123 15.882 16.2418 15.9755C16.2712 16.0691 16.2631 16.1704 16.2193 16.2581C16.1755 16.3458 16.0993 16.413 16.0068 16.4456L11.8681 17.7437C11.8282 17.7568 11.7864 17.7628 11.7445 17.7613Z" fill="black"/>
<path d="M11.7445 15.9981C11.6543 15.9979 11.5672 15.9655 11.4988 15.9067C11.4304 15.8479 11.3853 15.7666 11.3716 15.6774C11.3579 15.5882 11.3765 15.4971 11.4241 15.4205C11.4717 15.3439 11.5451 15.2868 11.6311 15.2596L14.2853 14.4303C14.3809 14.3995 14.4848 14.408 14.5741 14.4539C14.6634 14.4997 14.7309 14.5792 14.7617 14.6748C14.7924 14.7704 14.7839 14.8743 14.7381 14.9636C14.6922 15.053 14.6128 15.1204 14.5172 15.1512L11.8681 15.9804C11.8282 15.9936 11.7864 15.9995 11.7445 15.9981Z" fill="black"/>
<path d="M3.48741 4.85415C3.46666 4.84429 3.44458 4.83749 3.42188 4.83398H3.437C3.45431 4.83937 3.47116 4.84611 3.48741 4.85415Z" fill="black"/>
<path d="M7.14014 6.21484C7.0883 6.27037 7.05561 6.34103 7.04688 6.41649C7.0472 6.39079 7.05145 6.36529 7.05948 6.34087C7.07233 6.30213 7.09103 6.26558 7.11493 6.23249L7.14014 6.21484Z" fill="black"/>
<path d="M20.1543 4.32971C20.1567 4.31553 20.1567 4.30104 20.1543 4.28686C20.1558 4.27262 20.1558 4.25826 20.1543 4.24401C20.1495 4.23013 20.1436 4.21664 20.1367 4.20368C20.1184 4.16325 20.0918 4.12716 20.0585 4.09782L20.0031 4.07766C19.9808 4.06007 19.9562 4.04565 19.93 4.03481H19.9098L13.3413 1.2622L10.4502 0.0296452H10.4275C10.4064 0.0206329 10.3844 0.0138738 10.362 0.00948083C10.3089 -0.00316028 10.2537 -0.00316028 10.2006 0.00948083C10.1781 0.0138738 10.1562 0.0206329 10.1351 0.0296452H10.12L0.541874 4.01212C0.51876 4.02136 0.496773 4.0332 0.47634 4.04741C0.461974 4.05713 0.449217 4.06904 0.438531 4.0827C0.427788 4.08838 0.419005 4.09716 0.413326 4.1079C0.37285 4.15057 0.343428 4.20249 0.327627 4.25914C0.317514 4.29178 0.312414 4.32578 0.312504 4.35996V16.6477C0.312155 16.7282 0.33769 16.8067 0.385342 16.8716C0.432994 16.9365 0.500239 16.9843 0.577162 17.0081L10.0192 19.9571L10.3771 20L15.272 18.4725L19.877 17.0308C19.9518 17.0052 20.0165 16.9564 20.0618 16.8917C20.1071 16.8269 20.1307 16.7494 20.1291 16.6703V4.3776C20.1391 4.36251 20.1475 4.34647 20.1543 4.32971ZM9.86289 19.1178L1.06615 16.3704V4.86911L2.90111 5.4438V10.5454C2.90118 10.6237 2.92542 10.7002 2.97053 10.7642C3.01564 10.8283 3.07942 10.8769 3.15317 10.9033L3.21114 10.9235H3.24139H3.26659C3.28836 10.9261 3.31036 10.9261 3.33213 10.9235H3.35985C3.36809 10.9259 3.37683 10.9259 3.38506 10.9235C3.39755 10.9259 3.41038 10.9259 3.42287 10.9235L3.48084 10.9058C3.49448 10.9002 3.50722 10.8925 3.51865 10.8832C3.53366 10.8754 3.54729 10.8651 3.55898 10.8529L3.57914 10.8353L5.29816 9.32293L7.06255 12.0754L7.08523 12.1132C7.11317 12.1576 7.14998 12.1957 7.19335 12.2252C7.23673 12.2547 7.28573 12.2749 7.33729 12.2846H7.44819C7.45896 12.2872 7.47019 12.2872 7.48096 12.2846C7.48921 12.2868 7.49791 12.2868 7.50617 12.2846H7.53641C7.55697 12.2771 7.57646 12.2669 7.59439 12.2543C7.61455 12.2414 7.63315 12.2262 7.64984 12.209L7.71033 12.1434C7.72263 12.1303 7.73361 12.1159 7.7431 12.1006C7.75824 12.0807 7.77015 12.0586 7.77839 12.035C7.78857 12.0124 7.79618 11.9888 7.80107 11.9645C7.80355 11.9393 7.80355 11.914 7.80107 11.8889V6.97629L9.86289 7.61904V19.1178ZM7.29948 6.0941L7.27428 6.11174L7.14069 6.21257C7.08885 6.26809 7.05616 6.33876 7.04743 6.41421C7.04617 6.42931 7.04617 6.44448 7.04743 6.45958V10.6009L5.73674 8.54912C5.73782 8.54244 5.73782 8.53563 5.73674 8.52896C5.72753 8.51266 5.71654 8.49745 5.70397 8.48359C5.68761 8.46626 5.66991 8.45024 5.65104 8.4357C5.63388 8.4207 5.61427 8.40877 5.59307 8.40041L5.55778 8.38276C5.54349 8.3755 5.5282 8.3704 5.51241 8.36764L5.44183 8.3626C5.40926 8.35754 5.3761 8.35754 5.34353 8.3626H5.2906C5.25935 8.37039 5.22957 8.38315 5.20238 8.40041L5.15197 8.4357L5.12172 8.46342L3.65224 9.76403V5.5421C3.67582 5.53891 3.69878 5.53211 3.72029 5.52193L7.89685 3.78527L10.2712 4.85903L7.29948 6.0941ZM10.2737 6.95361L8.52447 6.40413L11.3727 5.21947L11.4332 5.1867C11.4534 5.17375 11.472 5.15853 11.4886 5.14133C11.524 5.1088 11.5523 5.06933 11.5718 5.02538C11.5808 5.00604 11.5876 4.98575 11.592 4.96489C11.5934 4.95909 11.5934 4.95305 11.592 4.94725C11.5946 4.92548 11.5946 4.90348 11.592 4.88171C11.5923 4.84237 11.5863 4.80323 11.5743 4.76577C11.5743 4.76577 11.5743 4.74308 11.5617 4.733C11.5544 4.71488 11.546 4.69721 11.5365 4.68007L11.5038 4.6347C11.4889 4.61606 11.472 4.59915 11.4534 4.58429H11.4357C11.4164 4.56709 11.3942 4.55343 11.3702 4.54396L8.09093 3.04171H8.07329C8.02487 3.01864 7.97191 3.00667 7.91828 3.00667C7.86464 3.00667 7.81168 3.01864 7.76326 3.04171L3.44051 4.83382C3.45824 4.84326 3.4751 4.85422 3.49092 4.86659C3.47091 4.85233 3.4488 4.84128 3.42539 4.83382C3.4158 4.82629 3.40457 4.82111 3.39262 4.8187L1.79711 4.31459L10.2813 0.785812L13.0539 1.95283L18.6798 4.32971L10.2737 6.95361ZM19.4007 16.3906L15.0603 17.7491L10.6191 19.138V7.6392L19.4007 4.8918V16.3906Z" fill="black"/>
<path d="M3.48741 4.85415C3.46666 4.84429 3.44458 4.83749 3.42188 4.83398C3.44433 4.83852 3.46629 4.84527 3.48741 4.85415Z" fill="black"/>
<path d="M7.13932 6.21484C7.08748 6.27037 7.0548 6.34103 7.04606 6.41649C7.04481 6.43159 7.04481 6.44676 7.04606 6.46186V6.52991C7.03582 6.47818 7.03683 6.42484 7.04901 6.37353C7.06118 6.32221 7.08425 6.27411 7.11664 6.23249L7.13932 6.21484Z" fill="black"/>
</svg>
