<svg width="71" height="70" fill="none" xmlns="http://www.w3.org/2000/svg"><g clip-path="url(#clip0_6665_37255)" fill="#C18539"><path d="M35.408 20.893h.338c10.54.02 21.278 2.441 29.014 10.006.34.35.652.712.957 1.093l.322.4c1.578 1.983 2.868 4.177 3.685 6.582l.096.278c.54 1.678.75 3.314.735 5.066-.002.303 0 .605.003.909.005 3.813-1.097 7.479-3.816 10.23l-.342.325.35.04c1.332.176 2.326.39 3.17 1.487.702 1.021.718 2.038.582 3.258-.315.988-1.032 1.732-1.944 2.21l-.244.114-.006.51c-.048 2.02-.432 3.605-1.891 5.082-1.065.985-2.263 1.55-3.728 1.552l-.29.002h-.96l-.696.002-1.913.001a2474.442 2474.442 0 01-6.104.006c-1.094 0-2.19 0-3.284.002l-9.314.003h-1.015c-2.716 0-5.432.002-8.148.006-2.788.004-5.577.006-8.365.006-1.566 0-3.131 0-4.697.004-1.333.002-2.666.003-3.999 0-.68 0-1.36 0-2.04.002-.623.002-1.246.002-1.869 0l-.674.001c-1.867.012-3.309-.266-4.718-1.574-.66-.652-1.157-1.323-1.504-2.187l-.15-.362c-.187-.696-.153-1.395-.128-2.113-.005-.345-.02-.616-.132-.943a3.232 3.232 0 00-.82-.54C1.173 61.986.8 61.266.501 60.567c-.168-1.257-.083-2.382.683-3.418.904-1.054 2.091-1.262 3.418-1.367l-.226-.202c-2.463-2.316-3.74-5.712-3.9-9.055-.075-4.873-.075-4.873.572-6.876l.088-.282c.924-2.843 2.46-5.403 4.423-7.648l.19-.217a20.565 20.565 0 012.955-2.79l.393-.322c5.434-4.367 12.359-6.26 19.158-7.096l.277-.034c2.287-.28 4.572-.37 6.875-.367zm-2.66 2.489c-2.014.025-3.415.244-4.958 1.585-.306.266-.63.507-.953.754a42.812 42.812 0 00-2 1.76l-.341.314c-3.316 3.165-5.125 7.799-5.302 12.335-.055 1.31-.166 2.392-1.15 3.338-.76.599-1.637.925-2.617.876-1.078-.17-1.864-.529-2.56-1.374-.58-.924-.675-1.647-.659-2.723l.005-.42c.081-4.071 1.24-7.937 3.22-11.48.303-.536.303-.536.381-1.14-1.467.747-2.903 1.492-4.238 2.461l-.423.305c-4.022 2.963-7.196 7.17-8.14 12.156-.106.813-.097 1.631-.093 2.45v.284c.006 1.443.084 2.818.453 4.22l.115.44c.705 2.355 2.002 4.087 4.123 5.301 1.89.94 3.949 1.157 6.03 1.146l.593.002c.537.002 1.073.001 1.61 0a1248.505 1248.505 0 005.151.002 1828.625 1828.625 0 013.17 0h.804c2.508 0 5.016 0 7.524-.003h6.445a5512.795 5512.795 0 008.3.002h.398l2.765.001c1.125.001 2.25.001 3.374-.001a328.33 328.33 0 011.719 0c.526 0 1.051 0 1.577-.002.278 0 .555 0 .832.002 2.503-.016 4.856-.54 6.857-2.105l.435-.317c2.063-1.97 2.805-4.983 2.878-7.745.027-1.93.048-3.762-.58-5.61l-.086-.271c-1.398-4.346-4.52-7.72-8.116-10.393-1.295.512-2.063 2.732-2.598 3.964-.847 2.114-1.263 4.228-1.315 6.502-.037 1.328-.222 2.47-1.146 3.479-.89.658-1.767.894-2.87.82-.947-.213-1.824-.575-2.395-1.387-1.39-2.392-.524-6.258.119-8.81.732-2.751 1.839-5.523 3.506-7.85-.326-.326-.558-.384-.996-.52l-.448-.138-.479-.145-.486-.148c-2.547-.945-2.547-.945-5.075-.767l-.352.274-.39.303c-.603.5-1.186 1.014-1.755 1.551l-.28.259c-3.634 3.467-5.385 8.443-5.611 13.364-.064 1.099-.242 2.081-.92 2.975-.85.7-1.742 1.142-2.873 1.086-1.078-.17-1.863-.529-2.56-1.374-.607-.967-.674-1.732-.659-2.86l.005-.458c.1-5.454 2.082-10.713 5.33-15.065.295-.398.581-.803.869-1.208-1.055-.021-2.109-.004-3.164.003zm5.89.51c-.14.19-.273.384-.402.581-.195.232-.392.462-.59.692-3.418 4.265-5.53 9.31-5.622 14.826l-.01.324c.003.51.051.808.326 1.244.341.325.503.414.974.414.477-.222.662-.378.957-.82.054-.326.054-.326.068-.692l.026-.42.026-.452c.383-5.4 2.403-10.159 6.067-14.159l.2-.219c.44-.47.905-.881 1.406-1.285-.815-.543-2.678-.782-3.426-.034zm-16.236.948l-.447.102c-1.375.333-2.006.914-2.834 2.035l-.215.29c-.712.98-1.31 2.007-1.861 3.085l-.132.256c-1.479 2.907-2.328 6.15-2.372 9.417l-.012.302c-.006.509.036.795.31 1.23.341.327.503.416.975.416.477-.222.662-.378.957-.82.054-.312.054-.312.068-.662l.026-.402.026-.432c.439-6.021 3.005-10.737 7.263-14.91l.273-.274c-.693 0-1.353.205-2.025.367zm32.514 2.367c-2.857 3.09-4.1 8.22-4.238 12.305l-.022.382c-.025.705.013 1.207.432 1.806.325.249.48.276.888.256.43-.15.604-.311.889-.667.102-.427.102-.427.12-.91l.039-.547.018-.29c.257-3.936 1.294-7.593 3.55-10.875.263-.331.263-.331.238-.64l-.803-.41-.452-.23c-.356-.199-.356-.199-.66-.18zM3.099 58.79c-.213.428-.185.76-.136 1.23.382.415.614.538 1.176.616.195.003.39.003.584 0l.328.003c.364.002.728 0 1.092-.002l.788.003c.724.002 1.447 0 2.17 0 .78-.002 1.56 0 2.34.001 1.529.003 3.057.002 4.585 0a2569.699 2569.699 0 015.336 0c3.269.002 6.538 0 9.806-.002 2.985-.003 5.97-.003 8.955 0 3.352.003 6.705.004 10.057.002h1.605l3.722.001c1.511.002 3.022.001 4.534-.002a541.15 541.15 0 012.314 0c.706.002 1.412.001 2.117-.002l.768.001c.347.002.693 0 1.04-.002l.304.003c.485-.007.761-.065 1.178-.32.324-.29.324-.29.347-.778-.07-.488-.128-.688-.478-1.025-.492-.164-.938-.156-1.45-.155h-.325l-1.089-.001-.784-.001-2.163-.002c-.777 0-1.554 0-2.33-.002a7219.622 7219.622 0 00-8.28-.005c-2.934-.001-5.867-.003-8.801-.003h-2.572c-3.07-.001-6.139-.003-9.208-.007a9566.07 9566.07 0 00-9.732-.005c-1.768 0-3.537 0-5.306-.003a2125.72 2125.72 0 00-4.517-.002c-.77 0-1.538 0-2.307-.002H5.893c-.345-.002-.69-.001-1.036 0l-.303-.003c-.598.006-.979.096-1.455.464zm2.188 4.239c-.075 1.95-.075 1.95.833 3.452.829.772 1.427 1.093 2.576 1.095l.285.001h.949l.686.002 1.888.001 2.035.003 3.988.003a10818.755 10818.755 0 0012.427.005h1.002c2.68 0 5.36.002 8.04.006 2.75.004 5.5.006 8.251.006 1.545 0 3.09 0 4.634.004 1.315.002 2.63.003 3.945 0 .671 0 1.343 0 2.014.002.614.002 1.228.002 1.843 0l.666.001c1.316.009 2.304-.008 3.337-.91l.261-.305.269-.302c.69-1.002.5-1.808.5-3.064H5.287z"/><path d="M13.679 51.253l.477-.002.528.001h.558c.513-.002 1.026-.002 1.538-.002h1.657a2930.6 2930.6 0 015.888-.003c2.492-.002 4.984-.002 7.477-.002h.815c2.182 0 4.365-.001 6.547-.003l6.717-.003c1.258 0 2.516 0 3.773-.002h3.213l1.64-.001h1.5c.268 0 .535 0 .802-.002l.48.002h.413c.375.036.592.1.904.308.335.501.372.92.274 1.504-.256.332-.449.497-.82.683-.246.013-.492.018-.737.018l-.477.001H55.76l-1.539.001c-.552 0-1.104 0-1.656.002a3516.763 3516.763 0 01-5.888.002l-7.477.002h-.815c-2.183 0-4.365 0-6.548.003-2.239.002-4.477.003-6.716.003l-3.774.001c-1.07.002-2.142.002-3.212 0-.547 0-1.094 0-1.64.002h-1.5l-.803.001-.479-.002H13.3c-.375-.035-.59-.1-.904-.307-.334-.502-.372-.92-.273-1.504.466-.606.818-.7 1.557-.701zM48.9 6.973c.332.256.497.448.683.82.067.676-.054.984-.47 1.513-.354.453-.581.776-.624 1.358.196.713.573 1.12 1.15 1.562.768.76 1.09 1.773 1.123 2.83-.076 1.513-.635 2.501-1.726 3.538-.38.19-.672.162-1.094.137-.457-.165-.54-.263-.82-.684-.1-.739-.053-1.094.402-1.692l.418-.495c.21-.42.168-.768.137-1.23-.2-.47-.4-.676-.803-.992-.735-.583-1.168-1.506-1.355-2.415a4.787 4.787 0 01.893-3.344c.636-.743 1.06-1.058 2.085-.906zm-25.703-.001c.484.332.65.54.786 1.11-.107.557-.268.818-.58 1.282-.298.446-.474.73-.599 1.256.15.567.41.849.81 1.267.26.273.492.553.72.853l.195.253c.567.88.684 1.886.502 2.905-.286 1.044-.73 2.144-1.702 2.724-.39.156-.672.159-1.089.108-.369-.247-.62-.422-.82-.82-.072-.433-.072-.712.173-1.084l.445-.556c.297-.403.413-.737.476-1.232-.172-.714-.486-1.047-1.017-1.546-.888-.858-1.192-1.67-1.24-2.897.052-1.414.621-2.458 1.573-3.487.442-.22.89-.216 1.367-.136zM36.048 0c.498.342.655.543.778 1.136-.112.598-.335.895-.722 1.352-.273.348-.33.658-.398 1.092.099.75.514 1.084 1.026 1.615.835.918 1.246 1.898 1.222 3.156-.153 1.228-.666 2.229-1.564 3.081-.33.256-.484.326-.906.41-.484-.105-.724-.29-1.077-.632-.195-.392-.178-.658-.136-1.094.248-.418.248-.418.547-.82.354-.48.507-.88.485-1.488-.152-.585-.615-.968-1.032-1.383-.808-.872-1.259-1.81-1.23-3.008.179-1.305.666-2.262 1.555-3.221.495-.271.9-.323 1.452-.197z"/></g><defs><clipPath id="clip0_6665_37255"><path fill="#fff" transform="translate(.5)" d="M0 0h70v70H0z"/></clipPath></defs></svg>