<svg width="71" height="70" fill="none" xmlns="http://www.w3.org/2000/svg"><path d="M34.479 34.963l.708-.002c.636-.002 1.272-.002 1.908-.002l1.601-.001c1.261-.002 2.522-.002 3.782-.001 1.295 0 2.59 0 3.883-.004l3.35-.003c.665 0 1.33 0 1.994-.002h2.561c2.16-.01 4.23.253 6.28.966l.42.145c2.956 1.045 5.638 2.808 7.087 5.665.525 1.305.424 2.875-.114 4.154-.344.66-.738 1.242-1.345 1.68-.51.66-.424 1.285-.414 2.097l-.001.512c-.001.367 0 .734.002 1.101.004.581.003 1.162.001 1.743-.003 1.13 0 2.258.002 3.387.004 1.436.005 2.872.002 4.307-.002.577 0 1.154.003 1.73.002.445 0 .89 0 1.334l.005.48c-.007 1.073-.158 1.81-.885 2.64l-.27.223-.268.23c-.644.444-1.194.505-1.97.506l-.302.001c-.335.002-.67 0-1.005 0l-.727.002a666.6 666.6 0 01-2 .001l-2.156.003-4.224.003-3.434.002c-3.244.002-6.487.004-9.731.003h-1.06c-2.84 0-5.679.003-8.518.007-2.913.004-5.827.005-8.741.005-1.636 0-3.273 0-4.909.004-1.393.002-2.786.003-4.18.001-.71 0-1.421 0-2.132.002-.651.002-1.302.001-1.953-.001l-.706.001c-2.385.015-2.385.015-3.412-.885l-.223-.27-.23-.268c-.605-.879-.52-1.797-.522-2.825l-.01-.51-.002-.49-.003-.447c.083-.485.223-.645.613-.937.375-.04.69-.052 1.06-.034l.289.007c.234.007.468.017.702.027l.102-.338c.543-1.524 1.306-3.185 2.82-3.921.405-.13.73-.143 1.154-.133l.404.008.305.01.047-.312c.178-.736.746-1.272 1.38-1.663.82-.377 1.794-.255 2.675-.213l-.137-.41c-.119-1.285.143-2.202.959-3.194.87-.718 1.685-.85 2.788-.825l.4.003c.418.003.836.01 1.254.017l.854.007c.695.006 1.39.015 2.085.027-.01-.376-.022-.75-.037-1.126l-.007-.32c-.022-.511-.04-.802-.332-1.234a13.31 13.31 0 00-.562-.47c-.783-.718-1.205-1.887-1.287-2.93-.063-1.748.343-3.037 1.504-4.388 2.013-2.152 4.419-3.375 7.224-4.195l.347-.102c1.743-.488 3.456-.588 5.254-.585zm9.36 2.225c.323.33.65.58 1.035.837 1.66 1.155 3.185 2.574 3.614 4.631a9.695 9.695 0 01-.273 3.282h3.691v2.187h-5.468l-.137 17.5 8.22.026 2.594.011 1.537.002c.342 0 .684.002 1.026.004.518.003 1.036.004 1.554.004l.46.004c1.049 0 1.049 0 1.972-.461.236-.476.307-.86.306-1.389l.002-.42-.003-.458v-.486c0-.528-.003-1.057-.005-1.586v-1.1l-.007-2.6-.006-3.252c-.003-1.933-.008-3.866-.014-5.799h-8.75v-2.187l.891.017c.972.018 1.945.03 2.917.04.59.005 1.18.013 1.769.025.569.012 1.138.019 1.707.021.217.002.434.006.65.012 1.177.073 1.177.073 2.226-.352.653-.843.763-1.73.641-2.771-.164-.461-.397-.835-.683-1.23l-.196-.277c-1.899-2.4-5.47-3.664-8.415-4.052-1.607-.183-3.202-.202-4.817-.197h-.7l-1.821.004-1.867.003c-1.217.001-2.433.004-3.65.007zm-20.11 3.811c-.767.854-1.28 1.768-1.263 2.917.08.675.342 1.195.73 1.748.206.163.417.32.632.473.546.473.69.786.748 1.505.004.32.003.641-.005.962l.003.498c.002.404-.002.807-.012 1.21.165.002.165.002.332.002.502.005 1.004.014 1.506.024l.522.003c1.054.024 1.859.12 2.7.792.294.317.294.317.478.624l.192.308c.298.595.301 1.105.295 1.768l-.004.485-.005.37.41.01c2.019.076 2.019.076 2.735.673.425.465.757.905.957 1.504l.29.01c1.096.066 1.956.242 2.711 1.084.412.492.632 1.006.87 1.596.392 1.063.392 1.063 1.17 1.817.473.107.87.078 1.354.031.44-.026.44-.026.67.123.264.381.227.678.22 1.139l-.003.519-.01.543a166.514 166.514 0 01-.026 1.889 63.599 63.599 0 00.915.015c.465-.023.759-.16 1.136-.426.247-.49.306-.888.303-1.433v-.451c-.003-.162-.004-.325-.006-.491 0-.264-.002-.528-.003-.791a274.974 274.974 0 01-.009-2.618v-.915c0-1.373-.002-2.746-.011-4.12-.007-.927-.009-1.854-.006-2.781.002-.49 0-.98-.005-1.47a87.203 87.203 0 01-.001-1.642l-.011-.489c.018-1.085.018-1.085.428-1.583.33-.287.33-.287.656-.524.618-.492.911-1.193 1.053-1.958.055-.902-.232-1.524-.748-2.25l-.196-.276c-1.9-2.399-5.462-3.657-8.406-4.056a497.556 497.556 0 00-.682-.07c-4.428-.433-9.269.61-12.604 3.702zM16.52 53.025c-.193.356-.19.524-.135.922l.05.365c.1.616.214 1.229.339 1.84a2633.467 2633.467 0 01.25 1.245 443.868 443.868 0 01.425 2.105l.078.389.073.36.064.315c.064.3.064.3.2.684h9.023c1.217-3.964 1.217-3.964 1.367-8.203-.27-.385-.506-.462-.957-.547a24.518 24.518 0 00-.955-.02l-.288-.001-.94-.002-.655-.001-1.372-.001c-.585 0-1.17-.002-1.756-.004-.45-.002-.901-.002-1.352-.002-.216 0-.431 0-.647-.002a15047.422 15047.422 0 00-1.426 0c-.591.044-.964.133-1.386.558zm-4.245 4.354c-.218.447-.132.807-.017 1.274.164.462.358.91.555 1.358l.156.362.383.877h2.187a988.121 988.121 0 00-.627-3.298l-.102-.535c-.05-.388-.05-.388-.228-.542-.858-.068-1.64-.097-2.307.504zm17.893-.504a11.19 11.19 0 00-.45 1.678l-.09.478-.092.493a1917.628 1917.628 0 00-.325 1.726h2.188c.21-.483.417-.967.623-1.453l.182-.413c.056-.133.111-.267.17-.404l.157-.368c.118-.446.073-.746-.039-1.19-.274-.379-.508-.46-.957-.547a14.08 14.08 0 00-.718-.008l-.37.003-.279.005zM8.703 59.473c-.58.828-.58.828-.82 1.777h2.87a9.137 9.137 0 00-.418-1.478l-.15-.404-.115-.305c-.636 0-.846.045-1.367.41zm25.977-.41c-.115.287-.229.575-.342.863l-.192.485c-.172.418-.172.418-.15.84h2.871c-.401-1.242-.401-1.242-1.307-2.12-.366-.087-.366-.087-.88-.068zM4.875 63.438c-.035 1.067-.035 1.067.41 1.914.634.362 1.298.312 2.006.309l.406.001c.45.002.899.001 1.348 0l.967.003c.875.002 1.75.002 2.625.001l1.64.001h.826c1.729.002 3.457.002 5.186.001 1.58 0 3.162.001 4.743.004 1.624.002 3.247.003 4.871.003.912 0 1.823 0 2.735.002.857.002 1.714.001 2.57 0h.945c.43.002.858.001 1.287 0l.379.002c.695-.006 1.182-.073 1.782-.464.38-.605.273-1.006.273-1.777h-35z" fill="#C18539"/><path d="M27.286 2.115l.532-.002c.368 0 .736 0 1.104.003.467.003.933.001 1.4-.002.452-.002.904 0 1.357 0l.499-.003c2.869.032 4.82 1.44 6.763 3.382 3.191 3.397 4.762 8.139 5.907 12.55.059.274.059.274.22.414l.137-.201c1.047-1.476 2.43-2.586 4.238-2.944.53-.042 1.06-.044 1.591-.046l.463-.002c.322-.002.644-.002.966-.002.488 0 .977-.006 1.465-.011l.943-.002.436-.006c1.913.012 3.38.74 4.766 2.026 1.239 1.309 1.743 2.849 1.722 4.624v.396c0 .428-.004.855-.007 1.283l-.002.895c-.001.782-.005 1.564-.01 2.346-.004.799-.006 1.598-.008 2.397-.004 1.565-.011 3.13-.02 4.696h-2.187l-.009-1.08c-.009-1.183-.02-2.366-.03-3.548-.008-.716-.014-1.433-.02-2.15a359.19 359.19 0 00-.018-2.076l-.006-.79c.033-2.796.033-2.796-1.148-5.258-.643-.63-1.338-.958-2.187-1.23l.165.285a756.31 756.31 0 00.435.769c.482.985.691 1.855.677 2.949v.364c0 .393-.004.786-.007 1.178l-.002.823c-.001.718-.005 1.436-.01 2.154-.004.734-.006 1.468-.008 2.203a1409.81 1409.81 0 01-.02 4.313h-2.187l-.009-.98-.03-3.22c-.008-.65-.014-1.3-.02-1.95-.004-.63-.01-1.258-.018-1.886a189.87 189.87 0 01-.006-.717c.011-2.69.011-2.69-1.148-5.055-.914-.896-1.862-1.248-3.127-1.29-1.206.03-2.203.35-3.09 1.187-1.353 1.548-1.21 3.582-1.222 5.513l-.008.73c-.007.634-.013 1.27-.018 1.904a1940.304 1940.304 0 00-.055 5.764h-2.324l-.015-.753c-.207-8.441-1.314-19.1-7.504-25.497-1.127-1.07-2.392-1.825-3.965-1.914l.186.167c1.553 1.466 2.665 3.284 3.642 5.165l.15.284c3.582 6.815 4.448 14.967 4.362 22.548h-2.324l-.016-.753c-.206-8.441-1.314-19.1-7.504-25.497-1.413-1.34-2.955-2.001-4.893-1.96-1.711.094-3.204 1.244-4.344 2.447-1.287 1.506-2.239 3.192-3.068 4.982l-.211.448C16.898 16.27 16 20.38 15.4 24.473l-.069.454c-.369 2.555-.383 5.12-.391 7.697 0 .268-.003.537-.004.805-.021 4.406.441 8.783 1.48 13.069l.085.352.076.307c.054.284.054.284.054.831l-2.188.547c-.362-.905-.539-1.834-.734-2.786l-.064-.31c-.69-3.356-1.132-6.76-1.143-10.19l-.002-.272-.004-1.43c0-.383-.002-.766-.005-1.15-.073-9.045 1.322-20.246 7.794-27.16 2.021-2.052 4.082-3.142 7.001-3.122z" fill="#C18539"/><path d="M24.67 26.178l.698-.001c.485-.001.969 0 1.453.003.62.003 1.241 0 1.862-.002.479-.002.957-.002 1.436 0 .23 0 .458 0 .687-.002.319-.001.638.001.957.004l.285-.003c.454.008.686.048 1.051.328.44.6.293 1.363.215 2.07-.358 1.616-1.358 2.814-2.734 3.692-1.26.655-2.554.627-3.934.62h-.698c-.485.001-.969 0-1.453-.002-.62-.003-1.241-.002-1.862.002-.479.002-.957.001-1.436 0l-.687.001c-.319.001-.638 0-.957-.004l-.285.004c-.454-.008-.686-.049-1.051-.328-.44-.6-.293-1.363-.215-2.07.358-1.616 1.358-2.814 2.734-3.692 1.26-.655 2.554-.627 3.934-.62zm-3.703 3.568c-.263.31-.373.486-.504.88 1.029.007 2.057.012 3.086.015l1.05.006c.503.003 1.007.004 1.511.006l.47.004c1.229 0 2.335-.044 3.316-.851.418-.43.766-.794.957-1.368a882.228 882.228 0 00-3.086-.015l-1.05-.005a362.89 362.89 0 00-1.511-.006l-.47-.005c-1.537 0-2.703.141-3.77 1.339zm4.797-14.506h.698c.484-.002.969 0 1.453.002.62.003 1.24.001 1.861-.002.48-.002.958-.001 1.437 0l.687-.001c.319-.002.638 0 .956.004l.286-.004c.454.008.686.049 1.05.328.441.6.294 1.363.216 2.07-.358 1.616-1.358 2.814-2.734 3.692-1.26.655-2.555.627-3.935.62l-.698.001c-.484 0-.968 0-1.453-.003-.62-.003-1.24-.001-1.86.002-.48.002-.959.002-1.438 0-.228 0-.457 0-.686.002-.32 0-.638-.001-.957-.004l-.285.003c-.454-.008-.686-.049-1.051-.328-.441-.6-.293-1.363-.215-2.07.357-1.616 1.357-2.814 2.734-3.692 1.26-.655 2.554-.627 3.934-.62zm-3.703 3.568c-.263.31-.373.486-.505.88 1.03.007 2.058.012 3.087.015l1.05.006c.503.003 1.007.005 1.511.006l.47.004c1.228 0 2.334-.044 3.316-.85.418-.43.766-.794.957-1.368a882.052 882.052 0 00-3.087-.015l-1.049-.006-1.512-.006-.47-.004c-1.536 0-2.702.14-3.768 1.338zm30.394 3.068c.342.205.342.205.547.547.101.552.137.874-.163 1.355-.25.294-.518.561-.794.832l-.365.394-.387.41-.363.383c-.445.363-.784.487-1.346.59-.453-.128-.453-.128-.82-.41-.24-.509-.333-.79-.141-1.327.38-.616.862-1.084 1.38-1.586l.303-.302c.704-.693 1.109-1.028 2.149-.886zm0 5.469c.342.205.342.205.547.546.101.553.137.874-.163 1.355-.25.294-.518.562-.794.833-.12.13-.24.26-.365.393l-.387.41-.363.384c-.445.363-.784.487-1.346.59-.453-.128-.453-.128-.82-.41-.24-.51-.333-.79-.141-1.328.38-.615.862-1.083 1.38-1.586l.303-.301c.704-.693 1.109-1.028 2.149-.886zM36.594 50.313h2.187V52.5h-2.187v-2.188zM26.75 43.75h2.188v2.188H26.75V43.75zm8.75-3.281h2.188v2.187H35.5V40.47z" fill="#C18539"/></svg>