<svg width="71" height="70" fill="none" xmlns="http://www.w3.org/2000/svg"><g clip-path="url(#clip0_6665_37249)"><path d="M40.83 1.642c.657.438 1.068.899 1.368 1.64l.346-.06c1.965-.324 3.764-.354 5.495.79 1.005.732 1.654 1.438 2.225 2.551l.142.25c.553 1.146.438 2.836.03 4.014-.522 1.21-1.39 2.36-2.635 2.882l-.442.135-.438.139c-.58.12-1.124.12-1.715.1l.01.48c.042 3.062.042 3.062-.694 4.442l.27.386c1.933 2.801 3.178 6 2.601 9.458-.566 2.644-2.07 4.695-4.238 6.289l-.273.136c.187 1.322.43 2.535 1.504 3.418.912.68 1.876 1.134 2.922 1.573 3.264 1.378 5.252 3.05 6.648 6.357.398.999.774 2.006 1.146 3.014 1.081 2.91 2.473 5.1 4.609 7.334 2.2 2.316 3.902 4.84 3.844 8.137-.082 1.472-.71 2.629-1.772 3.638-.913.746-1.853 1.044-3.024 1.042-.367-.075-.492-.161-.702-.47-.025-.367-.025-.367 0-.683l-.296.135c-1.394.611-2.828 1.009-4.352 1.095l-.358.022c-1.754.055-3.556-.23-5.082-1.122-.357-.154-.611-.162-1-.159l-.42.002-.456.006-.478.004a252 252 0 00-1.503.017l-.469.005a642.789 642.789 0 00-4.413.067 4133.53 4133.53 0 00-4.475.074l-1.11.018-.276.004c-1.505.025-3.009.052-4.513.08-.886.017-1.772.03-2.658.037-.48.005-.959.011-1.439.019-.21.002-.42.004-.63.004-1.26.002-2.32.182-3.497.622-1.229.45-2.473.485-3.77.48h-.49c-1.03-.011-1.96-.092-2.953-.377-.368-.082-.535-.05-.889.06-1.185.127-2.15-.103-3.105-.828-1.063-.924-1.806-1.89-1.995-3.314a13.694 13.694 0 01-.018-.95l.003-.343c.076-2.88 1.872-5.114 3.748-7.143.233-.26.463-.523.692-.788.203-.234.409-.466.615-.696 1.85-2.088 2.785-4.372 3.726-6.958 1.2-3.291 2.611-6.22 5.904-7.827.479-.215.961-.42 1.444-.624 2.404-.892 2.404-.892 3.992-2.773.308-.853.554-1.726.717-2.619l-.192-.156c-2.095-1.769-3.859-4.115-4.16-6.926-.222-2.84.027-5.82 1.87-8.139.255-.593.067-1.119-.073-1.732l-.162-.77-.081-.379c-.146-.706-.246-1.419-.347-2.132l-.345-.12c-1.62-.591-2.85-1.266-3.74-2.777-.368-1.249-.223-2.391.394-3.529.685-1.166 1.664-1.836 2.939-2.244.594-.14 1.179-.123 1.786-.106l.378.006c.305.005.608.011.912.02l.102-.352c.188-.512.439-.947.736-1.4l.166-.254C31.418-.6 36.433-.97 40.83 1.642zm-10.643 2.34c-.805 1.078-1.445 2.02-1.387 3.402-.137.136-.137.136-.59.153-.504-.017-.504-.017-.744-.083-1.1-.25-2.475-.233-3.476.314l-.249.163-.237.15a2.892 2.892 0 00-1.178 1.912c-.033.746.151 1.278.64 1.838 1.248 1.195 3.017 1.547 4.69 1.577 1.82-.062 3.364-.593 4.878-1.6.437-.221.704-.253 1.187-.186.217.18.217.18.385.427.94 1.2 2.29 1.711 3.768 1.95 1.405.077 2.85-.534 3.914-1.42.173-.174.344-.35.513-.53.401-.414.401-.414.786-.53.426.128.708.349 1.06.616.647.462 1.379.534 2.153.444.99-.215 1.708-.59 2.283-1.436.603-1.057.788-2.008.588-3.212-.373-1.17-1.029-2.055-2.051-2.735-1.573-.803-2.9-.772-4.585-.363a6.373 6.373 0 01-1.43.09l-.071-.245-.1-.328-.097-.322c-.362-.85-.925-1.202-1.724-1.583l-.297-.143c-3.095-1.455-6.346-1.02-8.629 1.68zm2.85 9.28c-.128.065-.257.13-.39.195-1.941.95-3.74 1.31-5.898 1.31.14 1.195.287 2.377.547 3.554a35.71 35.71 0 006.836.957l.412.018c2.046.04 4.14-.16 6.159-.488l.287-.045c.798-.14 1.89-.357 2.438-.989.29-.891.328-1.813.36-2.743l.015-.398.036-.96-.684-.41-.359.35c-1.41 1.204-3.155 1.778-4.994 1.734-1.797-.155-3.388-.943-4.764-2.084zm8.495 6.751c-2.988.62-6.01.747-9.05.521l-.487-.035a31.155 31.155 0 01-3.404-.457c-.579-.106-.579-.106-1.159-.08-1.211 1.112-1.93 3.328-2.05 4.922a46.92 46.92 0 000 2.46c.43.138.43.138.856-.001 2.017-1.394 3.036-3.526 3.519-5.877.792-.155.792-.155 1.042.008.154.217.297.44.436.667.584.817 1.374 1.139 2.341 1.31 2.517.24 4.821-.751 6.76-2.319.368-.289.478-.348.965-.41.35.06.35.06.487.197.026.272.052.545.074.818.095 1.124.228 2.06.883 3.01l.174.26c.769 1.014 1.896 1.62 3.107 1.927-.196-2.54-1.034-5.247-2.871-7.109-.545-.105-1.086.071-1.623.188zm-1.841 3.31c-2.24 1.376-4.669 1.877-7.26 1.292-.628-.182-1.058-.438-1.58-.825h-.274l-.21.44c-.99 2.042-.99 2.042-1.704 2.841l-.246.284c-.75.81-1.582 1.282-2.625 1.63.708 2.54 2.668 4.38 4.884 5.689 2.531 1.377 5.559 1.571 8.308.764 2.87-.979 5-2.54 6.427-5.265.28-.589.449-1.084.478-1.735l-.336-.115c-1.92-.696-3.441-1.59-4.399-3.466-.268-.624-.48-1.218-.597-1.887-.362 0-.566.168-.866.354zM29.62 35.822a57.99 57.99 0 00-.214.71l-.12.398c-.082.428-.089.671.06 1.08 2.024 1.874 5.772 1.754 8.319 1.668 1.39-.088 2.688-.473 3.85-1.258l.41-.274-.188-.794-.106-.447c-.101-.42-.101-.42-.39-.81l-.352.136c-3.5 1.304-6.978 1.377-10.438-.094-.415-.182-.415-.182-.831-.315zm-1.613 3.606l-.267.282c-1.103 1.033-2.525 1.568-3.91 2.128-2.69 1.09-4.25 2.7-5.421 5.332-.388.948-.734 1.913-1.083 2.876-1.028 2.825-2.207 5.025-4.25 7.241l-.208.227-.586.636c-1.848 2.006-3.462 4.027-3.357 6.89.137 1.215.594 1.914 1.511 2.707.34.22.602.29 1 .34l.096-.48c.527-2.564 1.41-4.745 3.596-6.355a25.14 25.14 0 012.46-1.367c-.554-.37-.988-.365-1.64-.274a7.874 7.874 0 00-.84.424c-.37.18-.672.18-1.074.123-.274-.273-.274-.273-.308-.658.24-.612.61-.72 1.19-.985a4.639 4.639 0 013.254-.057c.82.37 1.438.95 2.033 1.615.34.295.638.298 1.077.359a51.425 51.425 0 00-.489-3.405c-.672-3.777-.672-3.777-.04-4.91.418-.597 1.045-.814 1.741-.946.183-.022.366-.043.548-.062l.286-.034c.229-.027.459-.052.688-.077l.002-.247c.006-.852.015-1.703.027-2.555.004-.318.006-.635.008-.953.003-.457.01-.914.017-1.372v-.427c.017-.845.116-1.544.63-2.239.94-.634 2.093-.585 3.19-.645l.46-.026.968-.054 1.445-.08c2.034-.115 4.069-.21 6.105-.289l.273-.957-.34-.016c-5.252-.267-5.252-.267-7.61-1.558-.597-.364-.597-.364-1.182-.152zm15.285.496l-1.094 2.187 1.025.103c1.07.126 1.948.28 2.65 1.162.763 1.079.618 2.56.64 3.82l.026 1.176.007.287c.023.873.085 1.742.164 2.612l.288-.008c.434-.012.867-.019 1.301-.026l.453-.014c.867-.01 1.408-.002 2.06.595.55.772.48 1.631.365 2.538-.06.361-.128.72-.2 1.08a868.242 868.242 0 01-.311 1.629c-.105.545-.21 1.09-.312 1.635l-.075.377-.066.352-.06.308c-.027.31.02.536.111.831.547-.175.672-.497.933-.983.45-.69 1.236-1.043 2.004-1.272 1.306-.261 2.494-.086 3.634.589.265.3.265.3.317.735-.052.384-.052.384-.188.521-.544.066-.87-.007-1.333-.273-.636-.348-1.238-.354-1.949-.274l-.273.137v.273l.221.091c2.47 1.051 4.14 2.633 5.248 5.105.174.496.303.99.41 1.504l.084.397c.066.323.13.646.19.97.815-.184 1.38-.6 1.913-1.23.728-1.293.715-2.653.325-4.05-.694-2.038-2.175-3.555-3.606-5.11a37.938 37.938 0 01-.957-1.095l-.345-.401c-1.752-2.092-2.676-4.447-3.575-6.99-.99-2.788-2.146-5.465-4.947-6.826a61.317 61.317 0 00-1.524-.685l-1-.439c-.21-.092-.42-.183-.631-.273a9.12 9.12 0 01-1.65-.928l-.273-.137zm-2.051.273a50.09 50.09 0 00-1.205.342l-.345.09c-.643.188-.643.188-1.081.663-.132.333-.132.333-.24.82h2.187a2368.982 2368.982 0 01.655-1.256l.166-.385-.137-.274zm-12.715 3.692l-.292.017c-1.313.072-1.313.072-2.579.393a4.753 4.753 0 00-.137 2.05c.592.73 1.434 1.029 2.357 1.127 1.102-.024 2.027-.615 2.975-1.12.413-.216.833-.415 1.256-.613l.416-.196c1.223-.498 2.593-.435 3.806.053.578.292 1.116.636 1.651 1 1.042.707 1.875.845 3.125.707.615-.183 1.19-.43 1.778-.684a5.577 5.577 0 011.623-.359l.4-.03.3-.021c-.046-1.2-.046-1.2-.683-2.188-.95-.481-1.943-.468-2.984-.46h-.513c-.457 0-.914.002-1.372.006l-.853.003c-3.429.01-6.851.108-10.274.315zm2.52 3.982c-1.29.707-2.635 1.208-4.116.851-.337-.099-.67-.206-1.002-.322l-.41-.136v2.734l19.688.137c.007-1.722.007-1.722-.137-3.418-1.049-.109-1.782.193-2.716.627-1.167.525-2.726.531-3.94.125-.738-.31-1.407-.739-2.075-1.176-1.989-1.205-3.396-.465-5.291.578zm-9.22 5.178a14.915 14.915 0 000 1.64l.014.35c.061.498.167.785.52 1.15 1.35 1.033 2.984 1.43 4.662 1.235.963-.198 1.848-.573 2.745-.963 1.937-.842 3.682-1.28 5.749-.55.76.312 1.459.703 2.17 1.111 1.51.861 3.011 1.491 4.785 1.222.75-.212 1.468-.523 2.188-.82 1.547-.63 3.005-.608 4.648-.547.17-.735.321-1.466.428-2.213l.069-.476c.048-.434.08-.84.05-1.276-.325-.325-.393-.309-.835-.316l-.359-.008-.397-.005-.421-.008c-.47-.008-.94-.014-1.41-.02l-1.008-.015a854.67 854.67 0 00-11.799-.07l-.322-.001h-.323a971.8 971.8 0 01-2.645-.007c-.864-.003-1.729-.004-2.594-.004-.51 0-1.02-.001-1.53-.004-.561-.002-1.122-.002-1.684 0l-.501-.005c-1.203-.01-1.203-.01-2.2.6zm8.264 4.785c-2.574 1.104-4.649 1.3-7.287.255l-.293-.118c.058 2.227.058 2.227.89 4.22.546.466.977.446 1.673.447a2308.585 2308.585 0 001.915.005l1.848.003 1.154.002 3.61.004c1.39 0 2.78.003 4.17.007 1.075.003 2.149.004 3.223.004.642 0 1.283.001 1.925.004.603.002 1.207.002 1.81.001.222 0 .443 0 .665.002.302.002.605 0 .907 0h.513c.599-.069.957-.277 1.363-.716.198-.332.282-.617.364-.994l.09-.402c.028-.138.058-.275.088-.417l.093-.42c.16-.664.16-.664.223-1.34-1.5-.5-2.97.004-4.375.547l-.846.307-.348.13c-1.785.627-3.684.248-5.346-.547a78.297 78.297 0 01-1.386-.704c-2.515-1.3-3.996-1.418-6.643-.28zm-15.182 5.51c-1.137 1.28-1.854 2.905-1.968 4.607 3.099 1.034 6.308.752 9.261-.588 1.086-.565 2.208-1.29 2.77-2.42.055-.271.102-.545.137-.82l-.365-.045-.48-.066-.477-.063c-.46-.1-.748-.256-1.139-.51h-.273a9.38 9.38 0 01-.426-.958c-.29-.458-.47-.536-.99-.655l-.276-.053c-.645-.135-1.167-.297-1.726-.658-1.423 0-3.064 1.314-4.048 2.23zm36.066-1.614l-.37.13c-.787.304-1.218.618-1.671 1.336-.365.516-.95.66-1.54.79-.376.03-.75.057-1.128.077l-.308.018-.751.042c1.275 1.877 3.005 3.53 5.276 4.04l.33.061c.154.032.31.063.47.094 2.076.183 4.572 0 6.365-1.187.181-.42.151-.631.03-1.071-.377-.879-.783-1.616-1.397-2.347l-.308-.419c-.827-.97-2.063-1.615-3.247-2.042-.633 0-1.165.254-1.751.478zm-24.362 2.393l-.102.364a676.242 676.242 0 01-.277.955c-.29.792-.81 1.373-1.398 1.962 2.23.009 4.458-.018 6.687-.055a241686.375 241686.375 0 0110.959-.178l.435-.006c.905-.016 1.8-.076 2.7-.17a23.41 23.41 0 00-1.664-2.041c-.25-.284-.25-.284-.428-.571-.21-.287-.21-.287-.543-.327l-.372.001-.427-.002-.468.006h-.493c-.446 0-.893.003-1.339.007-.466.003-.933.003-1.4.004-.882.002-1.765.006-2.649.012-1.005.006-2.01.009-3.016.011-2.068.006-4.137.016-6.205.028z" fill="#C18539"/></g><defs><clipPath id="clip0_6665_37249"><path fill="#fff" transform="translate(.5)" d="M0 0h70v70H0z"/></clipPath></defs></svg>