<svg width="71" height="71" fill="none" xmlns="http://www.w3.org/2000/svg"><path d="M52.368 1.612c.533.398 1 .826 1.452 1.313.426-.108.426-.108.71-.435C56.006 1.017 57.566.568 59.602.563c1.42.02 2.503.452 3.652 1.27l.419.29c1.172 1.024 1.849 2.625 1.962 4.148.008.228.015.457.02.685l.011.309c-.017 2.62-1.269 5.374-2.035 7.863l-.769 2.507-.192.629a779.13 779.13 0 00-1.783 5.908l-.123.415-.655 2.201c.17-.01.339-.022.513-.034.404-.027.549.012.887.246.321.445.314.82.303 1.347v.307c0 .333-.004.667-.009 1l-.002.695c-.002.609-.007 1.218-.013 1.826-.007.731-.01 1.462-.013 2.193-.005 1.11-.015 2.22-.025 3.33h8.75v2.181c-1.595.045-3.19.079-4.785.1-.742.01-1.482.023-2.223.044-5.886.17-5.886.17-7.466-1.3a15.63 15.63 0 01-.464-.502c-.43-.454-.946-.798-1.451-1.163a54.483 54.483 0 01-2.48-2.012c-1.071-.915-2.176-1.79-3.28-2.667.045 1.879 1.02 3.069 2.217 4.437.38.521.325.795.245 1.427-.22.303-.22.303-.547.545-.426.06-.426.06-.925.045l-.273-.006a47.35 47.35 0 01-3.013-.213l-.595-.054-1.233-.114-1.579-.145a711.215 711.215 0 01-2.614-.24l-.465-.043c-.378-.048-.378-.048-.788-.184v1.09l.32.047c1.14.17 2.268.374 3.397.597l.266.052 1.388.275 1.426.28 1.372.27.514.1.48.096.42.083c.444.123.818.29 1.218.519.214.427.232.901.137 1.364-.409.505-.71.625-1.348.703l-.479.06-.498.055-.472.054c-.493.054-.987.103-1.481.151l-.541.054-1.122.11a861.8 861.8 0 00-2.815.28l-.52.051-.48.047-.423.042c-.349.029-.349.029-.759.029v1.09l.391-.003c1.215-.01 2.43-.02 3.645-.024.625-.003 1.25-.007 1.874-.013.603-.006 1.206-.01 1.809-.01l.69-.007c.322-.004.644-.004.966-.004l.288-.006c.463.004.691.04 1.06.327.233.31.29.45.283.832l.004.273c-.104.393-.313.552-.62.818-.332.146-.332.146-.713.26l-.446.134-.49.143-.78.234-.876.26c-.744.22-1.487.445-2.23.67-1.435.434-2.871.867-4.308 1.299l.274.954 3.334-.818 1.852-.454.899-.22 1.177-.29c.828-.202 1.655-.406 2.48-.623l.377-.098c.22-.057.438-.116.656-.176.786-.204 1.697-.406 2.426.02.283.49.337.894.197 1.432-.253.426-.603.746-.957 1.09l-.52.525a207.18 207.18 0 01-1.53 1.521 59.376 59.376 0 002.392-1.653 239.447 239.447 0 013.623-2.574l.342-.28c.632-.351 1.116-.339 1.826-.327h.405c.44 0 .878.004 1.318.008l.916.003c.802.002 1.605.007 2.407.013a1548.906 1548.906 0 017.278.038v2.181l-.482.005a4788.902 4788.902 0 00-6.79.063 1497.968 1497.968 0 00-3.074.03c-.395.002-.79.006-1.186.01-.119.002-.237.002-.359.003-.523-.044-.523-.044-.96.162-.015.223-.02.446-.022.669l-.004.439-.003.485-.004.508-.009 1.383-.01 1.443-.02 2.735-.021 3.114c-.016 2.135-.03 4.27-.044 6.406h2.05V52.97h2.188c.013 2.196.022 4.39.028 6.586.003 1.02.007 2.038.013 3.058.006.888.01 1.777.01 2.665.001.47.003.94.007 1.411.004.525.004 1.05.004 1.575l.006.473-.002.434.001.376c-.09.445-.266.59-.614.877-.32.068-.32.068-.68.068l-.419.005-.458-.004-.487.003h-1.34c-.482-.002-.964 0-1.445.001-.944.003-1.887.002-2.83 0a979.8 979.8 0 00-2.301 0h-.995c-2.078.002-4.156 0-6.234-.003-1.784-.002-3.568-.002-5.352 0a2796.032 2796.032 0 01-7.203.002c-.766 0-1.532 0-2.298.002-.933.002-1.866.001-2.8-.002-.476-.001-.952-.002-1.428 0-.516.002-1.032 0-1.548-.003l-.458.004-.418-.005h-.361c-.434-.093-.6-.265-.867-.614a8.986 8.986 0 01.061-1.21c.31-2.64.31-2.64-.558-5.018-.83-.803-1.898-1.317-2.93-1.815-.905-.439-1.658-.999-2.443-1.63l-.662-.515-.27-.214-.307-.234-.418-.35c-.593-.419-1.105-.429-1.815-.422l-.376-.004c-.408-.004-.815-.003-1.223-.002l-.851-.007c-.745-.005-1.49-.006-2.234-.007-.76-.001-1.521-.006-2.282-.011A952.758 952.758 0 00.5 58.425v-2.182c1.738-.045 3.475-.078 5.213-.099.808-.01 1.615-.023 2.422-.045.78-.021 1.561-.032 2.343-.037.296-.004.591-.01.887-.02 2.213-.076 3.466.4 5.125 1.867.44.383.909.729 1.378 1.076l.282.212c1.076.806 2.208 1.531 3.336 2.262l.662.43c.53.347 1.062.691 1.594 1.036-.26-1.357-1.047-2.382-2-3.367-.355-.37-.509-.645-.538-1.15.077-.529.077-.529.298-.832.438-.325.706-.303 1.248-.287l.273.006a49.2 49.2 0 013.05.213l.606.054 1.253.114c.536.05 1.072.097 1.608.145a644.369 644.369 0 012.66.24l.472.044c.367.047.367.047.64.183v-1.09l-.32-.047a73.492 73.492 0 01-3.396-.596l-.266-.053a810.71 810.71 0 01-1.389-.275l-1.425-.28c-.457-.088-.915-.18-1.372-.27l-.514-.1-.48-.096-.42-.083a5.11 5.11 0 01-1.218-.519c-.214-.426-.232-.901-.137-1.363.298-.376.482-.529.95-.651l.467-.052.517-.061.527-.055.48-.053a139.736 139.736 0 011.988-.206l1.1-.11a932.29 932.29 0 002.761-.28l.51-.05.47-.048.415-.042c.342-.029.342-.029.752-.029v-1.09l-.39.003c-1.215.011-2.43.02-3.645.025-.625.002-1.25.006-1.875.013-.602.006-1.205.009-1.808.01l-.69.006c-.322.004-.644.005-.966.004l-.289.006c-.462-.004-.69-.039-1.06-.327-.232-.31-.288-.45-.282-.832l-.005-.272c.105-.393.316-.553.62-.818.317-.143.317-.143.671-.25l.405-.124.436-.128.456-.139c.483-.146.966-.29 1.45-.433l.95-.287c.768-.232 1.536-.462 2.305-.691l1.666-.498 1.505-.45-.274-.955-3.334.818-1.852.455a2939.755 2939.755 0 00-2.076.508c-.828.203-1.655.407-2.48.624l-.378.098c-.218.057-.437.116-.655.176-.786.205-1.698.406-2.427-.02-.282-.49-.336-.893-.196-1.432.253-.426.603-.746.957-1.09l.52-.524c.507-.51 1.018-1.017 1.53-1.522a59.305 59.305 0 00-2.392 1.653 239.058 239.058 0 01-3.623 2.574l-.336.28c-.602.397-1.234.338-1.933.328h-.437c-.475 0-.95-.005-1.425-.01l-.99-.001c-.866-.002-1.733-.008-2.6-.014-.886-.005-1.771-.008-2.656-.01A1614.91 1614.91 0 01.5 47.515v-2.182l.508.007c1.588.02 3.177.03 4.766.031.816.001 1.633.006 2.45.017.79.012 1.579.014 2.369.011.3 0 .599.004.898.01 2.14.044 3.389-.344 5.007-1.756.454-.383.944-.713 1.434-1.047.954-.668 1.9-1.348 2.842-2.032l.297-.216.264-.191c.507-.351.987-.376 1.587-.289.477.18.914.416 1.358.665l.357.19c.862.467.862.467 1.02.782.125.906.125.906-.205 1.39-.168.188-.34.372-.517.551-.262.252-.262.252-.51.65l.304-.078a1312.045 1312.045 0 014.302-1.094c.47-.12.942-.24 1.413-.358l.795-.204c.89-.222 1.702-.42 2.62-.312.7.483.865 1.3 1.128 2.071l.15.415c.572 1.646.572 1.646.363 2.423-.367.458-.701.64-1.258.808l-.406.125-.421.124-.427.13c-.347.106-.695.21-1.043.313l.268.004c.4.007.801.019 1.202.03l.42.006.407.014.373.008c.458.101.614.238.885.62.07.454.07.454.073.989l.001.287c0 .2 0 .4-.003.6-.003.305 0 .61.004.915l-.002.584-.002.535c-.082.525-.195.685-.618 1-1.012.29-2.097.314-3.144.272v.273l.236.015c2.466.2 2.466.2 3.202.75.348.448.324.751.326 1.314l.001.287c0 .2 0 .4-.003.6-.003.305 0 .61.004.916l-.002.584-.002.534c-.071.454-.071.454-.298.785-.413.277-.64.28-1.138.27l-.262-.006c-1.444-.047-2.885-.198-4.323-.333-.523-.05-1.047-.097-1.57-.144a1119.447 1119.447 0 01-1.472-.135l-.436-.041-.385-.036c-.304-.042-.304-.042-.578-.179l.205.404.265.525.135.266c.598 1.187.75 2.6.35 3.888-.265.543-.445.85-.955 1.19-.265.036-.265.036-.547.034l-.282.002c-.264-.036-.264-.036-.675-.309l-.136 2.455h31.855V52.698a324.8 324.8 0 00-4 2.846l-.302.219-.263.191c-.507.352-.987.376-1.587.289-.478-.18-.914-.416-1.359-.665l-.357-.19c-.86-.467-.86-.467-1.019-.781-.125-.907-.125-.907.205-1.391.167-.188.34-.372.516-.551.263-.252.263-.252.51-.65l-.303.078c-.947.243-1.894.483-2.842.723-.487.123-.974.246-1.46.371-.471.12-.942.24-1.413.358l-.795.204c-.891.223-1.702.42-2.62.312-.7-.483-.865-1.3-1.129-2.07l-.15-.416c-.572-1.646-.572-1.646-.362-2.423.374-.47.716-.643 1.288-.808l.425-.125.44-.124.447-.13c.363-.106.727-.21 1.091-.313l-.28-.004c-.42-.007-.839-.019-1.258-.03l-.44-.006-.425-.013-.39-.009c-.468-.099-.624-.23-.898-.62-.071-.454-.071-.454-.073-.988 0-.095 0-.19-.002-.288 0-.2.001-.4.004-.6.002-.305 0-.61-.004-.915l.002-.584.002-.535c.082-.525.195-.685.618-.999 1.012-.29 2.096-.315 3.144-.273v-.272l-.236-.016c-2.466-.2-2.466-.2-3.202-.75-.348-.447-.324-.751-.326-1.314 0-.095 0-.19-.002-.287 0-.2.001-.4.004-.6.002-.305 0-.61-.004-.915l.002-.584.002-.535c.07-.454.07-.454.298-.785.41-.275.633-.28 1.128-.27l.26.006c1.673.053 3.342.238 5.007.39l1.098.1c.89.079 1.78.16 2.67.241l-.173-.34-.226-.448-.224-.443c-.699-1.436-.724-2.972-.334-4.496l.684-1.363-23.242-.137v9.818H21.28l-.136-3.136c-.745.6-1.48 1.198-2.188 1.84a28.045 28.045 0 01-1.959 1.647c-.246.199-.246.199-.48.493-.735.767-1.313 1.001-2.357 1.06-.758.015-1.514.005-2.272-.011l-.987-.005c-.861-.005-1.723-.017-2.584-.03-.881-.013-1.762-.019-2.643-.025-1.725-.013-3.45-.034-5.175-.06V38.38l.513.005c1.601.015 3.202.02 4.803.02.823 0 1.646.002 2.47.01.794.009 1.59.01 2.385.006.302 0 .604.002.907.007 1.87.08 1.87.08 3.495-.702.314-.31.593-.645.876-.982.252-.216.508-.427.77-.63.485-.391.956-.791 1.418-1.211a40.67 40.67 0 011.826-1.549l.361-.292.427-.287c.384-.321.393-.392.49-.927a16.6 16.6 0 00-.006-.619l.002-.332c.002-.35-.002-.699-.007-1.048-.003-.35-.005-.7-.004-1.05 0-.216-.002-.433-.006-.65 0-.474.024-.76.297-1.154.359-.237.537-.27.963-.259l.368.005.382.014.387.008c.316.006.63.015.945.026l.018-.528c.302-2.913 2.003-5.573 4.214-7.437 2.528-2.029 5.616-2.992 8.834-2.995l.515-.01c.991-.003 1.866.098 2.825.338l.32.078.775.19-.004-.392c-.011-1.228-.02-2.455-.025-3.683-.003-.63-.006-1.262-.013-1.893-.006-.61-.009-1.22-.01-1.83a80.447 80.447 0 00-.006-.695c-.028-2.277.421-3.942 2.014-5.654 2.232-2.107 5.808-2.355 8.349-.665zm-7.161 2.813c-1.109 1.489-.957 3.085-.957 4.909h4.375v2.182H44.25v2.181h4.375v2.182H44.25c-.167 1.389-.167 1.389.301 1.837l.417.217c2.785 1.616 4.579 3.982 5.465 7.074.15.59.272 1.181.38 1.781H53c.006-2.534.011-5.068.014-7.603.002-1.177.003-2.353.007-3.53l.005-3.079c0-.543 0-1.086.003-1.629.002-.512.002-1.024.002-1.536l.003-.826c-.004-1.744-.157-3.195-1.346-4.544-.875-.823-1.875-1.146-3.063-1.184-1.406.047-2.478.513-3.418 1.568zm11.211-.546c-.673.634-1.187 1.237-1.264 2.187v1.012l.002.592v.625c0 .565.002 1.13.004 1.694.002.59.002 1.181.002 1.772 0 1.118.003 2.236.006 3.354l.006 3.819c.003 2.618.008 5.236.014 7.854h2.46c.325-1.059.648-2.119.97-3.179l.45-1.476c.146-.474.29-.95.434-1.424l.166-.544a815.465 815.465 0 01.364-1.199c.112-.372.112-.372-.06-.768-.286-.172-.286-.172-.64-.309l-.392-.164-.411-.167-.414-.171c-.337-.14-.675-.28-1.013-.417 0-.572.1-.822.341-1.33l.193-.406.15-.31.345.136c.881.34 1.762.667 2.662.956.305-.67.529-1.325.71-2.037.023-.094.048-.187.073-.283l.174-.68a59.357 59.357 0 00-3.555-1.5c.07-.473.142-.89.35-1.321.224-.433.224-.433.197-.861l.307.127c.459.19.918.376 1.377.563l.483.2.463.188.428.176c.37.15.37.15.77-.027a9.79 9.79 0 00.368-1.1l.09-.333c.34-1.345.553-2.896-.14-4.164-.796-1.174-1.576-1.778-2.967-2.09-1.35-.205-2.427.187-3.503 1.005zm-18.73 14.182v3.273H35.5v-3c-1.492.323-2.661.707-3.965 1.5.376 1.213.876 2.375 1.367 3.545l-.306.055c-.43.093-.81.242-1.216.406-.255.085-.255.085-.665.085l-.957-2.319c-.417-.046-.417-.046-.656.232-1.27 1.577-1.785 2.947-2.215 4.95h21.601c-.196-1.266-.196-1.266-.683-2.318-.577.542-1.041 1.133-1.504 1.773-.696-.217-1.214-.647-1.778-1.091.234-.71.68-1.228 1.144-1.798.343-.429.599-.816.77-1.338-.218-.226-.438-.45-.657-.674l-.37-.378c-.32-.336-.32-.336-.75-.448l-1.64 2.454c-1.23-.682-1.23-.682-1.778-1.09.258-.734.694-1.313 1.138-1.945.265-.359.265-.359.23-.783-1.677-.623-3.13-.978-4.922-1.09zm10.39 10.91c.454.452.872.848 1.367 1.244a92.21 92.21 0 011.71 1.414 121.62 121.62 0 002.02 1.675 127.2 127.2 0 011.21.993l.376.312c.246.239.246.239.426.225V28.97h-7.109zm9.297 0a178.14 178.14 0 00-.083 3.202 61.82 61.82 0 01-.03 1.089 70.652 70.652 0 00-.034 1.568l-.023.489c0 .693.012 1.114.49 1.64.665.508 1.013.738 1.867.738V28.97h-2.187z" fill="#C18539"/></svg>