<svg width="71" height="70" fill="none" xmlns="http://www.w3.org/2000/svg"><g clip-path="url(#clip0_6665_37240)" fill="#C18539"><path d="M39.41 12.146l.445-.004.476-.002.498-.002 1.042-.003c.527-.001 1.053-.005 1.58-.01 3.12-.013 5.572.303 8.044 2.367l.273.225c1.322 1.204 2.111 2.872 2.598 4.56l.102.343c.5 2.022.124 4.342-.04 6.39l-.105 1.386c-.12 1.558-.264 3.077-.64 4.596l-.077.31c-.492 1.819-1.406 3.515-2.521 5.022l.23.019c2.287.191 4.486.46 6.196 2.169.82 1.07.82 1.07.82 1.64a58.539 58.539 0 003.238-1.26l.281-.12c.472-.2.944-.4 1.414-.603 1.588-.678 3.049-1.252 4.747-.61 1.188.523 1.885 1.219 2.37 2.438a4.989 4.989 0 01-.262 3.419 5.691 5.691 0 01-.85 1.112l.324.427c.743.978.737 2.084.633 3.264-.251 1.012-.907 1.898-1.753 2.501-1.125.616-2.362.812-3.606 1.06-.426.087-.852.176-1.277.267-1.208.257-2.417.513-3.628.754-3.466.695-6.447 1.338-9.222 3.621-.51.411-1.052.766-1.603 1.12-.097.061-.194.124-.293.188-3.07 1.954-6.94 3.02-10.564 3.106l-.3.008c-1.302.03-2.605.045-3.908.056l-.382.003c-4.1.032-7.843-.264-11.79-1.472-.465-.157-.465-.157-.893-.138l.273.333c.302.465.39.863.358 1.415-.172.619-.673.905-1.178 1.26l-.412.3c-.319.232-.639.46-.96.685-.48.337-.955.679-1.43 1.022-.206.15-.412.298-.619.446-.546.393-1.087.79-1.624 1.195-.11.082-.22.163-.332.248-.21.156-.418.313-.625.472-.587.435-1.033.701-1.791.69-.754-.265-1.153-.988-1.598-1.614l-.256-.355c-.25-.345-.497-.692-.744-1.038l-.366-.51-.653-.916c-.4-.563-.806-1.124-1.21-1.685l-.227-.313-.688-.951c-1.76-2.435-1.76-2.435-2.624-3.648-.388-.544-.78-1.085-1.173-1.626-.302-.417-.602-.835-.901-1.253a94.76 94.76 0 00-.672-.914 537.74 537.74 0 01-.415-.574l-.197-.26C.491 52.066.376 51.64.5 50.86c.474-.625 1.165-1.053 1.803-1.503l.663-.474.342-.243c.425-.303.848-.61 1.27-.917.939-.68 1.88-1.354 2.826-2.024l.3-.212c1.02-.72 1.02-.72 1.82-.642.393.273.393.273.683.547a6.42 6.42 0 001.047-.622l.29-.21.312-.228.328-.238a609.954 609.954 0 003.629-2.667 401.493 401.493 0 014.132-3.022c.749-.54 1.492-1.086 2.233-1.635.86-.636 1.725-1.263 2.598-1.88l.299-.211c.927-.652.927-.652 1.575-.65h.365l.394.002h.403l1.28.005a1157.979 1157.979 0 012.99.009l-.135-.327-.181-.451-.178-.438c-.507-1.41-.683-2.864-.799-4.35l-.046-.566a271.37 271.37 0 01-.093-1.176c-.038-.496-.08-.992-.122-1.487-.032-.389-.063-.777-.093-1.166-.021-.27-.044-.539-.068-.808-.2-2.74.349-5.487 2.126-7.65l.273-.312.298-.343c1.638-1.759 3.925-2.806 6.346-2.824zm-4.868 4.807c-.807 1.066-1.403 2.234-1.64 3.555l.478.205a25.574 25.574 0 011.574.758l.566.292c2.542 1.3 5.403.612 8.045-.025.716-.17 1.431-.34 2.148-.506.304-.072.607-.146.91-.22 1.866-.448 3.659-.665 5.556-.23a9.003 9.003 0 00-1.23-3.145l-.163-.273c-.892-1.386-2.584-2.298-4.153-2.677-.672-.116-1.351-.1-2.032-.1h-.49a268.676 268.676 0 01-2.579-.007h-.998l-.465-.004c-2.15.012-4.06.772-5.527 2.377zm13.108 6.23l-.516.11a289.884 289.884 0 00-5.025 1.123l-.449.103c-2.552.55-5.373.443-7.676-.873-.275-.16-.275-.16-.672-.13-.007.744-.012 1.487-.015 2.231l-.006.757c-.018 1.965.028 3.828.696 5.702l.104.312c.098.285.195.564.314.841l.139.37c.314.364.378.366.836.402.238.005.475.006.712.004l.38.005c.403.005.804.006 1.206.006l1.204.01a85.027 85.027 0 001.093.007h.302c.299.018.547.047.828.154.403 1.21.116 2.443-.291 3.611-.134.335-.134.335-.12.627 2.453.287 5.015.115 7.075-1.401 2.11-1.78 3.507-4.472 3.863-7.212.02-.48.022-.958.023-1.437l.001-.416.001-.866c0-.442.003-.885.006-1.327v-.843l.003-.4v-.702c-.039-.339-.128-.556-.308-.845-1.077-.653-2.57-.172-3.708.076zM24.53 38.075c-.307.262-.63.498-.96.731l-.572.424-.653.482-.328.242-1.95 1.437c-.543.4-1.086.8-1.628 1.202a344.5 344.5 0 01-3.503 2.554c-1.04.75-2.066 1.52-3.09 2.295.084.426.22.703.477 1.052l.214.292.232.313.49.668.253.344c.383.52.76 1.045 1.137 1.569.45.624.901 1.247 1.353 1.87l.233.321a406.74 406.74 0 00.634.875l.203.275c.243.35.243.35.49.777.637 1.052 1.114 1.554 2.345 1.885.174.04.348.078.528.118l.567.14c.51.123 1.024.236 1.538.344.323.069.645.14.968.211 3.586.785 7.104 1.038 10.77 1.011l.35-.002c5.886-.038 10.714-1.096 15.523-4.638.358-.256.73-.487 1.105-.718a5.145 5.145 0 001.025-.794c.318-.318.591-.432 1-.6.45-.201.858-.468 1.273-.733l.288-.182c.756-.48 1.509-.967 2.26-1.455.886-.575 1.775-1.144 2.665-1.713 1.047-.67 2.094-1.34 3.136-2.018.589-.383 1.181-.76 1.775-1.134l.701-.444.682-.428c1.236-.75 1.236-.75 2.045-1.906.088-.634-.004-.911-.341-1.453-.565-.482-1.037-.603-1.778-.547-.435.134-.85.312-1.268.492l-.375.156c-.407.17-.813.342-1.22.514a982.46 982.46 0 00-2.595 1.087c-.743.313-1.489.621-2.235.927l-.289.118c-.544.224-1.09.445-1.638.66-.966.382-1.912.76-2.81 1.286-4.664 2.728-10.13 2.161-15.338 2.068-1.335-.023-2.67-.029-4.004-.035a626.876 626.876 0 01-3.805-.031 208.66 208.66 0 01-2.093-.028c-.21-.004-.421-.006-.632-.008a57.537 57.537 0 01-.861-.015l-.487-.008c-.494-.089-.66-.219-.955-.62-.1-.827.029-1.279.465-2l.147-.249c.156-.26.314-.518.473-.776l.305-.51a66.802 66.802 0 011.79-2.837c.286-.403.286-.403.374-.874.38-.107.719-.154 1.113-.156l.333-.003.358-.002.76-.01c.396-.005.792-.009 1.189-.01 2.02-.012 3.584-.066 5.11-1.535.44-.496.981-1.145.981-1.839a313.41 313.41 0 00-4.578-.092c-.71-.01-1.418-.022-2.127-.042a94.81 94.81 0 00-2.058-.035c-.26-.003-.52-.01-.78-.019-2.025-.073-3.173.441-4.706 1.76zM46.3 40.47c-2.27.66-4.427.593-6.726.225-.589-.11-.589-.11-1.11.134l-.367.325c-1.274.687-2.431.977-3.873.97h-.313c-.431-.001-.863-.002-1.295-.013-1.248-.075-1.248-.075-2.348.385a5.45 5.45 0 00-.511.982c-.103.168-.21.335-.32.5l-.278.448-.285.457c-.233.34-.233.34-.21.646 2.456.051 4.913.09 7.37.113 1.142.011 2.283.026 3.425.052 7.006.227 7.006.227 13.536-2.06 1.004-.553 2.087-.957 3.149-1.387-.294-.93-.685-1.346-1.543-1.809-.934-.431-1.76-.538-2.787-.547l-.346-.004-.724-.004a89.569 89.569 0 01-.733-.009c-1.358-.022-2.477-.031-3.711.596zm20.151 6.707l-.301.184-.325.201-.335.206a78.349 78.349 0 00-2.56 1.665c-.795.536-1.604 1.049-2.411 1.564.408.127.682.14 1.098.046l.323-.07a403.318 403.318 0 01.706-.16l.752-.172a597.103 597.103 0 001.879-.424l.344-.076c.748-.174 1.472-.343 1.99-.947.2-.502.25-.95.154-1.478-.233-.476-.233-.476-.547-.82-.342 0-.476.102-.767.28zM7.796 48.433a50.24 50.24 0 01-2.5 1.84c-.652.456-1.292.926-1.926 1.407a25.67 25.67 0 001.772 2.563c.468.6.91 1.215 1.347 1.837.57.814 1.144 1.623 1.726 2.427l.224.31a3447.34 3447.34 0 001.34 1.853l.442.61a254.804 254.804 0 011.392 1.942l.452.636a9.758 9.758 0 001.286 1.494 218.052 218.052 0 00.75-.542l.658-.476c.582-.42 1.165-.84 1.75-1.259a258.325 258.325 0 01.977-.7l.295-.212.258-.184a5.87 5.87 0 00.644-.592 376.701 376.701 0 00-3.194-4.476c-.372-.513-.742-1.026-1.113-1.54l-.444-.615-.889-1.23-.222-.308-.443-.613-1.141-1.579-.236-.325-.457-.63a43.068 43.068 0 01-.921-1.31l-.254-.38-.206-.317-.187-.212c-.565 0-.742.229-1.18.58zM51.633 2.462c.497.342.653.548.786 1.136-.25 1.229-1.723 2.31-2.59 3.192-.16.163-.318.327-.475.492-.23.241-.464.48-.698.717l-.21.223c-.565.562-.964.657-1.735.666-.39-.242-.614-.41-.82-.82-.068-.36-.068-.36 0-.82.277-.398.626-.742.957-1.095l.196-.209c.459-.489.924-.971 1.393-1.45.166-.17.332-.342.495-.515.24-.252.483-.5.727-.748l.218-.234c.576-.573.95-.637 1.756-.535z"/><path d="M14.76 58.361c.643.368 1.107.803 1.327 1.522.113.813.07 1.498-.41 2.187-.6.59-1.03.843-1.871.863-.79-.01-1.205-.09-1.82-.59-.574-.706-.633-1.313-.6-2.213.097-.707.438-1.059.95-1.52.707-.49 1.622-.554 2.424-.249zM34.953 3.007c.421.282.77.63 1.126.988.298.3.6.596.902.893a268.024 268.024 0 011.705 1.697c.395.426.417.77.406 1.348-.037.27-.037.27-.25.603-.451.288-.756.35-1.291.35-.852-.495-1.513-1.188-2.203-1.879a84.627 84.627 0 00-.648-.637l-.415-.413-.377-.374c-.374-.45-.55-.79-.732-1.345.293-.996.72-1.415 1.777-1.23zm8.339-.957c.372.343.44.63.465 1.116a375.515 375.515 0 01.006 1.063v.775c-.001.395.003.79.007 1.185v.754l.005.358c-.01.815-.01.815-.321 1.246-.424.288-.747.33-1.256.34-.425-.17-.62-.293-.837-.698-.154-.508-.159-.99-.156-1.515l-.001-.323c0-.225 0-.45.002-.675 0-.343 0-.686-.002-1.028V3.68c.004-.554.036-1.005.31-1.493.672-.4 1.074-.505 1.778-.137z"/></g><defs><clipPath id="clip0_6665_37240"><path fill="#fff" transform="translate(.5)" d="M0 0h70v70H0z"/></clipPath></defs></svg>