<svg width="35" height="35" viewBox="0 0 35 35" fill="none" xmlns="http://www.w3.org/2000/svg">
<path d="M17.0553 3.34758C17.1246 3.3867 17.1246 3.3867 17.1952 3.42662C17.4144 3.57995 17.4144 3.57995 17.6139 3.51206C17.6922 3.46554 17.6922 3.46554 17.772 3.41807C18.2194 3.20386 18.7605 3.20301 19.238 3.32354C19.6452 3.50398 19.973 3.85408 20.1702 4.25028C20.2479 4.48949 20.2462 4.69235 20.2415 4.94334C20.2403 5.02908 20.239 5.11482 20.2378 5.20316C20.2354 5.30084 20.2354 5.30084 20.233 5.40049C20.3178 5.40145 20.3178 5.40145 20.4043 5.40243C20.6606 5.4061 20.9167 5.41182 21.1729 5.41758C21.2619 5.41855 21.3509 5.41952 21.4426 5.42052C21.5281 5.42272 21.6136 5.42493 21.7016 5.4272C21.7804 5.42863 21.8591 5.43006 21.9403 5.43153C22.1891 5.47645 22.2737 5.53852 22.4205 5.74229C22.4205 5.83252 22.4205 5.92276 22.4205 6.01573C22.4595 6.01512 22.4984 6.01451 22.5386 6.01389C22.949 6.00778 23.3594 6.00369 23.7698 6.00071C23.9224 5.99934 24.075 5.99748 24.2276 5.9951C25.8712 5.97007 25.8712 5.97007 26.6588 6.28916C26.7061 6.30812 26.7535 6.32708 26.8023 6.34661C27.9425 6.85247 28.7278 7.73246 29.2366 8.85291C29.4637 9.4688 29.563 10.0201 29.5555 10.677C29.5563 10.7473 29.5571 10.8175 29.5579 10.8899C29.5562 11.3186 29.5018 11.6403 29.3248 12.0314C29.3981 12.0257 29.4714 12.0201 29.5469 12.0143C29.8033 12.0314 29.8033 12.0314 29.9539 12.1432C30.1879 12.451 30.119 12.8253 30.0767 13.1935C29.9852 13.5427 29.867 13.8499 29.6666 14.1505C29.7452 14.1515 29.7452 14.1515 29.8254 14.1524C30.063 14.1561 30.3006 14.1618 30.5381 14.1676C30.6206 14.1686 30.7031 14.1695 30.7881 14.1705C30.907 14.1738 30.907 14.1738 31.0284 14.1772C31.1014 14.1786 31.1745 14.1801 31.2497 14.1815C31.4439 14.2189 31.4439 14.2189 31.598 14.3112C31.8959 14.7633 31.8868 15.4528 31.9553 15.9831C31.9644 16.0526 31.9735 16.1222 31.983 16.1939C32.0026 16.3434 32.0221 16.493 32.0416 16.6426C32.0724 16.8794 32.1036 17.1161 32.1348 17.3529C32.2234 18.0255 32.3117 18.6981 32.3994 19.3708C32.4533 19.7835 32.5075 20.1961 32.5621 20.6087C32.5828 20.7656 32.6033 20.9226 32.6236 21.0795C32.6519 21.2985 32.6809 21.5174 32.7099 21.7362C32.7223 21.8333 32.7223 21.8333 32.7349 21.9323C32.7903 22.3444 32.842 22.6886 33.1532 22.9867C33.1925 23.0251 33.2318 23.0635 33.2724 23.103C33.3133 23.1419 33.3543 23.1808 33.3964 23.2209C33.4778 23.2994 33.5591 23.378 33.6402 23.4567C33.6942 23.5082 33.6942 23.5082 33.7493 23.5608C33.9738 23.7969 33.916 24.0976 33.9169 24.4028C33.9174 24.4664 33.9178 24.5299 33.9183 24.5955C33.9197 24.8065 33.9205 25.0174 33.9211 25.2284C33.9214 25.3004 33.9217 25.3723 33.922 25.4464C33.9234 25.827 33.9244 26.2076 33.925 26.5883C33.9258 26.982 33.9281 27.3757 33.9308 27.7694C33.9326 28.0716 33.9332 28.3738 33.9335 28.6761C33.9338 28.8213 33.9346 28.9664 33.9358 29.1116C33.9375 29.3145 33.9375 29.5174 33.937 29.7204C33.9383 29.8106 33.9383 29.8106 33.9396 29.9027C33.9361 30.3086 33.9361 30.3086 33.7814 30.5214C33.5677 30.6691 33.3377 30.7465 33.0933 30.8275C32.9867 30.8657 32.8801 30.9041 32.7736 30.9426C32.6068 31.0022 32.44 31.0607 32.2718 31.1161C31.5761 31.3196 31.5761 31.3196 31.0955 31.8163C31.0032 32.0674 31.0032 32.0674 30.9513 32.3152C30.8105 32.8963 30.2938 33.327 29.8033 33.6329C29.1392 34.0003 28.3282 34.0083 27.5963 33.8612C26.8834 33.6296 26.3858 33.1511 25.9752 32.5392C25.8398 32.1669 25.8398 32.1669 25.7017 31.7872C20.4681 31.7872 15.2345 31.7872 9.84234 31.7872C9.75211 32.0354 9.66187 32.2835 9.5689 32.5392C9.11454 33.2163 8.54251 33.7417 7.7232 33.9064C6.87437 33.9978 6.12435 33.9252 5.41607 33.415C4.98771 33.0541 4.68095 32.6753 4.49669 32.1429C4.46157 32.0426 4.46157 32.0426 4.42574 31.9403C4.39993 31.8645 4.39993 31.8645 4.37359 31.7872C4.23906 31.7863 4.23906 31.7863 4.10182 31.7853C3.76904 31.7825 3.43629 31.7781 3.10353 31.773C2.95952 31.7711 2.8155 31.7696 2.67148 31.7687C2.46443 31.7672 2.25746 31.764 2.05044 31.7605C1.98606 31.7604 1.92168 31.7603 1.85535 31.7603C1.79515 31.7589 1.73495 31.7576 1.67293 31.7562C1.6201 31.7556 1.56727 31.755 1.51285 31.7543C1.29331 31.7014 1.22688 31.6287 1.09234 31.4454C1.05069 31.221 1.05548 30.9985 1.05762 30.7708C1.05719 30.7015 1.05676 30.6322 1.05632 30.5609C1.05523 30.328 1.0561 30.0953 1.05696 29.8625C1.05659 29.6958 1.0561 29.5292 1.05551 29.3626C1.05439 28.9566 1.05455 28.5506 1.05535 28.1446C1.05596 27.8147 1.05605 27.4848 1.05575 27.1548C1.05571 27.1079 1.05567 27.061 1.05562 27.0126C1.05553 26.9173 1.05545 26.8219 1.05536 26.7266C1.05458 25.8323 1.05547 24.938 1.05694 24.0437C1.05816 23.2761 1.05795 22.5086 1.05669 21.7411C1.05523 20.85 1.05465 19.9589 1.05549 19.0678C1.05558 18.9728 1.05566 18.8779 1.05575 18.7829C1.05579 18.7361 1.05583 18.6894 1.05588 18.6412C1.05611 18.3116 1.05571 17.9821 1.05507 17.6525C1.05422 17.209 1.05483 16.7655 1.05641 16.3221C1.05677 16.159 1.05667 15.996 1.05606 15.833C1.05532 15.6109 1.05625 15.389 1.05762 15.1669C1.05701 15.102 1.0564 15.037 1.05577 14.97C1.06099 14.5349 1.06099 14.5349 1.22223 14.3157C1.38253 14.2075 1.46981 14.1827 1.66164 14.1772C1.71628 14.175 1.77091 14.1728 1.8272 14.1705C1.8836 14.1696 1.94 14.1686 1.9981 14.1676C2.05556 14.1656 2.11301 14.1635 2.1722 14.1614C2.31352 14.1566 2.45488 14.1534 2.59625 14.1505C2.57237 14.1043 2.54849 14.0581 2.52388 14.0106C2.47722 13.9191 2.47722 13.9191 2.42962 13.8258C2.38322 13.7354 2.38322 13.7354 2.33589 13.6431C2.19622 13.3409 2.17199 13.0822 2.16473 12.7491C2.16217 12.6723 2.15962 12.5954 2.15698 12.5163C2.18609 12.3048 2.18609 12.3048 2.29103 12.1414C2.52131 11.991 2.72436 12.0012 2.98931 12.0143C3.03699 12.0155 3.08466 12.0167 3.13377 12.018C3.25086 12.0212 3.3679 12.0261 3.48492 12.0314C3.43509 11.9206 3.43509 11.9206 3.38425 11.8076C3.24621 11.4375 3.24602 11.0811 3.24993 10.6898C3.2505 10.617 3.25107 10.5443 3.25165 10.4693C3.27824 9.22622 3.77578 8.13919 4.64703 7.2462C5.15765 6.79287 5.71528 6.45705 6.35601 6.2208C6.40205 6.20357 6.44809 6.18633 6.49552 6.16857C7.14621 5.95774 7.80605 5.98298 8.48236 5.98075C8.61463 5.97959 8.74689 5.97835 8.87916 5.97703C9.22494 5.9738 9.57073 5.97175 9.91653 5.96996C10.2703 5.96791 10.6241 5.96473 10.9779 5.96165C11.6703 5.95579 12.3628 5.95118 13.0552 5.94737C13.0863 5.8811 13.1173 5.81484 13.1492 5.74656C13.2603 5.53721 13.2603 5.53721 13.397 5.46885C13.5009 5.45851 13.6052 5.45184 13.7095 5.44722C13.7707 5.44436 13.8319 5.44149 13.895 5.43854C13.9911 5.43451 13.9911 5.43451 14.0892 5.4304C14.1538 5.42745 14.2184 5.4245 14.2849 5.42145C14.4447 5.41419 14.6044 5.40722 14.7642 5.40049C14.761 5.33775 14.7579 5.27501 14.7546 5.21037C14.7273 4.28298 14.7273 4.28298 15.0377 3.89659C15.5759 3.33137 16.2783 3.04834 17.0553 3.34758ZM16.0374 4.55455C15.893 4.76556 15.8845 4.87606 15.9263 5.12706C16.0789 5.32173 16.169 5.39024 16.4048 5.46885C16.5002 5.47341 16.5957 5.47469 16.6911 5.47312C16.7771 5.47171 16.8631 5.4703 16.9517 5.46885C16.9716 5.08495 16.9591 4.8469 16.7466 4.51182C16.4903 4.38364 16.273 4.39337 16.0374 4.55455ZM18.1138 4.7169C18.0511 4.90494 18.038 5.01491 18.0412 5.20823C18.0426 5.29424 18.044 5.38024 18.0455 5.46885C18.4294 5.48871 18.6674 5.47626 19.0025 5.26377C19.0996 5.06958 19.0924 4.9319 19.0709 4.7169C18.9683 4.546 18.9683 4.546 18.7974 4.44346C18.4624 4.38762 18.3198 4.44993 18.1138 4.7169ZM14.149 6.5626C14.0243 6.93678 13.909 7.29163 13.8139 7.67114C13.8026 7.71624 13.7912 7.76134 13.7795 7.8078C13.7427 7.95433 13.7061 8.10094 13.6697 8.24755C13.6439 8.35041 13.6182 8.45325 13.5924 8.5561C13.5387 8.77036 13.4853 8.98467 13.4319 9.19901C13.3635 9.47378 13.2947 9.74844 13.2257 10.0231C13.1726 10.2348 13.1197 10.4467 13.0669 10.6585C13.0416 10.7599 13.0162 10.8612 12.9907 10.9625C12.9553 11.1036 12.9202 11.2448 12.8852 11.386C12.8652 11.4663 12.8452 11.5466 12.8245 11.6293C12.7745 11.8261 12.7745 11.8261 12.7818 12.0314C14.1579 12.0314 15.5339 12.0314 16.9517 12.0314C16.9517 10.7455 16.9517 9.45967 16.9517 8.13487C16.7261 8.27022 16.5005 8.40557 16.2681 8.54502C15.89 8.72586 15.4499 8.73706 15.0377 8.68174C14.8887 8.57895 14.8418 8.52147 14.8053 8.34422C14.8059 8.29769 14.8064 8.25116 14.8069 8.20323C14.8064 8.1567 14.8059 8.11017 14.8053 8.06224C14.8417 7.88523 14.8915 7.8308 15.0377 7.72471C15.2227 7.67184 15.2227 7.67184 15.435 7.63072C15.8612 7.53098 16.0989 7.42415 16.353 7.0542C16.4965 6.82412 16.4965 6.82412 16.5416 6.5626C15.752 6.5626 14.9625 6.5626 14.149 6.5626ZM18.4556 6.5626C18.5989 6.99247 18.7297 7.25147 19.1136 7.49827C19.3843 7.60356 19.6572 7.67463 19.9395 7.74207C19.9912 7.7589 20.043 7.77573 20.0962 7.79307C20.2027 8.00604 20.2032 8.24455 20.1646 8.47666C20.0848 8.59469 20.0848 8.59469 19.9595 8.68174C19.2096 8.80844 18.6541 8.5406 18.0455 8.13487C18.0455 9.42071 18.0455 10.7065 18.0455 12.0314C18.6094 12.0314 19.1734 12.0314 19.7545 12.0314C19.8792 11.6572 19.9944 11.3023 20.0895 10.9228C20.1009 10.8777 20.1122 10.8326 20.1239 10.7862C20.1608 10.6396 20.1973 10.493 20.2338 10.3464C20.2595 10.2435 20.2853 10.1407 20.3111 10.0379C20.3647 9.82359 20.4182 9.60928 20.4715 9.39494C20.5399 9.12017 20.6087 8.84552 20.6777 8.57089C20.7308 8.35911 20.7837 8.14728 20.8366 7.93543C20.8619 7.83408 20.8872 7.73275 20.9127 7.63143C20.9481 7.49031 20.9832 7.34912 21.0182 7.20791C21.0382 7.12764 21.0583 7.04737 21.0789 6.96467C21.1289 6.76787 21.1289 6.76787 21.1216 6.5626C20.2419 6.5626 19.3621 6.5626 18.4556 6.5626ZM9.22711 7.10948C9.19186 7.20535 9.15661 7.30123 9.1203 7.4C9.10047 7.45393 9.08064 7.50786 9.06021 7.56343C9.01894 7.73777 9.03246 7.83089 9.09039 7.99815C9.48353 7.78162 9.78589 7.54636 10.0474 7.17784C10.0474 7.15528 10.0474 7.13272 10.0474 7.10948C9.77672 7.10948 9.50601 7.10948 9.22711 7.10948ZM24.5396 7.10948C24.5044 7.20535 24.4691 7.30123 24.4328 7.4C24.413 7.45393 24.3931 7.50786 24.3727 7.56343C24.3314 7.73777 24.345 7.83089 24.4029 7.99815C24.8848 7.70165 24.8848 7.70165 25.2916 7.31456C25.2916 7.26944 25.2916 7.22432 25.2916 7.17784C25.0434 7.15528 24.7953 7.13272 24.5396 7.10948ZM7.92828 7.10948C6.75606 7.22566 5.86315 7.60955 5.09804 8.5266C4.56843 9.27893 4.26599 10.2002 4.40083 11.1243C4.5071 11.4975 4.66234 11.6874 4.98882 11.8946C5.3621 12.027 5.69003 12.0503 6.08015 12.0469C6.13957 12.0469 6.19898 12.0469 6.26019 12.0469C6.45511 12.0468 6.65002 12.0458 6.84494 12.0447C6.98066 12.0444 7.11638 12.0443 7.2521 12.0441C7.60824 12.0436 7.96437 12.0423 8.3205 12.0407C8.68434 12.0393 9.04818 12.0387 9.41202 12.038C10.1251 12.0366 10.8382 12.0342 11.5513 12.0314C11.6712 11.6811 11.7838 11.3324 11.8738 10.973C11.8943 10.8916 11.9148 10.8102 11.936 10.7263C11.9573 10.6404 11.9787 10.5545 12.0007 10.466C12.0234 10.3754 12.0461 10.2849 12.0688 10.1943C12.116 10.0057 12.1631 9.81719 12.21 9.62859C12.2701 9.38693 12.3307 9.14538 12.3913 8.90385C12.4381 8.71741 12.4847 8.53091 12.5312 8.3444C12.5642 8.21202 12.5975 8.07969 12.6307 7.94736C12.6506 7.86724 12.6705 7.78713 12.6909 7.70458C12.7085 7.63403 12.7261 7.56348 12.7442 7.49079C12.7889 7.31116 12.7889 7.31116 12.7818 7.10948C12.3081 7.10948 11.8343 7.10948 11.3462 7.10948C11.2884 7.23355 11.2306 7.35762 11.1711 7.48545C10.7567 8.3056 10.1705 8.79415 9.30828 9.12181C8.85972 9.25802 8.39302 9.29731 7.92828 9.22862C7.8001 9.13996 7.8001 9.13996 7.7232 9.02354C7.66734 8.55269 7.77802 8.14045 7.90533 7.69035C7.9875 7.40074 7.9875 7.40074 7.92828 7.10948ZM22.2154 7.10948C22.0344 7.62433 21.8977 8.14541 21.766 8.6748C21.7433 8.76539 21.7206 8.85598 21.6979 8.94656C21.6507 9.13508 21.6037 9.32364 21.5567 9.51224C21.4966 9.7539 21.4361 9.99545 21.3754 10.237C21.3286 10.4234 21.282 10.6099 21.2355 10.7964C21.2025 10.9288 21.1692 11.0611 21.136 11.1935C21.1161 11.2736 21.0963 11.3537 21.0758 11.4362C21.0582 11.5068 21.0406 11.5774 21.0225 11.65C20.9778 11.8297 20.9778 11.8297 20.9849 12.0314C21.8032 12.0361 22.6215 12.0398 23.4398 12.042C23.8198 12.043 24.1998 12.0445 24.5797 12.0468C24.9467 12.0491 25.3137 12.0503 25.6807 12.0508C25.8205 12.0512 25.9602 12.0519 26.0999 12.053C26.2963 12.0545 26.4926 12.0547 26.6889 12.0546C26.7461 12.0554 26.8034 12.0561 26.8623 12.0569C27.2782 12.0547 27.7309 12.0075 28.0666 11.7391C28.4209 11.3498 28.4496 10.9808 28.4275 10.4804C28.3337 9.47388 27.9128 8.59036 27.1373 7.92979C26.833 7.66922 26.833 7.66922 26.4537 7.58799C26.3331 7.73811 26.3331 7.73811 26.2144 7.92979C25.7751 8.55491 25.1957 8.9317 24.4713 9.16026C24.4297 9.17339 24.3881 9.18652 24.3452 9.20005C24.1345 9.2409 23.9295 9.243 23.715 9.24571C23.631 9.24747 23.5471 9.24923 23.4605 9.25105C23.2408 9.22862 23.2408 9.22862 23.1105 9.14077C22.9462 8.88326 23.0036 8.56151 23.0634 8.27603C23.1206 8.03339 23.184 7.79276 23.2493 7.55221C23.3175 7.32225 23.3175 7.32225 23.3091 7.10948C22.9482 7.10948 22.5873 7.10948 22.2154 7.10948ZM3.41656 13.1251C3.64582 13.5836 3.8931 13.8695 4.34796 14.1078C4.67202 14.193 4.98481 14.2274 5.31939 14.2276C5.39793 14.2279 5.47647 14.2281 5.55739 14.2283C5.64302 14.2282 5.72865 14.2281 5.81687 14.228C5.90927 14.2281 6.00167 14.2283 6.09407 14.2285C6.3476 14.2289 6.60113 14.2289 6.85466 14.2288C7.12825 14.2288 7.40183 14.2292 7.67542 14.2295C8.21128 14.23 8.74714 14.2302 9.283 14.2303C9.71861 14.2303 10.1542 14.2304 10.5898 14.2307C11.825 14.2313 13.0603 14.2316 14.2955 14.2315C14.3954 14.2315 14.3954 14.2315 14.4973 14.2315C14.5639 14.2315 14.6306 14.2315 14.6993 14.2315C15.7796 14.2315 16.86 14.2321 17.9404 14.2331C19.0499 14.2341 20.1594 14.2346 21.2689 14.2345C21.8917 14.2345 22.5146 14.2347 23.1374 14.2354C23.6677 14.236 24.198 14.2362 24.7282 14.2357C24.9987 14.2355 25.2692 14.2355 25.5396 14.2361C25.7874 14.2366 26.0353 14.2365 26.2831 14.2359C26.4147 14.2358 26.5464 14.2363 26.678 14.2368C27.3027 14.2343 27.8678 14.2197 28.3677 13.8087C28.5766 13.5939 28.7507 13.4119 28.8463 13.1251C20.4545 13.1251 12.0627 13.1251 3.41656 13.1251ZM4.37359 15.3126C4.36236 15.8448 4.36236 15.8448 4.57867 16.2696C4.77287 16.3667 4.91054 16.3595 5.12554 16.338C5.32022 16.1854 5.38873 16.0953 5.46734 15.8595C5.46734 15.679 5.46734 15.4985 5.46734 15.3126C5.1064 15.3126 4.74547 15.3126 4.37359 15.3126ZM6.56109 15.3126C6.54986 15.8448 6.54986 15.8448 6.76617 16.2696C6.96037 16.3667 7.09804 16.3595 7.31304 16.338C7.50772 16.1854 7.57623 16.0953 7.65484 15.8595C7.65484 15.679 7.65484 15.4985 7.65484 15.3126C7.2939 15.3126 6.93297 15.3126 6.56109 15.3126ZM8.74859 15.3126C8.73736 15.8448 8.73736 15.8448 8.95367 16.2696C9.14787 16.3667 9.28554 16.3595 9.50054 16.338C9.69522 16.1854 9.76373 16.0953 9.84234 15.8595C9.84234 15.679 9.84234 15.4985 9.84234 15.3126C9.4814 15.3126 9.12047 15.3126 8.74859 15.3126ZM10.9361 15.3126C10.9249 15.8448 10.9249 15.8448 11.1412 16.2696C11.3354 16.3667 11.473 16.3595 11.688 16.338C11.8827 16.1854 11.9512 16.0953 12.0298 15.8595C12.0298 15.679 12.0298 15.4985 12.0298 15.3126C11.6689 15.3126 11.308 15.3126 10.9361 15.3126ZM13.1236 15.3126C13.1124 15.8448 13.1124 15.8448 13.3287 16.2696C13.5229 16.3667 13.6605 16.3595 13.8755 16.338C14.0702 16.1854 14.1387 16.0953 14.2173 15.8595C14.2173 15.679 14.2173 15.4985 14.2173 15.3126C13.8564 15.3126 13.4955 15.3126 13.1236 15.3126ZM15.3111 15.3126C15.2999 15.8448 15.2999 15.8448 15.5162 16.2696C15.7104 16.3667 15.848 16.3595 16.063 16.338C16.2577 16.1854 16.3262 16.0953 16.4048 15.8595C16.4048 15.679 16.4048 15.4985 16.4048 15.3126C16.0439 15.3126 15.683 15.3126 15.3111 15.3126ZM17.4986 15.3126C17.4874 15.8448 17.4874 15.8448 17.7037 16.2696C17.8979 16.3667 18.0355 16.3595 18.2505 16.338C18.4452 16.1854 18.5137 16.0953 18.5923 15.8595C18.5923 15.679 18.5923 15.4985 18.5923 15.3126C18.2314 15.3126 17.8705 15.3126 17.4986 15.3126ZM19.6861 15.3126C19.6749 15.8448 19.6749 15.8448 19.8912 16.2696C20.0854 16.3667 20.223 16.3595 20.438 16.338C20.6327 16.1854 20.7012 16.0953 20.7798 15.8595C20.7798 15.679 20.7798 15.4985 20.7798 15.3126C20.4189 15.3126 20.058 15.3126 19.6861 15.3126ZM2.18609 15.3126C2.18609 20.3657 2.18609 25.4189 2.18609 30.6251C2.90796 30.6251 3.62984 30.6251 4.37359 30.6251C4.48638 30.3544 4.59918 30.0837 4.71539 29.8048C5.09936 29.2251 5.61462 28.7313 6.301 28.5359C7.20279 28.3952 8.04849 28.4549 8.80413 29.0016C9.35916 29.4695 9.55234 29.9291 9.84234 30.6251C14.3541 30.6251 18.8658 30.6251 23.5142 30.6251C23.5142 25.572 23.5142 20.5189 23.5142 15.3126C22.9728 15.3126 22.4314 15.3126 21.8736 15.3126C21.8732 15.4594 21.8728 15.6063 21.8724 15.7576C21.8685 17.1388 21.8635 18.5199 21.8575 19.9011C21.8544 20.6112 21.8517 21.3213 21.8499 22.0315C21.8483 22.6503 21.8461 23.2691 21.8429 23.8879C21.8413 24.2157 21.84 24.5434 21.8396 24.8712C21.8392 25.1796 21.8378 25.4879 21.8357 25.7962C21.8351 25.9095 21.8349 26.0229 21.835 26.1362C21.8351 26.2906 21.8339 26.445 21.8325 26.5994C21.8322 26.6859 21.8319 26.7724 21.8315 26.8616C21.8052 27.0704 21.8052 27.0704 21.7202 27.1844C21.5676 27.3002 21.4841 27.3012 21.2936 27.3013C21.2305 27.3018 21.1674 27.3024 21.1023 27.3029C20.9981 27.3022 20.9981 27.3022 20.8917 27.3015C20.818 27.3019 20.7443 27.3022 20.6683 27.3025C20.42 27.3033 20.1718 27.3027 19.9235 27.302C19.746 27.3023 19.5685 27.3027 19.391 27.3031C18.9582 27.304 18.5254 27.3038 18.0926 27.3032C17.7409 27.3028 17.3893 27.3027 17.0376 27.3029C16.9876 27.303 16.9376 27.303 16.8861 27.303C16.7845 27.3031 16.6829 27.3032 16.5814 27.3032C15.6284 27.3038 14.6754 27.3031 13.7225 27.302C12.9043 27.3011 12.0861 27.3013 11.2679 27.3022C10.3184 27.3033 9.36894 27.3038 8.41944 27.3031C8.31824 27.3031 8.21704 27.303 8.11585 27.3029C8.04116 27.3029 8.04116 27.3029 7.96496 27.3028C7.6136 27.3027 7.26225 27.303 6.9109 27.3034C6.43824 27.3041 5.96559 27.3036 5.49294 27.3024C5.31907 27.3022 5.14521 27.3022 4.97135 27.3027C4.73478 27.3033 4.49825 27.3026 4.26169 27.3015C4.19221 27.302 4.12272 27.3025 4.05114 27.3029C3.98799 27.3024 3.92484 27.3019 3.85978 27.3013C3.80515 27.3013 3.75052 27.3012 3.69423 27.3012C3.51606 27.2687 3.45557 27.2143 3.3482 27.0704C3.3219 26.8616 3.3219 26.8616 3.32094 26.5994C3.32049 26.5512 3.32003 26.503 3.31957 26.4534C3.31829 26.2915 3.31847 26.1297 3.31864 25.9678C3.31803 25.8519 3.31732 25.7361 3.31653 25.6202C3.31464 25.3053 3.31401 24.9903 3.3136 24.6754C3.31296 24.3464 3.31117 24.0174 3.3095 23.6884C3.30651 23.0652 3.30456 22.4421 3.30298 21.8189C3.30114 21.1095 3.29813 20.4002 3.29503 19.6908C3.28868 18.2314 3.28383 16.772 3.27984 15.3126C2.9189 15.3126 2.55796 15.3126 2.18609 15.3126ZM24.608 15.3126C24.608 20.3657 24.608 25.4189 24.608 30.6251C24.9689 30.6251 25.3298 30.6251 25.7017 30.6251C25.7482 30.5024 25.7948 30.3798 25.8427 30.2534C26.1715 29.4727 26.6884 28.9119 27.4791 28.5786C28.2117 28.37 29.1355 28.4111 29.8033 28.7794C30.4275 29.1596 30.7881 29.7039 31.1021 30.3517C31.2717 30.2892 31.4411 30.2265 31.6105 30.1637C31.6575 30.1464 31.7046 30.1291 31.753 30.1113C32.1142 29.9769 32.4572 29.8254 32.8111 29.6681C32.8111 28.4725 32.8111 27.2769 32.8111 26.045C32.563 26.0225 32.3148 25.9999 32.0591 25.9767C31.7857 25.7716 31.7857 25.7716 31.7494 25.6242C31.7501 25.5713 31.7508 25.5184 31.7515 25.464C31.7505 25.3847 31.7505 25.3847 31.7494 25.3038C31.7857 25.1564 31.7857 25.1564 31.9 25.0375C32.0912 24.9339 32.2358 24.9172 32.4522 24.9043C32.5195 24.8998 32.5869 24.8953 32.6562 24.8907C32.7329 24.8868 32.7329 24.8868 32.8111 24.8829C32.8381 24.5538 32.8461 24.3976 32.6805 24.1063C32.3495 23.7188 32.0367 23.478 31.5206 23.427C31.2138 23.4137 30.9088 23.4195 30.602 23.4279C30.4688 23.4284 30.3356 23.4285 30.2023 23.4283C29.8541 23.4285 29.506 23.4335 29.1578 23.4397C28.5985 23.4487 28.0391 23.4499 27.4797 23.4521C27.2846 23.4535 27.0896 23.4566 26.8945 23.46C26.7756 23.4613 26.6566 23.4626 26.5376 23.4639C26.4834 23.4653 26.4292 23.4667 26.3733 23.4681C26.1763 23.4694 26.0161 23.4687 25.8391 23.3764C25.7303 23.165 25.7416 22.9525 25.7435 22.7202C25.7432 22.6672 25.7428 22.6142 25.7425 22.5595C25.7416 22.3841 25.7421 22.2086 25.7428 22.0332C25.7427 21.9114 25.7425 21.7895 25.7422 21.6677C25.7419 21.4123 25.7424 21.157 25.7433 20.9016C25.7445 20.574 25.7438 20.2464 25.7426 19.9189C25.7419 19.6673 25.7421 19.4157 25.7426 19.1641C25.7428 19.0433 25.7426 18.9225 25.7421 18.8017C25.7416 18.633 25.7424 18.4643 25.7435 18.2956C25.7431 18.2455 25.7427 18.1954 25.7423 18.1438C25.7447 17.955 25.7514 17.8072 25.8442 17.6402C26.0474 17.5289 26.2261 17.5409 26.4565 17.5389C26.5052 17.5382 26.5539 17.5375 26.6041 17.5368C26.765 17.5347 26.9259 17.5341 27.0868 17.5335C27.1984 17.5323 27.31 17.5311 27.4216 17.5298C27.7152 17.5265 28.0089 17.5245 28.3025 17.5227C28.6549 17.5203 29.0072 17.5164 29.3596 17.5128C29.8949 17.5074 30.4301 17.5039 30.9654 17.5001C30.8752 16.7782 30.7849 16.0564 30.692 15.3126C28.6842 15.3126 26.6765 15.3126 24.608 15.3126ZM5.72796 17.295C5.39898 17.4317 5.39898 17.4317 4.37359 17.4317C4.37359 18.8529 4.37359 20.2741 4.37359 21.7384C4.66685 21.6256 4.96011 21.5128 5.26226 21.3966C5.58304 21.3656 5.87796 21.3492 6.19775 21.3515C6.33096 21.3504 6.33096 21.3504 6.46686 21.3493C6.70734 21.3474 6.94778 21.3476 7.18827 21.3481C7.44071 21.3483 7.69315 21.3466 7.94559 21.3451C8.42226 21.3426 8.89892 21.3417 9.37559 21.3415C9.91885 21.3412 10.4621 21.3389 11.0053 21.3365C12.1216 21.3316 13.2378 21.3291 14.3541 21.3282C14.4089 21.2082 14.4636 21.0882 14.5184 20.9681C14.5489 20.9013 14.5794 20.8344 14.6108 20.7655C14.7094 20.5461 14.8004 20.3253 14.8889 20.1015C14.9211 20.021 14.9533 19.9404 14.9865 19.8574C15.0361 19.7327 15.0858 19.6079 15.135 19.483C15.1836 19.36 15.2328 19.2373 15.282 19.1146C15.3249 19.0063 15.3249 19.0063 15.3687 18.8958C15.4478 18.7306 15.4478 18.7306 15.5845 18.6622C15.6888 18.655 15.7935 18.652 15.898 18.6512C15.963 18.6505 16.028 18.6499 16.095 18.6492C16.1655 18.6489 16.2359 18.6486 16.3084 18.6483C16.4167 18.6477 16.4167 18.6477 16.5271 18.6471C16.6799 18.6465 16.8327 18.6461 16.9855 18.6458C17.2197 18.6451 17.4539 18.643 17.688 18.6408C17.8363 18.6404 17.9845 18.64 18.1328 18.6398C18.2382 18.6385 18.2382 18.6385 18.3458 18.6372C18.411 18.6374 18.4762 18.6376 18.5435 18.6378C18.6009 18.6376 18.6583 18.6373 18.7175 18.6371C18.9027 18.6685 18.9579 18.7194 19.0709 18.8673C19.1503 19.0538 19.2224 19.2382 19.2912 19.4286C19.334 19.5417 19.3769 19.6547 19.42 19.7677C19.4871 19.9452 19.5535 20.1229 19.6178 20.3014C19.6805 20.4742 19.7462 20.6457 19.8124 20.8171C19.8307 20.8701 19.8489 20.923 19.8677 20.9775C20.0694 21.4858 20.2143 21.4556 20.7798 21.7384C20.7798 20.3172 20.7798 18.896 20.7798 17.4317C20.4415 17.4317 20.1031 17.4317 19.7545 17.4317C19.4383 17.2865 19.4383 17.2865 19.2076 17.1583C19.021 17.1919 19.021 17.1919 18.8658 17.295C18.45 17.4941 18.0185 17.4767 17.567 17.4317C17.395 17.3655 17.395 17.3655 17.2551 17.2865C17.0359 17.1331 17.0359 17.1331 16.8364 17.201C16.7581 17.2476 16.7581 17.2476 16.6783 17.295C16.2625 17.4941 15.831 17.4767 15.3795 17.4317C15.2075 17.3655 15.2075 17.3655 15.0676 17.2865C14.8484 17.1331 14.8484 17.1331 14.6489 17.201C14.5706 17.2476 14.5706 17.2476 14.4908 17.295C14.075 17.4941 13.6435 17.4767 13.192 17.4317C13.02 17.3655 13.02 17.3655 12.8801 17.2865C12.6609 17.1331 12.6609 17.1331 12.4614 17.201C12.3831 17.2476 12.3831 17.2476 12.3033 17.295C11.8875 17.4941 11.456 17.4767 11.0045 17.4317C10.8325 17.3655 10.8325 17.3655 10.6926 17.2865C10.4734 17.1331 10.4734 17.1331 10.2739 17.201C10.1956 17.2476 10.1956 17.2476 10.1158 17.295C9.70003 17.4941 9.26851 17.4767 8.81695 17.4317C8.64498 17.3655 8.64498 17.3655 8.50506 17.2865C8.28593 17.1331 8.28593 17.1331 8.08636 17.201C8.03419 17.232 7.98203 17.2631 7.92828 17.295C7.48523 17.5072 6.91533 17.5297 6.45027 17.3703C6.32462 17.3053 6.20307 17.2325 6.08257 17.1583C5.92229 17.1462 5.92229 17.1462 5.72796 17.295ZM26.7955 18.5939C26.7955 19.8571 26.7955 21.1204 26.7955 22.422C28.3746 22.422 29.9537 22.422 31.5806 22.422C31.5401 21.854 31.4993 21.3037 31.4159 20.7434C31.4039 20.6602 31.4039 20.6602 31.3916 20.5753C31.3624 20.3734 31.3326 20.1715 31.3029 19.9696C31.2035 19.2886 31.2035 19.2886 31.1021 18.5939C29.6809 18.5939 28.2597 18.5939 26.7955 18.5939ZM16.2681 19.6876C15.8473 20.4774 15.8473 20.4774 15.6529 21.3282C16.1266 21.3282 16.6004 21.3282 17.0884 21.3282C17.5093 20.5384 17.5093 20.5384 17.7037 19.6876C17.2299 19.6876 16.7562 19.6876 16.2681 19.6876ZM18.524 20.7814C18.4381 20.98 18.3873 21.1092 18.3873 21.3282C18.5226 21.3282 18.658 21.3282 18.7974 21.3282C18.7617 21.1394 18.7216 20.9641 18.6607 20.7814C18.6156 20.7814 18.5705 20.7814 18.524 20.7814ZM4.71539 22.9689C4.45577 23.332 4.43116 23.602 4.37359 24.0626C5.99781 24.0626 7.62203 24.0626 9.29547 24.0626C9.29547 23.5212 9.29547 22.9798 9.29547 22.422C8.81995 22.4188 8.34447 22.4161 7.86895 22.4145C7.70737 22.4138 7.5458 22.4128 7.38422 22.4117C7.15123 22.41 6.91825 22.4092 6.68526 22.4086C6.57788 22.4076 6.57788 22.4076 6.46832 22.4065C5.78844 22.4064 5.20896 22.4641 4.71539 22.9689ZM10.3892 22.422C10.3892 22.9634 10.3892 23.5048 10.3892 24.0626C12.0134 24.0626 13.6377 24.0626 15.3111 24.0626C15.3111 23.5212 15.3111 22.9798 15.3111 22.422C13.6869 22.422 12.0627 22.422 10.3892 22.422ZM16.4048 22.422C16.4048 22.9634 16.4048 23.5048 16.4048 24.0626C17.8486 24.0626 19.2923 24.0626 20.7798 24.0626C20.6607 23.3149 20.6607 23.3149 20.233 22.7638C19.7299 22.419 19.1985 22.4119 18.6078 22.4153C18.5447 22.4154 18.4815 22.4155 18.4165 22.4156C18.2159 22.416 18.0153 22.4168 17.8148 22.4177C17.6783 22.418 17.5419 22.4184 17.4054 22.4186C17.0719 22.4193 16.7384 22.4207 16.4048 22.422ZM4.37359 25.1564C4.37359 25.5173 4.37359 25.8782 4.37359 26.2501C5.99781 26.2501 7.62203 26.2501 9.29547 26.2501C9.29547 25.8892 9.29547 25.5282 9.29547 25.1564C7.67125 25.1564 6.04703 25.1564 4.37359 25.1564ZM10.3892 25.1564C10.3892 25.5173 10.3892 25.8782 10.3892 26.2501C12.0134 26.2501 13.6377 26.2501 15.3111 26.2501C15.3111 25.8892 15.3111 25.5282 15.3111 25.1564C13.6869 25.1564 12.0627 25.1564 10.3892 25.1564ZM16.4048 25.1564C16.4048 25.5173 16.4048 25.8782 16.4048 26.2501C17.8486 26.2501 19.2923 26.2501 20.7798 26.2501C20.7798 25.8892 20.7798 25.5282 20.7798 25.1564C19.3361 25.1564 17.8923 25.1564 16.4048 25.1564ZM5.77122 30.2766C5.48923 30.6859 5.48675 31.1002 5.5357 31.5821C5.65693 32.0364 5.97639 32.346 6.35601 32.6075C6.76609 32.8085 7.23668 32.8194 7.6762 32.7021C8.09517 32.5171 8.42317 32.1694 8.62362 31.7605C8.75393 31.3499 8.75299 30.8642 8.57769 30.467C8.33949 30.061 7.96693 29.7421 7.51812 29.5997C6.73647 29.507 6.27547 29.6868 5.77122 30.2766ZM27.0993 30.2766C26.8174 30.6859 26.8149 31.1002 26.8638 31.5821C26.9851 32.0364 27.3045 32.346 27.6841 32.6075C28.0942 32.8085 28.5648 32.8194 29.0043 32.7021C29.4233 32.5171 29.7513 32.1694 29.9517 31.7605C30.0821 31.3499 30.0811 30.8642 29.9058 30.467C29.6676 30.061 29.2951 29.7421 28.8463 29.5997C28.0646 29.507 27.6036 29.6868 27.0993 30.2766Z" fill="#C18539"/>
<path d="M27.3423 24.8493C27.4433 24.8477 27.4433 24.8477 27.5463 24.8461C27.8474 24.8477 28.043 24.855 28.3094 25.0031C28.4497 25.1736 28.4825 25.2463 28.4787 25.4645C28.4796 25.516 28.4805 25.5675 28.4814 25.6205C28.4092 25.8617 28.3143 25.9233 28.0942 26.0456C27.8428 26.0852 27.5964 26.0838 27.3423 26.0798C27.2413 26.0814 27.2413 26.0814 27.1383 26.083C26.8372 26.0813 26.6415 26.0741 26.3751 25.926C26.2348 25.7555 26.2021 25.6827 26.2058 25.4645C26.2049 25.4131 26.204 25.3616 26.2031 25.3086C26.3607 24.7822 26.8933 24.8422 27.3423 24.8493Z" fill="#C18539"/>
<path d="M6.52449 9.95898C6.76802 9.98035 6.76802 9.98035 6.90046 10.053C7.01777 10.2669 7.0071 10.4259 6.97309 10.6639C6.82783 10.8049 6.82783 10.8049 6.6313 10.869C6.4134 10.8263 6.4134 10.8263 6.22114 10.7323C6.08442 10.5272 6.08442 10.5272 6.10151 10.3179C6.17541 10.0284 6.22487 9.98622 6.52449 9.95898Z" fill="#C18539"/>
<path d="M8.19321 10.5098C8.24114 10.5101 8.28908 10.5105 8.33847 10.5108C8.38641 10.5105 8.43434 10.5101 8.48373 10.5098C8.61191 10.5279 8.61191 10.5279 8.74863 10.6646C8.76678 10.7928 8.76678 10.7928 8.76572 10.9381C8.76607 10.986 8.76642 11.034 8.76678 11.0833C8.74863 11.2115 8.74863 11.2115 8.61191 11.3482C8.48373 11.3664 8.48373 11.3664 8.33847 11.3653C8.29053 11.3657 8.2426 11.366 8.19321 11.3664C8.06503 11.3482 8.06503 11.3482 7.92831 11.2115C7.91016 11.0833 7.91016 11.0833 7.91122 10.9381C7.91087 10.8901 7.91052 10.8422 7.91016 10.7928C7.93645 10.6072 8.00763 10.5361 8.19321 10.5098Z" fill="#C18539"/>
<path d="M24.5995 9.96289C24.6474 9.96324 24.6953 9.9636 24.7447 9.96396C24.7927 9.96361 24.8406 9.96325 24.89 9.96289C25.0182 9.98105 25.0182 9.98105 25.1549 10.1178C25.173 10.2459 25.173 10.2459 25.172 10.3912C25.1723 10.4391 25.1727 10.4871 25.173 10.5365C25.1549 10.6646 25.1549 10.6646 25.0182 10.8014C24.89 10.8195 24.89 10.8195 24.7447 10.8185C24.6968 10.8188 24.6488 10.8192 24.5995 10.8195C24.4713 10.8014 24.4713 10.8014 24.3346 10.6646C24.3164 10.5365 24.3164 10.5365 24.3175 10.3912C24.3171 10.3433 24.3168 10.2953 24.3164 10.2459C24.3427 10.0604 24.4139 9.98918 24.5995 9.96289Z" fill="#C18539"/>
<path d="M10.3807 9.41602C10.4286 9.41637 10.4766 9.41672 10.526 9.41708C10.5739 9.41673 10.6218 9.41638 10.6712 9.41602C10.7994 9.43417 10.7994 9.43417 10.9361 9.57089C10.9543 9.69907 10.9543 9.69907 10.9532 9.84433C10.9536 9.89227 10.9539 9.9402 10.9543 9.98959C10.9361 10.1178 10.9361 10.1178 10.7994 10.2545C10.6712 10.2726 10.6712 10.2726 10.526 10.2716C10.478 10.2719 10.4301 10.2723 10.3807 10.2726C10.2525 10.2545 10.2525 10.2545 10.1158 10.1178C10.0977 9.98959 10.0977 9.98959 10.0987 9.84433C10.0984 9.79639 10.098 9.74846 10.0977 9.69907C10.1239 9.51349 10.1951 9.44231 10.3807 9.41602Z" fill="#C18539"/>
<path d="M26.2401 9.2793C26.288 9.27965 26.336 9.28 26.3853 9.28036C26.4333 9.28001 26.4812 9.27966 26.5306 9.2793C26.6588 9.29745 26.6588 9.29745 26.7955 9.43417C26.8137 9.56235 26.8137 9.56235 26.8126 9.70761C26.8129 9.75555 26.8133 9.80349 26.8137 9.85287C26.7955 9.98105 26.7955 9.98105 26.6588 10.1178C26.5306 10.1359 26.5306 10.1359 26.3853 10.1349C26.3374 10.1352 26.2895 10.1356 26.2401 10.1359C26.1119 10.1178 26.1119 10.1178 25.9752 9.98105C25.957 9.85287 25.957 9.85287 25.9581 9.70761C25.9577 9.65967 25.9574 9.61174 25.957 9.56235C25.9833 9.37677 26.0545 9.30559 26.2401 9.2793Z" fill="#C18539"/>
</svg>
