<svg width="35" height="35" viewBox="0 0 35 35" fill="none" xmlns="http://www.w3.org/2000/svg">
<path d="M5.27839 11.0401C5.39488 11.0395 5.39488 11.0395 5.51373 11.0388C5.77414 11.0377 6.03451 11.0386 6.29492 11.0394C6.48154 11.0392 6.66816 11.0386 6.85478 11.038C7.30915 11.0368 7.76351 11.037 8.21788 11.0378C8.58717 11.0384 8.95646 11.0385 9.32575 11.0382C9.4046 11.0382 9.4046 11.0382 9.48505 11.0381C9.59184 11.038 9.69864 11.0379 9.80543 11.0378C10.8067 11.0371 11.808 11.0379 12.8093 11.0394C13.6684 11.0406 14.5274 11.0404 15.3865 11.0392C16.3842 11.0377 17.382 11.0371 18.3797 11.038C18.4861 11.0381 18.5925 11.0381 18.6989 11.0382C18.7774 11.0383 18.7774 11.0383 18.8575 11.0384C19.2263 11.0386 19.5952 11.0382 19.964 11.0375C20.4135 11.0368 20.863 11.037 21.3125 11.0384C21.5418 11.0392 21.7711 11.0393 22.0005 11.0385C22.2491 11.0378 22.4976 11.0387 22.7462 11.0401C22.8187 11.0395 22.8912 11.0389 22.9658 11.0382C23.364 11.0425 23.6185 11.0669 23.9244 11.3483C24.2606 11.7124 24.2365 12.0671 24.2326 12.5368C24.2332 12.655 24.2332 12.655 24.2339 12.7755C24.2348 12.9936 24.2345 13.2117 24.2336 13.4298C24.233 13.6652 24.2339 13.9006 24.2347 14.136C24.2359 14.597 24.2356 15.0579 24.2349 15.5189C24.2342 15.8935 24.2342 16.2681 24.2345 16.6428C24.2345 16.6961 24.2345 16.7494 24.2346 16.8043C24.2347 16.9127 24.2348 17.021 24.2348 17.1294C24.2356 18.1451 24.2347 19.1609 24.2333 20.1767C24.232 21.0482 24.2322 21.9197 24.2335 22.7912C24.235 23.8033 24.2355 24.8155 24.2347 25.8276C24.2346 25.9355 24.2345 26.0435 24.2345 26.1514C24.2344 26.2311 24.2344 26.2311 24.2343 26.3123C24.2341 26.6865 24.2345 27.0607 24.2351 27.4348C24.2359 27.8909 24.2357 28.3468 24.2342 28.8029C24.2335 29.0355 24.2332 29.2681 24.2341 29.5008C24.2349 29.753 24.2339 30.0051 24.2326 30.2573C24.2335 30.3676 24.2335 30.3676 24.2344 30.4802C24.2302 30.8806 24.2081 31.1386 23.9244 31.4459C23.5617 31.7795 23.2135 31.758 22.7462 31.7541C22.6297 31.7547 22.6297 31.7547 22.5109 31.7554C22.2505 31.7565 21.9901 31.7556 21.7297 31.7547C21.5431 31.7549 21.3565 31.7556 21.1698 31.7562C20.7155 31.7574 20.2611 31.7571 19.8067 31.7563C19.4375 31.7557 19.0682 31.7556 18.6989 31.7559C18.6463 31.756 18.5937 31.756 18.5396 31.7561C18.4328 31.7561 18.326 31.7562 18.2192 31.7563C17.2179 31.7571 16.2166 31.7562 15.2153 31.7547C14.3562 31.7535 13.4972 31.7537 12.6381 31.755C11.6404 31.7565 10.6427 31.757 9.64495 31.7562C9.53855 31.7561 9.43215 31.756 9.32575 31.7559C9.24722 31.7559 9.24722 31.7559 9.16711 31.7558C8.79829 31.7556 8.42946 31.756 8.06064 31.7566C7.61113 31.7574 7.16164 31.7572 6.71213 31.7557C6.4828 31.755 6.2535 31.7549 6.02417 31.7556C5.77555 31.7564 5.527 31.7554 5.27839 31.7541C5.16968 31.755 5.16968 31.755 5.05878 31.7559C4.66058 31.7517 4.40616 31.7273 4.10021 31.4459C3.76402 31.0817 3.78815 30.7271 3.79205 30.2573C3.79162 30.1786 3.79119 30.0998 3.79075 30.0186C3.78985 29.8005 3.79018 29.5825 3.79102 29.3644C3.79164 29.129 3.79069 28.8936 3.78993 28.6581C3.78872 28.1972 3.78898 27.7363 3.78977 27.2753C3.79039 26.9007 3.79048 26.526 3.79018 26.1514C3.79014 26.0981 3.79009 26.0448 3.79005 25.9898C3.78996 25.8815 3.78987 25.7731 3.78978 25.6648C3.78901 24.649 3.7899 23.6333 3.79137 22.6175C3.79259 21.746 3.79238 20.8745 3.79112 20.003C3.78966 18.9908 3.78908 17.9787 3.78992 16.9666C3.79001 16.8586 3.79009 16.7507 3.79018 16.6428C3.79024 16.5631 3.79024 16.5631 3.79031 16.4818C3.79054 16.1077 3.79014 15.7335 3.7895 15.3593C3.78873 14.9033 3.78894 14.4473 3.7904 13.9913C3.79112 13.7587 3.7914 13.526 3.79049 13.2934C3.78975 13.0412 3.79068 12.789 3.79205 12.5368C3.79144 12.4633 3.79083 12.3897 3.7902 12.314C3.79441 11.9135 3.81651 11.6556 4.10021 11.3483C4.46288 11.0147 4.81115 11.0362 5.27839 11.0401ZM4.92052 12.1686C4.92052 18.2594 4.92052 24.3502 4.92052 30.6256C10.9211 30.6256 16.9217 30.6256 23.1041 30.6256C23.1041 24.5348 23.1041 18.444 23.1041 12.1686C17.1035 12.1686 11.1029 12.1686 4.92052 12.1686Z" fill="#C18539"/>
<path d="M6.49584 3.55538C6.66674 3.65792 6.66674 3.65792 6.76928 3.82882C6.82409 4.20305 6.78359 4.39186 6.56714 4.7036C6.4806 4.81748 6.3927 4.93033 6.30358 5.0422C6.25965 5.09939 6.21573 5.15658 6.17047 5.2155C6.08869 5.32176 6.00639 5.42763 5.92338 5.53293C5.816 5.66974 5.71152 5.80882 5.60717 5.94796C11.0889 5.94796 16.5706 5.94796 22.2185 5.94796C21.7087 5.29516 21.7087 5.29516 21.1803 4.65768C21.0302 4.46393 20.9555 4.32729 20.941 4.08089C20.988 3.82882 20.988 3.82882 21.0863 3.65792C21.3061 3.52926 21.4622 3.49501 21.716 3.50865C22.0516 3.60623 22.2224 3.90137 22.4236 4.17062C22.4808 4.24344 22.5383 4.31606 22.5961 4.38851C22.7227 4.54781 22.8483 4.70788 22.9731 4.86863C23.2236 5.19054 23.4798 5.50793 23.7364 5.82503C23.984 6.13273 24.0903 6.29039 24.0841 6.6943C24.0511 6.93074 23.9288 7.06647 23.7779 7.24679C23.7477 7.28374 23.7175 7.32069 23.6864 7.35876C23.6206 7.43899 23.5542 7.51876 23.4874 7.5981C23.3755 7.73138 23.2658 7.86625 23.1566 8.00168C23.0056 8.18881 22.854 8.37548 22.7018 8.56164C22.4791 8.83433 22.2592 9.10922 22.0401 9.38489C21.8913 9.5692 21.8913 9.5692 21.7451 9.5873C21.3123 9.60075 21.3123 9.60075 21.0863 9.46847C20.9488 9.22935 20.9354 9.01645 20.988 8.75069C21.1039 8.54421 21.2531 8.37515 21.411 8.19955C21.4904 8.10771 21.5697 8.01577 21.6489 7.92371C21.7021 7.86395 21.7021 7.86395 21.7563 7.80299C21.921 7.60314 22.068 7.38918 22.2185 7.17843C16.7368 7.17843 11.255 7.17843 5.60717 7.17843C5.96811 7.65216 6.32904 8.12589 6.70092 8.61398C6.81058 8.8333 6.80172 9.05964 6.76928 9.29757C6.66674 9.46847 6.66674 9.46847 6.49584 9.57101C6.12545 9.62392 6.12545 9.62392 5.94897 9.57101C5.60571 9.28201 5.35031 8.90658 5.08166 8.54989C5.03359 8.48607 4.98552 8.42226 4.93599 8.35651C4.83973 8.22843 4.74361 8.10026 4.64763 7.97197C4.5298 7.81542 4.41031 7.66039 4.28992 7.50581C4.22763 7.42379 4.16541 7.34173 4.10326 7.2596C4.04969 7.19008 3.99611 7.12055 3.94091 7.04892C3.80311 6.78558 3.75997 6.57679 3.82983 6.28976C3.9436 6.07037 4.09014 5.88411 4.24425 5.69161C4.33158 5.57822 4.4189 5.46482 4.50621 5.35142C4.552 5.29288 4.59779 5.23435 4.64496 5.17404C4.79057 4.98614 4.93264 4.79599 5.07391 4.6048C5.12021 4.54222 5.16652 4.47963 5.21422 4.41515C5.30421 4.29345 5.39417 4.17173 5.48409 4.04999C5.52506 3.99515 5.56603 3.94032 5.60824 3.88383C5.64439 3.83517 5.68054 3.78652 5.71779 3.73639C5.92115 3.49386 6.2019 3.5153 6.49584 3.55538Z" fill="#C18539"/>
<path d="M29.2566 11.4843C29.4659 11.6026 29.4659 11.6026 29.6667 11.7705C29.7037 11.8008 29.7406 11.831 29.7787 11.8621C29.8589 11.9279 29.9387 11.9942 30.018 12.0611C30.1513 12.173 30.2862 12.2826 30.4216 12.3919C30.6087 12.5429 30.7954 12.6945 30.9816 12.8467C31.2543 13.0694 31.5291 13.2893 31.8048 13.5084C31.9891 13.6572 31.9891 13.6572 32.0072 13.8034C32.0207 14.2362 32.0207 14.2362 31.8884 14.4622C31.6493 14.5997 31.4364 14.613 31.1706 14.5605C30.9641 14.4445 30.7951 14.2954 30.6195 14.1375C30.5276 14.058 30.4357 13.9787 30.3436 13.8996C30.3038 13.8641 30.264 13.8287 30.2229 13.7922C30.0231 13.6274 29.8091 13.4805 29.5983 13.33C29.5983 18.8117 29.5983 24.2935 29.5983 29.9413C30.0721 29.5804 30.5458 29.2194 31.0339 28.8476C31.2532 28.7379 31.4796 28.7468 31.7175 28.7792C31.8884 28.8818 31.8884 28.8818 31.9909 29.0526C32.0438 29.423 32.0438 29.423 31.9909 29.5995C31.7019 29.9428 31.3265 30.1982 30.9698 30.4668C30.906 30.5149 30.8422 30.563 30.7764 30.6125C30.6484 30.7088 30.5202 30.8049 30.3919 30.9009C30.2353 31.0187 30.0803 31.1382 29.9257 31.2586C29.8437 31.3209 29.7616 31.3831 29.6795 31.4452C29.61 31.4988 29.5405 31.5524 29.4688 31.6076C29.2055 31.7454 28.9967 31.7885 28.7097 31.7187C28.4903 31.6049 28.304 31.4584 28.1115 31.3042C27.9981 31.2169 27.8847 31.1296 27.7713 31.0423C27.7128 30.9965 27.6543 30.9507 27.594 30.9035C27.4061 30.7579 27.2159 30.6158 27.0247 30.4746C26.9308 30.4051 26.9308 30.4051 26.8351 30.3343C26.7134 30.2443 26.5917 30.1543 26.4699 30.0644C26.4151 30.0234 26.3602 29.9825 26.3037 29.9403C26.2551 29.9041 26.2064 29.868 26.1563 29.8307C26.0437 29.7362 26.0437 29.7362 25.9753 29.5995C25.9364 29.1174 25.9364 29.1174 26.0778 28.8818C26.3188 28.7372 26.5259 28.7234 26.7956 28.7792C27.038 28.9092 27.2474 29.0738 27.4621 29.2449C27.5193 29.2888 27.5765 29.3328 27.6354 29.378C27.7417 29.4598 27.8475 29.5421 27.9529 29.6251C28.0897 29.7325 28.2287 29.837 28.3679 29.9413C28.3679 24.4596 28.3679 18.9778 28.3679 13.33C27.7151 13.8398 27.7151 13.8398 27.0776 14.3682C26.8839 14.5183 26.7472 14.593 26.5008 14.6075C26.2487 14.5605 26.2487 14.5605 26.0778 14.4622C25.9492 14.2424 25.9149 14.0863 25.9286 13.8325C26.0262 13.4968 26.3213 13.3262 26.5905 13.1249C26.6642 13.0669 26.7376 13.0085 26.8108 12.95C27.0124 12.7894 27.2155 12.631 27.4191 12.473C27.5514 12.37 27.6831 12.2664 27.8146 12.1625C27.8579 12.1284 27.9012 12.0942 27.9458 12.059C28.0289 11.9934 28.1119 11.9278 28.1949 11.8622C28.5527 11.5804 28.7883 11.4098 29.2566 11.4843Z" fill="#C18539"/>
</svg>
