<svg width="35" height="35" viewBox="0 0 35 35" fill="none" xmlns="http://www.w3.org/2000/svg">
<g clip-path="url(#clip0_6665_36128)">
<path d="M28.9854 0.615456C29.0512 0.64903 29.1169 0.682603 29.1847 0.717194C29.7444 1.02023 30.179 1.40006 30.6261 1.84593C30.7086 1.92603 30.7086 1.92603 30.7927 2.00774C31.858 3.10638 32.355 4.61632 32.3692 6.12266C32.3735 6.2286 32.3735 6.2286 32.3778 6.33668C32.3858 7.19048 32.1416 7.99923 31.9249 8.81858C31.8929 8.93987 31.8929 8.93987 31.8603 9.06362C31.7022 9.66031 31.5401 10.2559 31.3775 10.8514C31.2417 11.3491 31.1068 11.847 30.9719 12.345C30.9558 12.4041 30.9398 12.4632 30.9233 12.5241C30.6357 13.5848 30.3517 14.6465 30.0688 15.7085C30.0374 15.8263 30.0374 15.8263 30.0054 15.9465C29.8169 16.6541 29.6285 17.3617 29.4405 18.0695C29.4007 18.2192 29.3609 18.3689 29.3211 18.5187C29.2918 18.6286 29.2918 18.6286 29.262 18.7408C29.1109 19.309 28.9589 19.877 28.8066 20.4449C28.6975 20.8518 28.5899 21.2591 28.4833 21.6667C28.4161 21.9231 28.3479 22.1793 28.2795 22.4354C28.248 22.5543 28.2169 22.6732 28.1862 22.7923C28.1443 22.9548 28.101 23.1168 28.0573 23.2788C28.0455 23.3259 28.0337 23.373 28.0216 23.4216C27.9334 23.7406 27.8055 23.9222 27.5499 24.1311C27.3448 24.1738 27.3448 24.1738 27.1397 24.1311C26.9389 23.9986 26.9389 23.9986 26.7979 23.7893C26.8155 23.1946 27.0002 22.622 27.1539 22.0507C27.1838 21.9383 27.2136 21.8259 27.2434 21.7135C27.324 21.4104 27.4051 21.1075 27.4863 20.8046C27.5546 20.5493 27.6227 20.2939 27.6907 20.0385C28.1985 18.1322 28.7125 16.2277 29.2285 14.3236C29.6408 12.8018 30.0496 11.2792 30.4561 9.75585C30.5019 9.58449 30.5477 9.41314 30.5934 9.24179C30.6648 8.97471 30.7361 8.70761 30.8073 8.44047C30.8334 8.34244 30.8596 8.24441 30.8858 8.14639C30.9216 8.01223 30.9573 7.87804 30.993 7.74384C31.013 7.66878 31.033 7.59371 31.0537 7.51638C31.4118 6.09802 31.1635 4.66581 30.421 3.41819C30.2531 3.17557 30.0719 2.95337 29.8741 2.7346C29.8313 2.68622 29.7885 2.63784 29.7443 2.588C29.2143 2.02229 28.5422 1.64459 27.8233 1.36741C27.7666 1.34547 27.7098 1.32353 27.6514 1.30092C26.6533 0.987183 25.369 1.03179 24.4054 1.43577C24.3617 1.45376 24.3181 1.47174 24.2731 1.49028C23.5609 1.79121 23.0259 2.18025 22.4913 2.7346C22.4459 2.77786 22.4005 2.82113 22.3538 2.86571C21.5877 3.64552 21.3154 4.78524 21.0558 5.81077C21.2763 5.87682 21.4971 5.94217 21.718 6.0073C21.789 6.02826 21.8601 6.04922 21.9332 6.07082C22.4021 6.20762 22.8722 6.33707 23.3445 6.46125C23.4002 6.47599 23.456 6.49073 23.5134 6.50592C23.8498 6.59483 23.8498 6.59483 24.1865 6.68218C25.9156 7.12636 25.9156 7.12636 26.3878 7.86155C26.6649 8.40335 26.7653 8.95024 26.6161 9.54543C26.4121 10.123 26.0367 10.572 25.4991 10.8694C24.7 11.1834 23.8624 10.9924 23.0662 10.7668C22.9758 10.7422 22.8853 10.7177 22.7947 10.6933C22.5601 10.6297 22.3259 10.5645 22.0918 10.4991C21.8515 10.4321 21.6107 10.3667 21.3699 10.3011C20.9002 10.173 20.431 10.043 19.962 9.91233C19.8267 10.4086 19.6913 10.9049 19.5519 11.4162C20.0117 11.5894 20.0117 11.5894 20.4763 11.727C20.5452 11.7451 20.6141 11.7631 20.6851 11.7817C20.7579 11.8005 20.8307 11.8193 20.9057 11.8387C21.0628 11.88 21.2199 11.9214 21.377 11.9628C21.6223 12.0272 21.8677 12.0913 22.1132 12.1549C22.3517 12.2169 22.59 12.2798 22.8283 12.3428C22.9008 12.3614 22.9733 12.3799 23.048 12.399C23.7878 12.596 24.4818 12.8645 24.9031 13.5388C25.1741 14.0527 25.2471 14.5968 25.1106 15.1656C24.9034 15.7905 24.6452 16.128 24.0593 16.4321C23.469 16.7163 22.9696 16.7316 22.3351 16.5646C22.2882 16.5524 22.2412 16.5402 22.1929 16.5276C22.0401 16.4878 21.8876 16.4471 21.7351 16.4065C21.6291 16.3787 21.5231 16.3509 21.4171 16.3232C21.1451 16.2519 20.8734 16.1799 20.6017 16.1076C20.4438 16.0656 20.2859 16.0237 20.128 15.9819C19.5483 15.8283 18.9689 15.6736 18.3897 15.5178C18.4181 15.9632 18.5887 16.2814 18.8042 16.6671C18.8679 16.7828 18.9314 16.8986 18.9946 17.0145C19.0228 17.0651 19.051 17.1158 19.08 17.168C19.1417 17.2951 19.1417 17.2951 19.1417 17.4319C19.2002 17.4445 19.2587 17.4571 19.319 17.47C19.98 17.6169 20.6355 17.7871 21.2889 17.9647C21.3862 17.9909 21.4837 18.0168 21.5812 18.0422C22.3999 18.2561 23.0065 18.5274 23.4483 19.2776C23.7144 19.8328 23.7335 20.3775 23.5466 20.9609C23.3041 21.5592 22.9528 21.8881 22.3706 22.1548C21.4986 22.51 20.6202 22.1732 19.7674 21.9129C19.6124 21.8668 19.6124 21.8668 19.4151 21.8752C19.3928 21.9445 19.3705 22.0137 19.3476 22.0851C19.3174 22.1775 19.2872 22.2699 19.2571 22.3623C19.2425 22.4078 19.2279 22.4532 19.2129 22.5001C19.1196 22.784 19.009 23.0459 18.8683 23.3108C18.9172 23.3084 18.9661 23.306 19.0165 23.3036C20.0785 23.2747 20.9617 23.569 21.7799 24.2448C22.0603 24.517 22.2772 24.8311 22.4913 25.1565C22.5697 25.1281 22.5697 25.1281 22.6497 25.0991C24.1475 24.5926 25.6725 24.8256 27.0794 25.4908C27.6043 25.7525 28.0658 26.0682 28.5069 26.4553C28.5587 26.4972 28.6104 26.5392 28.6637 26.5824C29.0936 26.9405 29.4326 27.3541 29.7374 27.8225C29.7374 27.8676 29.7374 27.9127 29.7374 27.9592C29.8051 27.9366 29.8728 27.9141 29.9425 27.8908C31.3194 27.8837 32.4775 28.2343 33.4972 29.1897C34.3035 30.0271 34.7239 31.0806 34.7533 32.2359C34.733 33.0559 34.5428 33.766 33.9882 34.3874C33.3177 35.0255 32.567 35.0402 31.6917 35.0356C31.5721 35.036 31.4526 35.0365 31.3331 35.0371C31.0102 35.0383 30.6874 35.0378 30.3646 35.0369C30.0262 35.0363 29.6879 35.0369 29.3495 35.0373C28.7819 35.0378 28.2143 35.0372 27.6467 35.0359C26.9903 35.0344 26.334 35.0349 25.6777 35.0364C25.1136 35.0376 24.5495 35.0378 23.9855 35.0371C23.6488 35.0366 23.3121 35.0366 22.9754 35.0375C22.6593 35.0383 22.3432 35.0377 22.0271 35.0362C21.911 35.0358 21.7949 35.0359 21.6789 35.0365C21.5206 35.0372 21.3624 35.0363 21.2042 35.0349C21.0713 35.0348 21.0713 35.0348 20.9357 35.0346C20.714 35.0002 20.714 35.0002 20.5487 34.8788C20.4322 34.7151 20.4063 34.6453 20.4063 34.4477C20.4056 34.3927 20.4049 34.3377 20.4042 34.2811C20.4049 34.2213 20.4055 34.1616 20.4062 34.1001C20.4057 34.005 20.4057 34.005 20.4051 33.908C20.4043 33.6981 20.4054 33.4883 20.4066 33.2784C20.4066 33.1321 20.4065 32.9858 20.4063 32.8395C20.4062 32.5324 20.4071 32.2253 20.4086 31.9182C20.4106 31.5264 20.4104 31.1346 20.4095 30.7428C20.409 30.4403 20.4096 30.1378 20.4104 29.8353C20.4107 29.691 20.4108 29.5466 20.4105 29.4023C20.4093 28.2469 20.4558 27.0832 21.2907 26.1861C21.4808 26.0002 21.4808 26.0002 21.4787 25.8059C21.1633 25.1417 20.6402 24.789 19.962 24.5412C19.1241 24.2921 18.0951 24.5429 17.3374 24.9223C17.2492 24.9705 17.2492 24.9705 17.1593 25.0198C17.0679 25.0691 17.0679 25.0691 16.9748 25.1194C15.6637 25.888 14.9133 27.1571 14.5328 28.6038C14.4518 28.9639 14.4155 29.3063 14.4109 29.6755C14.4102 29.7222 14.4095 29.769 14.4088 29.8171C14.4067 29.9702 14.405 30.1234 14.4033 30.2765C14.4019 30.3832 14.4004 30.4899 14.399 30.5966C14.3952 30.8764 14.3918 31.1562 14.3885 31.4361C14.3851 31.722 14.3813 32.0079 14.3775 32.2939C14.3702 32.8542 14.3632 33.4145 14.3565 33.9748C14.4133 33.9741 14.4701 33.9733 14.5286 33.9725C15.0637 33.9657 15.5988 33.9605 16.1339 33.9571C16.409 33.9553 16.6841 33.9529 16.9592 33.949C17.2247 33.9453 17.4901 33.9433 17.7557 33.9424C17.8569 33.9418 17.9582 33.9405 18.0595 33.9387C18.2014 33.9362 18.3432 33.9359 18.4851 33.936C18.5659 33.9353 18.6467 33.9345 18.7299 33.9337C18.9366 33.9748 18.9366 33.9748 19.1018 34.1327C19.2101 34.3166 19.2101 34.3166 19.2058 34.5644C19.142 34.7939 19.1173 34.8598 18.9366 35.0002C18.7244 35.0205 18.5259 35.0282 18.3136 35.0267C18.2167 35.0273 18.2167 35.0273 18.1179 35.0278C17.9007 35.0288 17.6834 35.0283 17.4662 35.0278C17.3108 35.0282 17.1554 35.0287 17 35.0293C16.5771 35.0305 16.1542 35.0304 15.7314 35.03C15.3785 35.0298 15.0257 35.0302 14.6729 35.0306C13.7927 35.0317 12.9126 35.0314 12.0324 35.0306C11.2685 35.0299 10.5046 35.0308 9.74064 35.0324C8.95611 35.0341 8.17159 35.0347 7.38705 35.0343C6.94666 35.0341 6.50628 35.0342 6.06589 35.0354C5.65152 35.0365 5.23718 35.0362 4.82281 35.0349C4.67081 35.0346 4.5188 35.0349 4.3668 35.0356C4.15908 35.0365 3.95143 35.0357 3.74371 35.0345C3.68373 35.0351 3.62376 35.0358 3.56197 35.0365C3.05853 35.0305 2.69977 34.8924 2.33811 34.5388C1.97179 33.9945 1.95514 33.5246 1.96262 32.885C1.96289 32.7506 1.96317 32.6162 1.96342 32.4818C1.96387 32.3383 1.96481 32.1947 1.96587 32.0512C1.96798 31.7508 1.96814 31.4505 1.96795 31.1502C1.96766 30.2965 1.96925 29.4428 1.97433 28.5891C1.97713 28.1169 1.97795 27.6447 1.97664 27.1725C1.97592 26.8745 1.97758 26.5768 1.98104 26.2789C1.98299 26.049 1.98133 25.8191 1.98024 25.5892C1.98189 25.5078 1.98354 25.4263 1.98524 25.3424C1.97687 24.7194 1.76248 24.3941 1.36826 23.926C0.314439 22.3223 0.027143 20.2869 0.404552 18.4236C0.699701 17.1365 1.30812 16.0184 2.18857 15.0393C2.25876 14.9606 2.25876 14.9606 2.33036 14.8804C3.62389 13.5104 5.47873 12.7587 7.34543 12.6852C7.64786 12.6902 7.76459 12.6965 8.02475 12.8603C8.15726 13.0948 8.19092 13.2026 8.13584 13.467C7.99859 13.6483 7.88653 13.784 7.66076 13.8446C7.50277 13.8637 7.34629 13.8739 7.18735 13.8814C5.46237 14.0183 3.92651 14.7972 2.78592 16.1053C1.75962 17.4441 1.26927 19.1067 1.45184 20.7846C1.59346 21.7802 1.95164 22.9735 2.66339 23.7246C3.10414 24.201 3.15498 24.5671 3.14343 25.2019C3.14373 25.2939 3.14427 25.3859 3.14503 25.478C3.14642 25.7258 3.1445 25.9736 3.14199 26.2215C3.13998 26.4815 3.14118 26.7415 3.14207 27.0015C3.14328 27.4932 3.14185 27.9849 3.13934 28.4766C3.13576 29.1992 3.13567 29.9218 3.1362 30.6444C3.13624 30.6974 3.13628 30.7504 3.13632 30.805C3.1364 30.9107 3.13649 31.0163 3.13659 31.122C3.13678 31.4313 3.13601 31.7407 3.13442 32.05C3.13352 32.242 3.13314 32.4339 3.13287 32.6259C3.13249 32.7575 3.13142 32.8891 3.13033 33.0208C3.1303 33.0989 3.13028 33.177 3.13025 33.2574C3.12991 33.3254 3.12958 33.3934 3.12924 33.4634C3.1338 33.6503 3.1338 33.6503 3.28232 33.8381C3.52683 33.9376 3.79106 33.9147 4.05116 33.9142C4.10054 33.9142 4.14992 33.9143 4.2008 33.9143C4.36354 33.9142 4.52628 33.9137 4.68903 33.9131C4.80205 33.913 4.91508 33.9129 5.0281 33.9129C5.32524 33.9126 5.62237 33.9119 5.91951 33.9112C6.22285 33.9105 6.52619 33.9102 6.82953 33.9098C7.42447 33.9091 8.01941 33.9079 8.61435 33.9065C8.57488 33.8538 8.5354 33.8011 8.49472 33.7468C8.44397 33.6782 8.39321 33.6097 8.34092 33.539C8.29016 33.4708 8.2394 33.4026 8.18711 33.3324C8.06748 33.1545 8.06748 33.1545 8.06748 33.0178C7.98201 33.0196 7.89655 33.0214 7.80849 33.0232C7.48873 33.0295 7.16897 33.0334 6.84916 33.0366C6.71125 33.0383 6.57335 33.0406 6.43546 33.0436C4.92654 33.0753 4.92654 33.0753 4.44443 32.676C4.29036 32.5177 4.29036 32.5177 4.2009 32.3641C4.15424 32.2878 4.15424 32.2878 4.10664 32.21C3.98522 31.9596 3.95748 31.74 3.95924 31.4632C3.95957 31.3658 3.95957 31.3658 3.95991 31.2664C3.96048 31.1955 3.96105 31.1247 3.96164 31.0518C3.96229 30.8964 3.96292 30.7411 3.96353 30.5857C3.96396 30.5033 3.96439 30.421 3.96483 30.3361C3.96687 29.854 3.96593 29.3719 3.96554 28.8898C3.96518 28.38 3.96583 27.8702 3.96942 27.3604C3.97257 26.9115 3.97248 26.4627 3.97051 26.0138C3.97029 25.843 3.97117 25.6723 3.97318 25.5015C4.03086 24.4563 4.03086 24.4563 3.59603 23.5581C3.49305 23.4736 3.38867 23.3909 3.28232 23.3108C2.39962 22.1602 2.18036 20.684 2.35466 19.2778C2.51344 18.3516 2.89497 17.4788 3.4874 16.7483C3.53216 16.6916 3.57693 16.6349 3.62305 16.5766C4.46094 15.5781 5.70109 14.9438 6.99953 14.8185C7.41813 14.7944 7.83687 14.7975 8.256 14.8003C8.39008 14.8003 8.52416 14.8002 8.65824 14.8C8.93734 14.7999 9.21642 14.8007 9.49551 14.8023C9.85066 14.8043 10.2058 14.8041 10.5609 14.8032C10.8372 14.8027 11.1134 14.8033 11.3896 14.8041C11.5205 14.8044 11.6513 14.8044 11.7822 14.8042C13.4425 14.8023 14.9032 15.1877 16.1296 16.3637C17.1558 17.4457 17.618 18.8152 17.6014 20.288C17.5578 21.6089 17.1024 22.8092 16.2022 23.7893C16.1632 23.822 16.1242 23.8547 16.084 23.8884C15.9622 24.0371 15.9821 24.1499 15.9972 24.3362C16.0593 24.2977 16.0593 24.2977 16.1227 24.2585C16.1799 24.2235 16.2372 24.1885 16.2962 24.1524C16.3586 24.1141 16.421 24.0758 16.4853 24.0363C16.6648 23.935 16.8396 23.8639 17.0311 23.7893C17.6754 23.4737 17.9587 22.5748 18.1873 21.9409C18.6922 20.3853 18.5151 18.6205 17.782 17.1654C16.943 15.5993 15.6254 14.615 13.9557 14.0678C13.3708 13.9207 12.8126 13.8583 12.2102 13.8609C12.0646 13.8598 11.9191 13.8587 11.7736 13.8575C11.5472 13.8564 11.3209 13.8558 11.0945 13.8563C10.8739 13.8565 10.6534 13.8546 10.4328 13.8523C10.3652 13.853 10.2975 13.8537 10.2278 13.8545C9.90778 13.8499 9.75656 13.8453 9.49458 13.648C9.36631 13.467 9.36631 13.467 9.32358 13.2619C9.38316 12.976 9.47474 12.8911 9.7081 12.7151C9.94747 12.6649 10.1823 12.6688 10.4261 12.6721C10.5321 12.6718 10.5321 12.6718 10.6402 12.6716C10.7901 12.6716 10.94 12.6726 11.0899 12.6743C11.3145 12.6766 11.5389 12.6757 11.7636 12.6743C13.7986 12.6757 15.5881 13.1631 17.1475 14.5028C17.3003 14.6377 17.3003 14.6377 17.5011 14.7658C17.5087 14.7012 17.5163 14.6366 17.5241 14.57C17.572 14.2373 17.6601 13.9167 17.7472 13.5924C17.7654 13.5241 17.7835 13.4557 17.8022 13.3853C17.8623 13.159 17.9228 12.9329 17.9833 12.7068C18.0259 12.547 18.0684 12.3871 18.111 12.2273C18.2006 11.8908 18.2903 11.5544 18.3803 11.218C18.4932 10.7954 18.6058 10.3728 18.7183 9.95019C18.975 8.98559 19.2331 8.02135 19.4924 7.05742C19.5501 6.84262 19.6077 6.62778 19.6653 6.41294C19.7513 6.09213 19.8379 5.77147 19.925 5.45094C19.956 5.33653 19.9868 5.22207 20.0175 5.10757C20.3163 3.99253 20.6744 2.98311 21.4659 2.11936C21.5212 2.04984 21.5212 2.04984 21.5775 1.97891C22.3967 0.961921 23.8426 0.192926 25.1343 0.0160435C26.4766 -0.116878 27.7818 -0.0297166 28.9854 0.615456ZM20.714 6.90452C20.6465 7.13365 20.5798 7.363 20.5132 7.59239C20.4942 7.65684 20.4752 7.7213 20.4556 7.78772C20.4373 7.85094 20.419 7.91417 20.4002 7.97931C20.375 8.06576 20.375 8.06576 20.3492 8.15396C20.2955 8.37406 20.2646 8.59404 20.2354 8.81858C20.7209 8.95113 21.2064 9.08365 21.6919 9.21612C21.9174 9.27764 22.1428 9.33917 22.3682 9.40072C22.6275 9.47151 22.8868 9.54225 23.1461 9.61299C23.2269 9.63507 23.3077 9.65715 23.391 9.67989C23.4662 9.70041 23.5415 9.72094 23.619 9.74208C23.6852 9.76015 23.7514 9.77821 23.8196 9.79682C24.2744 9.91892 24.6782 10.019 25.1146 9.7927C25.4379 9.51555 25.5383 9.32795 25.5718 8.90376C25.5653 8.67025 25.495 8.53008 25.3624 8.34007C25.1296 8.12892 24.9382 8.02196 24.6353 7.94193C24.5588 7.92126 24.4823 7.9006 24.4034 7.87931C24.3209 7.85794 24.2383 7.83657 24.1533 7.81455C24.0677 7.79169 23.9821 7.76882 23.894 7.74526C23.7085 7.69572 23.523 7.64674 23.3373 7.59816C23.0214 7.51551 22.7059 7.43155 22.3904 7.34752C21.8318 7.19892 21.273 7.05141 20.714 6.90452ZM19.2101 12.5783C19.0769 12.9577 18.959 13.3403 18.8512 13.7276C18.8147 13.8573 18.8147 13.8573 18.7775 13.9896C18.7338 14.2078 18.7383 14.289 18.7999 14.4924C19.3237 14.6375 19.8478 14.7814 20.3724 14.9238C20.616 14.9899 20.8594 15.0565 21.1027 15.124C21.3378 15.1893 21.5732 15.2534 21.8088 15.3168C21.9415 15.3529 22.074 15.39 22.2064 15.4271C22.6753 15.5523 23.0389 15.6191 23.5167 15.5178C23.7837 15.3481 23.9363 15.0669 24.0337 14.7701C24.0824 14.5115 24.0371 14.3171 23.9482 14.0726C23.6275 13.6183 23.0372 13.5389 22.5332 13.4061C22.4439 13.3821 22.3545 13.3579 22.2652 13.3337C22.0787 13.2834 21.8922 13.2336 21.7055 13.1842C21.4662 13.1208 21.2272 13.0566 20.9883 12.992C20.8042 12.9423 20.62 12.8928 20.4357 12.8435C20.3047 12.8085 20.1737 12.7733 20.0428 12.7381C19.9634 12.7171 19.884 12.6961 19.8021 12.6744C19.7322 12.6558 19.6622 12.6372 19.5902 12.618C19.4117 12.5708 19.4117 12.5708 19.2101 12.5783ZM4.58115 17.1584C3.79603 18.1465 3.27921 19.3596 3.41904 20.6448C3.60142 21.669 3.96006 22.4614 4.69117 23.2085C4.9223 23.4498 5.00837 23.5839 5.0085 23.9133C5.00887 23.981 5.00924 24.0488 5.00962 24.1186C5.00933 24.1929 5.00905 24.2671 5.00876 24.3436C5.00901 24.4219 5.00926 24.5002 5.00951 24.5808C5.00998 24.751 5.01015 24.9212 5.01006 25.0914C5.01 25.3606 5.01088 25.6297 5.01204 25.8989C5.01526 26.6642 5.0169 27.4296 5.01734 28.1949C5.01763 28.6628 5.01934 29.1306 5.02181 29.5985C5.02248 29.777 5.02263 29.9556 5.02227 30.1341C5.02179 30.3835 5.02297 30.6329 5.02452 30.8824C5.02396 30.9565 5.0234 31.0306 5.02283 31.107C5.02181 31.4928 5.02181 31.4928 5.18134 31.8334C5.34226 31.9295 5.42337 31.9575 5.60888 31.9551C5.68891 31.9551 5.68891 31.9551 5.77056 31.955C5.82746 31.9536 5.88437 31.9522 5.943 31.9508C6.00178 31.9504 6.06057 31.95 6.12114 31.9496C6.30853 31.9481 6.49584 31.9446 6.6832 31.9411C6.81039 31.9398 6.93759 31.9385 7.06479 31.9374C7.37626 31.9344 7.68768 31.9297 7.99912 31.9241C8.00725 31.8554 8.01539 31.7868 8.02377 31.7161C8.0352 31.6242 8.04666 31.5323 8.05813 31.4405C8.0634 31.3955 8.06867 31.3505 8.0741 31.3041C8.17096 30.5416 8.48581 29.9241 8.95615 29.3264C8.99818 29.2697 9.04022 29.2131 9.08352 29.1547C9.88959 28.216 11.5372 27.5939 12.733 27.4273C13.3897 27.3468 13.3897 27.3468 13.9347 27.0101C14.1447 26.71 14.2877 26.3869 14.4242 26.0484C14.4933 25.9084 14.4933 25.9084 14.6796 25.7239C14.9999 25.3689 14.8657 24.7359 14.8537 24.2926C14.8537 23.5837 14.8537 23.5837 15.128 23.2702C15.2111 23.1909 15.2956 23.1131 15.3819 23.0373C16.1639 22.166 16.5203 21.1635 16.4968 19.9964C16.3969 18.8582 15.9268 17.7604 15.1085 16.9533C14.2889 16.271 13.4108 15.9196 12.3448 15.9159C12.2883 15.9154 12.2319 15.915 12.1738 15.9145C11.9879 15.9132 11.802 15.9124 11.616 15.9117C11.5521 15.9114 11.4881 15.9111 11.4222 15.9108C11.0833 15.9094 10.7444 15.9084 10.4054 15.9078C10.0579 15.907 9.71046 15.9047 9.36297 15.902C9.09359 15.9002 8.82422 15.8996 8.55484 15.8994C8.42689 15.899 8.29895 15.8982 8.17102 15.897C6.82291 15.8843 5.53921 16.1057 4.58115 17.1584ZM19.4835 18.6623C19.5286 19.3391 19.5737 20.0158 19.6202 20.7131C19.8514 20.7794 20.0827 20.8456 20.3209 20.9139C20.3934 20.9347 20.4658 20.9555 20.5405 20.9769C20.6269 21.0016 20.6269 21.0016 20.715 21.0269C20.7737 21.0437 20.8324 21.0605 20.8929 21.0779C21.3217 21.1975 21.689 21.2834 22.1025 21.0805C22.354 20.8583 22.4662 20.6791 22.5153 20.3441C22.5326 20.0422 22.5123 19.8635 22.3674 19.5937C21.9174 19.1441 21.0628 19.0407 20.4704 18.8845C20.3902 18.8629 20.31 18.8413 20.2273 18.8191C19.8603 18.7081 19.8603 18.7081 19.4835 18.6623ZM22.337 26.6679C21.7671 27.2777 21.511 27.9221 21.5188 28.752C21.5187 28.8087 21.5187 28.8655 21.5187 28.9239C21.5188 29.11 21.5198 29.296 21.5209 29.4821C21.5212 29.6117 21.5214 29.7413 21.5215 29.8708C21.522 30.2108 21.5234 30.5507 21.5249 30.8907C21.5265 31.2992 21.5272 31.7077 21.528 32.1162C21.5293 32.7357 21.5319 33.3553 21.5343 33.9748C23.3164 33.9748 25.0985 33.9748 26.9347 33.9748C26.9463 32.8675 26.9463 32.8675 26.955 31.7602C26.9686 30.6032 27.0393 29.636 27.8978 28.7726C28.1124 28.5784 28.3116 28.4226 28.5753 28.301C28.4756 27.7097 27.8269 27.2752 27.3718 26.9477C25.9163 25.9765 23.7687 25.3302 22.337 26.6679ZM10.0499 29.7366C10.0019 29.7828 9.95385 29.8291 9.90437 29.8767C9.37589 30.4247 9.03918 31.133 9.01997 31.9003C9.0495 32.5383 9.26662 33.021 9.73374 33.4579C10.2872 33.9123 10.8405 33.9868 11.5471 33.9815C11.6212 33.9814 11.6212 33.9814 11.6968 33.9812C11.8528 33.9808 12.0088 33.98 12.1648 33.9791C12.2713 33.9788 12.3778 33.9785 12.4843 33.9782C12.7438 33.9774 13.0033 33.9762 13.2628 33.9748C13.2635 33.9148 13.2642 33.8549 13.2649 33.793C13.2717 33.2249 13.2787 32.6567 13.286 32.0886C13.2897 31.7966 13.2934 31.5046 13.2968 31.2125C13.3001 30.9302 13.3037 30.6478 13.3074 30.3655C13.3088 30.2583 13.3101 30.1512 13.3113 30.044C13.3177 29.4603 13.3331 28.8817 13.3995 28.301C12.3964 28.301 10.7547 29.0377 10.0499 29.7366ZM28.5753 29.5998C28.1101 30.1767 28.0078 30.6701 28.0151 31.398C28.0153 31.4718 28.0155 31.5455 28.0156 31.6215C28.0164 31.8563 28.0181 32.091 28.0199 32.3257C28.0206 32.4852 28.0212 32.6447 28.0217 32.8042C28.0232 33.1944 28.0255 33.5846 28.0284 33.9748C28.5781 33.9796 29.1278 33.9832 29.6775 33.9855C29.9329 33.9865 30.1882 33.988 30.4435 33.9903C30.6904 33.9925 30.9372 33.9938 31.1841 33.9943C31.2778 33.9947 31.3715 33.9954 31.4652 33.9965C32.376 34.0116 32.376 34.0116 33.1853 33.6421C33.2205 33.5968 33.2558 33.5515 33.2921 33.5049C33.3287 33.4599 33.3654 33.415 33.4032 33.3687C33.7404 32.8456 33.7025 32.207 33.5869 31.6151C33.322 30.6848 32.8111 29.9213 31.9591 29.4375C30.885 28.8944 29.5093 28.6739 28.5753 29.5998Z" fill="#C18539"/>
</g>
<defs>
<clipPath id="clip0_6665_36128">
<rect width="35" height="35" fill="white"/>
</clipPath>
</defs>
</svg>
