<svg width="43" height="43" viewBox="0 0 43 43" fill="none" xmlns="http://www.w3.org/2000/svg">
<path d="M12.9675 31.0872C13.1819 31.8447 13.9813 32.4775 14.6028 32.9001C15.3285 33.3936 16.156 33.7269 17.0097 33.9192C17.8476 34.108 18.7046 34.2084 19.5626 34.2373C20.399 34.2655 21.2506 34.2241 22.0319 33.8966C22.4211 33.7333 22.7693 33.5165 23.0827 33.2603C23.1786 33.3259 23.2968 33.3729 23.408 33.4217C23.7221 33.5594 24.0436 33.6805 24.3724 33.7785C25.0013 33.9659 25.6568 34.0776 26.3112 34.1237C27.6409 34.2173 29.0109 33.9964 30.2304 33.4528C30.4779 33.3424 30.6886 33.2034 30.8633 33.0362C31.5284 32.7838 32.1725 32.4478 32.7587 32.0324C32.7791 32.0364 32.8011 32.028 32.8073 32.0012C32.8076 31.9998 32.8079 31.9984 32.8082 31.997C33.6838 31.3662 34.4261 30.5571 34.9088 29.5852C35.2792 28.8395 35.5744 27.9029 35.4144 27.0651C35.2492 26.2003 34.4667 25.5931 33.6518 25.3745C33.161 25.2428 32.6432 25.2545 32.1439 25.3257C31.6378 25.3979 31.0866 25.5092 30.6155 25.7212C30.5288 25.5775 30.435 25.4369 30.3326 25.3006C29.2914 23.9141 27.6348 23.4684 25.9653 23.5426C25.9393 23.5438 25.9164 23.5493 25.8951 23.5564C25.7961 23.1647 25.6673 22.7805 25.5045 22.4088C25.1915 21.6942 24.7376 20.9378 24.1122 20.4402C24.1145 20.3891 24.1168 20.338 24.1187 20.2868C24.1919 19.8122 24.188 19.3394 24.1296 18.8671C24.1293 18.8431 24.129 18.8192 24.1286 18.7953C24.1284 18.7834 24.1239 18.7744 24.1174 18.7683C24.0511 18.2922 23.9319 17.8166 23.7834 17.3403C23.5755 16.673 23.3174 16.0214 23.0138 15.3917C22.9331 15.2241 22.806 15.0392 22.7614 14.8571C22.7413 14.7752 22.7548 14.6882 22.7351 14.6068C22.7127 14.5143 22.6672 14.4506 22.607 14.4016C22.8571 12.782 22.5581 11.067 21.1654 10.1098C21.2401 9.98004 21.3116 9.84843 21.378 9.71447C21.4671 9.59212 21.5524 9.46698 21.6339 9.33985C21.6612 9.29734 21.6203 9.25887 21.5809 9.26166C21.6712 9.03586 21.7475 8.80467 21.8055 8.56776C21.9193 8.10304 21.92 7.66071 21.9512 7.18837C21.9718 6.87665 22.0091 6.67586 21.8707 6.43904C22.0584 5.97129 22.1371 5.45669 22.1753 4.95574C22.2851 3.51361 22.1627 1.46428 20.3328 1.26125C18.8782 1.09988 17.5832 2.06574 16.7111 3.13466C16.2676 3.67827 15.7697 4.25331 15.4423 4.87651C15.244 5.25416 15.1295 5.71578 15.2649 6.10624C13.742 6.34086 12.2128 7.05211 11.4621 8.45687C11.1163 9.10388 10.9702 9.8547 11.1022 10.5803C11.1491 10.8377 11.2347 11.0881 11.3478 11.3283C11.3064 11.377 11.286 11.4439 11.3084 11.525C11.3139 11.5448 11.3202 11.5642 11.326 11.5838C10.6478 12.3025 10.1518 13.2303 9.77144 14.1322C9.36663 15.0921 9.08157 16.1027 8.9514 17.1371C8.82053 18.1772 8.79671 19.2796 9.00223 20.3124C9.04519 20.528 9.11023 20.7302 9.20098 20.9165C7.98544 22.5423 8.09304 24.885 8.6031 26.7503C9.16774 28.816 10.5399 31.2335 12.9675 31.0872ZM25.6636 24.5866C25.8302 26.1282 25.5265 27.679 25.0271 29.134C24.6831 30.1362 24.2548 31.1956 23.5933 32.0527C24.1191 31.2513 24.4972 30.3264 24.7906 29.4567C25.4312 27.558 25.6344 25.4773 25.3641 23.491C25.3347 23.2747 25.298 23.059 25.2518 22.8457C25.4632 23.4049 25.5996 23.9941 25.6636 24.5866ZM22.4958 25.3163C21.8488 26.3658 20.9596 27.2371 20.0484 28.0565C19.1783 28.8389 18.2773 29.7228 17.1587 30.132C16.7282 30.2895 16.2777 30.3724 15.8251 30.4376C16.0944 30.3393 16.358 30.2321 16.6127 30.1164C17.821 29.5676 18.8187 28.6729 19.6894 27.6861C20.5687 26.6895 21.3695 25.6149 22.0909 24.4993C22.7173 23.5307 23.356 22.5111 23.7887 21.4317C23.5816 22.8002 23.2202 24.1412 22.4958 25.3163ZM19.4683 33.7636C21.2229 32.7578 22.6855 31.113 23.3297 29.1809C23.3428 29.142 23.2799 29.1155 23.2624 29.1535C22.4028 31.0104 21.1493 32.5721 19.4064 33.6689C19.3691 33.6923 19.3747 33.7368 19.3988 33.76C18.8425 33.7276 18.2931 33.6444 17.7855 33.5449C17.7551 33.5389 17.7247 33.5324 17.6943 33.5261C18.3967 33.2871 19.0812 32.949 19.6101 32.4464C19.6579 32.401 19.5974 32.3254 19.5411 32.3557C18.8173 32.7454 18.1384 33.1571 17.3835 33.4563C16.7852 33.3108 16.1967 33.1027 15.649 32.8222C16.5785 32.8268 17.5338 32.6029 18.2636 32.0124C18.3207 31.9662 18.2483 31.8881 18.1898 31.9155C17.2802 32.3411 16.3771 32.6752 15.3701 32.6709C15.353 32.661 15.3356 32.6515 15.3185 32.6415C14.915 32.4049 14.5376 32.1258 14.2028 31.7988C14.0753 31.6743 13.9618 31.5377 13.8502 31.3999C15.3366 31.4434 16.832 31.2527 18.1989 30.6232C18.2548 30.5975 18.2164 30.5092 18.1589 30.5249C16.7283 30.9147 15.2757 31.2571 13.7873 31.322C13.7384 31.2614 13.6892 31.2012 13.6392 31.1418C14.1845 31.0637 14.7298 30.9856 15.2752 30.9075C15.861 30.8236 16.4592 30.7563 17.0238 30.5704C18.1365 30.2039 19.0154 29.3855 19.8734 28.6229C20.8271 27.7753 21.7718 26.8977 22.5009 25.8427C22.8959 25.2711 23.2059 24.651 23.4449 24.0032C23.3642 24.5563 23.2473 25.1034 23.0903 25.6411C22.8701 26.3955 22.5495 27.101 22.2433 27.8221C22.2199 27.8771 22.2936 27.923 22.3261 27.8691C23.1067 26.5707 23.4819 24.9758 23.6229 23.4748C23.703 23.2121 23.7727 22.9459 23.8323 22.6774C23.9516 22.1396 24.0263 21.6026 24.0717 21.064C24.0856 21.0817 24.0996 21.0993 24.1135 21.117C24.1667 21.9761 24.1844 22.8361 24.146 23.6964C24.1015 24.6918 23.9599 25.6682 23.8302 26.6546C23.8204 26.7292 23.9288 26.7634 23.9472 26.6852C24.3547 24.9581 24.414 23.0879 24.257 21.312C24.2782 21.3432 24.2988 21.3748 24.3185 21.4072C24.4919 21.692 24.6234 21.9993 24.7248 22.3165C24.7647 22.4409 24.799 22.5668 24.8304 22.6934C24.953 23.411 24.9551 24.1291 24.9013 24.8721C24.8984 24.9111 24.9623 24.9198 24.9695 24.881C25.0129 24.6476 25.0378 24.4106 25.0473 24.1721C25.129 25.3318 25.0536 26.4977 24.8182 27.6364C24.5796 28.7911 24.1988 29.9157 23.6631 30.9668C23.0548 32.1607 22.2569 33.148 20.9451 33.5744C20.8647 33.6006 20.8145 33.653 20.7887 33.7141C20.3569 33.7755 19.9109 33.7859 19.4683 33.7636ZM31.2114 26.0479C31.5549 26.5604 31.7972 27.1065 32.0605 27.6701C32.0855 27.7235 32.1661 27.6863 32.1534 27.6324C32.0154 27.0457 31.6925 26.4997 31.3207 26.0203C31.3402 26.0154 31.3597 26.0104 31.3792 26.0054C31.4908 26.1072 31.6003 26.2108 31.6979 26.3266C31.8408 26.496 31.9407 26.6917 32.0768 26.8649C32.1197 26.9195 32.1955 26.859 32.1846 26.803C32.1213 26.4781 31.8778 26.1634 31.5947 25.9501C31.7816 25.9028 31.9693 25.8591 32.16 25.8318C32.254 25.8183 32.3487 25.8085 32.4437 25.8009C32.5499 26.0934 32.6567 26.3858 32.7742 26.6735C32.7806 26.6891 32.8068 26.6783 32.8015 26.6625C32.7049 26.3717 32.5971 26.0843 32.4888 25.7973C32.5945 25.7899 32.7005 25.7869 32.8064 25.7885C33.0699 26.1757 33.2539 26.5884 33.4327 27.0301C33.4467 27.0648 33.4983 27.0535 33.4902 27.015C33.3958 26.5686 33.1767 26.1566 32.9048 25.7904C33.1651 25.8017 33.4232 25.8436 33.6712 25.929C33.9505 26.0252 34.2256 26.1783 34.447 26.384C34.5165 26.6082 34.5633 26.8401 34.5856 27.0778C34.5874 27.0978 34.6178 27.0985 34.6173 27.0778C34.6126 26.8693 34.5852 26.668 34.5363 26.4738C34.6644 26.6114 34.7691 26.769 34.8374 26.9463C35.0198 27.4201 34.9108 27.979 34.7825 28.4524C34.5725 29.2275 34.1738 29.9198 33.6544 30.5155C33.6429 30.1972 33.5872 29.8891 33.4823 29.5784C33.4738 29.5532 33.4357 29.5626 33.442 29.5889C33.5226 29.9231 33.5647 30.2703 33.5652 30.6155C33.372 30.8276 33.1638 31.0271 32.9429 31.2128C32.9948 30.7563 32.9978 30.2972 32.935 29.8344C32.9309 29.8039 32.8822 29.8115 32.8824 29.8412C32.8855 30.3342 32.8704 30.8263 32.8177 31.3151C32.5815 31.5044 32.3325 31.6783 32.0744 31.8367C32.3408 31.1799 32.437 30.3943 32.1413 29.7735C32.1207 29.7303 32.047 29.7498 32.0505 29.7976C32.0815 30.2257 32.1601 30.6247 32.1064 31.0567C32.0674 31.3701 31.9823 31.675 31.8594 31.9645C31.6975 32.0566 31.5326 32.1426 31.3655 32.2223C31.3987 32.1193 31.4261 32.0117 31.4461 31.8983C31.5746 31.1705 31.5563 30.395 31.546 29.6586C31.5357 28.9221 31.471 28.1724 31.3017 27.4533C31.6612 28.1562 31.8688 28.9026 31.962 29.6933C31.9633 29.7044 31.9807 29.7049 31.9798 29.6933C31.9185 28.8781 31.6671 28.0894 31.2822 27.3713C31.176 26.9424 31.0312 26.5253 30.8376 26.129C30.9628 26.1068 31.0872 26.0785 31.2114 26.0479ZM26.3185 24.0116C26.5613 24.7506 26.7289 25.5062 26.8842 26.269C26.89 26.2972 26.9382 26.2918 26.9349 26.2625C26.8492 25.4898 26.6391 24.7421 26.3693 24.0152C26.415 24.0184 26.4607 24.0219 26.5064 24.0256C26.9483 24.7708 27.181 25.5649 27.3267 26.423C27.3318 26.4529 27.3811 26.4463 27.3793 26.4162C27.3316 25.5709 27.0101 24.7442 26.5591 24.0299C26.9094 24.06 27.2579 24.1065 27.5965 24.182C27.8889 24.8307 28.0798 25.5078 28.2126 26.2103C28.2173 26.2354 28.2604 26.2304 28.2575 26.2045C28.1768 25.5011 27.9609 24.8289 27.6545 24.1949C27.8159 24.2327 27.9748 24.2774 28.1305 24.3303C28.5517 25.1481 28.8237 25.9826 29.0508 26.8826C29.0605 26.9209 29.1245 26.9148 29.121 26.8735C29.0481 26.0071 28.719 25.1282 28.2611 24.3771C28.5213 24.4747 28.7713 24.5974 29.0068 24.752C29.6641 25.6633 29.9629 26.6689 30.0756 27.7939C30.0798 27.8354 30.1386 27.8366 30.141 27.7939C30.1905 26.9095 29.9081 26.0029 29.438 25.2373C30.1915 26.2416 30.5469 27.5612 30.6403 28.7807C30.6986 29.5426 30.6976 30.3256 30.6223 31.0864C30.5363 31.9544 30.2289 32.8116 29.3583 33.1505C29.2903 33.177 29.245 33.223 29.2197 33.276C29.0296 33.3284 28.8398 33.3727 28.6586 33.4131C28.5884 33.4288 28.518 33.4435 28.4473 33.4572C28.6853 33.1492 28.7159 32.6846 28.7859 32.3145C28.9059 31.681 29.023 31.0496 29.0959 30.4084C29.1006 30.3674 29.0359 30.3612 29.0257 30.3994C28.8907 30.9071 28.784 31.4192 28.6871 31.9354C28.6029 32.3842 28.5939 33.1824 28.2068 33.4994C27.8258 33.5607 27.4407 33.5931 27.0543 33.5984C27.2142 32.3495 27.4006 31.1002 27.5068 29.8456C27.5095 29.8146 27.4574 29.8074 27.4523 29.8386C27.246 31.0849 27.1189 32.3457 26.9662 33.5995C26.9591 33.5995 26.952 33.5998 26.9449 33.5998C26.2971 33.5999 25.6551 33.5235 25.0281 33.3596C24.7213 33.2795 24.4189 33.1817 24.1238 33.0658C24.0547 33.0386 23.9864 33.0098 23.9182 32.9804C24.6117 32.4643 25.1308 31.7644 25.3846 30.9252C25.3985 30.879 25.3305 30.8639 25.3136 30.9066C24.9943 31.7122 24.4835 32.41 23.789 32.9223C23.7471 32.9032 23.7051 32.8847 23.6635 32.8649C23.6287 32.8482 23.5942 32.8308 23.5597 32.8135C24.2909 32.0346 24.7988 31.0286 25.1846 30.0393C25.6663 28.8039 26.0241 27.4885 26.1127 26.1581C26.1743 26.9385 26.1982 27.7207 26.2023 28.5106C26.2023 28.5273 26.2272 28.5271 26.228 28.5107C26.2691 27.6363 26.2256 26.7544 26.1274 25.8802C26.1385 25.5852 26.1369 25.2897 26.1189 24.9944C26.0983 24.6578 26.0565 24.3233 25.9934 23.9932C26.1017 23.9984 26.2101 24.0044 26.3185 24.0116ZM11.7622 9.24128C11.7742 9.20525 11.7865 9.16917 11.8004 9.13309C12.1558 8.2069 12.8589 7.61775 13.6906 7.23571C13.7383 8.08939 14.0459 8.98189 14.5176 9.67644C14.5546 9.73106 14.6309 9.68586 14.6055 9.62651C14.413 9.17859 14.2184 8.73042 14.0772 8.26307C13.9691 7.90555 13.9011 7.53975 13.8302 7.17401C14.149 7.03841 14.4843 6.93147 14.8245 6.8459C14.7809 7.72778 15.2919 8.75559 15.9333 9.29764C15.9759 9.33368 16.0546 9.28648 16.0178 9.23336C15.7462 8.8422 15.484 8.44626 15.303 8.00327C15.1414 7.60808 15.0913 7.2089 15.0077 6.80189C15.1952 6.75904 15.3833 6.72231 15.5704 6.69056C15.639 7.18577 15.9504 7.63365 16.2588 8.03896C16.7857 8.73127 17.4322 9.24328 18.3281 9.28848C19.1309 9.32899 19.892 8.99804 20.4982 8.48852C20.8459 8.19634 21.1424 7.84415 21.3957 7.46789C21.4855 7.33443 21.5726 7.19744 21.614 7.0573C21.6139 7.79576 21.2688 8.45473 20.7155 8.95777C20.6927 8.9785 20.7228 9.01936 20.7489 9.00147C21.1544 8.72354 21.4284 8.31614 21.566 7.86249C21.5423 8.06706 21.5058 8.26969 21.445 8.47332C21.3832 8.68014 21.3065 8.88127 21.2204 9.07837C21.1105 9.26794 20.9973 9.45707 20.8841 9.65138C20.8717 9.67266 20.8899 9.69623 20.91 9.69872C20.7784 9.93125 20.635 10.1573 20.485 10.3774C19.6513 11.6017 18.5401 12.8787 17.12 13.4163C15.7968 13.9172 14.3574 13.5985 13.2453 12.7616C12.5682 12.252 11.9857 11.5546 11.7479 10.7707C11.6764 10.2524 11.6752 9.73954 11.7622 9.24128ZM16.0134 7.07025C16.3713 7.38467 16.787 7.64541 17.1962 7.82601C17.9173 8.14431 18.6542 8.16982 19.4265 8.06601C19.881 8.00497 20.3331 7.90889 20.7323 7.71214C20.5443 7.9356 20.3343 8.14167 20.1033 8.31913C19.5814 8.72011 18.9408 8.96126 18.2768 8.91705C17.5504 8.86866 17.0275 8.44232 16.5836 7.89668C16.3765 7.64237 16.1669 7.36782 16.0134 7.07025ZM12.5597 12.8879C13.6496 13.8482 15.1472 14.375 16.5923 14.0736C18.2798 13.7215 19.562 12.3767 20.5473 11.0451C20.5859 10.993 20.624 10.9404 20.6619 10.8875C20.0899 12.6632 18.428 13.9144 16.589 14.2375C15.0996 14.4991 13.5289 13.9847 12.5597 12.8879ZM21.2482 2.33545C21.2826 2.57675 21.3211 2.81791 21.3262 3.06395C21.3353 3.50265 21.3059 3.94229 21.2283 4.37431C21.2232 4.40287 21.2641 4.41448 21.2724 4.38593C21.4157 3.89505 21.5151 3.30724 21.4787 2.74983C21.6112 3.08328 21.6551 3.44773 21.6651 3.81167C21.5605 4.41762 21.4095 5.0131 21.238 5.60604C21.2311 5.62986 21.2659 5.63769 21.2744 5.61556C21.4506 5.15977 21.5759 4.69022 21.6654 4.21305C21.6639 4.28905 21.662 4.3646 21.6599 4.4392C21.6458 4.95709 21.6111 5.50224 21.4538 6.00383C21.4245 6.08202 21.3964 6.16051 21.3691 6.23925C21.351 6.28336 21.3321 6.32711 21.3117 6.37027C20.9991 7.02989 20.4481 7.34958 19.7503 7.49251C18.9947 7.64725 18.2136 7.70312 17.4803 7.42299C17.1484 7.29621 16.8641 7.11511 16.5966 6.91103C16.3818 6.60888 16.2486 6.26233 16.1896 5.89499C16.1963 5.90865 16.202 5.92275 16.209 5.9363C16.2326 5.98235 16.2986 5.94288 16.2779 5.89713C16.2235 5.77653 16.1839 5.65284 16.1551 5.5278C16.1545 5.50583 16.1534 5.4839 16.1532 5.46182C16.1531 5.44926 16.1454 5.44004 16.1354 5.43526C16.0978 5.2269 16.0938 5.0153 16.1183 4.80609C16.3356 4.47199 16.5939 4.16376 16.8333 3.84636C16.889 3.77245 16.9462 3.69845 17.0046 3.62479C16.8968 3.95978 16.8426 4.30848 16.846 4.63929C16.8463 4.66759 16.8877 4.66705 16.8896 4.63929C16.9245 4.12643 17.0652 3.68539 17.2852 3.28676C17.6967 2.81517 18.17 2.3823 18.719 2.09938C18.0566 3.2147 17.9355 4.67602 18.1238 5.93067C18.1291 5.9663 18.1879 5.95833 18.1862 5.9226C18.1539 5.25775 18.1983 4.58661 18.304 3.92953C18.3439 3.68175 18.4016 3.4412 18.4676 3.20328C18.7689 2.73314 19.1262 2.23314 19.6537 2.00474C20.1232 1.80146 20.6957 1.84816 21.061 2.22806C21.0753 2.24296 21.0965 2.22098 21.0835 2.20563C20.7548 1.8203 20.2398 1.72492 19.7641 1.86819C19.1994 2.03828 18.8181 2.50041 18.5283 2.99123C18.6169 2.69292 18.7148 2.3971 18.804 2.09529C18.8082 2.08099 18.8035 2.06928 18.795 2.06131C19.0421 1.94185 19.3039 1.8526 19.5823 1.80426C20.2203 1.69342 20.8559 1.82195 21.2482 2.33545ZM15.9649 5.05985C15.9773 5.24907 16.0143 5.4383 16.0763 5.62169C16.0529 6.00996 16.1482 6.37924 16.3371 6.70347C16.2323 6.61635 16.1285 6.5273 16.024 6.43794C16.0516 6.2985 15.9934 6.13405 15.8662 6.07305C15.7167 5.72261 15.7647 5.42499 15.9649 5.05985ZM9.48813 19.2988C10.6131 20.2444 12.3162 20.7525 13.7052 20.211C13.7367 20.1988 13.7245 20.1477 13.6916 20.1593C12.9818 20.4088 12.2159 20.3954 11.4963 20.1887C10.7373 19.9706 10.1391 19.5363 9.47836 19.1428C9.45175 18.6307 9.47542 18.1114 9.51066 17.6311C9.52561 17.4277 9.54758 17.2249 9.57325 17.0226C9.71204 17.2443 9.86917 17.4577 10.0459 17.6417C10.0892 17.6868 10.148 17.63 10.1271 17.5798C10.0004 17.2756 9.81614 16.9838 9.61611 16.7161C9.63694 16.5809 9.66031 16.4461 9.68592 16.3116C9.9799 16.9331 10.4472 17.4584 11.0863 17.7545C11.1361 17.7775 11.1743 17.7112 11.1284 17.6803C10.5385 17.2824 10.0376 16.7912 9.71468 16.1646C9.76497 15.9183 9.82342 15.6739 9.88965 15.4314C10.443 16.2618 11.6208 16.6812 12.5537 16.765C12.5758 16.767 12.5811 16.7291 12.5587 16.7259C12.0268 16.6508 11.5233 16.468 11.0582 16.1989C10.6204 15.9457 10.3017 15.5993 9.93246 15.274C10.0043 15.0246 10.0843 14.7775 10.1729 14.5334C10.3043 14.1711 10.4596 13.8255 10.6293 13.4886C10.6777 13.688 10.7992 13.8724 10.899 14.0502C11.0037 14.2368 11.1187 14.4153 11.2617 14.5749C11.2947 14.6118 11.3617 14.5736 11.3463 14.5264C11.2803 14.3234 11.1835 14.1337 11.0751 13.9502C10.9688 13.7704 10.8684 13.5666 10.7142 13.4238C10.7141 13.4239 10.714 13.4241 10.714 13.4241C10.7015 13.4106 10.6847 13.4068 10.6687 13.4104C10.8164 13.1218 10.9747 12.8393 11.1374 12.5581C11.4928 13.2384 11.9266 13.8509 12.4662 14.4042C12.5016 14.4405 12.5517 14.3874 12.5209 14.3496C12.0339 13.7516 11.5875 13.1148 11.2029 12.4456C11.2909 12.2947 11.3801 12.1438 11.4695 11.9925C12.0745 13.4476 13.5077 14.4852 15.0699 14.6935C16.8111 14.9257 18.6079 14.1998 19.8302 12.9645C20.4359 12.3523 20.9814 11.5342 21.0144 10.6513C21.0721 10.6966 21.1275 10.744 21.1802 10.7939C20.8972 12.2241 20.3691 13.5268 19.6984 14.8198C19.6741 14.8666 19.7399 14.9029 19.7691 14.8599C20.5688 13.6843 21.0437 12.2596 21.2423 10.8549C21.2824 10.8955 21.3209 10.9376 21.3581 10.9808C21.4211 11.1347 21.4639 11.299 21.4945 11.4675C21.2617 12.4272 20.9444 13.3479 20.5824 14.2688C20.5726 14.2938 20.6143 14.3107 20.6261 14.2866C21.0448 13.4269 21.3292 12.4935 21.5091 11.5529C21.547 11.7928 21.5646 12.0379 21.5855 12.269C21.6202 12.6553 21.6273 13.0396 21.5856 13.4193C21.4386 14.0295 21.1735 14.5914 20.8266 15.1259C20.817 15.1407 20.8406 15.1592 20.8516 15.145C21.1414 14.7719 21.3547 14.3534 21.5013 13.9105C21.4792 14.0037 21.4543 14.0967 21.4243 14.1892C21.2247 14.8037 20.8958 15.3825 20.5674 15.936C20.2186 16.5236 19.8266 17.0836 19.3668 17.5901C17.7542 19.3668 15.4381 20.4607 13.0612 20.7069C12.7395 20.7402 12.4133 20.763 12.0896 20.7542C12.0812 20.735 12.0645 20.7191 12.0381 20.7169C11.3084 20.6577 10.6394 20.3972 10.0369 20.0017C9.8458 19.8396 9.66973 19.6577 9.50228 19.4616C9.49675 19.4074 9.49212 19.3532 9.48813 19.2988ZM9.68902 20.4317C9.68488 20.4184 9.68139 20.4047 9.67735 20.3913C10.4139 20.9937 11.4134 21.2704 12.3584 21.2417C13.7 21.201 15.0388 20.8747 16.2662 20.3381C17.5008 19.7983 18.6412 19.0129 19.5593 18.0243C20.0584 17.4868 20.4852 16.8863 20.8577 16.2553C21.2246 15.6337 21.5841 14.9798 21.8 14.2877C22.0357 13.5322 22.0137 12.7533 21.917 11.9765C22.0608 12.3876 22.1345 12.8275 22.151 13.2523C22.1876 14.1933 21.9715 15.1378 21.5888 15.9949C20.7894 17.7855 19.3572 19.3172 17.7563 20.4256C16.117 21.5606 14.1222 22.2517 12.1176 21.8848C11.2537 21.7267 9.9813 21.3662 9.68902 20.4317ZM9.3606 27.2605C9.15319 26.6612 9.01121 26.0446 8.9367 25.419C10.0524 26.2242 11.5949 26.1824 12.9109 26.1422C12.9491 26.1411 12.9492 26.0817 12.9109 26.0827C11.5081 26.1211 10.1203 26.0977 8.92479 25.328C8.88158 24.9285 8.86643 24.5255 8.88118 24.1209C8.88422 24.038 8.8896 23.9559 8.89603 23.8741C9.67571 24.8318 11.2036 25.1448 12.341 24.8582C12.3906 24.8457 12.3704 24.7692 12.3209 24.7815C11.6796 24.9413 11.0143 24.9158 10.3865 24.7077C9.785 24.5082 9.35302 24.156 8.9078 23.7407C8.95947 23.2307 9.07505 22.741 9.23308 22.2612C9.7718 23.0453 10.5407 23.6682 11.4621 23.9459C11.5052 23.9589 11.5353 23.8899 11.4925 23.8712C10.6005 23.4822 9.83084 22.9191 9.27613 22.1337C9.35915 21.8939 9.4522 21.6564 9.55307 21.4198C9.62812 21.4967 9.71074 21.5689 9.80239 21.6353C10.2195 21.9378 10.7403 22.1414 11.2311 22.2907C13.3338 22.9304 15.61 22.3901 17.4541 21.2812C19.2969 20.1733 20.9825 18.5104 21.9318 16.565C22.1449 16.1284 22.3268 15.6378 22.4588 15.1231C22.4798 15.1792 22.5041 15.2347 22.5306 15.2897C22.5084 16.0407 22.4614 16.7797 22.2945 17.5163C22.1213 18.2803 21.8386 19.0102 21.511 19.72C21.4868 19.7724 21.5603 19.8166 21.5903 19.7651C22.318 18.5141 22.7153 16.9369 22.625 15.475C22.664 15.5493 22.7028 15.623 22.7362 15.6961C22.9546 16.1729 23.1442 16.6627 23.3087 17.1607C22.9545 18.6005 22.4795 19.9952 21.9492 21.382C21.9408 21.4038 21.9779 21.4192 21.9874 21.3976C22.5742 20.0715 23.0071 18.672 23.3418 17.2597C23.3482 17.2795 23.3553 17.2991 23.3616 17.3189C23.6641 18.2708 23.8982 19.2614 23.7233 20.2514C23.6613 20.2905 23.632 20.3862 23.6807 20.4576C23.6738 20.487 23.668 20.5164 23.6603 20.5458C23.3739 21.6368 22.7363 22.6431 22.1456 23.5918C21.4967 24.6341 20.7829 25.6373 20.0058 26.5879C19.2519 27.51 18.437 28.4165 17.4437 29.0871C16.4794 29.7382 15.3814 30.0802 14.2543 30.3273C13.1724 30.5645 12.1623 30.7027 11.1973 30.0383C10.5829 29.6152 10.1393 28.9985 9.80443 28.3291C10.4668 28.6628 11.2711 28.7185 11.9907 28.6088C12.0454 28.6005 12.0223 28.5195 11.969 28.5264C11.1673 28.6302 10.4566 28.4543 9.72729 28.1703C9.58641 27.871 9.46556 27.5639 9.3606 27.2605Z" fill="white"/>
<path d="M33.003 28.7154C33.0266 28.1177 32.8439 27.5277 32.5585 27.0074C32.5418 26.9771 32.4958 27.0035 32.5119 27.0339C32.7954 27.568 32.9101 28.1167 32.9534 28.7153C32.9557 28.747 33.0017 28.7476 33.003 28.7154Z" fill="white"/>
<path d="M29.6382 28.3041C29.5928 27.7881 29.5121 27.2742 29.4453 26.7606C29.4413 26.7302 29.3954 26.7427 29.3992 26.7726C29.4658 27.2842 29.5192 27.7997 29.607 28.3081C29.61 28.3257 29.6398 28.3221 29.6382 28.3041Z" fill="white"/>
<path d="M28.0907 27.1799C27.9812 26.1827 27.676 25.2142 27.2778 24.2964C27.2635 24.2635 27.216 24.2914 27.2295 24.3239C27.6144 25.2491 27.8532 26.2046 28.0439 27.186C28.049 27.2121 28.0936 27.2069 28.0907 27.1799Z" fill="white"/>
<path d="M29.7081 29.797C29.7849 30.7647 29.6563 31.7445 29.3365 32.6609C29.312 32.7308 29.4231 32.7594 29.4477 32.6901C29.7822 31.7473 29.8783 30.7837 29.7432 29.7925C29.7404 29.7725 29.7065 29.7769 29.7081 29.797Z" fill="white"/>
<path d="M25.9635 31.0619C25.8575 31.761 25.6791 32.4364 25.3442 33.0629C25.3058 33.1347 25.4145 33.1972 25.4546 33.1256C25.8093 32.4902 26.0345 31.8033 26.0357 31.0712C26.0357 31.031 25.9699 31.0196 25.9635 31.0619Z" fill="white"/>
<path d="M26.9465 30.0877C26.7658 30.7782 26.5947 31.4692 26.3644 32.1455C26.3499 32.188 26.4163 32.2045 26.4315 32.1631C26.6773 31.4927 26.8903 30.8086 27.0003 30.1018C27.0056 30.0672 26.9558 30.0523 26.9465 30.0877Z" fill="white"/>
<path d="M28.1033 30.4073C28.123 31.1392 28.0167 31.8347 27.9094 32.5555C27.9052 32.5839 27.9453 32.596 27.9535 32.5671C28.1504 31.8773 28.1753 31.1195 28.1469 30.4074C28.1458 30.3794 28.1025 30.3792 28.1033 30.4073Z" fill="white"/>
<path d="M30.1355 31.2152C30.0289 31.8176 29.8325 32.3823 29.6233 32.9551C29.6132 32.9827 29.657 32.9998 29.6706 32.9744C29.9587 32.435 30.1174 31.8375 30.2198 31.2372C30.2292 31.1825 30.1453 31.1596 30.1355 31.2152Z" fill="white"/>
<path d="M23.5455 28.068C24.1134 27.0755 24.4966 25.9887 24.7787 24.8832C24.7919 24.8313 24.7121 24.8102 24.6982 24.8621C24.4031 25.9626 23.9708 27.0063 23.4955 28.0396C23.4802 28.0727 23.5267 28.1007 23.5455 28.068Z" fill="white"/>
<path d="M20.7357 33.4681C21.7692 32.6546 22.6346 31.6364 23.3414 30.5312C23.3483 30.5204 23.3311 30.5107 23.3242 30.5214C22.6028 31.6342 21.7202 32.5865 20.7231 33.4555C20.7143 33.4631 20.7269 33.475 20.7357 33.4681Z" fill="white"/>
<path d="M21.8964 23.146C22.7697 21.9567 23.3191 20.5356 23.6123 19.0966C23.6169 19.0743 23.5832 19.065 23.5778 19.0875C23.232 20.5343 22.6131 21.8498 21.8464 23.1175C21.8269 23.15 21.875 23.175 21.8964 23.146Z" fill="white"/>
<path d="M21.1877 20.5055C21.9936 19.5517 22.4946 18.376 22.7106 17.1521C22.7154 17.1248 22.6741 17.1132 22.6684 17.141C22.4134 18.3649 21.8809 19.4691 21.1581 20.4829C21.1458 20.5001 21.174 20.5218 21.1877 20.5055Z" fill="white"/>
<path d="M19.4305 23.5558C20.2492 22.8767 20.9483 22.0413 21.5822 21.191C21.6081 21.1562 21.5494 21.1235 21.5236 21.1577C20.8787 22.0107 20.1433 22.7601 19.3968 23.5222C19.3751 23.5443 19.4073 23.575 19.4305 23.5558Z" fill="white"/>
<path d="M19.6003 24.3588C20.2636 23.9424 20.8761 23.4356 21.497 22.9596C21.5356 22.93 21.4844 22.8621 21.4446 22.8908C20.8102 23.349 20.1496 23.7897 19.5599 24.3056C19.5313 24.3306 19.5682 24.3789 19.6003 24.3588Z" fill="white"/>
<path d="M19.5869 20.5371C20.2036 19.9437 20.7427 19.2873 21.2362 18.5889C21.2583 18.5576 21.2066 18.5288 21.1844 18.5595C20.688 19.2461 20.1353 19.8885 19.5575 20.5076C19.5393 20.5273 19.5676 20.5558 19.5869 20.5371Z" fill="white"/>
<path d="M14.3287 25.382C13.2356 25.6754 12.1326 25.7134 11.0124 25.5852C10.9946 25.5832 10.9907 25.6132 11.0084 25.6165C12.1145 25.8207 13.2601 25.7248 14.3392 25.4224C14.365 25.4151 14.3545 25.3751 14.3287 25.382Z" fill="white"/>
<path d="M14.0856 24.135C14.107 24.1331 14.1073 24.0996 14.0856 24.1013C13.0761 24.1787 12.0746 24.1576 11.0641 24.1238C11.0446 24.1231 11.0454 24.1516 11.0641 24.1535C12.0654 24.2563 13.0845 24.222 14.0856 24.135Z" fill="white"/>
<path d="M13.3706 23.4674C12.1933 23.3989 11.0553 23.1336 9.94493 22.7432C9.91358 22.7322 9.8915 22.7847 9.9227 22.7978C11.0173 23.2601 12.1861 23.4934 13.3705 23.5565C13.4281 23.5596 13.4277 23.4706 13.3706 23.4674Z" fill="white"/>
<path d="M15.5706 27.5905C15.6109 27.5758 15.5947 27.511 15.5535 27.5252C14.7193 27.8134 13.8537 27.981 12.9715 28.0191C12.0784 28.0577 11.2297 27.9227 10.3539 27.7705C10.3002 27.7611 10.2796 27.8358 10.3323 27.8529C11.9952 28.3955 13.9534 28.179 15.5706 27.5905Z" fill="white"/>
<path d="M15.9664 28.7572C14.6237 29.2832 13.288 29.7462 11.839 29.7296C11.5906 29.6631 11.3442 29.5779 11.1008 29.4717C11.0389 29.4447 10.985 29.5346 11.048 29.5648C12.3353 30.181 13.9104 30.3055 15.226 29.6976C15.2772 29.674 15.2423 29.5904 15.189 29.6065C14.2149 29.9003 13.2176 29.9982 12.2449 29.8196C13.5371 29.8184 14.8116 29.2866 15.9871 28.8082C16.016 28.7965 15.9957 28.7457 15.9664 28.7572Z" fill="white"/>
<path d="M13.0235 26.9106C13.0961 26.8945 13.0665 26.7843 12.9943 26.7994C11.9042 27.0273 10.827 26.9562 9.74005 26.7473C9.70108 26.7398 9.68697 26.7939 9.72445 26.8067C10.7841 27.1702 11.938 27.1522 13.0235 26.9106Z" fill="white"/>
<path d="M18.2051 14.8651C18.8105 14.5809 19.3102 14.1204 19.7294 13.6063C19.7778 13.5469 19.6952 13.4612 19.6439 13.5208C19.2101 14.0234 18.7008 14.4039 18.1532 14.7737C18.097 14.8116 18.1438 14.8939 18.2051 14.8651Z" fill="white"/>
<path d="M18.2007 17.0101C18.4553 16.8543 18.7074 16.6943 18.9601 16.5354C18.9752 16.5259 18.9615 16.5017 18.9464 16.5112C18.6949 16.6723 18.4425 16.8323 18.1929 16.9963C18.1844 17.0019 18.192 17.0155 18.2007 17.0101Z" fill="white"/>
<path d="M16.7573 18.9457C17.3446 18.6864 17.9255 18.4135 18.5076 18.1427C18.5332 18.1308 18.5114 18.093 18.4861 18.1048C17.904 18.3745 17.3212 18.6421 16.7446 18.9233C16.7295 18.9307 16.7424 18.9523 16.7573 18.9457Z" fill="white"/>
<path d="M13.845 15.3553C12.7824 14.988 11.9419 14.3499 11.1543 13.5628C11.132 13.5405 11.1022 13.573 11.1206 13.5964C11.7986 14.4604 12.8051 15.0479 13.837 15.3859C13.8564 15.3924 13.8642 15.362 13.845 15.3553Z" fill="white"/>
<path d="M13.0045 16.2964C12.0209 15.7888 10.9106 15.255 10.4137 14.2024C10.3952 14.1632 10.3276 14.1901 10.3427 14.2313C10.7671 15.3912 11.8875 15.951 12.9704 16.3801C13.0185 16.3992 13.05 16.3199 13.0045 16.2964Z" fill="white"/>
<path d="M14.8573 17.66C14.884 17.6588 14.8843 17.6178 14.8573 17.6183C13.109 17.656 11.3959 17.5609 10.0618 16.2926C10.0333 16.2654 9.99698 16.3052 10.0198 16.3346C11.1271 17.7676 13.2311 17.732 14.8573 17.66Z" fill="white"/>
<path d="M14.2878 18.8819C13.4932 19.082 12.6693 19.2269 11.8472 19.1538C10.9582 19.0748 10.2145 18.7267 9.5564 18.1314C9.53044 18.108 9.49725 18.1429 9.51858 18.1693C10.6509 19.5713 12.768 19.3227 14.2954 18.9106C14.3138 18.9056 14.3064 18.8772 14.2878 18.8819Z" fill="white"/>
<path d="M14.3618 10.6707C15.01 11.2402 15.9042 11.5121 16.7522 11.5637C16.7754 11.5651 16.7748 11.5301 16.7522 11.5281C15.867 11.4474 15.1313 11.1025 14.3915 10.6317C14.3683 10.6168 14.3406 10.6521 14.3618 10.6707Z" fill="white"/>
<path d="M14.7058 12.3643C13.2521 12.0546 12.3314 10.7778 12.1833 9.35188C12.1789 9.30918 12.1185 9.30783 12.1159 9.35188C12.0296 10.8324 13.2934 12.1513 14.6943 12.4083C14.7228 12.4137 14.7348 12.3705 14.7058 12.3643Z" fill="white"/>
<path d="M13.6756 10.1208C12.9991 9.46478 12.9113 8.65196 13.0093 7.76315C13.0147 7.71431 12.937 7.69507 12.9167 7.73868C12.528 8.57342 12.9377 9.63272 13.5719 10.2245C13.6407 10.2887 13.7437 10.1867 13.6756 10.1208Z" fill="white"/>
<path d="M16.9287 10.289C16.3032 10.1391 15.8127 9.80747 15.3517 9.36862C15.3153 9.33393 15.247 9.37988 15.2783 9.42453C15.6602 9.96948 16.2469 10.2996 16.8855 10.4539C16.9919 10.4796 17.0357 10.3147 16.9287 10.289Z" fill="white"/>
<path d="M14.7061 8.0911C14.5674 7.82149 14.4403 7.53688 14.266 7.28846C14.2379 7.24849 14.1623 7.26942 14.1804 7.32329C14.2786 7.61607 14.4345 7.89131 14.5717 8.16745C14.6159 8.25656 14.7516 8.17956 14.7061 8.0911Z" fill="white"/>
<path d="M16.7812 9.06434C16.5008 8.83066 16.2651 8.55995 16.0449 8.26981C16.0285 8.24823 15.9924 8.26627 16.0069 8.29139C16.194 8.61422 16.4413 8.87994 16.7279 9.11761C16.7648 9.14826 16.8184 9.09543 16.7812 9.06434Z" fill="white"/>
<path d="M19.9903 9.685C20.3657 9.4148 20.6693 9.03037 20.9391 8.65844C20.9698 8.61603 20.8991 8.57686 20.8683 8.61833C20.5921 8.9907 20.2639 9.29514 19.951 9.63342C19.9274 9.65909 19.9591 9.70753 19.9903 9.685Z" fill="white"/>
<path d="M19.2222 11.1652C19.5581 10.9966 19.8853 10.8168 20.2123 10.6316C20.288 10.5886 20.2196 10.469 20.1457 10.5143C19.825 10.7113 19.5092 10.911 19.1987 11.1238C19.1736 11.141 19.1945 11.179 19.2222 11.1652Z" fill="white"/>
<path d="M18.8275 4.00232C18.3597 4.48583 18.2551 5.28374 18.7112 5.8098C18.7278 5.82894 18.7567 5.80467 18.7456 5.78359C18.4521 5.22872 18.4513 4.5393 18.8751 4.04997C18.9032 4.01757 18.858 3.97083 18.8275 4.00232Z" fill="white"/>
<path d="M17.9364 6.57844C17.9247 6.56638 17.9076 6.58417 17.9181 6.59668C18.2872 7.03219 18.8572 7.21957 19.4163 7.14238C19.4251 7.14113 19.4232 7.12568 19.4143 7.12678C18.8448 7.19635 18.3316 6.98635 17.9364 6.57844Z" fill="white"/>
<path d="M16.6707 4.72239C16.409 5.70729 16.668 7.25811 17.9431 7.30795C17.9908 7.30979 17.9895 7.23838 17.9431 7.2346C17.3667 7.18785 16.9535 6.72827 16.7919 6.19692C16.6465 5.71905 16.7245 5.21935 16.7311 4.73022C16.7316 4.69518 16.6796 4.68861 16.6707 4.72239Z" fill="white"/>
<path d="M17.1146 5.09844C17.147 4.8086 17.1977 4.52359 17.2738 4.25004C17.156 4.90393 17.2711 5.59739 17.5808 6.19886C17.6145 6.26419 17.7096 6.20808 17.6791 6.14304C17.2489 5.22408 17.3153 4.19568 17.7204 3.28065C17.7244 3.27168 17.724 3.26336 17.7211 3.25638C17.8867 3.01378 18.0928 2.79401 18.3492 2.60533C18.3782 2.58395 18.3524 2.53476 18.3208 2.55535C17.4896 3.09745 16.8377 4.08265 17.0152 5.11125C17.0258 5.17235 17.1088 5.15072 17.1146 5.09844Z" fill="white"/>
</svg>
