<svg width="35" height="35" viewBox="0 0 35 35" fill="none" xmlns="http://www.w3.org/2000/svg">
<path d="M2.44387 9.01119C2.53799 9.0105 2.53799 9.0105 2.63401 9.0098C2.73672 9.01025 2.73672 9.01025 2.84151 9.0107C2.95116 9.01025 2.95116 9.01025 3.06303 9.00979C3.30857 9.00897 3.5541 9.00929 3.79965 9.0096C3.97547 9.00926 4.15129 9.00885 4.32712 9.00838C4.80525 9.00733 5.28338 9.00728 5.76151 9.00748C6.1606 9.00757 6.55969 9.00718 6.95878 9.0068C7.95441 9.00588 8.95004 9.00595 9.94566 9.00645C10.8095 9.00686 11.6733 9.00598 12.5372 9.00448C13.4246 9.00295 14.3121 9.00232 15.1996 9.0026C15.6976 9.00274 16.1957 9.00253 16.6937 9.00144C17.1624 9.00045 17.631 9.0006 18.0996 9.00163C18.2714 9.00181 18.4432 9.0016 18.615 9.00095C18.85 9.00012 19.0849 9.00076 19.3199 9.00176C19.3875 9.00118 19.4551 9.0006 19.5248 9C20.0464 9.00464 20.5635 9.08036 20.978 9.41736C21.0195 9.47026 21.061 9.52316 21.1038 9.57766C21.1682 9.6567 21.1682 9.6567 21.234 9.73734C21.4819 10.0952 21.5221 10.3355 21.5215 10.7769C21.5217 10.8622 21.5217 10.8622 21.5219 10.9492C21.5222 11.1398 21.5213 11.3304 21.5205 11.521C21.5204 11.6576 21.5204 11.7942 21.5205 11.9309C21.5206 12.3019 21.5196 12.6729 21.5185 13.0439C21.5176 13.4316 21.5175 13.8192 21.5173 14.2069C21.5168 14.9411 21.5155 15.6753 21.5139 16.4095C21.5118 17.4016 21.511 18.3936 21.5101 19.3857C21.5086 20.9488 21.5054 22.512 21.5026 24.0752C18.2536 24.0752 15.0045 24.0752 11.6571 24.0752C11.6051 23.6333 11.5531 23.1914 11.4995 22.7362C11.2076 21.6807 10.5592 20.8069 9.61813 20.2351C8.6341 19.7122 7.5627 19.5646 6.47834 19.8711C5.43324 20.236 4.59532 20.8787 4.09573 21.8796C3.73924 22.657 3.69215 23.1781 3.62314 24.0752C2.42751 24.0752 1.23187 24.0752 0 24.0752C0 22.4999 0 22.4999 0.261521 22.1537C0.39382 22.0273 0.39382 22.0273 0.634888 21.8897C0.816123 21.7371 0.862371 21.6535 0.909838 21.4182C0.925724 21.1304 0.926338 20.8458 0.922285 20.5576C0.922412 20.4468 0.922752 20.336 0.923288 20.2253C0.923998 19.987 0.923233 19.7488 0.921327 19.5106C0.918343 19.1335 0.918788 18.7565 0.919715 18.3794C0.921042 17.6467 0.918831 16.9141 0.916295 16.1814C0.913265 15.2496 0.911998 14.3179 0.913555 13.3861C0.914068 13.0117 0.912949 12.6373 0.910526 12.2628C0.909312 12.0293 0.909391 11.7958 0.909797 11.5623C0.909674 11.4033 0.907975 11.2443 0.90622 11.0853C0.908974 10.4465 0.965212 9.99647 1.40052 9.50197C1.4452 9.46684 1.48987 9.43171 1.5359 9.39552C1.58057 9.35917 1.62525 9.32282 1.67127 9.28537C1.92763 9.10884 2.12991 9.01159 2.44387 9.01119Z" fill="#C18539"/>
<path d="M22.4453 10.8438C27.1285 10.8438 27.1285 10.8438 27.6519 11.3047C27.6915 11.3537 27.7312 11.4028 27.772 11.4532C27.8169 11.5082 27.8618 11.5632 27.9081 11.6199C28.113 11.8873 28.3114 12.1582 28.5052 12.4338C28.8954 12.9818 29.2967 13.5198 29.7064 14.0534C30.1075 14.576 30.502 15.1017 30.8796 15.6417C31.138 16.0105 31.267 16.1329 31.7099 16.2243C32.1545 16.3301 32.4786 16.4784 32.8422 16.751C32.9234 16.8079 33.0046 16.8648 33.0883 16.9233C33.4726 17.2561 33.7382 17.7288 33.8562 18.218C33.8595 18.2798 33.8627 18.3415 33.8661 18.4051C33.7962 18.4139 33.7962 18.4139 33.7249 18.4229C33.4027 18.4766 33.1455 18.5252 32.916 18.7694C32.7156 19.1185 32.7066 19.2679 32.7634 19.6653C32.9047 19.8866 33.0012 20.0205 33.236 20.1379C33.3702 20.1557 33.5048 20.1701 33.6396 20.1822C33.7472 20.1921 33.7472 20.1921 33.8569 20.2022C33.9119 20.207 33.9669 20.2117 34.0236 20.2167C34.0238 20.3154 34.024 20.414 34.0242 20.5157C34.0272 20.6458 34.0303 20.7758 34.0335 20.9058C34.0333 20.9708 34.0331 21.0358 34.0328 21.1028C34.0389 21.2909 34.0502 21.4534 34.1024 21.6344C34.3216 21.8262 34.3216 21.8262 34.575 21.9495C35.1561 22.5469 34.9688 23.2575 34.9688 24.0761C33.9291 24.0761 32.8894 24.0761 31.8182 24.0761C31.7792 23.4913 31.7792 23.4913 31.7395 22.8946C31.471 21.7983 30.881 20.9142 29.9279 20.2954C29.009 19.7441 27.9924 19.5962 26.937 19.7862C26.7459 19.8403 26.5666 19.9038 26.3835 19.9804C26.3307 20.0014 26.2779 20.0224 26.2235 20.0441C25.2687 20.4703 24.5389 21.2584 24.1437 22.2202C23.9855 22.6508 23.9239 23.0473 23.8975 23.5051C23.8862 23.6935 23.8748 23.8819 23.8631 24.0761C23.3952 24.0761 22.9273 24.0761 22.4453 24.0761C22.4453 19.7094 22.4453 15.3427 22.4453 10.8438Z" fill="#C18539"/>
<path d="M9.39453 21.1125C10.0653 21.5744 10.4817 22.256 10.6898 23.0364C10.6963 23.1192 10.7028 23.2021 10.7095 23.2874C10.7183 23.3879 10.7183 23.3879 10.7274 23.4905C10.7685 24.3166 10.5133 25.1035 9.98433 25.7466C9.28185 26.443 8.48454 26.7357 7.50973 26.7826C6.68003 26.7733 5.93818 26.3855 5.35356 25.8079C5.16749 25.5843 5.01997 25.3542 4.88098 25.099C4.84839 25.0409 4.8158 24.9828 4.78222 24.923C4.43992 24.2122 4.44781 23.3269 4.68899 22.5835C5.04946 21.7428 5.69927 21.093 6.53995 20.7325C7.5493 20.4074 8.4977 20.5729 9.39453 21.1125Z" fill="#C18539"/>
<path d="M29.2414 20.8598C30.0079 21.3387 30.551 21.9355 30.8441 22.7979C31.0006 23.6823 30.9221 24.5799 30.4531 25.3531C30.3396 25.5149 30.22 25.6609 30.0872 25.8072C30.0496 25.8491 30.0119 25.8911 29.9731 25.9343C29.4127 26.4805 28.6312 26.7791 27.8572 26.7967C26.9305 26.7502 26.1293 26.3841 25.4894 25.7038C24.8064 24.887 24.7423 23.9967 24.8101 22.9717C24.946 22.1355 25.5616 21.4848 26.2278 21.0026C27.0992 20.4855 28.3237 20.378 29.2414 20.8598Z" fill="#C18539"/>
<path d="M11.1078 10.3711C11.3863 10.4133 11.3863 10.4133 11.5016 10.5286C11.5073 10.714 11.5082 10.8995 11.5065 11.0849C11.5058 11.1865 11.5051 11.2882 11.5044 11.3929C11.5034 11.4716 11.5025 11.5502 11.5016 11.6313C11.5832 11.5792 11.6649 11.5271 11.749 11.4735C11.8568 11.4063 11.9647 11.3391 12.0726 11.272C12.1532 11.2203 12.1532 11.2203 12.2354 11.1675C12.3138 11.1191 12.3138 11.1191 12.3938 11.0698C12.4656 11.0247 12.4656 11.0247 12.5388 10.9786C12.7208 10.9077 12.8169 10.9381 12.9981 11.0012C13.0371 11.1961 13.0371 11.1961 13.0769 11.395C12.9607 11.4792 12.8441 11.5627 12.7274 11.6461C12.6625 11.6927 12.5976 11.7393 12.5308 11.7873C12.2892 11.9464 12.2892 11.9464 12.1066 12.0175C11.8959 12.106 11.7467 12.1824 11.5804 12.3402C11.4804 12.6766 11.4883 13.0006 11.4967 13.3494C11.4961 13.4415 11.4955 13.5336 11.495 13.6286C11.494 13.8557 11.4964 14.0823 11.5016 14.3093C11.5485 14.2807 11.5954 14.252 11.6437 14.2225C11.8554 14.0936 12.0674 13.9651 12.2794 13.8367C12.3532 13.7916 12.427 13.7465 12.5031 13.7001C12.5736 13.6575 12.6442 13.6148 12.7169 13.5709C12.7821 13.5313 12.8472 13.4917 12.9144 13.4509C13.0769 13.3641 13.0769 13.3641 13.2344 13.3641C13.2336 13.3101 13.2327 13.256 13.2319 13.2003C13.2286 12.9563 13.2266 12.7122 13.2246 12.4682C13.2232 12.3831 13.2219 12.298 13.2206 12.2104C13.22 12.1291 13.2195 12.0479 13.219 11.9642C13.2182 11.8891 13.2174 11.8141 13.2165 11.7367C13.2344 11.5526 13.2344 11.5526 13.3919 11.395C13.7507 11.4388 13.7507 11.4388 13.8645 11.5526C13.8832 11.7777 13.8978 12.0014 13.9088 12.227C13.9122 12.2905 13.9156 12.354 13.9191 12.4194C13.9275 12.5768 13.9354 12.7342 13.9433 12.8915C13.9842 12.8631 14.0251 12.8347 14.0673 12.8054C14.5167 12.5064 14.5167 12.5064 14.7998 12.4633C14.9672 12.4977 14.9672 12.4977 15.1247 12.6552C15.1201 12.8042 15.1201 12.8042 15.046 12.9703C14.7981 13.1788 14.5295 13.3432 14.2583 13.5217C14.6222 13.7296 14.9861 13.9375 15.361 14.1518C15.361 14.2817 15.361 14.4117 15.361 14.5456C15.335 14.5716 15.309 14.5976 15.2823 14.6243C14.763 14.5951 14.4468 14.3994 14.0279 14.1218C13.7528 13.9472 13.7528 13.9472 13.4384 13.9527C13.3711 13.9924 13.3038 14.0321 13.2344 14.073C13.1297 14.1298 13.025 14.1867 12.9203 14.2435C12.8066 14.3078 12.6931 14.3724 12.5797 14.4373C12.5213 14.4704 12.463 14.5035 12.4029 14.5376C12.2599 14.6188 12.117 14.7003 11.9742 14.7819C12.2742 15.033 12.5836 15.2428 12.9193 15.4415C12.9669 15.4715 13.0144 15.5014 13.0633 15.5323C13.2833 15.6619 13.4149 15.7391 13.6701 15.684C13.7342 15.6462 13.7984 15.6084 13.8645 15.5695C13.9465 15.5246 14.0286 15.4798 14.1131 15.4335C14.2889 15.3337 14.4644 15.2336 14.6398 15.1332C14.8837 15.0204 15.0187 14.9847 15.2823 15.0182C15.361 15.0969 15.361 15.0969 15.3893 15.2834C15.361 15.4908 15.361 15.4908 15.1998 15.6243C15.1295 15.6614 15.0593 15.6986 14.9869 15.7369C14.7279 15.877 14.4897 16.0169 14.2583 16.1996C14.3143 16.2292 14.3702 16.2587 14.4279 16.2892C14.5002 16.3295 14.5726 16.3698 14.6472 16.4113C14.7194 16.4506 14.7916 16.4899 14.866 16.5304C15.046 16.6722 15.046 16.6722 15.1152 16.8805C15.1183 16.9417 15.1215 17.003 15.1247 17.066C15.046 17.1448 15.046 17.1448 14.8491 17.1743C14.4635 17.133 14.1896 16.9533 13.8645 16.751C13.8663 16.8458 13.8682 16.9406 13.87 17.0383C13.8715 17.1624 13.873 17.2865 13.8744 17.4106C13.8757 17.4732 13.877 17.5357 13.8784 17.6001C13.8797 17.7635 13.8726 17.9268 13.8645 18.09C13.8125 18.1419 13.7605 18.1939 13.707 18.2475C13.3482 18.2037 13.3482 18.2037 13.2344 18.09C13.2275 17.9555 13.226 17.8207 13.2267 17.686C13.2271 17.5638 13.2271 17.5638 13.2275 17.4391C13.2285 17.3105 13.2285 17.3105 13.2295 17.1793C13.2298 17.0932 13.2302 17.0072 13.2306 16.9185C13.2315 16.7051 13.2328 16.4918 13.2344 16.2784C13.1692 16.2599 13.104 16.2414 13.0369 16.2224C12.7111 16.1021 12.4356 15.9389 12.1415 15.7566C11.9564 15.6429 11.7712 15.5291 11.5804 15.412C11.5804 16.0618 11.5804 16.7116 11.5804 17.3811C11.7103 17.4331 11.8403 17.4851 11.9742 17.5386C12.1546 17.6355 12.3302 17.7341 12.5058 17.8389C12.5522 17.8649 12.5986 17.891 12.6464 17.9178C12.8671 18.05 12.9843 18.133 13.0781 18.3764C13.0769 18.5625 13.0769 18.5625 12.9193 18.7201C12.6053 18.694 12.386 18.5751 12.1219 18.4099C12.055 18.3686 11.9882 18.3273 11.9194 18.2847C11.7791 18.1951 11.6401 18.1035 11.5016 18.0112C11.5034 18.089 11.5052 18.1667 11.5071 18.2469C11.5085 18.3478 11.51 18.4487 11.5114 18.5527C11.5133 18.6532 11.5151 18.7537 11.517 18.8573C11.5016 19.1139 11.5016 19.1139 11.3441 19.2714C11.0656 19.2292 11.0656 19.2292 10.9502 19.1139C10.9317 18.942 10.9177 18.7695 10.9059 18.597C10.8993 18.5027 10.8927 18.4084 10.8859 18.3112C10.8812 18.2382 10.8764 18.1652 10.8715 18.09C10.8021 18.1364 10.7328 18.1828 10.6613 18.2306C10.569 18.2904 10.4766 18.3502 10.3841 18.4099C10.3386 18.4407 10.2931 18.4714 10.2461 18.503C10.0197 18.6475 9.88895 18.7237 9.6171 18.7001C9.56319 18.6807 9.50927 18.6613 9.45373 18.6413C9.42773 18.5114 9.40174 18.3814 9.37496 18.2475C9.55049 18.1342 9.72608 18.021 9.9017 17.9078C9.95099 17.876 10.0003 17.8442 10.0511 17.8114C10.0996 17.7801 10.148 17.7489 10.198 17.7168C10.2642 17.6741 10.2642 17.6741 10.3317 17.6305C10.4777 17.5386 10.4777 17.5386 10.6896 17.4366C10.8908 17.3188 10.8908 17.3188 10.9162 17.102C10.9141 17.024 10.9121 16.9461 10.9099 16.8657C10.9087 16.7812 10.9074 16.6967 10.9061 16.6096C10.9028 16.5214 10.8995 16.4332 10.8961 16.3424C10.8934 16.2087 10.8934 16.2087 10.8907 16.0724C10.8861 15.8522 10.8796 15.6321 10.8715 15.412C10.3082 15.6448 9.71125 15.8987 9.2962 16.3572C9.10716 16.8601 9.15722 17.4027 9.21755 17.928C9.21743 18.09 9.21743 18.09 9.05991 18.2475C8.70109 18.2037 8.70109 18.2037 8.58732 18.09C8.58155 17.8645 8.58005 17.641 8.5824 17.4155C8.58275 17.352 8.58311 17.2885 8.58348 17.2231C8.58441 17.0657 8.58582 16.9083 8.58732 16.751C8.54072 16.7794 8.49412 16.8078 8.4461 16.8371C8.35274 16.892 8.35274 16.892 8.2575 16.9479C8.16566 17.0027 8.16566 17.0027 8.07197 17.0586C7.85583 17.1549 7.71859 17.1731 7.48463 17.1448C7.43264 17.0928 7.38066 17.0408 7.3271 16.9873C7.33171 16.8359 7.33171 16.8359 7.40586 16.6722C7.58585 16.5381 7.58585 16.5381 7.8046 16.4162C7.91319 16.3547 7.91319 16.3547 8.02397 16.2919C8.07992 16.2615 8.13586 16.231 8.1935 16.1996C7.89946 15.9674 7.58242 15.799 7.25203 15.6243C7.09081 15.4908 7.09081 15.4908 7.0625 15.2834C7.09081 15.0969 7.09081 15.0969 7.16957 15.0182C7.68855 15.0481 8.00767 15.2432 8.43087 15.5138C8.68483 15.6821 8.68483 15.6821 8.9767 15.7069C9.15267 15.6432 9.30177 15.5644 9.46234 15.4683C9.52174 15.433 9.58113 15.3977 9.64233 15.3614C9.70355 15.3245 9.76478 15.2876 9.82785 15.2495C9.8903 15.2123 9.95274 15.1751 10.0171 15.1368C10.1708 15.0451 10.3243 14.953 10.4777 14.8606C10.1776 14.6095 9.8682 14.3997 9.53249 14.201C9.48497 14.171 9.43746 14.1411 9.3885 14.1102C9.17105 13.9821 9.03727 13.904 8.78454 13.9558C8.68692 14.0138 8.68692 14.0138 8.58732 14.073C8.49868 14.1245 8.41005 14.176 8.31872 14.229C8.17351 14.3162 8.02887 14.4042 7.88506 14.4937C7.52753 14.7067 7.52753 14.7067 7.29787 14.6874C7.16957 14.6243 7.16957 14.6243 7.09081 14.5456C7.09081 14.4156 7.09081 14.2857 7.09081 14.1518C7.4547 13.9438 7.81859 13.7359 8.1935 13.5217C7.90759 13.3137 7.62168 13.1058 7.3271 12.8915C7.40586 12.5765 7.40586 12.5765 7.48463 12.4977C7.80348 12.4669 7.98517 12.532 8.2575 12.6946C8.35086 12.7495 8.35086 12.7495 8.4461 12.8054C8.4927 12.8338 8.53931 12.8623 8.58732 12.8915C8.58549 12.7967 8.58367 12.7019 8.58178 12.6042C8.58031 12.4801 8.57887 12.356 8.57748 12.2319C8.57616 12.1693 8.57484 12.1068 8.57348 12.0424C8.57209 11.879 8.57918 11.7157 8.58732 11.5526C8.63931 11.5006 8.69129 11.4486 8.74485 11.395C9.10366 11.4388 9.10366 11.4388 9.21743 11.5526C9.2243 11.6871 9.22586 11.8218 9.22513 11.9565C9.22487 12.038 9.22462 12.1195 9.22436 12.2034C9.2237 12.2892 9.22304 12.3749 9.22236 12.4633C9.222 12.5493 9.22165 12.6354 9.22128 12.724C9.22035 12.9374 9.21905 13.1508 9.21743 13.3641C9.28719 13.3853 9.35694 13.4066 9.4288 13.4284C9.67336 13.5157 9.86915 13.6162 10.0888 13.753C10.153 13.7927 10.2173 13.8324 10.2835 13.8733C10.3476 13.9132 10.4116 13.9531 10.4777 13.9942C10.6088 14.0732 10.74 14.152 10.8715 14.2305C10.9586 13.6117 11.052 12.9478 10.8715 12.3402C10.5801 11.9847 10.184 11.8172 9.77155 11.6353C9.46528 11.4994 9.46528 11.4994 9.35989 11.2655C9.37496 11.08 9.37496 11.08 9.53249 10.9224C9.89476 10.9424 10.1662 11.1297 10.4629 11.3212C10.5335 11.3657 10.5335 11.3657 10.6055 11.4112C10.7208 11.484 10.8355 11.5576 10.9502 11.6313C10.9484 11.5535 10.9466 11.4758 10.9447 11.3956C10.9433 11.2947 10.9419 11.1938 10.9404 11.0898C10.9386 10.9893 10.9367 10.8888 10.9349 10.7852C10.9502 10.5286 10.9502 10.5286 11.1078 10.3711Z" fill="#F3F3F3"/>
<path d="M24.3359 11.8658C24.7258 11.8495 25.1157 11.8333 25.5174 11.8165C25.6391 11.8094 25.7609 11.8022 25.8863 11.7948C26.6646 11.7791 26.6646 11.7791 26.9786 12.0198C27.1422 12.2228 27.2753 12.4292 27.4077 12.6534C27.4944 12.7716 27.5823 12.8889 27.6717 13.0051C27.7578 13.1224 27.8438 13.2398 27.9295 13.3573C28.0245 13.487 28.1195 13.6166 28.2144 13.7462C28.2628 13.8122 28.3111 13.8782 28.3608 13.9462C28.5135 14.1542 28.6672 14.3613 28.8212 14.5683C28.8714 14.636 28.9216 14.7036 28.9733 14.7733C29.0697 14.9032 29.1664 15.033 29.2632 15.1626C29.3068 15.2214 29.3504 15.2803 29.3953 15.3409C29.4336 15.3924 29.472 15.4439 29.5115 15.497C29.6131 15.6464 29.6131 15.6464 29.7707 15.9615C27.9772 15.9615 26.1837 15.9615 24.3359 15.9615C24.3359 14.6099 24.3359 13.2583 24.3359 11.8658Z" fill="#FDFDFD"/>
<path d="M28.6837 22.2366C29.0258 22.4837 29.3004 22.8169 29.4599 23.2085C29.5341 23.7638 29.4829 24.2488 29.1449 24.705C28.7678 25.1003 28.4137 25.2802 27.8699 25.2958C27.3366 25.2874 27.0095 25.1497 26.6244 24.7838C26.2632 24.3732 26.1973 23.945 26.2035 23.4131C26.2625 22.9675 26.5325 22.6436 26.8607 22.352C27.4416 21.9405 28.054 21.8834 28.6837 22.2366Z" fill="#F3F3F3"/>
<path d="M8.43388 22.2317C8.75148 22.4649 9.03878 22.7769 9.21567 23.1307C9.26745 23.7376 9.28795 24.2193 8.90061 24.706C8.48996 25.1157 8.2071 25.269 7.61578 25.2819C7.09824 25.2762 6.85367 25.1847 6.48939 24.8124C6.10643 24.3938 5.94589 24.0442 5.96204 23.4722C6.03088 22.9511 6.31144 22.5951 6.71768 22.2791C7.25029 21.9102 7.87445 21.92 8.43388 22.2317Z" fill="#F2F2F2"/>
<path d="M28.0418 22.6576C28.4058 22.7932 28.6337 22.949 28.8294 23.2877C28.8783 23.7274 28.8468 24.0142 28.5931 24.3904C28.295 24.6614 27.9854 24.6668 27.5987 24.6547C27.3294 24.6144 27.1968 24.513 27.0178 24.3116C26.8214 23.9775 26.7945 23.6674 26.8603 23.2877C27.1336 22.7906 27.4872 22.6106 28.0418 22.6576Z" fill="#C18539"/>
<path d="M7.95564 22.6567C8.28405 22.7954 8.44959 22.9572 8.58575 23.2868C8.64292 23.664 8.62231 23.9239 8.44791 24.2665C8.23748 24.5061 8.08324 24.5997 7.77196 24.6634C7.46551 24.6817 7.25325 24.6841 6.99416 24.5071C6.75097 24.2545 6.58386 24.0278 6.5625 23.6708C6.63692 23.2514 6.78312 23.0168 7.10893 22.7453C7.40001 22.6262 7.64541 22.6108 7.95564 22.6567Z" fill="#C18539"/>
<path d="M25.4825 16.9609C25.5583 16.9596 25.6342 16.9583 25.7123 16.957C25.7851 16.957 25.8579 16.9569 25.9329 16.9569C26.0328 16.9565 26.0328 16.9565 26.1346 16.9562C26.3488 16.9921 26.4182 17.0483 26.5458 17.2218C26.5963 17.626 26.5963 17.626 26.4492 17.8252C26.1755 18.0319 25.8174 17.9676 25.4874 17.9651C25.3746 17.9675 25.3746 17.9675 25.2596 17.9699C24.712 17.9695 24.712 17.9695 24.4456 17.7864C24.3404 17.6156 24.3404 17.6156 24.3453 17.3695C24.5165 16.8445 25.0238 16.9593 25.4825 16.9609Z" fill="#F3F3F3"/>
<path d="M10.9485 15.332C10.9485 15.9818 10.9485 16.6316 10.9485 17.3011C10.8705 17.3011 10.7926 17.3011 10.7122 17.3011C10.7122 16.7553 10.7122 16.2095 10.7122 15.6471C10.6602 15.6211 10.6082 15.5951 10.5547 15.5683C10.8599 15.332 10.8599 15.332 10.9485 15.332Z" fill="#C18539"/>
<path d="M10.791 12.3398C10.843 12.3398 10.8949 12.3398 10.9485 12.3398C10.9485 12.9896 10.9485 13.6394 10.9485 14.3089C10.8185 14.231 10.6886 14.153 10.5547 14.0727C10.6067 14.0467 10.6587 14.0207 10.7122 13.9939C10.7382 13.4481 10.7642 12.9022 10.791 12.3398Z" fill="#C18539"/>
<path d="M14.5735 13.2852C14.5799 13.3327 14.5863 13.3802 14.5929 13.4291C14.6709 13.6539 14.7684 13.7003 14.9723 13.8168C15.03 13.8505 15.0878 13.8842 15.1473 13.919C15.1919 13.9437 15.2365 13.9685 15.2824 13.994C15.2044 14.033 15.2044 14.033 15.1249 14.0728C14.9027 13.9599 14.9027 13.9599 14.6424 13.802C14.5561 13.7502 14.4698 13.6983 14.3809 13.6448C14.3145 13.6041 14.2481 13.5634 14.1797 13.5214C14.3963 13.2852 14.3963 13.2852 14.5735 13.2852Z" fill="#C18539"/>
<path d="M6.21875 24.5469C6.3747 24.6768 6.53066 24.8068 6.69133 24.9407C6.66534 25.0187 6.63935 25.0966 6.61257 25.177C6.21875 24.7241 6.21875 24.7241 6.21875 24.5469Z" fill="#C18539"/>
<path d="M21.2689 10.1328C21.3469 10.1588 21.4248 10.1848 21.5052 10.2116C21.5052 10.3675 21.5052 10.5235 21.5052 10.6842C21.4272 10.6322 21.3492 10.5802 21.2689 10.5266C21.2541 10.3199 21.2541 10.3199 21.2689 10.1328Z" fill="#C18539"/>
</svg>
