<svg width="36" height="35" viewBox="0 0 36 35" fill="none" xmlns="http://www.w3.org/2000/svg">
<path d="M32.6035 9.70703C32.6191 11.7727 32.6312 13.8383 32.6384 15.904C32.6393 16.1479 32.6402 16.3917 32.6411 16.6356C32.6412 16.6841 32.6414 16.7327 32.6416 16.7827C32.6446 17.5689 32.65 18.355 32.6563 19.1411C32.6626 19.9477 32.6664 20.7543 32.6678 21.5609C32.6687 22.014 32.6708 22.4671 32.6758 22.9201C32.6804 23.3465 32.6819 23.7727 32.6808 24.1991C32.681 24.3557 32.6824 24.5122 32.685 24.6688C32.7039 25.855 32.7039 25.855 32.454 26.1577C32.2758 26.2671 32.1203 26.3299 31.9199 26.3867C31.8456 26.4281 31.7714 26.4696 31.6948 26.5122C31.6295 26.5469 31.5642 26.5817 31.4969 26.6174C31.3844 26.6775 31.3844 26.6775 31.2696 26.7387C31.1909 26.7805 31.1123 26.8222 31.0312 26.8652C30.9471 26.9101 30.8629 26.955 30.7787 26.9999C30.6492 27.069 30.5196 27.1382 30.39 27.2073C29.9566 27.4382 29.5239 27.6706 29.0916 27.9034C29.0181 27.943 28.9447 27.9825 28.8691 28.0232C28.3428 28.3069 27.8178 28.5928 27.2932 28.8795C26.4376 29.3468 25.5782 29.8073 24.7195 30.2689C23.8901 30.7148 23.0615 31.1618 22.2353 31.6136C21.676 31.9191 21.1149 32.2213 20.5533 32.5225C20.184 32.7209 19.8156 32.9207 19.4489 33.1239C19.3797 33.1621 19.3104 33.2003 19.2391 33.2397C19.1083 33.3122 18.9776 33.385 18.8471 33.4582C18.7891 33.4903 18.7311 33.5223 18.6713 33.5554C18.5954 33.5978 18.5954 33.5978 18.5179 33.6411C18.3848 33.7012 18.3848 33.7012 18.1797 33.7012C18.1797 28.3322 18.1797 22.9633 18.1797 17.4316C18.778 17.0898 19.3753 16.7522 19.9827 16.4276C20.1384 16.3441 20.2942 16.2605 20.45 16.1769C20.5276 16.1352 20.6052 16.0936 20.6852 16.0507C21.0354 15.8625 21.3849 15.673 21.7344 15.4834C22.3063 15.1732 22.8789 14.8644 23.4519 14.5563C23.9969 14.2632 24.541 13.9687 25.084 13.6719C25.8495 13.2534 26.6177 12.8399 27.3861 12.4268C28.3368 11.9157 29.2872 11.4041 30.2366 10.8905C30.3034 10.8544 30.3702 10.8183 30.4391 10.7811C30.7707 10.6015 31.1013 10.4204 31.4305 10.2363C31.5251 10.1835 31.5251 10.1835 31.6217 10.1297C31.7406 10.0632 31.8593 9.99638 31.9778 9.92915C32.0304 9.89982 32.0829 9.87049 32.137 9.84028C32.1828 9.81443 32.2285 9.78859 32.2757 9.76196C32.3984 9.70703 32.3984 9.70703 32.6035 9.70703Z" fill="#C18539"/>
<path d="M3.0671 9.70703C3.34798 9.7576 3.55633 9.8408 3.80811 9.97753C3.88565 10.0194 3.9632 10.0612 4.04309 10.1043C4.1265 10.1499 4.2099 10.1955 4.2933 10.2411C4.37962 10.2879 4.46596 10.3346 4.55232 10.3813C4.76913 10.4988 4.98565 10.6167 5.20208 10.7348C5.37975 10.8318 5.55764 10.9283 5.73552 11.0248C6.33647 11.3515 6.93586 11.681 7.53516 12.0106C7.6303 12.063 7.6303 12.063 7.72736 12.1163C7.88293 12.2019 8.03849 12.2875 8.19405 12.373C8.19511 12.4959 8.19511 12.4959 8.19619 12.6213C8.20286 13.3918 8.20988 14.1624 8.21725 14.9329C8.22103 15.3291 8.22468 15.7252 8.22805 16.1214C8.23131 16.5035 8.23488 16.8856 8.23869 17.2676C8.24009 17.4137 8.24137 17.5597 8.24253 17.7057C8.24417 17.9097 8.24622 18.1137 8.24838 18.3176C8.24877 18.3785 8.24917 18.4394 8.24957 18.5021C8.24451 18.7965 8.24451 18.7965 8.33077 19.0723C8.77712 19.1074 9.1277 18.9804 9.54415 18.8287C9.67177 18.7825 9.79958 18.7368 9.92761 18.6917C9.98363 18.6713 10.0396 18.6509 10.0974 18.6299C10.2448 18.5938 10.2448 18.5938 10.4499 18.6621C10.5693 18.8194 10.6792 18.976 10.7874 19.1406C10.8543 19.24 10.9212 19.3393 10.9882 19.4386C11.0231 19.4905 11.0579 19.5423 11.0937 19.5958C11.2735 19.862 11.4574 20.1253 11.6419 20.3882C11.6758 20.437 11.7097 20.4858 11.7446 20.5361C11.991 20.8892 11.991 20.8892 12.2956 21.1914C12.4788 21.1924 12.4788 21.1924 12.6374 21.123C12.7484 20.901 12.7181 20.6565 12.7198 20.4123C12.7205 20.353 12.7212 20.2936 12.7219 20.2324C12.724 20.0357 12.7257 19.8389 12.7274 19.6421C12.7288 19.5059 12.7302 19.3697 12.7317 19.2335C12.7355 18.8745 12.7389 18.5156 12.7422 18.1566C12.7456 17.7905 12.7494 17.4244 12.7532 17.0583C12.7605 16.3397 12.7675 15.621 12.7741 14.9023C13.0031 14.9927 13.2221 15.0892 13.4404 15.203C13.5025 15.2354 13.5646 15.2677 13.6286 15.3011C13.6949 15.3358 13.7611 15.3706 13.8294 15.4065C13.8988 15.4428 13.9681 15.4791 14.0395 15.5165C14.7616 15.8958 15.4778 16.2859 16.1921 16.6797C16.2832 16.7298 16.2832 16.7298 16.3761 16.7809C16.5498 16.8766 16.7235 16.9725 16.8971 17.0685C16.9494 17.0974 17.0017 17.1262 17.0556 17.156C17.4145 17.3552 17.4145 17.3552 17.4909 17.4316C17.4976 17.6408 17.4998 17.8484 17.4992 18.0575C17.4992 18.1573 17.4992 18.1573 17.4993 18.259C17.4994 18.4836 17.4991 18.7083 17.4987 18.9329C17.4987 19.0932 17.4987 19.2535 17.4987 19.4138C17.4987 19.8505 17.4983 20.2872 17.4979 20.7239C17.4975 21.1335 17.4974 21.5432 17.4973 21.9529C17.4972 22.7646 17.4967 23.5762 17.4961 24.3879C17.4955 25.1765 17.495 25.9652 17.4947 26.7538C17.4947 26.8024 17.4946 26.851 17.4946 26.901C17.4945 27.1447 17.4945 27.3884 17.4944 27.6321C17.4937 29.6551 17.4925 31.6782 17.4909 33.7012C17.2252 33.6528 17.0271 33.5807 16.7894 33.4504C16.7195 33.4124 16.6496 33.3744 16.5775 33.3352C16.465 33.2731 16.465 33.2731 16.3502 33.2098C16.2304 33.1445 16.1106 33.0792 15.9908 33.014C15.8666 32.9462 15.7424 32.8783 15.6183 32.8103C15.2354 32.601 14.8506 32.3951 14.466 32.1887C13.8626 31.8641 13.2605 31.5371 12.6592 31.2084C11.8792 30.7824 11.096 30.3622 10.3132 29.9414C9.40767 29.4547 8.50267 28.9671 7.60058 28.474C7.12143 28.2123 6.64113 27.9528 6.16036 27.6941C6.08698 27.6546 6.0136 27.6151 5.938 27.5744C5.58726 27.3856 5.23636 27.1972 4.88507 27.0095C4.76243 26.9439 4.63984 26.8783 4.51727 26.8126C4.36324 26.7301 4.20913 26.6478 4.05491 26.5657C3.95032 26.5096 3.95032 26.5096 3.84362 26.4524C3.78262 26.4198 3.72162 26.3873 3.65877 26.3537C3.59887 26.3195 3.53897 26.2853 3.47726 26.25C3.40686 26.2162 3.33645 26.1823 3.26392 26.1475C3.05256 25.9639 3.03801 25.9479 3.01663 25.6888C3.01491 25.5679 3.01547 25.4469 3.01778 25.326C3.01743 25.2594 3.01708 25.1927 3.01672 25.124C3.01604 24.9 3.0183 24.6761 3.02054 24.452C3.02065 24.2917 3.02059 24.1314 3.02036 23.971C3.02024 23.5352 3.02265 23.0994 3.02551 22.6635C3.02782 22.2544 3.02823 21.8452 3.02865 21.4361C3.02955 20.6257 3.03228 19.8153 3.03616 19.0048C3.03992 18.2176 3.04283 17.4304 3.04457 16.6431C3.04468 16.5946 3.04479 16.5461 3.0449 16.4961C3.04543 16.2526 3.04595 16.0092 3.04646 15.7657C3.05071 13.7462 3.05797 11.7266 3.0671 9.70703ZM4.44711 23.3917C4.35736 23.5155 4.35736 23.5155 4.31893 23.678C4.38352 23.9246 4.52738 23.9742 4.73768 24.0998C5.0483 24.2762 5.36272 24.4451 5.6783 24.6124C5.8476 24.7022 6.01666 24.7924 6.18574 24.8826C6.27254 24.9289 6.35934 24.9752 6.44616 25.0214C6.86158 25.2428 7.27593 25.4662 7.6899 25.6903C7.7566 25.7263 7.8233 25.7622 7.89201 25.7993C8.20641 25.9694 8.51896 26.1417 8.82852 26.3205C8.88468 26.3527 8.94085 26.3849 8.99871 26.418C9.10226 26.4776 9.20539 26.5379 9.308 26.5991C9.58333 26.7572 9.78104 26.8449 10.1081 26.7969C10.2674 26.6662 10.2674 26.6662 10.2686 26.4407C10.2334 26.2471 10.1871 26.19 10.0301 26.0673C9.81912 25.9455 9.60478 25.8361 9.38607 25.7288C9.26377 25.666 9.14148 25.6032 9.01927 25.5402C8.89389 25.4759 8.76816 25.4122 8.64236 25.3487C8.28415 25.1659 7.93159 24.9733 7.57882 24.7803C7.44561 24.7079 7.31236 24.6357 7.17908 24.5634C7.11166 24.5269 7.04423 24.4904 6.97477 24.4528C6.73779 24.3247 6.50052 24.1973 6.26317 24.07C6.18035 24.0255 6.09752 23.9811 6.0147 23.9366C5.85509 23.8509 5.69539 23.7654 5.53565 23.68C5.46414 23.6416 5.39263 23.6032 5.31896 23.5637C5.25529 23.5296 5.19163 23.4955 5.12604 23.4604C4.98116 23.3789 4.98116 23.3789 4.9128 23.3105C4.72075 23.2903 4.61091 23.2844 4.44711 23.3917ZM4.36593 24.8145C4.3574 25.0518 4.3574 25.0518 4.43429 25.293C4.60105 25.443 4.60105 25.443 4.82255 25.5442C4.90159 25.5853 4.98064 25.6263 5.06207 25.6685C5.14616 25.71 5.23028 25.7515 5.31442 25.7928C5.39808 25.8355 5.48166 25.8782 5.56516 25.9212C5.71844 25.9997 5.87212 26.0774 6.02628 26.1542C6.21163 26.25 6.21163 26.25 6.41671 26.3867C6.58761 26.4209 6.58761 26.4209 6.75851 26.3867C6.89589 26.2776 6.89589 26.2776 6.96359 26.1133C6.96416 25.9418 6.96416 25.9418 6.89523 25.7715C6.74096 25.6462 6.74096 25.6462 6.54168 25.5509C6.46942 25.5129 6.39716 25.4748 6.32272 25.4356C6.24658 25.397 6.17045 25.3584 6.092 25.3186C5.9428 25.2409 5.79362 25.1631 5.64446 25.0852C5.57796 25.0512 5.51145 25.0173 5.44292 24.9822C5.2546 24.8828 5.2546 24.8828 5.07296 24.769C4.81268 24.6207 4.58261 24.5978 4.36593 24.8145Z" fill="#C18539"/>
<path d="M18.1133 1.36743C18.2738 1.44028 18.425 1.51501 18.579 1.59948C18.6229 1.62295 18.6668 1.64643 18.712 1.67063C18.8546 1.74702 18.9966 1.82423 19.1387 1.90148C19.2374 1.95467 19.3362 2.00781 19.4351 2.0609C19.6795 2.19241 19.9235 2.32461 20.1674 2.45711C20.3584 2.56083 20.5496 2.66411 20.7408 2.76746C21.4641 3.15946 22.1829 3.55914 22.8984 3.96508C22.7151 4.16217 22.5471 4.29465 22.3072 4.41583C22.245 4.44772 22.1827 4.4796 22.1185 4.51246C22.0181 4.56297 22.0181 4.56297 21.9158 4.6145C21.7725 4.6879 21.6293 4.76143 21.4861 4.83506C21.4135 4.87236 21.3409 4.90966 21.2661 4.94808C20.946 5.11424 20.6296 5.28682 20.3136 5.46045C19.7666 5.76046 19.2182 6.05797 18.6687 6.35339C18.0957 6.6615 17.5231 6.97037 16.9512 7.28051C16.3793 7.59066 15.8067 7.89951 15.2336 8.20764C14.6887 8.50073 14.1445 8.79521 13.6016 9.09204C12.7606 9.55173 11.9164 10.0055 11.0723 10.4592C10.8298 10.5896 10.5874 10.7199 10.3449 10.8503C10.1935 10.9318 10.0421 11.0132 9.8906 11.0946C9.82153 11.1317 9.75247 11.1689 9.68131 11.2072C9.58282 11.2598 9.58282 11.2598 9.48234 11.3135C9.36004 11.3805 9.23899 11.45 9.11952 11.522C9.06611 11.554 9.01269 11.586 8.95766 11.6189C8.91189 11.6475 8.86612 11.676 8.81896 11.7054C8.58162 11.7951 8.40315 11.7184 8.17862 11.6196C8.12412 11.5909 8.06961 11.5621 8.01345 11.5324C7.95139 11.4999 7.88932 11.4673 7.82538 11.4338C7.75905 11.3984 7.69273 11.363 7.62439 11.3265C7.55467 11.2897 7.48495 11.2529 7.41312 11.215C6.82573 10.904 6.24209 10.5861 5.65932 10.2664C5.2005 10.015 4.73982 9.76709 4.27905 9.51928C4.20011 9.47682 4.12118 9.43436 4.03984 9.39061C3.85471 9.29105 3.66955 9.19152 3.48438 9.09204C3.66769 8.89495 3.83567 8.76247 4.07558 8.64129C4.13786 8.6094 4.20014 8.57752 4.26432 8.54466C4.36466 8.49415 4.36466 8.49415 4.46704 8.44262C4.61032 8.36922 4.75353 8.2957 4.89669 8.22206C5.00562 8.16611 5.00562 8.16611 5.11676 8.10904C5.4368 7.94288 5.75317 7.7703 6.06921 7.59668C6.61903 7.29509 7.17025 6.99627 7.72266 6.69946C8.2705 6.40498 8.81756 6.10917 9.36328 5.81079C10.2799 5.30975 11.2003 4.81574 12.1204 4.32117C12.9492 3.87559 13.7773 3.42885 14.6029 2.97741C15.1772 2.66372 15.7533 2.35351 16.3297 2.04381C16.3997 2.00618 16.4697 1.96856 16.5418 1.92979C16.61 1.89351 16.6781 1.85722 16.7483 1.81984C16.8858 1.74489 17.0218 1.6673 17.1564 1.58739C17.2217 1.54917 17.2869 1.51095 17.3541 1.47157C17.4116 1.43679 17.469 1.40202 17.5282 1.36619C17.7579 1.27804 17.8771 1.3013 18.1133 1.36743Z" fill="#C18539"/>
<path d="M27.685 6.51439C27.7509 6.55281 27.8169 6.59123 27.8848 6.63082C27.9557 6.66763 27.9557 6.66763 28.028 6.70519C28.2044 6.79676 28.3778 6.89286 28.5513 6.9897C28.6855 7.06382 28.8197 7.13787 28.9539 7.21187C29.0245 7.25082 29.095 7.28977 29.1677 7.3299C29.4711 7.49634 29.776 7.65981 30.081 7.82324C31.2255 8.43645 31.2255 8.43645 31.7513 8.73287C31.8233 8.7734 31.8953 8.81394 31.9695 8.8557C32.123 8.95504 32.123 8.95504 32.1914 9.09176C32.1289 9.12473 32.0663 9.15771 32.0019 9.19169C30.9072 9.76924 29.8133 10.3479 28.728 10.9431C28.3143 11.1699 27.8987 11.3933 27.4832 11.6168C26.9074 11.9264 26.3319 12.2367 25.7571 12.5482C25.6898 12.5846 25.6226 12.6211 25.5533 12.6586C25.3507 12.7685 25.148 12.8783 24.9453 12.9882C24.1 13.4466 23.2544 13.9043 22.4075 14.3597C21.8022 14.6852 21.1982 15.0128 20.5953 15.3426C20.2464 15.5333 19.897 15.7227 19.5468 15.9109C19.4862 15.9434 19.4862 15.9434 19.4245 15.9766C19.2269 16.0828 19.0293 16.1888 18.8316 16.2947C18.7602 16.333 18.6889 16.3713 18.6154 16.4107C18.5523 16.4445 18.4892 16.4783 18.4242 16.5132C18.2427 16.6086 18.2427 16.6086 18.0735 16.7349C17.9043 16.8164 17.9043 16.8164 17.7323 16.7711C17.6763 16.7409 17.6202 16.7107 17.5625 16.6796C17.5099 16.654 17.4574 16.6283 17.4032 16.6018C17.3487 16.5734 17.2942 16.545 17.2381 16.5157C17.176 16.4833 17.1138 16.451 17.0499 16.4177C16.9836 16.3829 16.9173 16.3481 16.849 16.3122C16.7797 16.2759 16.7104 16.2396 16.6389 16.2022C15.9775 15.8547 15.321 15.4986 14.6666 15.1381C14.485 15.0383 14.3031 14.9393 14.121 14.8404C14.0078 14.7784 13.8946 14.7165 13.7814 14.6545C13.729 14.6262 13.6767 14.5979 13.6228 14.5687C13.2636 14.371 13.2636 14.371 13.1875 14.2187C13.2627 14.1786 13.2627 14.1786 13.3393 14.1376C14.6029 13.4624 14.6029 13.4624 15.8621 12.7789C16.7757 12.2791 17.6933 11.7866 18.6106 11.2935C19.3788 10.8805 20.1468 10.4671 20.9121 10.0488C21.8287 9.54776 22.7491 9.05374 23.6692 8.55917C24.5751 8.07212 25.4802 7.58346 26.3827 7.09011C26.4379 7.06041 26.493 7.03071 26.5499 7.00012C26.6742 6.93114 26.7968 6.85899 26.9182 6.78489C27.4162 6.48846 27.4162 6.48846 27.685 6.51439Z" fill="#C18539"/>
<path d="M23.9199 4.51239C24.0869 4.59159 24.2481 4.67317 24.4102 4.76126C24.4568 4.78615 24.5034 4.81103 24.5514 4.83667C24.7 4.91615 24.8483 4.99625 24.9966 5.07635C25.0952 5.12918 25.1938 5.18196 25.2924 5.2347C25.7714 5.49122 26.2487 5.75061 26.7227 6.01629C26.7227 6.06141 26.7227 6.10653 26.7227 6.15301C26.6548 6.18952 26.6548 6.18952 26.5855 6.22676C25.6974 6.70451 24.8098 7.18304 23.9233 7.66376C23.4186 7.93735 22.9131 8.2096 22.4075 8.4815C21.8625 8.7746 21.3183 9.06908 20.7754 9.3659C19.8588 9.86694 18.9384 10.361 18.0183 10.8555C17.2501 11.2685 16.4821 11.682 15.7168 12.1003C15.1564 12.4064 14.5953 12.7112 14.0334 13.0146C13.9614 13.0536 13.8893 13.0927 13.815 13.1329C13.6752 13.2083 13.5346 13.2824 13.3933 13.3551C13.1844 13.4642 13.1844 13.4642 12.9908 13.6054C12.7765 13.7443 12.6185 13.8288 12.3672 13.8776C11.9632 13.7686 11.6292 13.5677 11.2734 13.3521C11.1789 13.298 11.0842 13.2442 10.9893 13.1907C10.7605 13.0607 10.5341 12.9273 10.3083 12.7922C10.1068 12.672 9.90395 12.5544 9.70117 12.4365C9.58724 12.37 9.4733 12.3035 9.35938 12.237C9.51631 12.064 9.6753 11.9608 9.88088 11.8511C9.94509 11.8166 10.0093 11.7821 10.0754 11.7466C10.1451 11.7096 10.2147 11.6727 10.2865 11.6346C10.3955 11.5762 10.3955 11.5762 10.5066 11.5166C10.6609 11.4339 10.8153 11.3513 10.9698 11.2689C11.3478 11.067 11.725 10.8637 12.1023 10.6605C12.1767 10.6204 12.2511 10.5804 12.3278 10.5391C12.7975 10.2864 13.2663 10.0319 13.7344 9.77606C14.651 9.27503 15.5713 8.78101 16.4914 8.28644C17.2597 7.87344 18.0276 7.46003 18.793 7.04169C19.715 6.53766 20.6408 6.04056 21.5666 5.54325C21.7298 5.45555 21.893 5.36782 22.0563 5.28006C22.2095 5.1977 22.3627 5.11538 22.516 5.03313C22.6202 4.97707 22.6202 4.97707 22.7266 4.91987C22.7915 4.88513 22.8565 4.85039 22.9235 4.8146C23.0754 4.73082 23.2212 4.64159 23.368 4.54924C23.6155 4.42533 23.6618 4.43524 23.9199 4.51239Z" fill="#C18539"/>
<path d="M8.95312 12.8516C9.25499 12.9522 9.48725 13.045 9.76089 13.1942C9.83574 13.2347 9.9106 13.2753 9.98773 13.3171C10.1037 13.3806 10.1037 13.3806 10.222 13.4454C10.2975 13.4865 10.373 13.5275 10.4508 13.5697C10.595 13.6481 10.7391 13.7266 10.8831 13.8053C11.2645 14.0127 11.647 14.218 12.0293 14.4238C12.0293 16.1608 12.0293 17.8979 12.0293 19.6875C11.8274 19.4856 11.6865 19.3266 11.5318 19.0955C11.4707 19.0057 11.4707 19.0057 11.4083 18.9141C11.3238 18.7888 11.2396 18.6632 11.1557 18.5375C11.1149 18.4778 11.074 18.418 11.0319 18.3564C10.9771 18.2747 10.9771 18.2747 10.9211 18.1913C10.7829 18.0124 10.7829 18.0124 10.457 17.8418C9.7126 18.0787 9.7126 18.0787 8.95312 18.3203C8.95312 16.5156 8.95312 14.7109 8.95312 12.8516Z" fill="#C18539"/>
</svg>
