<svg width="36" height="35" viewBox="0 0 36 35" fill="none" xmlns="http://www.w3.org/2000/svg">
<g clip-path="url(#clip0_6816_35257)">
<path d="M0.665879 12.7832C7.09508 12.7832 13.5243 12.7832 20.1483 12.7832C20.0618 13.0428 19.9487 13.1076 19.7339 13.2745C19.0633 13.8131 18.539 14.4192 18.0292 15.1074C17.9997 15.1472 17.9702 15.1869 17.9399 15.2279C16.6731 16.9644 15.9736 19.1146 15.91 21.2598C15.9073 21.3183 15.9046 21.3768 15.9017 21.4371C15.8373 23.8925 16.7123 26.4964 18.2855 28.3892C18.371 28.5059 18.371 28.5059 18.371 28.6426C16.4057 28.6457 14.4405 28.6481 12.4753 28.6496C12.2431 28.6497 12.0109 28.6499 11.7787 28.6501C11.7093 28.6501 11.7093 28.6501 11.6386 28.6502C10.8909 28.6508 10.1432 28.6519 9.39549 28.6531C8.6278 28.6544 7.86012 28.6552 7.09244 28.6554C6.66144 28.6556 6.23044 28.656 5.79945 28.657C5.39356 28.658 4.98768 28.6582 4.58179 28.658C4.43304 28.6581 4.28429 28.6584 4.13555 28.6589C3.93192 28.6596 3.72832 28.6594 3.52469 28.659C3.4663 28.6594 3.40792 28.6598 3.34776 28.6602C2.58703 28.6565 1.8427 28.5058 1.28111 27.959C0.855107 27.4102 0.633392 26.8924 0.641218 26.1991C0.641042 26.1415 0.640867 26.084 0.640686 26.0247C0.640348 25.8326 0.641476 25.6405 0.642598 25.4484C0.642661 25.308 0.642633 25.1676 0.642523 25.0273C0.642477 24.6521 0.643663 24.277 0.645109 23.9018C0.646279 23.5495 0.646332 23.1972 0.646478 22.8448C0.647553 21.8152 0.650416 20.7855 0.653062 19.7559C0.657292 17.4549 0.661521 15.1539 0.665879 12.7832ZM3.05846 21.0547C3.05846 21.5961 3.05846 22.1375 3.05846 22.6953C5.5399 22.6953 8.02135 22.6953 10.578 22.6953C10.578 22.1539 10.578 21.6125 10.578 21.0547C8.09654 21.0547 5.6151 21.0547 3.05846 21.0547ZM3.05846 24.541C3.05846 25.105 3.05846 25.6689 3.05846 26.25C6.48736 26.25 9.91627 26.25 13.4491 26.25C13.4491 25.686 13.4491 25.1221 13.4491 24.541C10.0202 24.541 6.59127 24.541 3.05846 24.541Z" fill="#C18539"/>
<path d="M32.8177 15.0234C34.1461 16.1922 34.9832 17.7258 35.4611 19.4133C35.4844 19.4939 35.5078 19.5744 35.5318 19.6574C36.068 21.9267 35.5599 24.3509 34.3673 26.3176C34.0128 26.8631 33.5815 27.3487 33.1368 27.8216C33.1009 27.8619 33.0649 27.9023 33.0279 27.9439C31.706 29.3669 29.5778 30.2655 27.6553 30.3618C25.0472 30.4495 22.7841 29.7597 20.8476 27.9647C20.7974 27.9174 20.7472 27.8702 20.6954 27.8216C20.6349 27.7676 20.6349 27.7676 20.5731 27.7126C19.4705 26.6884 18.7637 25.2195 18.3712 23.7884C18.348 23.7081 18.3249 23.6278 18.301 23.5451C17.7816 21.3599 18.2273 18.9037 19.3755 16.9962C19.61 16.6206 19.8662 16.2682 20.1486 15.927C20.178 15.8914 20.2075 15.8557 20.2379 15.819C21.6997 14.0775 23.8568 13.0336 26.1044 12.8017C28.6183 12.6193 30.9072 13.388 32.8177 15.0234ZM30.3856 18.798C30.3458 18.8383 30.306 18.8785 30.2651 18.92C30.223 18.962 30.181 19.004 30.1377 19.0473C29.9983 19.1868 29.8594 19.3268 29.7205 19.4668C29.6241 19.5633 29.5278 19.6599 29.4314 19.7564C29.1773 20.011 28.9237 20.266 28.6701 20.5211C28.4115 20.7811 28.1525 21.0408 27.8935 21.3004C27.385 21.8104 26.877 22.3207 26.3693 22.8313C25.867 22.4061 25.867 22.4061 25.6356 22.1738C25.5919 22.13 25.5481 22.0863 25.503 22.0412C25.4576 21.9954 25.4123 21.9497 25.3655 21.9026C25.3176 21.8546 25.2698 21.8066 25.2204 21.7572C25.0692 21.6056 24.9181 21.4537 24.7671 21.3018C24.6639 21.1982 24.5607 21.0947 24.4575 20.9912C24.2059 20.7389 23.9545 20.4863 23.7033 20.2337C23.4345 20.4603 23.1716 20.6883 22.9238 20.9381C22.8475 21.0147 22.8475 21.0147 22.7696 21.093C22.7182 21.145 22.6668 21.1969 22.6138 21.2505C22.5605 21.3041 22.5072 21.3577 22.4524 21.4129C22.3223 21.5437 22.1924 21.6748 22.0626 21.8059C22.4592 22.2916 22.9064 22.7267 23.3502 23.1686C23.4355 23.2537 23.5207 23.3388 23.606 23.424C23.829 23.6468 24.0522 23.8693 24.2755 24.0919C24.5039 24.3195 24.732 24.5473 24.9602 24.7752C25.4069 25.2212 25.8538 25.6669 26.3009 26.1126C26.6664 25.8074 27.0063 25.485 27.342 25.1476C27.3961 25.0935 27.4502 25.0394 27.5059 24.9837C27.6832 24.8063 27.8603 24.6287 28.0374 24.4511C28.1608 24.3275 28.2843 24.204 28.4078 24.0804C28.6987 23.7893 28.9894 23.4981 29.28 23.2067C29.6112 22.8748 29.9426 22.5431 30.2739 22.2113C30.955 21.5295 31.6359 20.8475 32.3165 20.1653C32.2011 19.9197 32.0647 19.7592 31.8722 19.5661C31.8116 19.5053 31.7509 19.4445 31.6885 19.3818C31.5933 19.2875 31.5933 19.2875 31.4962 19.1912C31.4011 19.0952 31.4011 19.0952 31.304 18.9973C31.2433 18.9369 31.1827 18.8764 31.1202 18.8141C31.0646 18.7586 31.0089 18.7031 30.9515 18.6458C30.6893 18.417 30.6011 18.5836 30.3856 18.798Z" fill="#C18539"/>
<path d="M3.9282 5.16959C4.05087 5.1693 4.17354 5.16893 4.29621 5.16847C4.63184 5.16749 4.96746 5.16777 5.30309 5.16828C5.66563 5.1686 6.02817 5.16775 6.39071 5.16705C7.10039 5.16587 7.81006 5.16581 8.51974 5.16617C9.09668 5.16645 9.67361 5.16635 10.2506 5.16598C10.3327 5.16593 10.4149 5.16588 10.4996 5.16583C10.6665 5.16572 10.8334 5.16562 11.0004 5.16551C12.5652 5.16458 14.1301 5.16495 15.695 5.16573C17.1259 5.16641 18.5568 5.16553 19.9877 5.16389C21.4579 5.16222 22.928 5.16157 24.3981 5.16202C25.2231 5.16226 26.0481 5.16211 26.8731 5.16091C27.5755 5.1599 28.2778 5.15986 28.9801 5.16105C29.3382 5.16163 29.6964 5.16178 30.0545 5.16073C30.3827 5.15979 30.7109 5.16011 31.0392 5.16143C31.1575 5.16169 31.2759 5.16149 31.3942 5.16078C32.2339 5.15607 33.0935 5.19283 33.7698 5.75925C35.0152 7.04166 34.502 8.80084 34.502 10.5281C23.3354 10.5281 12.1689 10.5281 0.664062 10.5281C0.664062 6.53459 0.664062 6.53459 1.34766 5.81132C2.09939 5.16237 2.98646 5.16601 3.9282 5.16959Z" fill="#C18539"/>
</g>
<defs>
<clipPath id="clip0_6816_35257">
<rect width="35" height="35" fill="white" transform="translate(0.664062)"/>
</clipPath>
</defs>
</svg>
