<svg width="41" height="42" viewBox="0 0 41 42" fill="none" xmlns="http://www.w3.org/2000/svg">
<g clip-path="url(#clip0_6816_35169)">
<path d="M8.7829 12.6119C7.44285 12.1037 6.11398 11.565 4.75956 11.1C3.90347 10.8059 3.2007 10.296 2.52828 9.73664C1.97725 9.27794 2.04273 8.92793 2.67842 8.57951C3.51375 8.12081 4.25645 7.90824 5.25789 8.46283C7.11383 9.48891 9.21734 9.93483 11.3176 10.6588C11.217 10.165 10.9407 9.962 10.7203 9.71107C9.59906 8.43407 8.82922 6.96687 8.8979 5.24555C8.97935 3.22536 10.4935 2.24882 12.4644 2.78903C14.3012 3.29248 15.7722 4.35852 16.9989 5.76978C17.9748 6.89335 17.9141 6.89495 18.7781 5.6547C20.3434 3.40596 22.3271 1.6303 24.8762 0.557873C25.8202 0.161506 26.8041 -0.0366776 27.839 0.204659C29.1455 0.511523 29.9266 1.43851 30.0511 2.77945C30.2045 4.41286 29.5129 5.78736 28.7894 7.16026C28.6808 7.36483 28.4236 7.54544 28.5817 7.79636C28.7319 8.0345 29.0194 7.93062 29.2494 7.92742C30.0591 7.91623 30.8306 8.132 31.3385 8.74253C32.0045 9.54485 32.7057 9.4106 33.4739 9.04939C34.9929 8.33338 36.4208 7.45753 37.8199 6.53214C38.2863 6.22368 38.7607 5.92641 39.2111 5.59717C39.6072 5.30948 39.8867 5.31747 40.2093 5.73941C41.3353 7.2114 41.3289 7.26734 39.7381 8.32059C38.0515 9.43617 36.3601 10.539 34.4961 11.3477C33.8541 11.6258 33.1912 11.8256 32.5076 11.9183C31.4742 12.0573 30.5351 11.8016 29.8499 10.9673C29.4586 10.491 29.0226 10.3616 28.4412 10.5086C26.6124 10.9737 24.8539 11.6114 23.1656 12.6231C23.525 12.8468 23.8844 12.8261 24.2022 12.8293C25.7675 12.8436 27.3343 12.8085 28.8996 12.8069C30.7843 12.8053 32.6721 12.7541 34.5536 12.8452C35.9975 12.9156 37.0197 14.1079 37.0596 15.5767C37.0852 16.534 37.0357 17.4946 37.0724 18.4519C37.1251 19.8376 36.3281 20.6783 35.1957 21.1354C34.5616 21.3911 34.4961 21.7156 34.4961 22.259C34.5041 27.3989 34.4993 32.5389 34.4961 37.6789C34.4961 40.0491 33.466 41.08 31.0925 41.0816C22.7088 41.0832 14.3252 41.0576 5.94149 41.1008C4.17339 41.1104 2.58099 40.2201 2.6289 37.77C2.72953 32.686 2.65286 27.5971 2.66404 22.5115C2.66564 21.7987 2.59536 21.3144 1.74406 21.0299C0.745812 20.6959 0.134086 19.884 0.0749898 18.722C0.0174907 17.5777 -0.0639662 16.4365 0.0829757 15.2954C0.277834 13.7818 1.12594 13.0243 2.64967 12.8596C4.5088 12.6583 6.37113 12.9108 8.22707 12.7685C8.40915 12.7541 8.59123 12.7509 8.77491 12.743C8.77491 12.6998 8.77651 12.6551 8.77811 12.6119H8.7829ZM22.2552 30.0153C22.2552 30.0153 22.2409 30.0153 22.2329 30.0153C22.2329 32.4926 22.2313 34.9699 22.2329 37.4456C22.2329 38.5068 22.3143 38.6043 23.3557 38.6091C25.8569 38.6203 28.3597 38.6187 30.8609 38.6123C31.8192 38.6091 31.9374 38.4812 31.9374 37.4759C31.9406 32.4958 31.939 27.514 31.9342 22.5339C31.9342 21.4982 31.848 21.332 30.821 21.3112C28.3198 21.2617 25.8186 21.292 23.3174 21.2936C22.5715 21.2936 22.2313 21.6292 22.2409 22.4236C22.2728 24.9536 22.2536 27.4837 22.2536 30.0137L22.2552 30.0153ZM14.8267 29.9402C14.8267 27.4101 14.8043 24.8801 14.8411 22.3501C14.8506 21.6612 14.6334 21.4279 13.9514 21.3767C11.3448 21.1849 8.73818 21.3064 6.13155 21.2712C5.44157 21.2617 5.11254 21.5461 5.11414 22.2701C5.12692 27.383 5.12692 32.4958 5.11414 37.6102C5.11254 38.3166 5.38566 38.6235 6.1076 38.6187C8.66151 38.6011 11.217 38.6219 13.7725 38.6091C14.7053 38.6043 14.8235 38.4684 14.8251 37.5287C14.8299 34.9986 14.8267 32.4686 14.8267 29.9386V29.9402ZM28.3901 15.3241C27.0612 15.3241 25.7323 15.3098 24.4051 15.3273C21.9598 15.3577 22.2201 14.9262 22.252 17.6416C22.2632 18.6165 22.4788 18.7812 23.4611 18.7844C26.3568 18.7907 29.2541 18.8115 32.1499 18.7844C34.7102 18.7604 34.4754 19.1583 34.5121 16.355C34.5217 15.6038 34.255 15.3002 33.4915 15.3161C31.7921 15.3497 30.0911 15.3257 28.3901 15.3241ZM8.65512 15.3273V15.3225C6.95251 15.3225 5.2499 15.3465 3.54889 15.3114C2.77904 15.2954 2.48356 15.6038 2.53148 16.3518C2.56502 16.8553 2.55384 17.3635 2.53467 17.8686C2.51071 18.5031 2.77904 18.7987 3.4291 18.7908C6.96369 18.7444 10.5015 18.8771 14.0345 18.6821C14.5536 18.6533 14.8299 18.4551 14.8219 17.9133C14.8155 17.4083 14.8299 16.9016 14.8235 16.3966C14.8123 15.4664 14.6925 15.3369 13.7598 15.3305C12.0571 15.3209 10.3561 15.3273 8.65353 15.3273H8.65512ZM17.3966 29.9418H17.3918C17.3918 32.4718 17.3886 35.0018 17.3934 37.5319C17.395 38.5052 17.5148 38.6107 18.5162 38.6139C19.6183 38.6171 19.7668 38.5036 19.7684 37.575C19.7716 32.515 19.7716 27.4549 19.7684 22.3948C19.7684 21.455 19.671 21.3815 18.5961 21.3815C17.4493 21.3815 17.3998 21.4199 17.3982 22.4316C17.395 24.9344 17.3982 27.4389 17.3982 29.9418H17.3966ZM20.2556 10.8314C20.666 10.7851 21.0494 10.7148 21.4215 10.5422C23.3781 9.63116 24.9066 8.21351 26.1444 6.481C26.7897 5.57639 27.3583 4.60465 27.5036 3.4619C27.5931 2.76506 27.3263 2.50774 26.6459 2.634C26.4127 2.67716 26.1811 2.75387 25.9639 2.84817C23.2343 4.02768 21.3145 6.05427 19.9601 8.65463C19.754 9.04939 19.6119 9.4985 19.5464 9.93802C19.4729 10.4335 19.6406 10.8458 20.2556 10.8314ZM11.9853 5.2887C11.2138 5.33345 11.431 5.78416 11.5796 6.13418C12.458 8.19593 13.9466 9.6839 15.9367 10.6876C16.1827 10.8107 16.4526 10.8922 16.6906 10.7132C16.9733 10.5006 16.796 10.2449 16.7082 9.99556C16.0182 8.0345 14.5552 6.76709 12.8685 5.70585C12.581 5.52524 12.2504 5.41177 11.9869 5.2887H11.9853ZM17.3918 16.9767C17.3918 18.6917 17.3918 18.6501 18.6488 18.6933C19.4554 18.7204 19.7604 18.372 19.7604 17.6272C19.7604 17.2021 19.7397 16.7754 19.7764 16.3534C19.8387 15.631 19.5033 15.3529 18.8101 15.3225C17.5164 15.2666 17.395 15.3609 17.3918 16.6555C17.3918 16.761 17.3918 16.8681 17.3918 16.9735V16.9767Z" fill="black"/>
</g>
<defs>
<clipPath id="clip0_6816_35169">
<rect width="41" height="41" fill="white" transform="translate(0 0.101562)"/>
</clipPath>
</defs>
</svg>
