<svg width="27" height="26" viewBox="0 0 27 26" fill="none" xmlns="http://www.w3.org/2000/svg">
<path d="M21.4565 6.69174C21.4975 5.92842 21.5581 4.8232 21.3334 4.60727C19.5889 2.93066 14.8543 3.96078 13.9607 6.23994C13.3958 7.68079 13.1703 9.64876 13.2842 12.1438C11.5022 12.1438 10.503 12.2519 10.2869 12.468C10.0851 12.6699 10.0576 16.0318 10.2869 16.0318C11.228 16.0318 12.9951 16.2476 12.9951 16.2476C12.9951 16.2476 13.0637 24.9246 12.9951 24.9951C12.6806 25.3185 2.48466 24.9951 1.11393 24.9951C0.374184 24.9951 1.11393 13.8783 1.11393 12.6724C1.11393 11.811 1.0239 2.06064 1.11393 1.97022C1.49074 1.58964 5.10693 1.67475 5.65607 1.67475C8.91327 1.67475 22.9769 0.0446678 25.1973 1.38862C26.1399 1.95948 25.9931 5.64323 25.9931 6.52238C25.9931 7.80995 25.9457 24.3874 25.5516 24.9951C25.1973 25.5416 17.5539 25.243 17.0625 24.9951C16.9127 24.9196 16.9127 22.0977 17.0625 16.5296C19.4887 16.8157 20.7018 16.6497 20.7018 16.0318C20.7018 14.832 20.7018 13.3671 20.7018 12.8721C20.7018 12.6028 19.578 12.468 17.3303 12.468C17.2608 10.5565 17.3956 9.26159 17.7348 8.58307C18.2802 7.49205 18.849 7.67627 20.2888 7.87393" stroke="white" stroke-linecap="round" stroke-linejoin="round"/>
</svg>
