<svg width="25" height="25" viewBox="0 0 25 25" fill="none" xmlns="http://www.w3.org/2000/svg">
<path d="M4.17188 9.49935L12.5052 1.16602L20.8385 9.49935M6.25521 7.93685V16.791C6.25521 17.0673 6.36496 17.3322 6.56031 17.5276C6.75566 17.7229 7.02061 17.8327 7.29688 17.8327H10.4219V14.7077C10.4219 14.4314 10.5316 14.1665 10.727 13.9711C10.9223 13.7758 11.1873 13.666 11.4635 13.666H13.5469C13.8231 13.666 14.0881 13.7758 14.2834 13.9711C14.4788 14.1665 14.5885 14.4314 14.5885 14.7077V17.8327H17.7135C17.9898 17.8327 18.2548 17.7229 18.4501 17.5276C18.6455 17.3322 18.7552 17.0673 18.7552 16.791V7.93685" stroke="white" stroke-width="1.5" stroke-linecap="round" stroke-linejoin="round"/>
</svg>
