<svg width="21" height="25" viewBox="0 0 21 25" fill="none" xmlns="http://www.w3.org/2000/svg">
<path d="M4.375 18.75H3.125V20.3125H4.375C4.84375 20.3125 5.15625 20 5.15625 19.5312C5.15625 19.0625 4.84375 18.75 4.375 18.75ZM12.5 0H0V25H20.3125V7.8125L12.5 0ZM6.5625 19.6875C6.5625 20.9375 5.625 21.875 4.375 21.875H3.125V23.4375H1.5625V17.1875H4.375C5.625 17.1875 6.5625 18.125 6.5625 19.375V19.6875ZM12.9688 20.4688C12.9688 22.0312 11.7187 23.4375 10 23.4375H7.8125V17.1875H10C11.5625 17.1875 12.9688 18.4375 12.9688 20.1562V20.4688ZM18.75 18.75H15.625V20.3125H17.9688V21.875H15.625V23.4375H14.0625V17.1875H18.75V18.75ZM18.75 15.625H1.5625V1.5625H12.5V7.8125H18.75V15.625ZM10 18.75H9.375V21.875H10C10.9375 21.875 11.5625 21.25 11.5625 20.3125C11.5625 19.375 10.7812 18.75 10 18.75Z" fill="black"/>
</svg>
