<svg width="25" height="25" viewBox="0 0 25 25" fill="none" xmlns="http://www.w3.org/2000/svg">
<g clip-path="url(#clip0_6665_33857)">
<path fill-rule="evenodd" clip-rule="evenodd" d="M9.76562 22.3441C8.72983 23.0511 7.50407 23.4276 6.25 23.4238C2.79688 23.4238 0 20.627 0 17.1738C0 13.7207 2.79688 10.9238 6.25 10.9238C7.38669 10.9228 8.50214 11.2318 9.47623 11.8177C10.4503 12.4035 11.2461 13.244 11.778 14.2486C12.3099 15.2532 12.5576 16.3838 12.4946 17.5187C12.4316 18.6537 12.0601 19.7499 11.4203 20.6895L13.7172 22.9863C13.8259 23.0951 13.9122 23.2242 13.9711 23.3663C14.0299 23.5084 14.0602 23.6607 14.0602 23.8145C14.0602 23.9683 14.0299 24.1205 13.9711 24.2626C13.9122 24.4047 13.8259 24.5338 13.7172 24.6426C13.6084 24.7513 13.4793 24.8376 13.3372 24.8965C13.1952 24.9553 13.0429 24.9856 12.8891 24.9856C12.7353 24.9856 12.583 24.9553 12.4409 24.8965C12.2988 24.8376 12.1697 24.7513 12.0609 24.6426L9.76406 22.3457L9.76562 22.3441ZM10.9406 17.1723C10.9406 19.766 8.84688 21.8598 6.25312 21.8598C3.65937 21.8598 1.56562 19.766 1.56562 17.1723C1.56562 14.5785 3.65937 12.4848 6.25312 12.4848C8.84688 12.4848 10.9406 14.5785 10.9406 17.1723Z" fill="white"/>
<path fill-rule="evenodd" clip-rule="evenodd" d="M8.59375 1.5625C8.38655 1.5625 8.18784 1.64481 8.04132 1.79132C7.89481 1.93784 7.8125 2.13655 7.8125 2.34375V7.8125C7.8125 8.0197 7.73019 8.21841 7.58368 8.36493C7.43716 8.51144 7.23845 8.59375 7.03125 8.59375C6.82405 8.59375 6.62534 8.51144 6.47882 8.36493C6.33231 8.21841 6.25 8.0197 6.25 7.8125H4.6875C4.2731 7.8125 3.87567 7.97712 3.58265 8.27015C3.28962 8.56317 3.125 8.9606 3.125 9.375C3.125 9.5822 3.04269 9.78091 2.89618 9.92743C2.74966 10.0739 2.55095 10.1562 2.34375 10.1562C2.13655 10.1562 1.93784 10.0739 1.79132 9.92743C1.64481 9.78091 1.5625 9.5822 1.5625 9.375C1.5625 7.65625 2.96094 6.25 4.6875 6.25H6.25V2.34375C6.25 1.72215 6.49693 1.12601 6.93647 0.686468C7.37601 0.24693 7.97215 0 8.59375 0L15.7656 0C16.3875 0 16.9828 0.246875 17.4219 0.685937L19.625 2.88906C20.0641 3.32843 20.3108 3.92414 20.3109 4.54531V6.24844H21.8734C23.5922 6.24844 24.9984 7.64687 24.9984 9.37344V15.6234C24.9984 16.8703 24.2672 17.9516 23.2172 18.4516L24.8422 20.6234C24.9292 20.7395 24.9823 20.8775 24.9953 21.022C25.0083 21.1665 24.9808 21.3118 24.916 21.4416C24.8511 21.5713 24.7513 21.6805 24.6279 21.7568C24.5045 21.833 24.3623 21.8734 24.2172 21.8734H16.4047C16.1975 21.8734 15.9988 21.7911 15.8523 21.6446C15.7057 21.4981 15.6234 21.2994 15.6234 21.0922C15.6234 20.885 15.7057 20.6863 15.8523 20.5398C15.9988 20.3932 16.1975 20.3109 16.4047 20.3109H22.6547L19.1391 15.6234H14.8438C14.6365 15.6234 14.4378 15.5411 14.2913 15.3946C14.1448 15.2481 14.0625 15.0494 14.0625 14.8422C14.0625 14.635 14.1448 14.4363 14.2913 14.2898C14.4378 14.1432 14.6365 14.0609 14.8438 14.0609H19.5312C19.6525 14.0609 19.7722 14.0892 19.8806 14.1434C19.9891 14.1977 20.0835 14.2764 20.1562 14.3734L22.2344 17.1391C22.5768 17.0581 22.8819 16.864 23.1003 16.5881C23.3186 16.3122 23.4374 15.9706 23.4375 15.6187V9.36875C23.4375 8.95435 23.2729 8.55692 22.9799 8.2639C22.6868 7.97087 22.2894 7.80625 21.875 7.80625H20.3125V10.15C20.3125 10.7716 20.0656 11.3677 19.626 11.8073C19.1865 12.2468 18.5904 12.4937 17.9688 12.4937H13.2812C13.074 12.4937 12.8753 12.4114 12.7288 12.2649C12.5823 12.1184 12.5 11.9197 12.5 11.7125C12.5 11.5053 12.5823 11.3066 12.7288 11.1601C12.8753 11.0136 13.074 10.9312 13.2812 10.9312H17.9688C18.176 10.9312 18.3747 10.8489 18.5212 10.7024C18.6677 10.5559 18.75 10.3572 18.75 10.15V4.68125H16.4062C16.199 4.68125 16.0003 4.59894 15.8538 4.45243C15.7073 4.30591 15.625 4.1072 15.625 3.9V1.55625H8.59375V1.5625Z" fill="white"/>
</g>
<defs>
<clipPath id="clip0_6665_33857">
<rect width="25" height="25" fill="white"/>
</clipPath>
</defs>
</svg>
