<svg width="26" height="25" viewBox="0 0 26 25" fill="none" xmlns="http://www.w3.org/2000/svg">
<path d="M1.73818 19.8335C1.17955 18.0107 1.44279 16.0904 1.20763 14.2256C1.00746 12.64 0.638847 4.0997 1.91476 2.83536C4.19028 0.580327 21.1039 -0.666325 23.4889 2.48498C25.2209 4.77305 24.9035 9.25967 24.9035 11.9477C24.9035 14.851 25.583 19.3356 23.3119 21.5858C19.8947 24.9722 7.57905 24.6536 2.97582 23.5135" stroke="white" stroke-linecap="round" stroke-linejoin="round"/>
<path d="M1.14453 10.0664C2.87592 9.46437 7.81423 10.435 8.00605 10.0309C8.48967 9.0118 9.73045 6.88626 12.7686 6.30254C14.9018 5.89269 18.078 6.30254 19.1008 8.39031C24.1222 18.6408 13.5066 21.6584 10.4753 20.0301C7.79353 18.5897 8.00605 16.6397 8.00605 15.1151" stroke="white" stroke-linecap="round" stroke-linejoin="round"/>
<path d="M11.9403 10.8679C12.5117 10.2398 13.6856 9.40021 14.5971 9.62804C17.4699 10.3462 17.4218 15.9361 14.4198 16.5367C11.6009 17.1004 9.47591 12.986 11.9403 11.7536" stroke="white" stroke-linecap="round" stroke-linejoin="round"/>
<path d="M20.8555 10.0178C21.5978 9.91519 23.9888 10.003 24.7125 9.875" stroke="white" stroke-linecap="round" stroke-linejoin="round"/>
<path d="M21.7852 5.75624C21.7852 5.69282 21.7852 5.62983 21.7852 5.56641" stroke="white" stroke-linecap="round" stroke-linejoin="round"/>
</svg>
