<svg width="136" height="100" viewBox="0 0 136 100" fill="none" xmlns="http://www.w3.org/2000/svg">
<path d="M3.20821 88.6191H4.46549V99.978H3.20821V93.4965H1.25727V99.978H0V88.6191H1.25727V92.2392H3.20821V88.6191Z" fill="white"/>
<path d="M11.8578 97.8101H9.60334L9.34321 99.9994H8.08594L9.38656 88.6406H12.0745L13.3752 99.9994H12.0962L11.8578 97.8101ZM11.7277 96.6612L10.9473 89.8762H10.5138L9.7334 96.6612H11.7277Z" fill="white"/>
<path d="M20.0729 100V92.7817L18.2086 94.6676V100H16.9297V88.6197H18.187V93.1285L20.0512 91.1776V88.6197H21.3085V99.9785H20.0729V100ZM20.333 87.4274H17.9485V86.582H20.333V87.4274Z" fill="white"/>
<path d="M27.7269 92.2175C28.052 92.2175 28.3121 92.2609 28.5289 92.3476C28.7457 92.4343 28.9408 92.5644 29.0708 92.7161C29.2009 92.8679 29.3093 93.0629 29.3743 93.2797C29.4393 93.4965 29.4827 93.7133 29.4827 93.9517V98.2004C29.4827 98.5256 29.4393 98.7857 29.3526 99.0025C29.2659 99.2193 29.1359 99.4144 28.9841 99.5444C28.8324 99.6745 28.6373 99.7829 28.4205 99.8479C28.2038 99.9129 27.987 99.9563 27.7485 99.9563H25.2773V88.6191H29.1792V89.8764H26.5346V92.2175H27.7269ZM28.2254 93.9734C28.2254 93.8433 28.1821 93.7349 28.117 93.6265C28.052 93.5182 27.9219 93.4748 27.7269 93.4748H26.5129V98.7207H27.7269C27.8786 98.7207 27.987 98.6773 28.0737 98.6123C28.1604 98.5473 28.2038 98.4172 28.2038 98.2221V93.9734H28.2254Z" fill="white"/>
<path d="M37.7199 88.6193V99.9781H36.4626V89.8766H35.0103L34.6417 98.4174C34.6201 98.9376 34.5117 99.3278 34.3166 99.5879C34.1215 99.8481 33.753 99.9781 33.2327 99.9781H32.5391V98.7209H33.0593C33.1894 98.7209 33.2761 98.6992 33.3194 98.6558C33.3628 98.6125 33.3845 98.5258 33.3845 98.3957L33.818 88.5977H37.7199V88.6193Z" fill="white"/>
<path d="M44.7856 99.9996V92.7811L42.9213 94.6671V99.9996H41.6641V88.6191H42.9213V93.128L44.7856 91.177V88.6191H46.0428V99.978H44.7856V99.9996Z" fill="white"/>
<path d="M50.9865 92.8895L49.5558 88.6408H50.8782L52.1137 92.3693H53.0892V88.6191H54.3465V92.3476H55.3003L56.5359 88.6191H57.8799L56.4492 92.8679L57.9666 99.978H56.6659L55.2569 93.3881H54.3248V99.978H53.0675V93.3881H52.1354L50.7264 99.978H49.4258L50.9865 92.8895Z" fill="white"/>
<path d="M65.4014 88.6191V99.978H64.1225V96.3795H62.8435C62.6051 96.3795 62.3667 96.3362 62.1716 96.2712C61.9548 96.2061 61.7814 96.0978 61.608 95.9677C61.4562 95.8376 61.3261 95.6425 61.2394 95.4258C61.1527 95.209 61.1094 94.9272 61.1094 94.6237V88.6191H62.3667V94.6237C62.3667 94.8188 62.41 94.9272 62.5184 95.0139C62.6268 95.0789 62.7352 95.1223 62.8652 95.1223H64.1442V88.6191H65.4014Z" fill="white"/>
<path d="M72.8578 97.8101H70.6033L70.3432 99.9994H69.0859L70.3866 88.6406H73.0745L74.3752 99.9994H73.0962L72.8578 97.8101ZM72.7277 96.6612L71.9473 89.8762H71.5138L70.7334 96.6612H72.7277Z" fill="white"/>
<path d="M86.7512 88.6191V99.978H85.494V89.8764H83.6948V99.978H82.4375V88.6191H86.7512Z" fill="white"/>
<path d="M94.4693 88.6191V89.8764H91.9547V92.2175H93.8623V93.4965H91.9547V98.7207H94.4693V99.978H90.6758V88.6191H94.4693Z" fill="white"/>
<path d="M98.131 88.6191H99.3883V92.3476H100.472L101.708 88.6191H103.052L101.621 92.8679L103.138 99.978H101.838L100.429 93.3881H99.3666V99.978H98.1094V88.6191H98.131Z" fill="white"/>
<path d="M109.948 97.8101H107.693L107.433 99.9994H106.176L107.476 88.6406H110.164L111.465 99.9994H110.186L109.948 97.8101ZM109.818 96.6612L109.037 89.8762H108.604L107.823 96.6612H109.818Z" fill="white"/>
<path d="M119.223 94.6237C119.223 94.9489 119.179 95.209 119.093 95.4258C119.006 95.6425 118.876 95.8376 118.703 95.9677C118.529 96.0978 118.356 96.2061 118.139 96.2712C117.922 96.3362 117.705 96.3795 117.467 96.3795H116.296V99.978H115.039V88.6191H117.467C117.792 88.6191 118.052 88.6625 118.269 88.7492C118.486 88.8359 118.681 88.966 118.811 89.1177C118.963 89.2695 119.049 89.4646 119.114 89.6813C119.179 89.8981 119.223 90.1149 119.223 90.3533V94.6237ZM117.944 90.375C117.944 90.2449 117.9 90.1365 117.835 90.0282C117.77 89.9198 117.64 89.8764 117.445 89.8764H116.275V95.1223H117.445C117.597 95.1223 117.705 95.0789 117.792 95.0139C117.879 94.9489 117.922 94.8188 117.922 94.6237V90.375H117.944Z" fill="white"/>
<path d="M126.161 88.6191H127.419V99.978H126.161V93.4965H124.21V99.978H122.953V88.6191H124.21V92.2392H126.161V88.6191Z" fill="white"/>
<path d="M135.524 88.6191V99.978H134.267V94.537H133.552L132.316 99.978H131.016L132.273 94.4503C131.948 94.3419 131.688 94.1685 131.493 93.9084C131.276 93.6482 131.189 93.2797 131.189 92.7812V90.3533C131.189 90.1149 131.232 89.8764 131.297 89.6813C131.362 89.4646 131.471 89.2911 131.601 89.1177C131.731 88.966 131.926 88.8359 132.143 88.7492C132.36 88.6625 132.641 88.6191 132.945 88.6191H135.524ZM134.267 89.8764H132.923C132.728 89.8764 132.62 89.9198 132.533 90.0282C132.468 90.1365 132.425 90.2449 132.425 90.375V92.8028C132.425 92.9762 132.468 93.1063 132.576 93.1713C132.685 93.258 132.793 93.2797 132.923 93.2797H134.267V89.8764Z" fill="white"/>
<path d="M135.026 24.2818C134.527 23.5231 133.877 22.6777 133.053 21.7456C132.23 20.8135 131.319 19.9464 130.344 19.1443C129.368 18.364 128.523 17.9304 127.807 17.9088C124.989 17.8437 121.781 17.9304 118.183 18.2122C114.584 18.494 110.791 18.8842 106.824 19.4045C102.857 19.903 98.7817 20.51 94.6414 21.182C90.5011 21.854 86.4908 22.591 82.6106 23.3497C78.7304 24.1301 75.067 24.9105 71.642 25.6908C68.217 26.4712 65.2255 27.2299 62.6676 27.9453C62.4075 28.032 62.5159 28.3571 62.9711 28.9641C63.448 29.571 64.055 30.2214 64.7703 30.915C65.5074 31.6087 66.2444 32.2156 66.9814 32.7576C67.7184 33.2778 68.2387 33.4946 68.5421 33.3862C69.0624 33.1694 69.9295 32.8876 71.1217 32.6058C72.314 32.3024 73.7663 31.9555 75.5005 31.587C77.2347 31.2185 79.1856 30.8066 81.3533 30.3948C83.521 29.9829 85.8188 29.571 88.2683 29.1592C86.5775 32.5408 84.9084 35.9875 83.3043 39.4992C81.6785 43.0109 80.2911 46.4792 79.1206 49.9475C78.7738 50.9664 78.4703 52.0069 78.1668 53.004C78.0584 53.069 77.82 53.3942 77.4731 53.9795C77.0613 54.6298 76.5627 55.4752 75.9557 56.4723C75.3488 57.4912 74.6768 58.5967 73.9614 59.7889C73.2461 60.9812 72.5524 62.1301 71.9021 63.2139C71.2518 64.2978 70.6665 65.2082 70.1679 65.9886C69.6694 66.769 69.3225 67.2459 69.1491 67.4193C69.0624 67.506 69.1274 67.0074 69.3442 65.9236C69.561 64.8397 69.8861 63.4741 70.3197 61.7832C70.7532 60.0924 71.2951 58.2065 71.9021 56.1255C72.5091 54.0445 73.1377 52.0285 73.8097 50.0776C74.46 48.1267 75.132 46.3925 75.804 44.8534C76.476 43.3143 77.1046 42.2305 77.7116 41.6018C77.7549 41.5585 77.6465 41.4718 77.3647 41.32C77.0829 41.1683 76.6927 41.0166 76.1942 40.8865C75.6956 40.7348 75.1103 40.5613 74.46 40.3879C73.8097 40.1928 73.116 39.9977 72.4007 39.781C70.7099 39.3257 68.8023 38.8272 66.6346 38.3286C66.2877 38.4587 65.8975 38.9572 65.4423 39.8243C64.9871 40.6914 64.5102 41.7969 64.055 43.1409C63.5998 44.4849 63.1229 46.024 62.6243 47.7365C62.1474 49.449 61.7139 51.2048 61.3237 53.0257C60.8251 53.7844 60.0664 54.9333 59.0692 56.4507C58.0721 57.9681 57.075 59.5071 56.0561 61.0679C55.0373 62.6286 54.1052 64.0377 53.2815 65.2732C52.436 66.5088 51.8941 67.2459 51.634 67.4626C51.5473 67.5493 51.6123 67.0508 51.8291 65.9669C52.0459 64.8831 52.371 63.5174 52.8046 61.8266C53.2381 60.1358 53.78 58.2499 54.387 56.1689C54.9939 54.0879 55.6226 52.0719 56.2946 50.1209C56.9449 48.17 57.6169 46.4358 58.2889 44.8968C58.9609 43.3577 59.5895 42.2738 60.1965 41.6452C60.2398 41.6018 60.1314 41.5151 59.8496 41.3634C59.5678 41.2117 59.1776 41.0599 58.6791 40.9299C58.1805 40.7781 57.5952 40.6047 56.9449 40.4313C56.2946 40.2362 55.6009 40.0411 54.8856 39.8243C53.1947 39.3691 51.2872 38.8705 49.1194 38.372C48.7076 38.502 48.1873 39.1957 47.602 40.4963C47.3636 41.0382 47.1035 41.6235 46.865 42.2738C46.6483 42.6207 46.4315 42.9892 46.2797 43.2927C45.8028 44.1597 45.3259 45.1135 44.6323 46.3058C43.9386 47.498 42.8981 49.0154 42.0744 50.316C40.8171 52.267 39.5815 54.0228 38.0641 56.0388C36.5467 58.0548 35.0076 60.0057 33.4035 61.6532C31.7994 63.3006 30.4771 64.5579 28.938 65.6634C27.5724 66.6606 25.2746 67.5493 23.4754 67.2242C20.7441 66.7473 17.731 63.7775 15.9318 61.1112C14.0675 58.3366 12.9403 55.3885 12.5935 52.2236C12.225 49.0804 12.4634 45.8289 13.2872 42.5123C14.1109 39.1957 15.2815 35.9658 16.7772 32.8443C18.2729 29.7228 19.9854 26.7747 21.9147 24.0434C23.8222 21.3121 25.6865 18.9276 27.4857 16.955C29.2849 14.9607 29.6534 14.4404 31.0407 13.4216C32.4064 12.4244 33.9021 11.0371 35.0076 11.4056C35.051 11.4273 35.0727 11.4273 35.0943 11.449C35.8314 12.0343 35.6363 13.0097 35.4195 14.7872C35.2027 16.5864 34.6391 18.3856 34.1406 20.9652C33.6203 23.5448 32.6665 26.6013 31.5827 29.4627C30.5422 32.194 29.7184 34.275 28.7213 36.7678C27.9409 38.6971 27.1388 40.1928 26.055 42.6423C25.5998 43.6828 31.8211 43.6612 33.6203 42.7507C35.8747 41.6235 36.9803 39.8026 38.5193 37.4398C40.0367 35.077 41.4241 32.6275 42.6597 30.0479C43.8953 27.4684 44.9141 25.0839 45.7161 22.8511C46.5182 20.6184 47.1035 18.7325 47.3636 17.1717C47.7321 14.7656 47.602 13.595 47.3419 12.251C46.735 8.99946 44.3938 5.79124 42.7464 4.16546C38.2375 -0.256674 34.4007 -0.169965 30.1303 0.111838C28.9597 0.176869 25.5347 0.762153 23.8222 1.86769C22.1098 2.95154 20.2672 4.53397 18.3379 6.57162C16.387 8.60927 14.4361 11.0371 12.4418 13.8551C10.4475 16.6732 8.62659 19.7296 6.95745 23.0245C5.28831 26.3195 3.85762 29.7878 2.66538 33.3862C1.47314 37.0063 0.692764 40.648 0.345931 44.3115C-0.0225805 47.9749 0.150836 51.5733 0.822826 55.1284C1.49482 58.6617 2.557 61.7182 4.05272 64.4712C5.28831 66.6172 7.69447 69.9338 11.3579 72.7519C13.1788 74.1609 15.4982 75.4181 18.1645 76.2202C20.3756 76.8705 22.6517 77.109 24.4942 76.9789C25.8599 76.8922 27.7241 76.4803 29.0464 75.8734C30.6722 75.093 31.8428 74.3126 33.3819 73.1854C35.5496 71.5813 36.8068 70.2156 38.2592 68.5682C39.7549 66.8774 40.8171 65.6201 42.1828 63.9076C42.2695 63.8209 42.3345 63.7125 42.3995 63.6041C42.3779 63.8859 42.3562 64.1894 42.3562 64.4712C42.2695 66.2487 42.3995 67.5277 42.7464 68.3297C43.1582 69.3052 43.8953 70.1723 44.9358 70.931C45.9763 71.6897 47.0601 72.3183 48.1873 72.7952C49.3362 73.2721 50.3984 73.6406 51.3739 73.8791C52.371 74.1175 53.043 74.2042 53.4332 74.1609C53.65 74.1175 53.9534 73.8791 54.387 73.4238C54.7989 72.9903 55.2974 72.3833 55.8827 71.6246C56.4463 70.8659 57.0749 69.9989 57.7469 69.0234C58.4189 68.0479 59.0909 67.0508 59.7629 65.9886C59.8496 67.0508 60.0014 67.8311 60.1965 68.3297C60.6083 69.3052 61.3453 70.1723 62.3858 70.931C63.4263 71.6897 64.5102 72.3183 65.6374 72.7952C66.7863 73.2721 67.8485 73.6406 68.8673 73.8791C69.8861 74.1175 70.5581 74.2042 70.8833 74.1609C71.1868 74.1175 71.707 73.6406 72.4874 72.7085C73.2678 71.7764 74.1565 70.6058 75.1537 69.1968C75.5655 68.6115 75.9557 68.0262 76.3676 67.4193C76.4326 68.2864 76.5193 69.1318 76.6494 69.9989C76.6494 70.1072 76.8011 70.259 77.1046 70.4324C77.4081 70.6058 77.7983 70.8009 78.2968 71.0177C78.7954 71.2345 79.3157 71.4729 79.901 71.733C80.4862 71.9715 81.0932 72.2099 81.7435 72.4484C83.2176 73.012 84.865 73.6189 86.7076 74.2476C86.7726 71.1694 87.2061 67.7878 87.9865 64.1677C88.7669 60.526 89.7857 56.7758 91.0863 52.8739C92.387 48.9721 93.9261 44.9835 95.7253 40.9299C97.5245 36.8546 99.4754 32.8443 101.621 28.8991C101.686 28.834 101.405 28.6823 100.711 28.4655C100.039 28.2487 99.1936 28.032 98.2181 27.7502C101.73 27.2516 105.263 26.7964 108.84 26.3628C112.417 25.9293 115.863 25.6041 119.158 25.3657C122.453 25.1489 125.51 25.0188 128.349 25.0188C131.167 25.0188 133.595 25.1923 135.589 25.5174C135.655 25.3874 135.503 25.0405 135.026 24.2818Z" fill="white"/>
<path d="M120.937 49.3408C120.72 48.2569 120.482 47.3682 120.2 46.6528C119.918 45.9375 119.636 45.4606 119.354 45.2005C118.682 44.7019 117.924 44.2467 117.1 43.8348C116.276 43.4446 115.517 43.1195 114.845 42.881C114.174 42.6426 113.61 42.5125 113.176 42.4692C112.743 42.4258 112.548 42.5125 112.634 42.7293C112.895 43.5747 113.025 44.6802 113.068 46.0242C113.111 47.3682 113.068 48.8422 112.938 50.4463C112.808 52.0504 112.569 53.6979 112.244 55.4104C111.897 57.1229 111.464 58.727 110.922 60.2444C109.274 59.7892 108.061 58.7487 107.28 57.1662C106.5 55.5838 106.456 53.4595 107.193 50.8148C107.779 49.2107 108.451 47.6933 109.188 46.2843C109.925 44.8753 110.77 43.6397 111.746 42.5775C111.919 42.4041 111.724 42.144 111.204 41.7755C110.683 41.407 109.99 41.0385 109.144 40.67C108.299 40.2798 107.367 39.9329 106.326 39.5861C105.286 39.2393 104.332 38.9791 103.443 38.7624C102.858 38.6323 102.078 39.1309 101.124 40.2581C100.17 41.3853 99.2163 42.8593 98.2842 44.6802C97.3304 46.5228 96.4633 48.5821 95.6829 50.8799C94.9025 53.1777 94.3606 55.4537 94.0355 57.6865C93.7103 59.9192 93.7537 61.9786 94.1222 63.8645C94.5124 65.7504 95.3578 67.1811 96.7234 68.1999C97.6989 68.9586 98.7611 69.7173 99.9533 70.4543C101.124 71.1913 102.294 71.8417 103.465 72.4269C104.636 72.9905 105.741 73.4241 106.782 73.7276C107.844 74.031 108.754 74.1178 109.513 73.9877C110.987 73.7276 112.309 73.3157 113.48 72.7304C114.65 72.1451 115.669 71.4081 116.558 70.5193C117.447 69.6306 118.184 68.6334 118.812 67.5496C119.138 66.9643 120.308 63.9729 120.915 60.4612C121.457 57.2963 121.457 53.5895 121.414 52.9609C121.305 51.6169 121.154 50.4247 120.937 49.3408ZM107.324 66.5524C106.348 67.5062 105.264 68.0265 104.029 68.1132C103.942 68.1999 103.899 68.0265 103.877 67.6146C103.855 67.2028 103.877 66.5741 103.942 65.7721C104.007 64.97 104.115 64.0162 104.289 62.9324C104.462 61.8268 104.679 60.6563 104.917 59.3773C105.589 60.0927 106.348 60.743 107.172 61.3499C107.996 61.9352 108.884 62.4771 109.86 62.9324C109.144 64.4064 108.299 65.5986 107.324 66.5524Z" fill="white"/>
</svg>
