<svg width="35" height="35" viewBox="0 0 35 35" fill="none" xmlns="http://www.w3.org/2000/svg">
<g clip-path="url(#clip0_6665_37195)">
<path d="M0 29.805C0.180469 28.6511 0.495833 27.5419 1.03997 26.5019C2.00339 24.6626 3.40339 23.2243 5.10234 22.0613C7.4056 20.4845 9.975 19.5757 12.6975 19.0544C14.7428 18.6625 16.8109 18.5558 18.8827 18.657C22.0509 18.8119 25.1052 19.4791 27.9563 20.9156C30.2859 22.0895 32.2738 23.6682 33.641 25.9359C34.3301 27.0789 34.7858 28.3112 34.9562 29.641C34.9635 29.6966 34.9845 29.7503 35 29.805V31.6507C34.8405 32.2596 34.6181 32.8393 34.2417 33.3533C33.5909 34.2411 32.6986 34.7424 31.6504 35.0003H3.34961C2.75078 34.8463 2.18203 34.6285 1.67435 34.263C0.770182 33.6122 0.25612 32.7144 0 31.6507V29.805ZM7.15859 22.435C7.02917 22.3994 6.97448 22.4441 6.91706 22.4769C5.35755 23.3701 3.98125 24.4776 2.91576 25.9377C1.7819 27.4918 1.14661 29.2117 1.23867 31.164C1.26328 31.6808 1.43646 32.1447 1.72904 32.5622C2.37708 33.4855 3.30768 33.8154 4.39323 33.8145C12.9591 33.8145 21.525 33.8145 30.09 33.8145C30.3178 33.8145 30.5457 33.8182 30.7736 33.8136C32.2738 33.7845 33.4314 32.9095 33.7103 31.5386C33.8516 30.8423 33.7823 30.1322 33.6447 29.435C33.1999 27.1873 31.9457 25.4401 30.2413 23.979C29.8174 23.6153 29.812 23.6253 29.6005 24.1239C29.0363 25.4556 28.4785 26.789 27.9016 28.1143C27.6145 28.7733 27.0895 29.1588 26.3703 29.2044C25.0141 29.291 24.0898 27.9557 24.6194 26.686C25.2456 25.1839 25.8854 23.6864 26.5198 22.1871C26.7048 21.7505 26.7085 21.7441 26.2855 21.5746C25.8417 21.3968 25.3978 21.2182 24.9448 21.066C24.1819 20.8099 24.3569 20.7944 24.078 21.4442C23.2167 23.4531 22.3754 25.471 21.5095 27.4772C21.0884 28.4524 20.0621 28.8708 19.137 28.4807C18.2128 28.0915 17.8108 27.0661 18.21 26.0845C18.4971 25.3781 18.8016 24.679 19.0987 23.9763C19.6 22.7914 20.0977 21.6056 20.6063 20.4243C20.7202 20.16 20.6755 20.0643 20.3757 20.0415C19.8087 19.9977 19.2445 19.9349 18.6758 19.9057C18.3832 19.8911 18.252 20.005 18.1471 20.2602C17.6923 21.3658 17.2229 22.4651 16.7553 23.5652C16.1902 24.8959 15.6406 26.2339 15.0518 27.5537C14.5997 28.5654 13.4066 28.9218 12.4906 28.3668C11.8362 27.9703 11.3732 27.0406 11.7943 26.0662C12.5982 24.2059 13.3775 22.3356 14.1641 20.4681C14.206 20.3678 14.3199 20.2548 14.2424 20.1554C14.1704 20.0634 14.0255 20.1144 13.9171 20.1335C13.3355 20.2375 12.7559 20.3578 12.1734 20.4571C11.9438 20.4963 11.8253 20.6148 11.7368 20.8263C11.1371 22.2664 10.5273 23.701 9.91849 25.1375C9.48737 26.1537 9.07448 27.1791 8.61419 28.1826C8.21953 29.0421 7.28255 29.4085 6.40482 29.1014C5.55078 28.8024 5.05312 27.9256 5.2582 27.0278C5.37487 26.5156 5.63555 26.0526 5.83698 25.5695C6.26992 24.5304 6.71016 23.495 7.15677 22.4359L7.15859 22.435ZM13.351 27.3733C13.753 27.3459 13.8924 27.1135 14.01 26.8355C14.8841 24.7583 15.7664 22.6838 16.6432 20.6075C16.9395 19.9066 16.9358 19.9212 16.1738 19.9066C15.863 19.9002 15.7126 20.0023 15.5941 20.2921C15.0773 21.5563 14.5341 22.8105 14.0009 24.0683C13.6454 24.9069 13.2863 25.7436 12.9418 26.5867C12.7823 26.9759 13.0357 27.3769 13.351 27.3742V27.3733ZM19.7887 27.3733C20.1533 27.345 20.3009 27.1363 20.4148 26.8656C21.2215 24.9479 22.04 23.0356 22.843 21.117C23.1073 20.4863 23.2495 20.5701 22.4374 20.3769C22.1165 20.3003 21.9753 20.3742 21.8486 20.6795C21.1796 22.2974 20.4869 23.9052 19.8033 25.5166C19.6483 25.883 19.4824 26.2458 19.3466 26.6186C19.2099 26.9932 19.4715 27.3769 19.7878 27.3733H19.7887ZM10.2749 21.0714C10.2521 21.0496 10.2302 21.0268 10.2074 21.0049C9.88932 21.1216 9.57487 21.2483 9.25313 21.3522C9.01797 21.4278 8.87487 21.5655 8.78464 21.7997C8.59232 22.2983 8.37266 22.7859 8.16484 23.2781C7.61706 24.5769 7.06563 25.8748 6.5224 27.1764C6.39661 27.4772 6.51146 27.7734 6.77396 27.8955C7.04831 28.0231 7.32813 27.9201 7.49401 27.6266C7.5332 27.5574 7.56055 27.4817 7.59154 27.4088C8.23958 25.8803 8.88763 24.3527 9.53568 22.8242C9.78268 22.2408 10.0288 21.6557 10.2749 21.0714ZM26.2619 27.9393C26.5799 27.9393 26.7148 27.7205 26.8215 27.4681C27.3757 26.1574 27.9307 24.8467 28.4831 23.5351C28.7766 22.8397 28.7711 22.8451 28.1076 22.4769C27.9007 22.3621 27.7931 22.3739 27.6983 22.6091C27.4395 23.2535 27.1587 23.8888 26.8871 24.5286C26.5189 25.399 26.1443 26.2668 25.787 27.1408C25.6102 27.5738 25.8417 27.9438 26.2609 27.9384L26.2619 27.9393Z" fill="#C18539"/>
<path d="M17.7719 0C18.3698 0.38099 18.45 0.752865 18.1346 1.37904C17.184 3.26758 17.3663 5.06862 18.5967 6.77305C19.1491 7.53867 19.8099 8.23138 20.2492 9.07357C21.3238 11.1316 21.4058 13.187 20.1006 15.1858C19.5811 15.9806 18.8191 16.502 17.9496 16.8647C17.5577 17.0279 17.1585 16.9495 16.9124 16.6824C16.6526 16.4008 16.6088 16.0234 16.8121 15.6379C17.8603 13.6546 17.6388 11.787 16.3144 10.0142C15.8241 9.35794 15.2717 8.74362 14.867 8.02812C13.6958 5.95729 13.5655 3.86732 14.8552 1.79557C15.2772 1.11745 15.8979 0.627083 16.607 0.257031C16.7683 0.173177 16.9279 0.0865885 17.0883 0.00182292C17.3161 0.00182292 17.544 0.00182292 17.7719 0.00182292V0ZM16.5833 1.76276C15.8952 2.27409 15.5105 2.91029 15.3383 3.675C14.9983 5.18437 15.2982 6.56615 16.2124 7.8112C16.5833 8.31614 16.9707 8.80742 17.3471 9.30872C18.2659 10.5319 18.7681 11.8854 18.6933 13.4404C18.666 13.9991 18.5721 14.5405 18.429 15.0974C18.8529 14.8732 19.2831 14.3527 19.4863 13.7767C20.025 12.2536 19.8673 10.8008 19.0051 9.43086C18.5913 8.7737 18.0808 8.18854 17.6196 7.56693C16.721 6.35651 16.2361 5.02214 16.3044 3.49362C16.3299 2.92305 16.4266 2.3707 16.5842 1.76276H16.5833Z" fill="#C18539"/>
<path d="M23.927 0C24.4046 0.442057 24.422 0.590625 24.2233 1.19583C23.794 2.5056 23.7994 3.74974 24.8494 4.81068C25.0408 5.00482 25.2095 5.22175 25.3954 5.42135C26.7289 6.84414 26.4454 8.8457 25.4246 10.1081C24.8832 10.7771 24.2032 11.2602 23.4285 11.6193C23.1168 11.7642 22.8296 11.7323 22.5763 11.4971C22.322 11.262 22.2609 10.9676 22.3894 10.6549C22.6291 10.0743 22.6829 9.47096 22.6947 8.85117C22.7066 8.19948 22.4842 7.64896 22.0759 7.16133C21.8197 6.85599 21.5609 6.55339 21.2911 6.2599C19.8446 4.68672 20.2602 2.62318 21.4579 1.31706C21.982 0.744661 22.6264 0.344531 23.3118 0H23.927ZM23.9161 9.88203C24.1285 9.65964 24.2998 9.50742 24.4402 9.3306C25.1347 8.45104 25.3608 7.17135 24.4138 6.19974C24.2397 6.02109 24.0802 5.82695 23.9143 5.6401C23.3701 5.02943 22.9199 4.36589 22.775 3.53919C22.692 3.06523 22.7376 2.58763 22.744 2.11094C22.744 2.04714 22.7713 1.96146 22.6929 1.92865C22.6173 1.89674 22.5708 1.96966 22.5243 2.01615C22.2317 2.30781 21.9847 2.6332 21.8316 3.01966C21.477 3.91563 21.5819 4.73229 22.2536 5.45234C22.455 5.66836 22.6483 5.89258 22.8442 6.11406C23.3802 6.72109 23.7994 7.39193 23.917 8.20859C23.9927 8.73724 23.9553 9.27227 23.917 9.88203H23.9161Z" fill="#C18539"/>
<path d="M10.0874 13.7711C10.1312 13.4321 10.3344 13.0438 10.4001 12.6127C10.565 11.5344 10.3746 10.5783 9.58432 9.78169C9.3601 9.55565 9.15229 9.31229 8.94903 9.06802C7.83341 7.73 7.8407 5.94718 8.96635 4.51802C9.50502 3.83351 10.1904 3.33677 10.9761 2.97127C11.2997 2.82088 11.6023 2.84367 11.8602 3.08794C12.1173 3.3313 12.1628 3.63026 12.0307 3.96385C11.7399 4.69666 11.636 5.45317 11.7682 6.23612C11.8502 6.72466 12.0999 7.12752 12.4117 7.49666C12.6979 7.83572 13.0041 8.15838 13.2812 8.50473C14.2555 9.72062 14.2674 11.0349 13.5956 12.373C13.0789 13.402 12.1966 14.0665 11.1703 14.5377C10.6279 14.7865 10.092 14.4347 10.0884 13.7702L10.0874 13.7711ZM11.6652 12.6911C11.7025 12.6929 11.7317 12.7038 11.7445 12.6938C12.7617 11.9036 13.2028 10.2775 12.2795 9.25669C12.089 9.04614 11.9094 8.82466 11.7144 8.61776C10.7847 7.63065 10.2898 6.49497 10.4976 5.11229C10.5113 5.01841 10.5386 4.91085 10.4292 4.76776C10.2871 4.9227 10.1449 5.06398 10.0182 5.2171C9.33458 6.04106 8.99461 7.37179 10.0738 8.45369C10.2825 8.66242 10.4703 8.8921 10.6635 9.11632C11.1858 9.72153 11.5686 10.3978 11.6779 11.2027C11.7454 11.6976 11.718 12.1952 11.6652 12.692V12.6911Z" fill="#C18539"/>
</g>
<defs>
<clipPath id="clip0_6665_37195">
<rect width="35" height="35" fill="white"/>
</clipPath>
</defs>
</svg>
