<svg width="34" height="35" viewBox="0 0 34 35" fill="none" xmlns="http://www.w3.org/2000/svg">
<g clip-path="url(#clip0_6665_37183)">
<path d="M16.9794 34.9992C14.053 34.9992 11.1266 34.9992 8.20029 34.9992C6.79099 34.9992 5.85684 34.3357 5.54115 32.999C5.02612 30.814 4.55312 28.6195 4.09629 26.4218C3.97238 25.8262 3.7709 25.3781 3.23217 24.9959C-0.409609 22.4043 -1.09056 17.0703 1.78623 13.7727C2.82921 12.5772 4.19433 11.8882 5.75771 11.5994C6.16176 11.5251 6.35785 11.369 6.4893 10.9666C7.20796 8.76888 8.85215 7.57766 11.0545 7.06273C11.4854 6.96187 11.7085 6.79306 11.7904 6.36732C11.9918 5.3173 12.6351 4.54863 13.4809 3.93178C13.9711 3.57399 14.4861 3.25017 14.9882 2.90936C15.7812 2.37108 16.2305 1.67248 16.1691 0.677668C16.1282 0.0194137 16.1928 -0.0134991 16.8608 0.00561153C17.6743 0.0279072 18.3962 0.364466 19.0944 0.722259C22.2481 2.33923 24.3922 4.77902 25.2725 8.21786C25.363 8.57141 25.5397 8.72854 25.8931 8.83896C28.8755 9.77325 31.387 11.3424 33.0107 14.0731C34.8542 17.1733 34.0645 21.1228 31.1392 23.2866C30.7028 23.6093 30.4733 23.9735 30.3624 24.4852C29.7525 27.3009 29.1136 30.1101 28.4973 32.9236C28.2021 34.2677 27.3175 35.0003 25.92 35.0014C22.9398 35.0046 19.9596 35.0014 16.9794 35.0024V34.9992ZM18.4145 17.4313C18.8994 17.4313 19.3842 17.4249 19.8691 17.4324C20.4951 17.4419 20.9099 17.7891 20.897 18.2796C20.884 18.7754 20.5252 19.0674 19.8906 19.0706C19.0114 19.0759 18.1279 19.1077 17.2519 19.0525C15.1164 18.9177 13.0057 18.6321 10.9812 17.8974C8.7638 17.0937 7.01079 15.8377 6.46452 13.4075C6.40526 13.142 6.24795 13.0985 6.03462 13.1505C5.04983 13.3926 4.11999 13.744 3.36362 14.4511C1.3531 16.3303 1.07619 19.922 2.77102 22.2599C3.97561 23.9215 5.71031 24.7676 7.64648 25.256C9.98132 25.8453 12.3603 25.9079 14.7523 25.6881C17.7896 25.4089 20.5576 24.4544 22.97 22.5731C23.6175 22.0677 24.2661 21.5571 24.9956 21.1727C26.184 20.5474 27.4134 20.0611 28.799 20.4932C29.3463 20.6631 29.8894 20.9338 30.0477 21.4902C30.2029 22.0338 30.3796 21.8182 30.6231 21.6239C32.2145 20.351 32.4871 18.6162 32.2479 16.7762C32.0636 15.361 31.2372 14.2218 30.2449 13.2153C28.6611 11.6079 26.7357 10.6024 24.5193 10.1353C24.1228 10.0514 23.9429 9.90278 23.874 9.46005C23.332 5.98192 21.217 3.68546 18.1204 2.14494C17.7605 1.96551 17.5816 2.02709 17.4545 2.41567C17.2401 3.07392 16.8113 3.59947 16.2521 4.00928C15.7198 4.39999 15.1746 4.77477 14.623 5.13787C13.65 5.7802 13.1275 6.65398 13.2115 7.82079C13.2503 8.35057 13.0327 8.48647 12.5295 8.46736C11.3734 8.42489 10.3444 8.81241 9.42535 9.48659C7.3114 11.0377 7.28554 13.607 9.36609 15.1975C9.96623 15.6561 10.631 16.0022 11.34 16.2677C13.6188 17.1223 15.9967 17.3867 18.4124 17.4334L18.4145 17.4313ZM5.76633 26.3995C6.24903 28.559 6.70264 30.5932 7.16055 32.6263C7.28877 33.1933 7.68419 33.3642 8.23908 33.3621C10.6806 33.3525 13.121 33.361 15.5625 33.3621C18.9909 33.3632 22.4194 33.3663 25.8478 33.3621C26.5568 33.3621 26.6915 33.2538 26.8434 32.5871C27.3369 30.4159 27.8303 28.2447 28.313 26.0714C28.5501 25.0023 28.8356 23.9385 28.7785 22.8269C28.7483 22.2344 28.4423 21.9106 27.8584 21.9679C26.8272 22.0677 25.8834 22.4139 25.0344 23.1103C25.6701 23.3354 25.7961 23.7633 25.7164 24.3196C25.5041 25.7869 25.3113 27.2584 25.1087 28.7267C25.0171 29.3913 24.9363 30.0592 24.821 30.7206C24.7348 31.2143 24.3006 31.5073 23.8524 31.4213C23.3848 31.3321 23.1305 30.9308 23.2102 30.4265C23.2566 30.1303 23.2857 29.8319 23.3266 29.5347C23.5873 27.6491 23.8492 25.7635 24.1185 23.827C23.3805 24.2973 22.692 24.7369 22.0035 25.1753C21.8882 25.2486 21.8408 25.3537 21.83 25.4864C21.7966 25.8909 21.7503 26.2944 21.7223 26.6999C21.6361 27.9506 21.5682 29.2034 21.4669 30.453C21.4195 31.0359 21.0209 31.3969 20.5446 31.365C20.0867 31.3353 19.7926 30.9648 19.8217 30.3681C19.8766 29.2395 19.9736 28.112 20.0296 26.9834C20.0727 26.1181 20.0565 26.1181 19.2538 26.4133C19.0351 26.4929 18.8186 26.5969 18.5912 26.6309C18.1031 26.7021 18.0094 26.9845 18.0363 27.4176C18.0956 28.405 18.1333 29.3945 18.1527 30.384C18.1645 30.9712 17.8101 31.3619 17.322 31.3672C16.836 31.3725 16.4891 30.9924 16.487 30.3904C16.4837 29.7003 16.4202 29.0144 16.3846 28.3265C16.3264 27.2021 16.3437 27.2011 15.2522 27.2488C14.4969 27.2817 14.4215 27.3752 14.5238 28.1141C14.6251 28.8488 14.7404 29.5824 14.8148 30.3203C14.874 30.9053 14.5583 31.313 14.0659 31.3672C13.5929 31.4192 13.2201 31.0561 13.149 30.4637C13.0671 29.7799 12.996 29.0951 12.9098 28.4114C12.7913 27.4675 12.7881 27.4697 11.8421 27.4368C11.6449 27.4293 11.4466 27.4166 11.2527 27.3847C10.8939 27.3263 10.7959 27.4601 10.8831 27.7977C11.0814 28.5675 11.2678 29.3414 11.452 30.1154C11.6072 30.7641 11.3895 31.2238 10.8799 31.3512C10.3681 31.4786 9.96946 31.1601 9.81539 30.4966C9.59128 29.5325 9.36825 28.5685 9.14522 27.6045C9.10104 27.4102 9.05902 27.1979 8.82413 27.1618C7.8178 27.0057 6.84163 26.7233 5.76741 26.4037L5.76633 26.3995Z" fill="#C18539"/>
</g>
<defs>
<clipPath id="clip0_6665_37183">
<rect width="34" height="35" fill="white"/>
</clipPath>
</defs>
</svg>
