<svg width="35" height="35" viewBox="0 0 35 35" fill="none" xmlns="http://www.w3.org/2000/svg">
<path d="M17.5579 8.77429C19.442 8.81915 21.2723 9.07934 22.9501 9.99449C23.6948 10.3982 24.3497 10.9276 24.915 11.5646C25.229 11.9145 25.4533 12.3272 25.5789 12.7848C25.6417 13.0091 25.7583 13.1347 25.9467 13.2424C27.2208 13.9691 28.4858 14.7138 29.7509 15.4495C30.7199 16.0147 31.0877 16.8402 30.8365 17.9168C30.7827 18.1591 30.8904 18.2398 31.0339 18.3564C32.281 19.3613 33.1962 20.5905 33.5461 22.1875C33.7614 23.1565 33.7435 24.1255 33.5371 25.0945C33.2949 26.1801 32.3259 26.6915 31.2941 26.2698C29.9752 25.7405 28.6653 25.1932 27.3554 24.6369C27.1041 24.5292 26.9875 24.5651 26.826 24.7894C26.2877 25.552 25.4443 25.8661 24.5471 25.6148C23.3359 25.2829 22.1246 24.9061 20.9224 24.5382C20.6801 24.4664 20.4738 24.4754 20.2405 24.5831C18.4551 25.4085 16.6517 25.3726 14.8573 24.601C14.5971 24.4933 14.3818 24.4664 14.1126 24.5472C13.018 24.8881 11.9055 25.1932 10.8199 25.5431C9.70732 25.902 8.66656 25.552 8.15515 24.6907C8.03852 24.4933 7.90394 24.5561 7.75141 24.6189C6.44149 25.1662 5.13157 25.7135 3.81268 26.2519C3.48968 26.3864 3.16669 26.4762 2.81678 26.3954C2.12593 26.2429 1.67733 25.8391 1.53377 25.1393C0.986478 22.4836 1.75808 20.2675 3.83062 18.5269C4.13567 18.2667 4.27922 18.0693 4.17156 17.6297C3.9652 16.8043 4.44072 15.9519 5.26615 15.4674C6.53121 14.7228 7.79627 13.9871 9.0703 13.2603C9.2946 13.1347 9.42919 12.9822 9.50096 12.731C9.78807 11.762 10.4879 11.116 11.2595 10.5328C12.5335 9.58178 13.996 9.13317 15.5481 8.91784C16.2121 8.82812 16.876 8.76532 17.5489 8.77429H17.5579ZM17.4233 9.8958C16.8222 9.88683 16.1044 9.93169 15.3956 10.0483C13.7717 10.3265 12.2913 10.8917 11.1249 12.1209C10.3892 12.8925 10.2367 13.7807 10.6225 14.7587C10.8557 15.3418 11.1159 15.9071 11.3672 16.4813C12.1657 18.3116 12.9731 20.1419 13.7627 21.9812C14.1664 22.9053 14.8304 23.5064 15.7993 23.7935C16.5261 24.0088 17.2618 24.1434 18.0154 24.0627C19.5586 23.8922 20.8147 23.309 21.4069 21.7389C21.6402 21.1198 21.9273 20.5277 22.1875 19.9266C22.9411 18.2129 23.7037 16.4992 24.4305 14.7676C24.8432 13.7986 24.6727 12.9014 23.937 12.1298C23.4256 11.5825 22.8334 11.1519 22.1605 10.8289C20.6981 10.1201 19.137 9.88683 17.4143 9.90477L17.4233 9.8958ZM9.99443 24.601C9.99443 24.601 10.0841 24.592 10.138 24.5741C11.1877 24.269 12.2285 23.955 13.2782 23.6589C13.4756 23.6051 13.4487 23.5244 13.35 23.3987C13.0539 23.0219 12.8565 22.5913 12.6681 22.1516C12.0939 20.8238 11.5107 19.5138 10.9455 18.186C10.443 17.0196 9.85087 15.8891 9.46507 14.6689C9.38433 14.3998 9.31255 14.3908 9.08825 14.5254C8.03852 15.1534 6.97084 15.7635 5.91214 16.3736C5.22129 16.7684 5.06876 17.3157 5.47251 18.0065C5.84933 18.6525 6.2441 19.2985 6.62093 19.9355C7.41047 21.2634 8.20899 22.5913 8.98956 23.9191C9.21386 24.3049 9.50993 24.5831 10.0034 24.601H9.99443ZM29.8406 17.3426C29.7958 16.9299 29.6163 16.6248 29.2574 16.4185C28.746 16.1224 28.2346 15.8263 27.7232 15.5302C27.1311 15.1893 26.5389 14.8484 25.9557 14.4985C25.7942 14.3998 25.6955 14.3549 25.6417 14.6151C25.5699 14.9112 25.4533 15.1983 25.3277 15.4764C24.6099 17.1183 23.9011 18.7692 23.1654 20.4021C22.7078 21.4249 22.3848 22.5105 21.703 23.4346C21.5594 23.632 21.7389 23.632 21.8465 23.6589C22.8065 23.946 23.7576 24.2421 24.7176 24.5203C25.3187 24.6907 25.7314 24.5203 26.0454 23.9999C27.2477 21.9901 28.441 19.9804 29.6432 17.9707C29.7599 17.7733 29.8227 17.5579 29.8406 17.3426ZM2.48481 23.5782C2.48481 23.7576 2.47584 23.946 2.48481 24.1255C2.50276 24.3318 2.52967 24.5292 2.56556 24.7356C2.66425 25.2649 2.94239 25.4264 3.44482 25.2201C4.68297 24.7087 5.91214 24.1883 7.15925 23.6859C7.4015 23.5872 7.43739 23.4885 7.30281 23.2642C6.52224 21.9722 5.75064 20.6712 4.98802 19.3703C4.87138 19.1729 4.78166 19.146 4.60222 19.2985C3.25641 20.42 2.44892 21.8017 2.47584 23.5872L2.48481 23.5782ZM32.595 23.5782C32.595 23.2821 32.5771 22.986 32.5322 22.6989C32.3079 21.2634 31.5184 20.1688 30.4238 19.2626C30.2803 19.146 30.1905 19.1639 30.1098 19.3254C29.9931 19.5408 29.8586 19.7561 29.724 19.9714C29.069 21.066 28.423 22.1606 27.7681 23.2552C27.6873 23.3898 27.5617 23.5423 27.804 23.641C29.1229 24.1883 30.4417 24.7446 31.7786 25.2739C32.1195 25.4085 32.3797 25.229 32.4605 24.8702C32.5592 24.4485 32.613 24.0178 32.595 23.5872V23.5782Z" fill="#C18539"/>
<path d="M15.9874 21.3721C15.9874 21.6413 15.8708 21.8118 15.6465 21.8925C15.4222 21.9733 15.2158 21.9284 15.0633 21.74C14.9915 21.6503 14.9377 21.5516 14.8928 21.4439C14.3186 20.143 13.7534 18.842 13.1882 17.5411C13.0267 17.1642 13.1164 16.8323 13.4304 16.7067C13.7265 16.5811 14.0226 16.7246 14.1841 17.0925C14.7583 18.4024 15.3325 19.7123 15.9067 21.0312C15.9605 21.1478 16.0054 21.2645 15.9874 21.3721Z" fill="#C18539"/>
<path d="M22.9409 12.6954C22.9409 13.0992 22.5372 13.3594 22.1783 13.171C21.963 13.0633 21.7835 12.9108 21.5772 12.7852C20.7158 12.2827 19.7648 12.0764 18.7869 11.9597C18.6792 11.9508 18.5536 11.9328 18.4549 11.8969C18.1947 11.7893 18.0511 11.5919 18.105 11.3048C18.1588 11.0087 18.3741 10.8293 18.6612 10.8562C20.0788 10.9908 21.4426 11.3048 22.6179 12.1751C22.7974 12.3096 22.9409 12.4622 22.9409 12.7044V12.6954Z" fill="#C18539"/>
<path d="M6.55859 17.7641C6.57654 17.3694 6.70215 17.0374 7.0072 16.8221C7.26739 16.6337 7.54552 16.4722 7.82365 16.3376C8.09282 16.212 8.33506 16.2838 8.50553 16.5439C8.65806 16.7862 8.60422 17.0733 8.35301 17.2617C8.20945 17.3694 8.04796 17.4591 7.88646 17.5398C7.67113 17.6475 7.65319 17.7731 7.77879 17.9705C8.11076 18.4999 8.42478 19.0382 8.7388 19.5765C8.82852 19.7201 8.90927 19.8726 8.88236 20.052C8.84647 20.2763 8.72086 20.4199 8.5145 20.5006C8.30814 20.5814 8.09282 20.5275 7.98515 20.366C7.47374 19.6034 6.96234 18.8408 6.60345 17.9884C6.56757 17.9077 6.57654 17.809 6.55859 17.7462V17.7641Z" fill="#C18539"/>
<path d="M28.503 17.7559C28.4761 17.9263 28.4672 18.0968 28.3864 18.2493C27.9916 18.9222 27.5969 19.6041 27.1841 20.268C27.0047 20.5641 26.7086 20.618 26.4484 20.4654C26.1793 20.3039 26.1075 20.0079 26.269 19.6938C26.3139 19.6131 26.3587 19.5323 26.4036 19.4606C26.6907 18.9761 26.9778 18.4826 27.2828 17.9981C27.4174 17.7828 27.3995 17.6572 27.1662 17.5405C26.9957 17.4508 26.8253 17.3611 26.6727 17.2355C26.4843 17.083 26.4036 16.8676 26.5112 16.6254C26.6099 16.4101 26.7714 16.2844 27.0137 16.2934C27.6328 16.3024 28.4492 17.074 28.4941 17.6931C28.4941 17.72 28.4941 17.7379 28.4941 17.7648L28.503 17.7559Z" fill="#C18539"/>
</svg>
