<svg width="35" height="35" viewBox="0 0 35 35" fill="none" xmlns="http://www.w3.org/2000/svg">
<g clip-path="url(#clip0_6665_37202)">
<path d="M0.00182482 22.6041C0.296533 21.5686 0.964416 20.9255 2.02099 20.701C2.28832 20.6445 2.46259 20.4939 2.59307 20.2613C3.09489 19.37 3.87774 18.9375 4.88504 18.9029C5.13139 18.8946 5.31661 18.8071 5.48631 18.6355C6.36131 17.7561 7.16788 17.5371 8.34489 17.8546C8.35766 17.7615 8.27099 17.7524 8.2281 17.7232C7.3385 17.1202 6.94069 16.2681 7.11405 15.2244C7.29288 14.1488 7.96989 13.4646 9.04653 13.2173C9.37135 13.1425 9.58303 12.9774 9.75 12.6882C10.2327 11.8516 10.9881 11.4383 11.9389 11.3954C12.2363 11.3817 12.4535 11.2823 12.6533 11.0688C13.4224 10.2477 14.3622 10.0315 15.4252 10.3444C15.7089 10.4284 15.9471 10.411 16.2062 10.2705C17.0493 9.81439 17.9051 9.8153 18.7509 10.2623C19.0073 10.3983 19.2427 10.4357 19.5301 10.349C20.6049 10.026 21.5538 10.2477 22.3303 11.0807C22.521 11.285 22.7308 11.3808 23.0155 11.3936C23.9954 11.4365 24.76 11.8689 25.2482 12.7329C25.3942 12.9911 25.5894 13.1379 25.8768 13.2027C26.9799 13.449 27.6788 14.1333 27.8568 15.2436C28.0274 16.3073 27.6022 17.1558 26.6971 17.7524C26.6688 17.7707 26.6432 17.7926 26.6186 17.8336C27.0885 17.7123 27.563 17.6785 28.0347 17.7716C28.5858 17.8801 29.0575 18.1502 29.4279 18.5762C29.6195 18.7961 29.8412 18.8937 30.1405 18.9065C31.1058 18.9485 31.8677 19.369 32.3513 20.2221C32.5109 20.5031 32.7272 20.6536 33.0347 20.7275C34.1004 20.9857 34.8558 21.7484 34.9754 22.7291C35.1086 23.8202 34.7318 24.697 33.7728 25.2836C33.4708 25.4688 33.2445 25.7069 33.1131 26.039C33.0411 26.2223 33.0903 26.2899 33.2838 26.2862C33.5684 26.2807 33.8531 26.2753 34.1369 26.2899C34.7546 26.3209 34.9936 26.5781 34.9927 27.1894C34.9909 29.077 33.6186 30.9025 31.7673 31.4335C31.3686 31.5475 31.1423 31.73 30.9571 32.1232C30.0803 33.9797 28.5995 34.9778 26.5283 34.9824C20.5073 34.9961 14.4854 34.9696 8.46442 34.9988C6.75182 35.007 4.70438 33.998 3.88869 31.8659C3.82208 31.6926 3.74453 31.5886 3.55018 31.5366C1.65876 31.0366 0.495438 29.8223 0.044708 27.922C0.0346715 27.8782 0.0155109 27.8362 0.000912409 27.7933C0.000912409 27.4293 0.000912409 27.0653 0.000912409 26.7004C0.260036 26.3628 0.617701 26.2698 1.0219 26.2835C1.22537 26.2908 1.42974 26.2734 1.6323 26.2871C1.92336 26.3072 1.92792 26.1822 1.82664 25.9651C1.7135 25.7224 1.56661 25.5025 1.33303 25.3766C0.645985 25.0035 0.222628 24.4315 0 23.6952V22.6023L0.00182482 22.6041ZM10.3668 26.2853C12.4836 26.2853 14.6004 26.2743 16.7172 26.2953C17.1195 26.299 17.3212 26.1685 17.4261 25.7908C17.6414 25.0227 18.1004 24.4369 18.7956 24.0346C19.2208 23.7892 19.3805 23.3987 19.2956 22.9316C19.2172 22.4965 18.9142 22.2328 18.4909 22.1461C17.7518 21.9938 17.208 21.6042 16.8485 20.9364C16.6442 20.5569 16.3011 20.3735 15.865 20.3699C15.1925 20.3644 14.6232 20.1208 14.1734 19.6154C13.8011 19.1975 13.3531 19.0698 12.8203 19.2504C12.1807 19.4676 11.5721 19.401 10.9799 19.0735C10.5858 18.8554 10.1697 18.8436 9.77281 19.0652C9.16058 19.4074 8.53193 19.4667 7.8677 19.2404C7.34671 19.0625 6.90967 19.213 6.55109 19.6208C6.12135 20.1108 5.57391 20.3626 4.92792 20.3653C4.43066 20.3671 4.07938 20.5815 3.84215 21.0021C3.68978 21.273 3.50547 21.5157 3.25912 21.7073C2.94617 21.9509 2.57755 22.0567 2.20073 22.1571C1.81478 22.2602 1.53376 22.5019 1.44343 22.9106C1.35766 23.2975 1.48084 23.625 1.75639 23.9023C1.89781 24.0456 2.01642 24.0684 2.19161 23.9215C2.52281 23.6441 2.86861 23.3814 3.22901 23.1442C6.62135 20.9118 10.2308 20.2102 14.1332 21.6215C14.7226 21.835 15.2947 22.0896 15.8403 22.397C16.2555 22.6306 16.3923 23.0338 16.2016 23.4051C16.011 23.7773 15.6058 23.8886 15.1724 23.6852C15.0283 23.6177 14.8896 23.5392 14.7464 23.4681C12.7856 22.4955 10.7318 22.1096 8.55748 22.4846C6.65602 22.8121 4.9708 23.6232 3.44161 24.7809C3.17336 24.984 3.1028 25.2459 3.22993 25.5664C3.26734 25.6613 3.31204 25.7562 3.33485 25.8547C3.4115 26.1831 3.59945 26.2972 3.94617 26.2944C6.08577 26.2789 8.22536 26.2871 10.365 26.2871L10.3668 26.2853ZM17.4818 27.7477C12.2929 27.7477 7.10493 27.7477 1.91606 27.7477C1.4927 27.7477 1.47445 27.776 1.62591 28.1683C2.125 29.4583 3.31204 30.2265 4.82482 30.2274C13.1423 30.2283 21.4599 30.2274 29.7774 30.2292C30.1533 30.2292 30.5265 30.211 30.8996 30.1635C31.9854 30.0258 33.0858 29.0824 33.3932 28.0342C33.458 27.8125 33.4024 27.7359 33.1834 27.7468C33.0812 27.7514 32.979 27.7468 32.8759 27.7468C27.7445 27.7468 22.6131 27.7468 17.4818 27.7468V27.7477ZM10.3294 17.4468C10.917 17.4468 11.3577 17.6083 11.7783 17.8455C11.9544 17.9449 12.1378 17.9422 12.3376 17.8801C13.4626 17.5289 14.4471 17.746 15.2564 18.6328C15.4088 18.7998 15.5858 18.9001 15.8221 18.901C16.3449 18.9038 16.8376 19.0324 17.2737 19.3289C17.4297 19.4347 17.5529 19.4283 17.7062 19.3253C18.1223 19.0443 18.594 18.9138 19.0912 18.9047C19.3641 18.9001 19.5666 18.7979 19.7473 18.6027C20.5301 17.7515 21.4891 17.5371 22.5757 17.8665C22.8513 17.9495 23.0839 17.9212 23.3239 17.7834C23.7062 17.5645 24.115 17.4304 24.5611 17.4623C24.802 17.4796 24.9635 17.3984 25.1058 17.2005C25.2938 16.9414 25.5429 16.7352 25.8257 16.5819C26.292 16.3292 26.5018 15.9415 26.4078 15.4224C26.323 14.9534 25.9936 14.708 25.5429 14.6159C24.8394 14.4727 24.3312 14.0795 23.9863 13.4518C23.7737 13.065 23.4361 12.8588 22.9827 12.857C22.3102 12.8542 21.7418 12.6106 21.2911 12.1043C20.9215 11.6883 20.4763 11.5523 19.9389 11.7357C19.3139 11.9492 18.7099 11.8981 18.1296 11.5742C17.7108 11.3398 17.2801 11.3334 16.8595 11.5669C16.2692 11.8945 15.6615 11.9592 15.0201 11.7366C14.5018 11.556 14.0557 11.6846 13.6953 12.0924C13.2363 12.6106 12.6606 12.8588 11.9754 12.8588C11.5776 12.8588 11.2391 13.0175 11.0557 13.3523C10.6615 14.0722 10.0849 14.4745 9.28558 14.6633C8.51369 14.8458 8.29106 15.79 8.8312 16.3538C9.00091 16.5308 9.1396 16.5673 9.35036 16.3931C9.69161 16.1103 10.0511 15.8484 10.4206 15.603C12.3248 14.3395 14.4033 13.5594 16.6989 13.4417C18.8777 13.3304 20.9151 13.8632 22.8321 14.885C22.9224 14.9334 23.0137 14.9826 23.0922 15.0465C23.386 15.2855 23.4544 15.6541 23.271 15.9643C23.0867 16.2763 22.7281 16.4077 22.3887 16.279C22.2509 16.227 22.1204 16.155 21.99 16.0865C20.0912 15.0921 18.0821 14.6953 15.9498 14.9735C13.8741 15.2436 12.0657 16.1258 10.3303 17.4495L10.3294 17.4468ZM18.4644 20.5833C18.5931 20.7047 18.7482 20.701 18.886 20.7366C19.3723 20.8634 19.8011 21.0961 20.125 21.4792C20.2828 21.6653 20.4124 21.6608 20.6214 21.5896C22.1515 21.0641 23.7144 20.8023 25.3449 20.93C27.0547 21.0641 28.6405 21.5705 30.1423 22.3715C30.6049 22.6178 30.7527 23.0292 30.5429 23.4197C30.3412 23.7947 29.9288 23.8987 29.4781 23.6597C28.208 22.9873 26.8741 22.5293 25.4361 22.3925C23.9151 22.2474 22.4443 22.4636 21.0155 22.9909C20.8759 23.042 20.7956 23.1177 20.7792 23.2829C20.688 24.2098 20.2345 24.905 19.4179 25.3602C19.1442 25.5126 19.0009 25.7708 18.8805 26.0454C18.812 26.2014 18.8485 26.2853 19.0292 26.2835C19.1314 26.2826 19.2345 26.2853 19.3367 26.2853C23.1606 26.2853 26.9854 26.288 30.8093 26.2835C31.4735 26.2835 31.437 26.4221 31.6971 25.6695C31.937 24.9752 32.3531 24.4287 32.9936 24.0583C33.3951 23.8257 33.6058 23.4708 33.5465 23.0101C33.4845 22.5284 33.1679 22.2428 32.7016 22.1416C31.9927 21.9883 31.458 21.6197 31.1077 20.9729C30.8914 20.5742 30.5438 20.3671 30.0748 20.3671C29.4133 20.3671 28.8586 20.1126 28.4179 19.6181C28.0465 19.2021 27.6031 19.0671 27.0675 19.2495C26.4297 19.4676 25.8166 19.4083 25.2263 19.078C24.8166 18.849 24.3942 18.8499 23.9872 19.0744C23.3951 19.4019 22.7865 19.4667 22.1469 19.2495C21.6131 19.0689 21.1651 19.1994 20.7947 19.6181C20.3449 20.1254 19.7746 20.3626 19.1022 20.3708C18.8714 20.3735 18.6569 20.4228 18.4644 20.5842V20.5833ZM17.5018 31.6807C13.667 31.6807 9.83303 31.6798 5.99818 31.6844C5.82664 31.6844 5.57755 31.5877 5.49909 31.7647C5.42792 31.9243 5.62774 32.0867 5.73814 32.2254C6.50091 33.1933 7.53011 33.5756 8.73358 33.5747C14.4453 33.5738 20.1578 33.5729 25.8695 33.5765C26.2801 33.5765 26.6907 33.5692 27.094 33.5017C28.0903 33.3357 28.8586 32.8111 29.417 31.9717C29.5639 31.751 29.4963 31.6652 29.2454 31.6789C29.1661 31.6835 29.0858 31.6789 29.0064 31.6789C25.1715 31.6789 21.3376 31.6789 17.5027 31.6789L17.5018 31.6807Z" fill="#C18539"/>
<path d="M17.8277 0C18.46 0.532791 18.5038 1.24987 18.4335 1.99249C18.4034 2.30998 18.2912 2.60922 18.1379 2.89386C17.9043 3.32721 17.9226 3.75873 18.147 4.19664C18.564 5.00678 18.5777 5.83333 18.189 6.65624C17.9782 7.10145 17.5695 7.25289 17.1735 7.05948C16.8322 6.89253 16.6771 6.51209 16.8432 6.13257C17.0603 5.63536 17.0238 5.17738 16.7821 4.69568C16.3788 3.88919 16.4107 3.06902 16.8231 2.27166C17.0248 1.8821 17.0503 1.49163 16.9071 1.08748C16.7173 0.553774 16.7711 0.346679 17.2136 0H17.8286L17.8277 0Z" fill="#C18539"/>
<path d="M14.3677 2.79991C14.3659 3.37558 14.2856 3.7989 14.073 4.1848C13.8084 4.66468 13.8221 5.12814 14.0703 5.61349C14.4626 6.37892 14.4663 7.16533 14.1241 7.95084C13.9197 8.42068 13.5137 8.61044 13.1095 8.43892C12.7208 8.27471 12.5867 7.87146 12.7783 7.40162C12.9526 6.97375 12.9343 6.56321 12.7236 6.15266C12.2874 5.30148 12.2984 4.44755 12.7382 3.60184C12.9407 3.21228 12.9754 2.80356 12.7856 2.42039C12.553 1.95055 12.8385 1.49713 13.1305 1.38035C13.5466 1.21522 13.9261 1.39404 14.1396 1.87574C14.2884 2.21147 14.3696 2.56454 14.3659 2.799L14.3677 2.79991Z" fill="#C18539"/>
<path d="M22.56 2.95865C22.5546 3.40933 22.4597 3.83629 22.2425 4.23497C22.0007 4.68018 22.0117 5.12357 22.2425 5.56969C22.6385 6.33329 22.6631 7.11332 22.3374 7.90521C22.1339 8.39968 21.727 8.6086 21.3164 8.43891C20.9141 8.27287 20.7863 7.8751 20.9816 7.37698C21.1394 6.97283 21.1339 6.57688 20.9341 6.19097C20.4807 5.31789 20.488 4.44845 20.9414 3.57993C21.1385 3.20223 21.1349 2.81724 20.9907 2.42677C20.8146 1.9478 20.936 1.55095 21.3146 1.38764C21.7252 1.20974 22.1139 1.38947 22.3283 1.86661C22.4834 2.21237 22.5664 2.57639 22.5591 2.95865H22.56Z" fill="#C18539"/>
</g>
<defs>
<clipPath id="clip0_6665_37202">
<rect width="35" height="35" fill="white"/>
</clipPath>
</defs>
</svg>
