<svg width="90" height="90" viewBox="0 0 90 90" fill="none" xmlns="http://www.w3.org/2000/svg">
<path d="M39.112 2.76074C29.6023 3.34082 21.1824 5.9248 14.7312 10.2314C10.8288 12.833 7.82298 15.9267 5.66087 19.6182C4.81712 21.042 4.7468 21.499 5.36204 21.9033C6.01243 22.3252 6.41673 22.0791 7.17259 20.7607C11.7781 12.7627 22.0788 6.87402 34.7175 4.97558C37.7585 4.51855 46.7585 4.51855 50.0105 4.97558C58.3425 6.15332 66.0241 8.59668 70.6648 11.5322C74.1101 13.7119 77.362 16.7353 79.8581 20.0752C84.9031 26.8076 87.7156 34.4717 88.0144 42.2764C88.2956 49.8701 86.0984 57.5693 81.5984 64.7412C74.8659 75.4639 63.2116 82.8115 49.4831 84.9385C46.196 85.4482 39.2527 85.501 36.3171 85.0264C31.571 84.2705 28.1609 83.2334 24.2937 81.3701C20.0222 79.3311 17.2273 77.3271 13.3952 73.583C5.78391 66.1299 1.9343 57.4463 1.9343 47.7256C1.9343 40.8877 3.37571 34.208 5.94212 29.0928C6.9968 26.9658 7.89329 25.7002 9.44016 24.083C10.8113 22.6416 10.9695 22.1846 10.4773 21.2705L10.2312 20.8486L8.61399 22.4131C4.72923 26.1924 2.93626 29.7607 1.33665 36.915C-0.983665 47.2861 -0.210227 55.8291 3.72727 63.7041C6.6804 69.6103 11.8484 75.6221 17.5788 79.8232C21.5866 82.7588 25.3659 84.5342 30.0593 85.6592C40.0964 88.1025 49.7292 87.751 58.2195 84.6572C61.9109 83.3213 68.7663 80.1045 71.3327 78.5049C76.3952 75.3584 80.4382 70.7705 84.7273 63.2822C86.5027 60.1533 87.4519 58.1494 88.2429 55.7764C90.4226 49.167 90.5456 41.626 88.5769 33.751C85.6589 22.0264 77.5202 12.0771 66.9909 7.38378C63.7038 5.90722 59.0456 4.55371 54.6687 3.79785C50.0984 3.00683 42.8738 2.53222 39.112 2.76074Z" fill="white"/>
<path d="M31.8533 26.8252C30.7811 27.5811 30.4471 29.3389 30.2361 35.3331C30.0076 41.6612 30.0076 51.3819 30.2186 54.1417C30.5701 58.5538 30.9041 59.3975 32.7498 60.5928C33.576 61.1378 33.7518 61.1905 34.5955 61.1026C35.7733 60.9971 36.4588 60.6456 41.1346 57.6924C49.2733 52.5772 56.9725 47.1631 60.6112 43.9991C61.9295 42.8565 63.4588 41.2393 63.4588 40.9756C63.4588 40.8878 63.3358 40.5362 63.1951 40.1846C62.9315 39.587 62.6678 39.4288 58.4842 37.3721C50.7674 33.5753 39.324 28.7237 33.9627 26.9659C32.451 26.4737 32.3631 26.4561 31.8533 26.8252ZM41.6092 36.2823C43.2088 36.7745 46.4608 38.0577 47.0936 38.4268C47.6561 38.7608 47.5682 38.7256 44.4744 37.6534C43.0682 37.1612 40.994 36.5108 39.869 36.1944C37.285 35.5088 36.494 35.0342 38.7088 35.5088C39.5701 35.7022 40.8709 36.0362 41.6092 36.2823ZM37.5838 37.46C38.1815 37.6534 38.6737 37.8292 38.6737 37.8467C38.6737 37.8995 35.2635 37.7764 35.2108 37.7237C35.1932 37.7061 35.1229 37.3545 35.0526 36.9503L34.9295 36.212L35.7029 36.6514C36.1248 36.8799 36.9686 37.2491 37.5838 37.46ZM35.7733 42.171C35.5799 42.9795 35.3338 43.0147 35.3338 42.2237C35.3338 41.626 35.3865 41.5206 35.6151 41.6085C35.8084 41.6788 35.8612 41.837 35.7733 42.171ZM44.4393 41.7842C44.2635 41.8194 43.9822 41.8194 43.824 41.7842C43.6483 41.7315 43.7889 41.6963 44.1229 41.6963C44.4569 41.6963 44.5975 41.7315 44.4393 41.7842ZM46.0213 41.96C45.8455 41.9952 45.5643 41.9952 45.4061 41.96C45.2303 41.9073 45.3709 41.8721 45.7049 41.8721C46.0389 41.8721 46.1795 41.9073 46.0213 41.96ZM41.3455 44.1397C41.0819 44.2452 40.8182 44.2276 40.6424 44.1221C40.4139 43.9991 40.5018 43.9639 41.0467 43.9639C41.6619 43.9639 41.6971 43.9815 41.3455 44.1397ZM47.4451 45.7745C47.0233 46.1436 36.4061 50.5206 36.2654 50.3799C36.2127 50.3448 36.2479 50.0811 36.3358 49.8174C36.4764 49.4131 36.7049 49.2725 37.9881 48.8682C38.7967 48.6045 40.3436 48.0596 41.3983 47.6378C44.035 46.6006 47.8319 45.4405 47.4451 45.7745Z" fill="white"/>
</svg>
