<svg width="38" height="38" viewBox="0 0 38 38" fill="none" xmlns="http://www.w3.org/2000/svg">
<path d="M26.2945 17.1072C26.3185 14.2152 23.8555 11.5642 20.8045 11.1972C20.7386 11.1888 20.6729 11.1788 20.6075 11.1672C20.454 11.1384 20.2986 11.1217 20.1425 11.1172C19.5165 11.1172 19.3495 11.5572 19.3055 11.8182C19.2628 12.0742 19.3032 12.2865 19.4265 12.4552C19.6335 12.7362 19.9985 12.7862 20.2915 12.8262C20.3765 12.8382 20.4575 12.8492 20.5255 12.8642C23.2675 13.4772 24.1905 14.4402 24.6415 17.1592C24.6525 17.2252 24.6575 17.3072 24.6635 17.3942C24.6835 17.7192 24.7235 18.3952 25.4505 18.3952C25.5112 18.3952 25.5758 18.3902 25.6445 18.3802C26.3205 18.2772 26.2995 17.6592 26.2895 17.3622C26.2865 17.2782 26.2835 17.1992 26.2915 17.1462L26.2935 17.1062L26.2945 17.1072Z" fill="black"/>
<path d="M19.962 10.136C20.0446 10.1413 20.1186 10.1483 20.184 10.157C24.687 10.85 26.758 12.983 27.331 17.521C27.341 17.598 27.343 17.692 27.344 17.791C27.35 18.146 27.362 18.884 28.154 18.899H28.178C28.4273 18.899 28.6233 18.8247 28.766 18.676C29.012 18.419 28.996 18.036 28.981 17.728C28.9776 17.6513 28.9756 17.5813 28.975 17.518C29.033 12.878 25.015 8.669 20.379 8.513C20.359 8.513 20.3403 8.514 20.323 8.516L20.268 8.519C20.22 8.51833 20.1653 8.51567 20.104 8.511C20.032 8.506 19.949 8.5 19.864 8.5C19.126 8.5 18.986 9.025 18.968 9.338C18.927 10.061 19.626 10.112 19.962 10.136ZM27.114 23.386C27.0173 23.3126 26.9217 23.2379 26.827 23.162C26.335 22.766 25.812 22.402 25.307 22.049L24.992 21.829C24.344 21.374 23.762 21.153 23.212 21.153C22.47 21.153 21.824 21.563 21.29 22.37C21.054 22.728 20.767 22.902 20.414 22.902C20.1686 22.8947 19.9278 22.8343 19.708 22.725C17.618 21.777 16.124 20.323 15.27 18.404C14.857 17.476 14.991 16.87 15.717 16.376C16.13 16.096 16.897 15.575 16.844 14.576C16.782 13.443 14.281 10.032 13.227 9.645C12.7764 9.48039 12.2824 9.47897 11.831 9.641C10.62 10.048 9.75196 10.764 9.31696 11.709C8.89696 12.623 8.91696 13.696 9.37096 14.812C10.686 18.039 12.534 20.853 14.865 23.175C17.146 25.448 19.95 27.309 23.198 28.708C23.491 28.834 23.798 28.903 24.023 28.953C24.099 28.97 24.165 28.985 24.213 28.998C24.2393 29.0053 24.2666 29.009 24.294 29.009H24.32C25.848 29.009 27.683 27.613 28.246 26.022C28.74 24.628 27.838 23.939 27.114 23.386ZM20.638 13.823C20.377 13.829 19.832 13.843 19.641 14.397C19.551 14.657 19.5616 14.88 19.673 15.066C19.835 15.336 20.146 15.42 20.428 15.466C21.453 15.63 21.98 16.196 22.085 17.249C22.134 17.739 22.465 18.082 22.888 18.082C22.92 18.0815 22.9521 18.0795 22.984 18.076C23.494 18.016 23.741 17.641 23.719 16.962C23.727 16.254 23.357 15.45 22.726 14.81C22.094 14.168 21.332 13.806 20.638 13.823Z" fill="black"/>
</svg>
