<svg width="38" height="38" viewBox="0 0 38 38" fill="none" xmlns="http://www.w3.org/2000/svg">
<path fill-rule="evenodd" clip-rule="evenodd" d="M25.3509 28.6888V28.6865L25.3727 28.6371L29 11.2909V11.2358C29 10.8033 28.8307 10.4258 28.4654 10.1998C28.1449 10.0014 27.776 9.98759 27.5171 10.0059C27.2762 10.0268 27.0385 10.073 26.8084 10.1436C26.7101 10.1733 26.6133 10.207 26.5181 10.2446L26.5024 10.2503L6.27935 17.7751L6.2733 17.7773C6.21135 17.796 6.15108 17.8194 6.09309 17.8473C5.94934 17.9088 5.81137 17.9817 5.68064 18.0653C5.4206 18.2351 4.92591 18.6343 5.00937 19.2676C5.07831 19.793 5.4593 20.1257 5.71693 20.299C5.86865 20.4006 6.03221 20.4853 6.20436 20.5514L6.24307 20.5674L6.25516 20.5709L6.26363 20.5743L9.80265 21.7044C9.78975 21.9154 9.81273 22.1277 9.8716 22.3411L11.6435 28.7186C11.7403 29.0662 11.9495 29.3764 12.2417 29.6055C12.5338 29.8346 12.8943 29.9711 13.2725 29.9959C13.6506 30.0207 14.0275 29.9325 14.3501 29.7438C14.6728 29.555 14.9249 29.2751 15.0713 28.9434L17.8386 26.1373L22.5908 29.5928L22.6585 29.6203C23.0903 29.7993 23.4931 29.8555 23.862 29.8085C24.2309 29.7603 24.5236 29.6134 24.7437 29.4471C24.9984 29.2513 25.2013 29.0019 25.3364 28.7186L25.3461 28.6991L25.3497 28.6922L25.3509 28.6888ZM11.6254 21.9028C11.6058 21.8321 11.6104 21.7572 11.6387 21.6891C11.667 21.6211 11.7174 21.5633 11.7826 21.5242L23.7822 14.2966C23.7822 14.2966 24.4885 13.8894 24.4631 14.2966C24.4631 14.2966 24.5889 14.3678 24.2103 14.7016C23.8523 15.0194 15.6579 22.5235 14.8282 23.283C14.7831 23.3262 14.751 23.3801 14.735 23.439L13.3973 28.2803L11.6254 21.9028Z" fill="black"/>
</svg>
