<svg width="38" height="38" viewBox="0 0 38 38" fill="none" xmlns="http://www.w3.org/2000/svg">
<path fill-rule="evenodd" clip-rule="evenodd" d="M24.5912 8.59258C20.9088 7.80247 17.09 7.80247 13.4076 8.59258L13.0108 8.67684C11.9747 8.89854 11.023 9.3919 10.2617 10.102C9.50042 10.8121 8.95939 11.7111 8.69886 12.6988C7.76705 16.2295 7.76705 19.9275 8.69886 23.4582C8.94735 24.4002 9.45119 25.2623 10.1592 25.9569C10.8672 26.6515 11.7541 27.1538 12.7299 27.4128L13.2742 30.5315C13.2915 30.6306 13.3362 30.7233 13.4036 30.8001C13.471 30.877 13.5587 30.935 13.6574 30.9683C13.7561 31.0016 13.8623 31.0088 13.9649 30.9893C14.0676 30.9698 14.1629 30.9242 14.2409 30.8574L17.4374 28.1127C19.837 28.2518 22.2449 28.0676 24.5912 27.5656L24.9892 27.4813C26.0253 27.2597 26.977 26.7663 27.7383 26.0562C28.4996 25.3461 29.0406 24.4471 29.3011 23.4594C30.233 19.9286 30.233 16.2307 29.3011 12.7C29.0405 11.7121 28.4993 10.813 27.7378 10.1029C26.9763 9.39275 26.0244 8.89947 24.988 8.67796L24.5912 8.59258ZM14.3954 12.6078C14.1779 12.5773 13.956 12.6193 13.7669 12.7269H13.7505C13.3116 12.9741 12.916 13.2853 12.5789 13.6515C12.298 13.9627 12.1458 14.2773 12.106 14.5806C12.0826 14.7604 12.099 14.9424 12.154 15.1143L12.1751 15.1255C12.4911 16.0164 12.9031 16.8736 13.4064 17.6803C14.0557 18.8131 14.8542 19.8609 15.7824 20.7979L15.8105 20.8361L15.855 20.8675L15.8819 20.8979L15.9147 20.9248C16.8943 21.8184 17.9885 22.5885 19.1709 23.2167C20.5228 23.9233 21.3432 24.257 21.836 24.3963V24.4031C21.98 24.4458 22.1111 24.4649 22.2433 24.4649C22.6632 24.4359 23.0607 24.2721 23.3716 23.9997C23.752 23.6762 24.0739 23.2953 24.3244 22.8718V22.8639C24.5596 22.437 24.4801 22.0348 24.1406 21.7618C23.4594 21.1893 22.7221 20.6814 21.939 20.2451C21.4146 19.9721 20.8821 20.1373 20.6667 20.4136L20.2067 20.9709C19.9703 21.2473 19.5419 21.2091 19.5419 21.2091L19.5302 21.2158C16.3337 20.4327 15.4805 17.3264 15.4805 17.3264C15.4805 17.3264 15.4407 16.904 15.7368 16.6882L16.3126 16.2434C16.5889 16.0277 16.7808 15.5176 16.4847 15.0143C16.0312 14.2632 15.5033 13.5559 14.9081 12.9022C14.7779 12.7487 14.5956 12.6441 14.3931 12.6067M19.7959 11.2574C19.6407 11.2574 19.4918 11.3166 19.3821 11.422C19.2723 11.5273 19.2107 11.6702 19.2107 11.8192C19.2107 11.9681 19.2723 12.111 19.3821 12.2164C19.4918 12.3217 19.6407 12.3809 19.7959 12.3809C21.2765 12.3809 22.5055 12.8449 23.4781 13.7347C23.9779 14.2211 24.3677 14.7975 24.6228 15.4288C24.8792 16.0614 24.9962 16.7366 24.9658 17.4129C24.9626 17.4866 24.9745 17.5603 25.0009 17.6296C25.0274 17.699 25.0678 17.7626 25.1198 17.817C25.225 17.9268 25.3712 17.9919 25.5264 17.9982C25.6816 18.0045 25.8331 17.9513 25.9475 17.8504C26.0618 17.7494 26.1297 17.609 26.1362 17.4601C26.1712 16.6282 26.0273 15.7984 25.7137 15.0222C25.3986 14.242 24.9188 13.5328 24.3045 12.9393L24.2928 12.928C23.086 11.8214 21.5586 11.2574 19.7959 11.2574ZM19.7561 13.1044C19.6009 13.1044 19.452 13.1636 19.3423 13.2689C19.2325 13.3743 19.1709 13.5172 19.1709 13.6661C19.1709 13.8151 19.2325 13.958 19.3423 14.0633C19.452 14.1687 19.6009 14.2279 19.7561 14.2279H19.776C20.8435 14.3009 21.6206 14.6424 22.1649 15.203C22.7232 15.7805 23.0123 16.4984 22.9901 17.3859C22.9865 17.5349 23.0447 17.6791 23.152 17.7869C23.2592 17.8947 23.4066 17.9571 23.5618 17.9606C23.717 17.964 23.8673 17.9081 23.9796 17.8052C24.0919 17.7023 24.157 17.5607 24.1605 17.4118C24.1886 16.2467 23.7977 15.2412 23.0228 14.4391V14.4368C22.2304 13.6212 21.1431 13.1898 19.8345 13.1055L19.8146 13.1033L19.7561 13.1044ZM19.7339 14.9862C19.6556 14.9796 19.5766 14.9882 19.5019 15.0114C19.4271 15.0347 19.3579 15.0722 19.2986 15.1217C19.2392 15.1712 19.1909 15.2317 19.1564 15.2995C19.122 15.3674 19.1021 15.4412 19.098 15.5165C19.0939 15.5919 19.1057 15.6673 19.1326 15.7382C19.1595 15.8091 19.2011 15.874 19.2548 15.9292C19.3084 15.9844 19.3731 16.0286 19.445 16.0592C19.5168 16.0898 19.5944 16.1062 19.673 16.1074C20.1623 16.1321 20.4748 16.2737 20.6714 16.4636C20.8692 16.6545 21.0167 16.9612 21.0436 17.441C21.0451 17.5164 21.0623 17.5907 21.0943 17.6595C21.1264 17.7284 21.1725 17.7903 21.23 17.8417C21.2875 17.8931 21.3552 17.9328 21.429 17.9585C21.5029 17.9843 21.5813 17.9955 21.6598 17.9915C21.7382 17.9875 21.815 17.9683 21.8856 17.9353C21.9562 17.9022 22.0191 17.8558 22.0706 17.7989C22.1221 17.7419 22.1611 17.6756 22.1854 17.6039C22.2096 17.5322 22.2186 17.4565 22.2117 17.3814C22.1743 16.7073 21.9542 16.1119 21.5036 15.6738C21.0506 15.2356 20.4338 15.0222 19.7339 14.9862Z" fill="black"/>
</svg>
