<svg width="21" height="21" viewBox="0 0 21 21" fill="none" xmlns="http://www.w3.org/2000/svg">
<g clip-path="url(#clip0_6665_35005)">
<path d="M14.25 -0.15625C14.5104 -0.15625 14.7643 -0.117188 15.0117 -0.0390625C15.2591 0.0390625 15.487 0.15625 15.6953 0.3125C15.9036 0.46875 16.0859 0.644531 16.2422 0.839844C16.3984 1.03516 16.5221 1.26302 16.6133 1.52344L20.1582 12.1484C20.3861 12.819 20.5 13.5091 20.5 14.2187C20.5 14.8242 20.3861 15.3906 20.1582 15.918C19.9303 16.4453 19.6178 16.9076 19.2207 17.3047C18.8236 17.7018 18.3613 18.0143 17.834 18.2422C17.3066 18.4701 16.737 18.5872 16.125 18.5937C15.5456 18.5937 14.9889 18.4831 14.4551 18.2617C13.9212 18.0404 13.446 17.7246 13.0293 17.3145C12.6191 16.9043 12.3034 16.4323 12.082 15.8984C11.8607 15.3646 11.75 14.8047 11.75 14.2187V9.84375H9.25V14.2187C9.25 14.7982 9.13932 15.3548 8.91797 15.8887C8.69661 16.4225 8.38086 16.8978 7.9707 17.3145C7.56055 17.7246 7.08854 18.0404 6.55469 18.2617C6.02083 18.4831 5.46094 18.5937 4.875 18.5937C4.26953 18.5937 3.70312 18.4798 3.17578 18.252C2.64844 18.0241 2.1862 17.7116 1.78906 17.3145C1.39193 16.9173 1.07943 16.4551 0.851562 15.9277C0.623698 15.4004 0.50651 14.8307 0.5 14.2187C0.5 13.5091 0.613932 12.819 0.841797 12.1484C0.874349 12.0573 0.949219 11.8359 1.06641 11.4844C1.18359 11.1328 1.32682 10.6966 1.49609 10.1758C1.66536 9.65495 1.85742 9.08203 2.07227 8.45703C2.28711 7.83203 2.50195 7.19727 2.7168 6.55273C2.93164 5.9082 3.13997 5.2832 3.3418 4.67773C3.54362 4.07227 3.72266 3.5319 3.87891 3.05664C4.03516 2.58138 4.15885 2.20378 4.25 1.92383C4.34115 1.64388 4.38997 1.50065 4.39648 1.49414C4.49414 1.25326 4.62109 1.0319 4.77734 0.830078C4.93359 0.628255 5.11263 0.452474 5.31445 0.302734C5.51628 0.152995 5.74089 0.0423177 5.98828 -0.0292969C6.23568 -0.100911 6.48958 -0.143229 6.75 -0.15625C7.23177 -0.15625 7.62565 -0.078125 7.93164 0.078125C8.23763 0.234375 8.48503 0.442708 8.67383 0.703125C8.86263 0.963542 8.99935 1.26628 9.08398 1.61133C9.16862 1.95638 9.2207 2.31445 9.24023 2.68555C9.25977 3.05664 9.26953 3.42773 9.26953 3.79883C9.26953 4.16992 9.26302 4.51823 9.25 4.84375H11.75C11.75 4.52474 11.7467 4.17969 11.7402 3.80859C11.7337 3.4375 11.737 3.06315 11.75 2.68555C11.763 2.30794 11.8184 1.95312 11.916 1.62109C12.0137 1.28906 12.1471 0.986328 12.3164 0.712891C12.4857 0.439453 12.7331 0.227865 13.0586 0.078125C13.3841 -0.0716146 13.7812 -0.14974 14.25 -0.15625ZM4.875 17.3437C5.30469 17.3437 5.70833 17.2624 6.08594 17.0996C6.46354 16.9368 6.79232 16.7122 7.07227 16.4258C7.35221 16.1393 7.57682 15.8073 7.74609 15.4297C7.91536 15.0521 8 14.6484 8 14.2187C8 13.7891 7.91862 13.3854 7.75586 13.0078C7.5931 12.6302 7.36849 12.3014 7.08203 12.0215C6.79557 11.7415 6.46354 11.5169 6.08594 11.3477C5.70833 11.1784 5.30469 11.0937 4.875 11.0937C4.44531 11.0937 4.04167 11.1751 3.66406 11.3379C3.28646 11.5006 2.95768 11.7253 2.67773 12.0117C2.39779 12.2982 2.17318 12.6302 2.00391 13.0078C1.83464 13.3854 1.75 13.7891 1.75 14.2187C1.75 14.6484 1.83138 15.0521 1.99414 15.4297C2.1569 15.8073 2.38151 16.1361 2.66797 16.416C2.95443 16.696 3.28646 16.9206 3.66406 17.0898C4.04167 17.2591 4.44531 17.3437 4.875 17.3437ZM8 2.34375C8 2.16797 7.96745 2.00521 7.90234 1.85547C7.83724 1.70573 7.74935 1.57552 7.63867 1.46484C7.52799 1.35417 7.39453 1.26302 7.23828 1.19141C7.08203 1.11979 6.91927 1.08724 6.75 1.09375C6.49609 1.09375 6.25846 1.17187 6.03711 1.32812C5.81576 1.48437 5.65951 1.6862 5.56836 1.93359L2.74609 10.3906C3.07812 10.2148 3.42318 10.0814 3.78125 9.99023C4.13932 9.89909 4.50391 9.85026 4.875 9.84375C5.08984 9.84375 5.35026 9.87305 5.65625 9.93164C5.96224 9.99023 6.27148 10.0781 6.58398 10.1953C6.89648 10.3125 7.17969 10.4525 7.43359 10.6152C7.6875 10.778 7.8763 10.9603 8 11.1621V2.34375ZM11.75 8.59375V6.09375H9.25V8.59375H11.75ZM13 11.1621C13.1172 10.9603 13.3027 10.778 13.5566 10.6152C13.8105 10.4525 14.0938 10.3158 14.4062 10.2051C14.7188 10.0944 15.028 10.0065 15.334 9.94141C15.64 9.8763 15.9036 9.84375 16.125 9.84375C16.4961 9.84375 16.8607 9.88932 17.2188 9.98047C17.5768 10.0716 17.9219 10.2083 18.2539 10.3906L15.4316 1.93359C15.347 1.6862 15.194 1.48437 14.9727 1.32812C14.7513 1.17187 14.5104 1.09375 14.25 1.09375C14.0742 1.09375 13.9115 1.1263 13.7617 1.19141C13.612 1.25651 13.4818 1.3444 13.3711 1.45508C13.2604 1.56576 13.1693 1.69922 13.0977 1.85547C13.026 2.01172 12.9935 2.17448 13 2.34375V11.1621ZM16.125 17.3437C16.5547 17.3437 16.9583 17.2624 17.3359 17.0996C17.7135 16.9368 18.0423 16.7122 18.3223 16.4258C18.6022 16.1393 18.8268 15.8073 18.9961 15.4297C19.1654 15.0521 19.25 14.6484 19.25 14.2187C19.25 13.7891 19.1686 13.3854 19.0059 13.0078C18.8431 12.6302 18.6185 12.3014 18.332 12.0215C18.0456 11.7415 17.7135 11.5169 17.3359 11.3477C16.9583 11.1784 16.5547 11.0937 16.125 11.0937C15.6953 11.0937 15.2917 11.1751 14.9141 11.3379C14.5365 11.5006 14.2077 11.7253 13.9277 12.0117C13.6478 12.2982 13.4232 12.6302 13.2539 13.0078C13.0846 13.3854 13 13.7891 13 14.2187C13 14.6484 13.0814 15.0521 13.2441 15.4297C13.4069 15.8073 13.6315 16.1361 13.918 16.416C14.2044 16.696 14.5365 16.9206 14.9141 17.0898C15.2917 17.2591 15.6953 17.3437 16.125 17.3437Z" fill="white"/>
</g>
<defs>
<clipPath id="clip0_6665_35005">
<rect width="20" height="20" fill="white" transform="translate(0.5 0.5)"/>
</clipPath>
</defs>
</svg>
