<svg width="149" height="38" viewBox="0 0 149 38" fill="none" xmlns="http://www.w3.org/2000/svg">
<path fill-rule="evenodd" clip-rule="evenodd" d="M1.13752 0.29658V1.37125H2.25026V0.29658H2.92094V3.09243H2.25026V1.92388H1.13752V3.09243H0.460938V0.29658H1.13752ZM140.416 11.177C139.485 11.177 138.726 11.8164 138.726 12.5994C138.726 13.3839 139.485 14.0226 140.416 14.0226C141.348 14.0233 142.105 13.3839 142.105 12.5994C142.105 11.8164 141.348 11.177 140.416 11.177ZM141.761 12.5994C141.761 13.2268 141.159 13.7339 140.416 13.7339C139.673 13.7339 139.071 13.2253 139.071 12.5994C139.071 11.9771 139.674 11.4672 140.416 11.4672C141.159 11.4679 141.761 11.9764 141.761 12.5994ZM140.721 12.3598L140.643 12.4124C140.597 12.4273 140.528 12.4337 140.444 12.4337L140.072 12.4344V12.1364H140.495C140.588 12.1364 140.662 12.1514 140.698 12.1805L140.752 12.2822L140.722 12.3598H140.721ZM141.28 13.2417L140.998 12.864C140.945 12.7943 140.889 12.7381 140.831 12.6876C140.908 12.6642 140.974 12.6265 141.025 12.5831C141.115 12.5013 141.164 12.3982 141.164 12.2808C141.164 12.1898 141.139 12.1066 141.084 12.0298C141.025 11.9522 140.948 11.8982 140.857 11.8655C140.768 11.8363 140.646 11.8228 140.484 11.8228H139.761H139.666V13.3619H140.072V12.7516H140.228L140.329 12.7566L140.396 12.7822L140.479 12.8541C140.522 12.8967 140.571 12.9586 140.637 13.0397L140.85 13.3263L140.878 13.3612H141.372L141.281 13.2403L141.28 13.2417ZM131.067 37.2315V35.1106H130.386V34.0701H132.949V35.1106H132.268V37.2315H131.067ZM127.372 37.2315V34.0694H129.634V34.9356H128.567V35.2379H129.527V36.048H128.567V36.3752H129.655V37.2315H127.372ZM123.049 37.2315V34.0694H124.243V35.42L125.009 34.0694H126.388L125.363 35.6319L126.526 37.2315H125.055L124.243 35.9107V37.2315H123.049ZM120.496 35.4797H120.78C120.952 35.4797 121.035 35.3937 121.035 35.2244C121.035 35.0494 120.944 34.9627 120.765 34.9627H120.496V35.4797ZM120.491 36.3076V37.2315H119.271V34.0694H120.775C121.241 34.0694 121.594 34.1611 121.833 34.3411C122.07 34.5224 122.187 34.8126 122.187 35.2152C122.187 35.5253 122.063 35.7792 121.818 35.9925C121.569 36.1988 121.226 36.3083 120.788 36.3083H120.491V36.3076ZM116.93 36.0843L116.689 35.0324H116.665L116.424 36.0843H116.929H116.93ZM114.827 37.2294L116.021 34.0694H117.368L118.552 37.2294H117.243L117.137 36.8304H116.228L116.12 37.2294H114.827ZM112.967 35.4036L112.819 36.016L112.437 37.2308H111.711L111.332 36.016L111.175 35.4036L111.121 35.9826L110.98 37.2315H109.79L110.366 34.0694H111.617L112.096 35.6782L112.579 34.0694H113.828L114.359 37.2315H113.17L113.025 35.9826L112.967 35.4036ZM107.436 35.4797H107.726C107.896 35.4797 107.979 35.3937 107.979 35.2244C107.979 35.0494 107.888 34.9627 107.706 34.9627H107.436V35.4797ZM107.434 36.3076V37.2315H106.216V34.0694H107.717C108.187 34.0694 108.538 34.1611 108.777 34.3411C109.011 34.5224 109.135 34.8126 109.135 35.2152C109.134 35.5253 109.006 35.7792 108.761 35.9925C108.51 36.1988 108.17 36.3083 107.733 36.3083H107.435L107.434 36.3076ZM103.044 37.2315V34.0694H105.307V34.9356H104.239V35.2379H105.203V36.048H104.239V36.3752H105.327V37.2315H103.045H103.044ZM98.9715 37.2315V34.0694H102.139V37.2315H100.924V34.9356H100.184V37.2315H98.9715ZM96.8869 37.2315V34.0694H98.1186V37.2315H96.8869ZM93.8988 37.2315V34.0694H96.0146V34.9356H95.1145V37.2315H93.8988ZM89.0083 33.8211C88.7823 33.8211 88.573 33.7642 88.3748 33.6512C88.1833 33.5374 88.0846 33.3567 88.0846 33.1135L88.6954 33.1142C88.6954 33.3176 88.805 33.4179 89.0126 33.4179C89.2201 33.4186 89.3222 33.3169 89.3222 33.1135L89.9355 33.1142C89.9355 33.3596 89.841 33.5388 89.6444 33.6533C89.447 33.7642 89.2387 33.8197 89.0075 33.8204L89.0083 33.8211ZM87.4426 37.2365V34.0694H88.6566V35.7656L89.3998 34.0694H90.6163V37.2365H89.3998V35.6455L88.6566 37.2365H87.4426ZM83.4075 37.2315V34.0694H84.6198V35.7642L85.3647 34.0694H86.5779V37.2315H85.3647V35.6455L84.6198 37.2315H83.4075ZM79.3624 37.2315V34.0694H80.573V35.1284H81.317V34.0694H82.531V37.2315H81.317V36.1234H80.573V37.2315H79.3624ZM77.0196 36.4527C77.2069 36.4527 77.2972 36.3645 77.2972 36.1981C77.2972 36.0359 77.196 35.952 77.0078 35.952H76.7345V36.4534H77.0188L77.0196 36.4527ZM77.0104 37.2315H75.5829V34.0694H76.7345V35.2464H77.0154C77.4676 35.2464 77.8202 35.3183 78.075 35.457C78.334 35.5978 78.4572 35.8396 78.4572 36.1817C78.4572 36.5508 78.3272 36.8168 78.0623 36.9826C77.7975 37.1518 77.449 37.2315 77.0104 37.2315ZM72.9196 35.6959C72.9196 36.1021 72.8893 36.4186 72.8226 36.6476C72.7619 36.878 72.6505 37.0444 72.4902 37.1533C72.3342 37.2578 72.1182 37.3119 71.8491 37.3119C71.6086 37.3126 71.434 37.2955 71.3311 37.2628V36.2692C71.4914 36.2692 71.5985 36.2173 71.6576 36.107C71.7183 36.0004 71.747 35.8503 71.747 35.6575V34.0694H74.7655V37.2315H73.5557V34.9356H72.9188V35.6959H72.9196ZM68.2536 37.2315V34.0694H70.5153V34.9356H69.4456V35.2379H70.4082V36.048H69.4456V36.3752H70.5356V37.2315H68.2536ZM65.9817 36.4527C66.1698 36.4527 66.2626 36.3666 66.2626 36.1981C66.2626 36.0359 66.1614 35.952 65.9631 35.952H65.6805V36.4534H65.9825L65.9817 36.4527ZM65.9471 35.2564C66.0989 35.2564 66.1816 35.1789 66.1816 35.0245C66.1816 34.9577 66.1572 34.9065 66.1175 34.8745L65.9572 34.8261H65.6797V35.2564H65.9471ZM64.5382 37.2315V34.0694H66.1597C66.5098 34.0694 66.7831 34.1412 66.9822 34.2849C67.1813 34.43 67.28 34.6177 67.28 34.8553C67.28 35.0701 67.237 35.2294 67.1509 35.3339C67.0641 35.4335 66.9282 35.5238 66.7409 35.5907C67.1948 35.6981 67.4243 35.9413 67.4243 36.3154C67.4243 36.9257 66.9983 37.2308 66.1546 37.2308L64.5391 37.2315H64.5382ZM62.414 37.2315V34.0694H63.6474V37.2315H62.414ZM59.4369 36.3752H60.1767V34.9356H59.6452V35.5452C59.6452 35.8723 59.5786 36.1483 59.4369 36.3752ZM61.4008 36.3773H61.5856V37.8268H60.3809L60.4458 37.2315H59.2378L59.301 37.8268H58.0972V36.3752H58.1858C58.4313 36.1262 58.5536 35.7336 58.5536 35.2002V34.0701H61.4008V36.378V36.3773ZM55.5115 35.2379L56.0632 34.0694H57.4425L55.6574 37.2315H54.2773L54.7311 36.4214L53.7382 34.0694H55.1184L55.5115 35.2379ZM51.5448 36.4527C51.7329 36.4527 51.8291 36.3645 51.8291 36.1981C51.8291 36.0359 51.7287 35.952 51.533 35.952H51.2579V36.4534H51.5448V36.4527ZM52.3774 34.0694V34.9356H51.2588V35.2464H51.5397C51.9911 35.2464 52.3488 35.3183 52.6052 35.457C52.8608 35.5978 52.9924 35.8396 52.9924 36.1817C52.9924 36.5508 52.8575 36.8168 52.5942 36.9826C52.3285 37.1518 51.9759 37.2315 51.5372 37.2315L50.1022 37.2322V34.0701H52.3783L52.3774 34.0694ZM23.9727 34.6739C16.2898 34.6739 10.0411 29.403 10.0411 22.9272C10.0411 16.9892 15.2918 12.0731 22.0855 11.2922V14.5077C22.0855 15.13 22.5014 15.6663 23.1164 15.933V18.9642H16.6948C16.2603 18.9642 15.8697 19.1527 15.6504 19.4586C15.431 19.7708 15.4108 20.1541 15.6124 20.4721L22.8878 32.1796C23.097 32.5217 23.5163 32.7294 23.9735 32.7294C24.4308 32.7294 24.8467 32.5224 25.0559 32.1796L32.3321 20.4728C32.5346 20.1548 32.5186 19.7708 32.2959 19.4586C32.0757 19.1534 31.6741 18.9635 31.2489 18.9635L24.8298 18.9642V15.933C25.4456 15.6663 25.8666 15.13 25.8666 14.507L25.8658 11.2922C32.6544 12.076 37.9017 16.9899 37.9017 22.9272C37.9017 29.4037 31.6555 34.6739 23.9735 34.6739H23.9727ZM25.8658 9.08952V6.91031C25.8658 6.02839 25.0162 5.31645 23.9727 5.31645C22.9274 5.31716 22.0855 6.02768 22.0855 6.9096V9.08739C13.8585 9.87899 7.44528 15.7808 7.44528 22.9272C7.44528 30.6106 14.859 36.8567 23.9727 36.8567C33.0889 36.8574 40.4984 30.6099 40.4984 22.9272C40.4984 15.7836 34.0919 9.88255 25.8658 9.08952ZM91.6092 25.2565H90.4585V9.34414H84.9682V25.2565H83.27V9.34414H77.7755V29.2152H87.8138V31.1789H50.1013V32.6633H132.938V31.1789H91.6101V25.2565H91.6092ZM133.571 14.5553C132.398 14.5553 131.439 15.3654 131.439 16.3533C131.439 17.3434 132.398 18.1485 133.571 18.1485C134.751 18.1485 135.707 17.3434 135.707 16.3533C135.706 15.3654 134.752 14.5553 133.571 14.5553ZM133.967 17.5318L133.363 16.5503V17.5318H132.473V15.1755H133.363V16.1869L133.931 15.1755H134.955L134.194 16.3384L135.063 17.5318H133.967ZM138.48 13.7026C138.349 13.1642 138.104 12.7047 137.732 12.327C137.36 11.9458 136.811 11.6571 136.073 11.4586C135.338 11.2574 134.292 11.1542 132.934 11.1542H127.885V29.2159H132.879V21.9336H134.232C135.327 21.9336 136.216 21.7921 136.897 21.509C137.577 21.2281 138.043 20.8206 138.293 20.2942C138.547 19.7672 138.672 18.9273 138.672 17.7751V16.2054C138.672 15.076 138.607 14.241 138.481 13.704L138.48 13.7026ZM133.571 18.7189C132.027 18.7189 130.767 17.6563 130.767 16.3533C130.77 15.0496 132.027 13.9885 133.571 13.9885C135.117 13.9892 136.38 15.0496 136.38 16.3533C136.38 17.6563 135.117 18.7182 133.571 18.7189ZM75.6462 11.1535H70.652V29.2152H75.6462V11.1535ZM118.739 29.2152H123.734V14.7751H126.728V11.1542H115.791V14.7751H118.739V29.2152ZM108.095 21.6371H109.642V29.2152H114.635V11.1535H109.642V17.6392H108.095V11.1535H103.102V29.2152H108.095V21.6371ZM55.5967 25.2565H51.5515V20.8803H55.0003V17.0902H51.5515V13.3036H55.2449V9.34486H46.0579V29.2159H55.5959V25.2572L55.5967 25.2565ZM62.101 14.7317H63.6491V29.2152H68.6433V11.1151H57.1093V29.2152H62.101V14.7317ZM101.653 25.5958H97.9558V21.6371H101.103V18.1862H97.9558V14.7751H101.305V11.1542H92.9658V29.2159H101.653V25.5965V25.5958ZM147.131 2.64506C147.197 2.65431 147.275 2.65431 147.39 2.65431C147.698 2.65431 147.967 2.54193 147.967 2.25104C147.967 1.97011 147.698 1.85773 147.362 1.85773L147.131 1.85844V2.64506ZM147.131 1.4061H147.35C147.703 1.4061 147.893 1.26883 147.893 1.06186C147.893 0.852051 147.721 0.738254 147.419 0.738254C147.27 0.738254 147.188 0.745367 147.13 0.753901V1.4061H147.131ZM146.458 0.335698C146.64 0.303692 146.997 0.278799 147.331 0.278799C147.743 0.279511 147.998 0.316495 148.213 0.435981C148.422 0.539821 148.575 0.729719 148.575 0.981495C148.575 1.23185 148.415 1.46229 148.08 1.57964V1.59031C148.422 1.67637 148.676 1.91463 148.676 2.27522C148.676 2.52913 148.547 2.72757 148.366 2.87123C148.149 3.03197 147.785 3.12301 147.19 3.12301C146.861 3.12372 146.614 3.10096 146.459 3.07891V0.334987L146.458 0.335698ZM145.878 0.297291V3.09314H145.201V0.297291H145.878ZM143.349 0.828581H142.546V0.297291H144.842V0.828581H144.024V3.09314H143.349V0.828581ZM142.179 1.91107H141.084V2.57536H142.313V3.09314H140.405V0.297291H142.247V0.81649H141.085V1.39828H142.18V1.91178L142.179 1.91107ZM138.399 0.29658V1.46015H138.456L139.276 0.29658H140.096L139.056 1.53839C139.443 1.62943 139.614 1.87836 139.738 2.21406C139.842 2.51277 139.942 2.81718 140.081 3.09243L139.356 3.09314C139.256 2.90253 139.2 2.68631 139.13 2.48006C139.027 2.16427 138.889 1.92459 138.526 1.92459H138.399V3.09314H137.73V0.297291H138.399V0.29658ZM135.823 1.60453C135.882 1.61805 135.953 1.62231 136.05 1.62231C136.409 1.62303 136.629 1.45162 136.629 1.1657C136.629 0.90895 136.442 0.753901 136.105 0.753901C135.969 0.754613 135.875 0.767415 135.824 0.779506V1.60524L135.823 1.60453ZM135.154 0.335698C135.368 0.303692 135.657 0.278799 136.07 0.278799C136.483 0.279511 136.781 0.352056 136.982 0.502126C137.169 0.643661 137.298 0.876233 137.298 1.14792C137.298 1.42246 137.203 1.65645 137.024 1.81079C136.794 2.01634 136.454 2.10808 136.055 2.10808C135.969 2.1088 135.887 2.10168 135.824 2.09457V3.09385H135.155V0.336409L135.154 0.335698ZM133.703 1.90538L133.516 1.31008C133.466 1.14508 133.412 0.935976 133.37 0.771682L133.358 0.772393C133.315 0.936688 133.269 1.14721 133.221 1.30937L133.041 1.90609H133.702L133.703 1.90538ZM132.948 2.37622L132.736 3.09314H132.034L132.949 0.297291H133.829L134.76 3.09314H134.032L133.804 2.37622H132.95H132.948ZM131.027 2.02274C131.016 1.68846 131 1.28021 131 0.875522L130.989 0.876233C130.894 1.23256 130.773 1.63014 130.655 1.95873L130.294 3.04833H129.769L129.451 1.97011C129.35 1.63796 129.248 1.23825 129.179 0.875522L129.171 0.876233C129.153 1.25105 129.139 1.68348 129.118 2.03198L129.064 3.09314H128.442L128.63 0.297291H129.526L129.822 1.23256C129.912 1.55261 130.004 1.90538 130.071 2.23326L130.087 2.23397C130.168 1.90823 130.273 1.53839 130.367 1.22758L130.688 0.297291H131.568L131.729 3.09314H131.074L131.027 2.02345V2.02274ZM126.659 1.60453C126.713 1.61805 126.787 1.62231 126.883 1.62231C127.241 1.62303 127.466 1.45162 127.466 1.1657C127.466 0.90895 127.273 0.753901 126.937 0.753901C126.799 0.754613 126.71 0.767415 126.66 0.779506V1.60524L126.659 1.60453ZM125.989 0.335698C126.198 0.303692 126.491 0.278799 126.901 0.278799C127.319 0.279511 127.612 0.352056 127.812 0.502126C128.004 0.643661 128.13 0.876233 128.13 1.14792C128.13 1.42246 128.032 1.65645 127.858 1.81079C127.625 2.01634 127.288 2.10808 126.889 2.10808C126.799 2.1088 126.721 2.10168 126.659 2.09457V3.09385H125.989V0.336409V0.335698ZM125.4 1.91107H124.303V2.57536H125.528V3.09314H123.626V0.297291H125.465V0.81649H124.303V1.39828H125.4V1.91178V1.91107ZM123.037 0.29658V3.09243H122.36V0.815067H121.302V3.09243H120.627V0.29658H123.036H123.037ZM120.044 0.29658V3.09243H119.368V0.29658H120.044ZM119.003 0.29658V0.815778H117.876V3.09314H117.201V0.297291H119.003V0.29658ZM115.164 3.09243L114.892 2.58674C114.782 2.39187 114.714 2.24677 114.627 2.08461L114.619 2.08533C114.556 2.24677 114.482 2.39187 114.388 2.58674L114.14 3.09243H113.372L114.235 1.67921L113.404 0.29658H114.177L114.436 0.807955C114.527 0.977228 114.594 1.11378 114.663 1.27239L114.67 1.2731C114.741 1.09529 114.8 0.970115 114.875 0.807955L115.129 0.29658H115.896L115.058 1.66357L115.945 3.09243H115.165H115.164ZM111.156 0.29658V1.12587C111.156 1.57537 111.15 2.01847 111.12 2.39187L111.137 2.39258C111.293 2.06612 111.493 1.69557 111.67 1.39685L112.312 0.297291H113.003V3.09314H112.382V2.27024C112.382 1.83639 112.389 1.45446 112.432 1.0896L112.42 1.09031C112.28 1.42175 112.09 1.79159 111.913 2.08533L111.306 3.09314H110.538V0.297291H111.156V0.29658ZM108.526 0.29658V1.46015H108.582L109.409 0.29658H110.224L109.187 1.53839C109.569 1.62943 109.741 1.87836 109.866 2.21406C109.973 2.51277 110.068 2.81718 110.211 3.09243L109.487 3.09314C109.383 2.90253 109.327 2.68631 109.253 2.48006C109.152 2.16427 109.018 1.92459 108.654 1.92459H108.527V3.09314H107.861V0.297291H108.527L108.526 0.29658ZM105.854 2.63511C105.931 2.64435 106.01 2.64933 106.109 2.64933C106.435 2.64933 106.703 2.50068 106.703 2.1849C106.703 1.86555 106.44 1.73042 106.119 1.73042C106.018 1.73042 105.941 1.74251 105.855 1.75034L105.855 2.63582L105.854 2.63511ZM105.861 0.29658V1.26883C105.956 1.25674 106.095 1.24892 106.222 1.24892C106.866 1.24821 107.409 1.5327 107.409 2.15645C107.409 2.42174 107.317 2.62017 107.171 2.76597C106.883 3.04051 106.382 3.12301 105.916 3.12301C105.586 3.12372 105.339 3.10096 105.188 3.07891V0.29658H105.861ZM104.743 3.01348C104.619 3.07394 104.339 3.13866 103.977 3.13866C102.948 3.13937 102.416 2.53553 102.416 1.73611C102.416 0.783062 103.142 0.253906 104.043 0.253906C104.394 0.253906 104.661 0.317917 104.779 0.37766L104.641 0.8805C104.503 0.824313 104.314 0.773816 104.075 0.773816C103.539 0.773816 103.123 1.07822 103.123 1.69984C103.123 2.25815 103.479 2.61377 104.078 2.61377C104.282 2.61377 104.507 2.5711 104.641 2.51846L104.743 3.01348ZM100.659 1.60453C100.718 1.61805 100.789 1.62231 100.886 1.62231C101.246 1.62303 101.469 1.45162 101.469 1.1657C101.469 0.90895 101.276 0.753901 100.938 0.753901C100.804 0.754613 100.71 0.767415 100.659 0.779506V1.60524V1.60453ZM99.994 0.335698C100.202 0.303692 100.491 0.278799 100.904 0.278799C101.321 0.279511 101.614 0.352056 101.816 0.502126C102.004 0.643661 102.134 0.876233 102.134 1.14792C102.134 1.42246 102.036 1.65645 101.859 1.81079C101.628 2.01634 101.289 2.10808 100.892 2.10808C100.803 2.1088 100.72 2.10168 100.659 2.09457V3.09385H99.994V0.336409V0.335698ZM98.5387 1.90538L98.3548 1.31008C98.3 1.14508 98.2469 0.935976 98.1988 0.771682L98.1945 0.772393C98.1481 0.936688 98.1034 1.14721 98.057 1.30937L97.8773 1.90609H98.5379L98.5387 1.90538ZM97.7829 2.37622L97.5703 3.09314H96.8726L97.7829 0.297291H98.6687L99.5924 3.09314H98.8678L98.6366 2.37622H97.7829ZM95.0453 1.18633C95.0453 1.51065 95.0023 1.82288 94.9112 2.10097C94.8605 2.27522 94.7846 2.44592 94.7045 2.57892L95.6949 2.57963V0.812222H95.0453V1.18633ZM96.3723 0.297291V2.59457L96.6693 2.61448L96.6372 3.80295H96.1243L96.0906 3.09385H94.3451L94.3105 3.80295H93.7976L93.7723 2.61448L94.0195 2.59457C94.1376 2.39756 94.2329 2.19272 94.3021 1.97295C94.3848 1.69273 94.4219 1.38476 94.4219 1.04479V0.29658H96.3723V0.297291ZM91.5156 1.70339C91.5156 2.25175 91.7906 2.63653 92.2445 2.63653C92.6983 2.63653 92.9565 2.23326 92.9565 1.68846C92.9565 1.18633 92.7026 0.753901 92.2352 0.753901C91.7813 0.754613 91.5156 1.16073 91.5156 1.70339ZM93.6736 1.66641C93.6736 2.58461 93.0822 3.13937 92.2057 3.13937C91.3224 3.14008 90.8044 2.51277 90.8044 1.71548C90.8044 0.881212 91.3755 0.254617 92.2529 0.254617C93.1716 0.254617 93.6727 0.895436 93.6727 1.66641H93.6736ZM90.3539 0.297291V3.09314H89.6765V0.815778H88.6186V3.09314H87.9437V0.297291H90.3539ZM87.4974 3.01419C87.3759 3.07465 87.0967 3.13937 86.7348 3.13937C85.7056 3.14008 85.1707 2.53625 85.1707 1.73682C85.1707 0.783773 85.8971 0.254617 86.8006 0.254617C87.1473 0.254617 87.4131 0.318628 87.5345 0.378372L87.397 0.881212C87.2578 0.825024 87.0705 0.774527 86.8318 0.774527C86.2953 0.774527 85.8794 1.07893 85.8794 1.70055C85.8794 2.25887 86.2337 2.61448 86.8352 2.61448C87.0385 2.61448 87.2637 2.57181 87.397 2.51918L87.4966 3.01419H87.4974ZM82.7099 1.70339C82.7099 2.25175 82.984 2.63653 83.4354 2.63653C83.8926 2.63653 84.1525 2.23326 84.1525 1.68846C84.1525 1.18633 83.8977 0.753901 83.4303 0.753901C82.9764 0.754613 82.7107 1.16073 82.7107 1.70339H82.7099ZM84.8628 1.66641C84.8628 2.58461 84.2714 3.13937 83.3983 3.13937C82.515 3.14008 81.997 2.51277 81.997 1.71548C81.997 0.881212 82.5681 0.254617 83.448 0.254617C84.3642 0.254617 84.8636 0.895436 84.8628 1.66641ZM81.9194 0.297291V0.81649H80.7923V3.09385H80.1166V0.298003H81.9202L81.9194 0.297291ZM79.6897 1.7923V2.21548H78.5314V1.7923H79.6897ZM76.0891 1.70339C76.0891 2.25175 76.365 2.63653 76.8163 2.63653C77.2702 2.63653 77.5334 2.23326 77.5334 1.68846C77.5334 1.18633 77.2761 0.753901 76.8113 0.753901C76.354 0.754613 76.0891 1.16073 76.0891 1.70339ZM78.2437 1.66641C78.2437 2.58461 77.6524 3.13937 76.7834 3.13937C75.8959 3.14008 75.3779 2.51277 75.3779 1.71548C75.3779 0.881212 75.9491 0.254617 76.829 0.254617C77.7451 0.254617 78.2446 0.895436 78.2437 1.66641ZM73.1415 0.297291V1.37196H74.25V0.297291H74.9249V3.09314H74.25V1.92459H73.1415V3.09314H72.4649V0.297291H73.1415ZM70.4622 2.63582C70.5372 2.64506 70.6165 2.65004 70.7161 2.65004C71.0417 2.65004 71.3075 2.50139 71.3075 2.18561C71.3066 1.86627 71.0459 1.73113 70.7237 1.73113C70.6233 1.73113 70.544 1.74322 70.4622 1.75105V2.63653V2.63582ZM70.4681 0.297291V1.26954C70.5592 1.25745 70.7018 1.24963 70.8291 1.24963C71.472 1.24892 72.0161 1.53341 72.0161 2.15716C72.0161 2.42245 71.9216 2.62088 71.7774 2.76668C71.4914 3.04122 70.9886 3.12372 70.5246 3.12372C70.1914 3.12443 69.9459 3.10167 69.794 3.07963V0.297291H70.4681ZM69.2035 0.297291V3.09314H68.532V0.815778H67.8545V1.48007C67.8545 2.19912 67.7567 2.7553 67.3062 2.99997C67.1543 3.07963 66.9527 3.13937 66.7123 3.13937L66.6279 2.63084C66.7738 2.61448 66.8945 2.55118 66.9713 2.48077C67.1501 2.30083 67.1965 1.9445 67.1965 1.52345V0.298003H69.2043L69.2035 0.297291ZM66.2888 1.91178H65.1937V2.57607H66.4195V3.09385H64.5172V0.298003H66.3554V0.817201H65.1937V1.39899H66.2888V1.9125V1.91178ZM62.5102 2.64506C62.5768 2.65431 62.6561 2.65431 62.77 2.65431C63.0754 2.65431 63.3454 2.54193 63.3454 2.25104C63.3454 1.97011 63.0754 1.85773 62.7413 1.85773L62.5102 1.85844V2.64506ZM62.5102 1.4061H62.7295C63.0855 1.4061 63.2779 1.26883 63.2779 1.06186C63.2779 0.852051 63.1016 0.738254 62.7995 0.738254C62.6519 0.738254 62.5667 0.745367 62.5102 0.753901V1.4061ZM61.8412 0.335698C62.0217 0.303692 62.3777 0.278799 62.7143 0.278799C63.126 0.279511 63.3774 0.316495 63.5925 0.435981C63.8018 0.539821 63.9511 0.729719 63.9511 0.981495C63.9511 1.23185 63.7976 1.46229 63.4609 1.57964V1.59031C63.8018 1.67637 64.0557 1.91463 64.0557 2.27522C64.0557 2.52913 63.9325 2.72757 63.7478 2.87123C63.5293 3.03197 63.1648 3.12301 62.5718 3.12301C62.2394 3.12372 61.9914 3.10096 61.8412 3.07891V0.334987V0.335698ZM61.2557 0.297291V3.09314H60.58V0.297291H61.2557ZM58.5722 1.18633C58.5722 1.51065 58.5283 1.82288 58.4405 2.10097C58.3882 2.27522 58.3106 2.44592 58.2322 2.57892L59.2251 2.57963V0.812222H58.5722V1.18633ZM59.8983 0.297291V2.59457L60.1987 2.61448L60.1658 3.80295H59.6511L59.6166 3.09385H57.8753L57.839 3.80295H57.3261L57.3008 2.61448L57.548 2.59457C57.6661 2.39756 57.764 2.19272 57.8315 1.97295C57.9141 1.69273 57.9512 1.38476 57.9512 1.04479V0.29658H59.8992L59.8983 0.297291ZM55.6465 0.294446L56.0784 1.2987C56.1586 1.49714 56.2218 1.66357 56.2851 1.83284L56.302 1.83355C56.3416 1.71193 56.3897 1.52488 56.4631 1.29088L56.7879 0.294446H57.4965L56.9381 1.67281C56.7575 2.10808 56.5728 2.52913 56.3501 2.78589C56.1552 3.01348 55.9063 3.15715 55.5554 3.15715C55.4018 3.15715 55.309 3.13866 55.2263 3.11092L55.2702 2.60381C55.3267 2.6159 55.3959 2.62515 55.4946 2.62515C55.7038 2.62586 55.8464 2.49215 55.8979 2.3627L55.8877 2.23326L54.883 0.293735H55.6456L55.6465 0.294446ZM53.2641 2.63582C53.3409 2.64506 53.4328 2.65004 53.5231 2.65004C53.6876 2.65004 53.8529 2.60097 53.9609 2.50495C54.052 2.43098 54.1094 2.31861 54.1094 2.17921C54.1094 2.04265 54.0486 1.9381 53.9508 1.86627C53.8318 1.78021 53.6614 1.74322 53.5028 1.74322C53.4294 1.74393 53.3493 1.75105 53.2641 1.75816V2.63582ZM54.5776 0.297291V0.81649H53.2658V1.29444C53.3695 1.28235 53.513 1.2731 53.6327 1.2731C53.9331 1.27381 54.2452 1.34351 54.4738 1.50283C54.678 1.64365 54.8163 1.86342 54.8163 2.16996C54.818 2.44307 54.7075 2.65502 54.5363 2.79869C54.2461 3.04193 53.7787 3.12443 53.3223 3.12443C52.9907 3.12514 52.7469 3.10238 52.5951 3.08034V0.298003H54.5776V0.297291ZM49.6703 1.90609L49.4855 1.31079C49.4324 1.14579 49.3792 0.936688 49.3336 0.772393L49.3261 0.773105C49.2797 0.937399 49.2349 1.14792 49.1869 1.31008L49.0089 1.90681H49.6694L49.6703 1.90609ZM48.911 2.37693L48.6984 3.09385H48.0007L48.911 0.298003H49.7968L50.7231 3.09385H49.9959L49.7681 2.37693H48.911ZM44.8085 0.297291L45.5458 1.46086H45.6107V0.297291H46.2553V1.46086H46.3185L47.0618 0.297291H47.8438L46.8264 1.54692C47.2297 1.59031 47.422 1.86627 47.5502 2.22686C47.6523 2.51704 47.7266 2.82003 47.8582 3.09243L47.1765 3.09314C47.0837 2.90751 47.0247 2.67422 46.9639 2.47579C46.8661 2.17778 46.7269 1.92459 46.3616 1.92459H46.2561V3.09314H45.6116V1.92459H45.4969C45.1358 1.92459 44.9966 2.17636 44.9013 2.47579C44.8405 2.67422 44.7815 2.9068 44.6887 3.09314L44.0062 3.09385C44.1395 2.82074 44.2247 2.51775 44.32 2.24322C44.444 1.88334 44.6364 1.61449 45.0396 1.54763L44.0197 0.298003H44.8085V0.297291ZM43.7008 1.91178H42.6032V2.57607H43.8282V3.09385H41.9233V0.298003H43.7674V0.817201H42.6024V1.39899H43.6999V1.9125L43.7008 1.91178ZM40.0201 1.60524C40.0749 1.61876 40.1474 1.62303 40.2453 1.62303C40.6038 1.62374 40.8232 1.45233 40.8232 1.16642C40.8232 0.909661 40.6342 0.754613 40.2976 0.754613C40.1601 0.755324 40.0681 0.768126 40.0201 0.780217V1.60596V1.60524ZM39.3511 0.336409C39.5611 0.304404 39.8496 0.279511 40.263 0.279511C40.6806 0.280222 40.975 0.352767 41.175 0.502837C41.3656 0.644372 41.493 0.876944 41.493 1.14863C41.493 1.42317 41.3977 1.65716 41.2197 1.8115C40.9877 2.01705 40.6486 2.1088 40.2512 2.1088C40.1609 2.10951 40.0842 2.10239 40.0201 2.09528V3.09456H39.3511V0.33712V0.336409ZM38.7614 1.91178H37.663V2.57607H38.8913V3.09385H36.9872V0.298003H38.828V0.817201H37.663V1.39899H38.7614V1.9125V1.91178ZM35.7657 2.02345C35.7496 1.68917 35.737 1.28092 35.737 0.876233L35.7243 0.876944C35.6324 1.23327 35.5058 1.63085 35.3919 1.95944L35.0292 3.04904H34.5036L34.1856 1.97082C34.0877 1.63867 33.9865 1.23896 33.9156 0.876233L33.9063 0.876944C33.8878 1.25176 33.876 1.68419 33.8532 2.03269L33.8 3.09385H33.1766L33.3647 0.298003H34.2632L34.5568 1.23327C34.6487 1.55332 34.744 1.90609 34.8107 2.23397L34.8225 2.23468C34.906 1.90894 35.0073 1.5391 35.1043 1.22829L35.4232 0.298003H36.3047L36.4701 3.09385H35.8079L35.7657 2.02416V2.02345ZM29.9725 1.90609L29.7878 1.31079C29.7346 1.14579 29.6815 0.936688 29.6393 0.772393L29.6275 0.773105C29.5861 0.937399 29.5406 1.14792 29.49 1.31008L29.3153 1.90681H29.9734L29.9725 1.90609ZM29.2175 2.37693L29.0049 3.09385H28.3072L29.2183 0.298003H30.1016L31.0271 3.09385H30.3032L30.0721 2.37693H29.2183H29.2175ZM26.1492 0.297291V1.37196H27.2577V0.297291H27.931V3.09314H27.2577V1.92459H26.1492V3.09314H25.4718V0.297291H26.1492ZM23.4682 2.63582C23.545 2.64506 23.6243 2.65004 23.723 2.65004C24.0495 2.65004 24.3152 2.50139 24.3152 2.18561C24.3144 1.86627 24.0554 1.73113 23.7297 1.73113C23.6361 1.73113 23.5534 1.74322 23.4682 1.75105V2.63653V2.63582ZM23.4733 0.297291V1.26954C23.5661 1.25745 23.7095 1.24963 23.836 1.24963C24.4789 1.24892 25.023 1.53341 25.023 2.15716C25.023 2.42245 24.931 2.62088 24.7842 2.76668C24.4966 3.04122 23.9955 3.12372 23.5315 3.12372C23.1991 3.12443 22.9502 3.10167 22.8009 3.07963V0.297291H23.4733ZM22.2104 0.297291V3.09314H21.538V0.815778H20.8614V1.48007C20.8614 2.19912 20.7635 2.7553 20.3114 2.99997C20.162 3.07963 19.9587 3.13937 19.72 3.13937L19.6348 2.63084C19.7824 2.61448 19.9005 2.55118 19.9739 2.48077C20.157 2.30083 20.1992 1.9445 20.1992 1.52345V0.298003H22.2095L22.2104 0.297291ZM18.4301 1.90609L18.2453 1.31079C18.1922 1.14579 18.1399 0.936688 18.0935 0.772393L18.0859 0.773105C18.0395 0.937399 17.9948 1.14792 17.9475 1.31008L17.7695 1.90681H18.4301V1.90609ZM17.6742 2.37693L17.4591 3.09385H16.7614L17.6742 0.298003H18.5592L19.4846 3.09385H18.7583L18.5271 2.37693H17.6742ZM14.6034 0.297291V1.37196H15.7162V0.297291H16.3885V3.09314H15.7162V1.92459H14.6034V3.09314H13.9268V0.297291H14.6034ZM11.3285 1.70339C11.3285 2.25175 11.6018 2.63653 12.054 2.63653C12.5087 2.63653 12.7719 2.23326 12.7719 1.68846C12.7719 1.18633 12.5121 0.753901 12.0481 0.753901C11.5942 0.754613 11.3285 1.16073 11.3285 1.70339ZM13.4822 1.66641C13.4822 2.58461 12.8892 3.13937 12.0202 3.13937C11.1328 3.14008 10.6156 2.51277 10.6156 1.71548C10.6156 0.881212 11.1867 0.254617 12.0666 0.254617C12.9828 0.254617 13.4831 0.895436 13.4831 1.66641H13.4822ZM10.1668 0.297291V3.09314H9.49191V0.297291H10.1668ZM7.09265 0.297291V2.57536H8.13874V0.297291H8.81111V2.59457L9.11312 2.61448L9.08191 3.80295H8.56561L8.53271 3.09385H6.41691V0.298003H7.09349L7.09265 0.297291ZM4.96419 1.90609L4.77944 1.31079C4.72629 1.14579 4.67314 0.936688 4.62759 0.772393L4.61831 0.773105C4.57444 0.937399 4.52888 1.14792 4.4808 1.31008L4.30279 1.90681H4.96335L4.96419 1.90609ZM4.20831 2.37693L3.99571 3.09385H3.29466L4.20746 0.298003H5.09074L6.01703 3.09385H5.2932L5.05868 2.37693H4.20746H4.20831Z" fill="#254287"/>
</svg>
