<svg width="149" height="47" viewBox="0 0 149 47" fill="none" xmlns="http://www.w3.org/2000/svg">
<path fill-rule="evenodd" clip-rule="evenodd" d="M35.2479 38.3571L39.7975 32.7638L43.8361 38.3639L35.2451 38.3554L35.2479 38.3571ZM35.1402 26.6719H43.9687L57.8054 46.0802H48.8885C47.5045 42.6607 34.2479 41.9338 29.6624 46.0802H21.2344L35.1402 26.6719Z" fill="#92CC1A"/>
<path fill-rule="evenodd" clip-rule="evenodd" d="M130.204 32.7909L134.795 38.4095L126.163 38.3622C126.395 37.6049 129.715 34.2259 130.204 32.7909ZM126.135 26.6719H134.152C134.983 28.0782 146.798 43.3402 148.892 46.0802H140.726C137.364 44.351 135.823 43.3081 130.729 43.2895C126.635 43.2743 123 43.8659 120.605 46.0802H111.52C114.658 41.3473 122.226 31.655 126.135 26.6719Z" fill="#92CC1A"/>
<path fill-rule="evenodd" clip-rule="evenodd" d="M105.817 35.4481C108.22 33.6597 109.016 31.9203 108.994 29.3899C108.985 28.4839 108.988 27.5779 108.988 26.6719H100.966C100.98 28.9166 101.378 31.2121 99.5158 32.588C96.9192 34.5049 95.9883 34.0299 91.8143 34.0299V26.6719H83.7648L83.7344 46.0802H91.8171L91.7701 38.6631C103.604 38.6597 102.281 40.7861 102.494 46.0802H110.502C110.502 42.7655 110.993 39.635 107.358 37.1874C104.496 35.2604 105.303 36.0955 104.947 36.1901L105.817 35.4481Z" fill="#92CC1A"/>
<path fill-rule="evenodd" clip-rule="evenodd" d="M70.3121 46.038L82.0909 26.6719H73.4198L66.0581 38.9741L58.1218 26.6719H49.5391L62.2681 46.038H70.3121Z" fill="#92CC1A"/>
<path fill-rule="evenodd" clip-rule="evenodd" d="M1.03057 26.7261C0.721187 30.0578 -0.0522768 39.2058 2.50568 41.6399C6.98901 45.9046 12.4889 46.0668 21.1047 46.0804V41.4472C15.3866 41.4641 9.97513 41.0314 8.66577 37.8164C7.93374 36.0246 8.58842 29.2278 8.3923 26.6855L1.03057 26.7261Z" fill="#92CC1A"/>
<path d="M26.4381 23.2309C26.3277 20.7833 26.7724 18.9121 28.0541 17.619C29.4298 16.2329 31.6507 15.5314 35.0015 15.5314C38.4158 15.5314 40.4544 16.3834 41.6367 17.8539C42.7168 19.1994 42.9848 21.0487 42.9295 23.2207L40.7776 23.2055C40.8273 21.2194 40.6091 19.5578 39.7058 18.432C38.902 17.433 37.4628 16.8533 35.0043 16.8533C32.4795 16.8533 30.8497 17.3401 29.8966 18.3002C28.8497 19.355 28.4906 20.9946 28.59 23.1937L26.4381 23.2292V23.2309ZM40.2224 1.55073C40.0539 1.4155 39.8964 1.31408 39.75 1.24478C39.5622 1.15519 39.4047 1.11632 39.2804 1.11632C39.1865 1.11463 39.0981 1.13829 39.0208 1.17379C38.971 1.19576 38.9296 1.22281 38.8937 1.24985C38.5401 1.52537 39.3716 1.97669 40.239 2.44491C40.4765 2.57338 40.7169 2.70353 40.9461 2.83538C42.1119 1.975 42.7113 1.51523 42.8384 1.0673L42.7141 1.08758C42.2748 1.16703 41.819 1.3462 41.6422 1.51692L40.9765 2.15925L40.2251 1.55242L40.2224 1.55073ZM40.808 0.414829L40.9378 0.479062C41.3246 0.303268 41.7831 0.1579 42.2168 0.0784542L42.2196 0.0767639C42.5538 0.0142218 42.8991 -0.0128234 43.2113 0.00577016C43.645 0.0328154 44.0179 0.142687 44.2803 0.359049C44.5096 0.544985 44.6201 0.788392 44.5676 1.1011C44.4295 1.91753 43.6588 2.48379 42.0621 3.66026L40.982 4.45978L40.3191 3.96452C39.9903 3.71942 39.5401 3.47432 39.0981 3.2343C37.6147 2.43139 36.1893 1.65891 37.5374 0.602456C37.6672 0.501036 37.8164 0.408068 37.9821 0.332003C38.3495 0.162971 38.8025 0.0581703 39.3163 0.0649316C39.7942 0.0716929 40.3053 0.176493 40.8108 0.41652L40.808 0.414829ZM10.7783 6.49663C11.7644 6.49663 12.6622 6.74173 13.3086 7.13726C13.955 7.5328 14.3555 8.08047 14.3555 8.6856C14.3555 9.28905 13.955 9.83672 13.3086 10.2339C12.6622 10.6295 11.7672 10.8746 10.7783 10.8746C9.78933 10.8746 8.89432 10.6295 8.24793 10.2339C7.60153 9.83841 7.20099 9.29074 7.20099 8.6856C7.20099 8.08047 7.60153 7.5328 8.24793 7.13726C8.89432 6.74173 9.78933 6.49663 10.7783 6.49663ZM12.0876 7.88608C11.7534 7.68155 11.2893 7.55477 10.7783 7.55477C10.2672 7.55477 9.80314 7.68155 9.4689 7.88608C9.13465 8.09061 8.92747 8.37289 8.92747 8.68729C8.92747 9 9.13465 9.28229 9.4689 9.48682C9.80314 9.69135 10.2672 9.81812 10.7783 9.81812C11.2893 9.81812 11.7534 9.69135 12.0876 9.48682C12.4219 9.28229 12.629 9 12.629 8.68729C12.629 8.37458 12.4219 8.09061 12.0876 7.88608ZM26.7144 1.69272C27.8331 1.69272 28.8469 1.96993 29.5817 2.41956C30.3165 2.86919 30.7695 3.48954 30.7695 4.17412C30.7695 4.8587 30.3165 5.47905 29.5817 5.92868C28.8442 6.37662 27.8304 6.65552 26.7144 6.65552C25.5984 6.65552 24.5846 6.37831 23.8498 5.92868L23.847 5.92699C23.1123 5.47736 22.6592 4.85701 22.6592 4.17412C22.6592 3.49123 23.115 2.87088 23.8498 2.42125C24.5818 1.97162 25.5956 1.69272 26.7144 1.69272ZM28.3608 3.16668C27.9409 2.90975 27.358 2.74917 26.7144 2.74917C26.0708 2.74917 25.4879 2.90975 25.068 3.16668H25.0653C24.6454 3.42361 24.3857 3.77858 24.3857 4.17412C24.3857 4.56796 24.6454 4.92462 25.0653 5.18155L25.068 5.18324C25.4879 5.44017 26.068 5.59906 26.7144 5.59906C27.358 5.59906 27.9409 5.44017 28.3608 5.18324V5.18155C28.7806 4.92462 29.0431 4.56796 29.0431 4.17412C29.0431 3.78027 28.7834 3.42361 28.3608 3.16668ZM34.6811 10.9388C35.5319 10.9388 36.3053 11.1501 36.8661 11.4932L36.8689 11.4949C37.4296 11.8381 37.7749 12.3114 37.7749 12.832C37.7749 13.3543 37.4269 13.8276 36.8689 14.1707H36.8661C36.3053 14.5139 35.5319 14.7251 34.6811 14.7251C33.8275 14.7251 33.054 14.5139 32.4933 14.1707C31.9325 13.8276 31.5872 13.3543 31.5872 12.832C31.5872 12.3114 31.9325 11.8381 32.4933 11.4949V11.4932C33.054 11.1501 33.8275 10.9388 34.6811 10.9388ZM35.6479 12.2404C35.4021 12.0899 35.0595 11.997 34.6811 11.997C34.3026 11.997 33.9629 12.0899 33.7142 12.2421C33.4684 12.3925 33.3137 12.6021 33.3137 12.8337C33.3137 13.0652 33.4656 13.2732 33.7142 13.4253C33.9601 13.5757 34.3026 13.6704 34.6811 13.6704C35.0595 13.6704 35.4021 13.5774 35.6479 13.427C35.8937 13.2748 36.0457 13.0652 36.0457 12.8354C36.0457 12.6038 35.8937 12.3942 35.6479 12.2437V12.2404ZM2.06021 23.0162C2.08784 20.359 2.237 18.4658 2.6928 17.0071C3.17621 15.4672 3.99387 14.3938 5.34744 13.4439L5.34467 13.4422C6.62641 12.5412 8.5214 12.0358 10.5904 11.7823C13.0241 11.4831 15.7257 11.5355 17.8831 11.6944C18.5764 10.9726 19.3803 10.3235 20.2974 9.69642C22.0045 8.53009 24.5791 7.87594 27.3884 7.57675C30.8303 7.20826 34.6645 7.36546 37.6119 7.74747L37.1727 9.03719C34.4518 8.6856 30.9187 8.53854 27.7586 8.87661C25.3829 9.13016 23.2421 9.65585 21.8996 10.5737C20.104 11.7992 18.7974 13.1193 17.9577 15.0277C17.093 16.9936 16.7118 19.5815 16.7975 23.3019L14.6456 23.3171C14.5572 19.4614 14.9605 16.762 15.8748 14.6863C16.1511 14.0558 16.477 13.4828 16.8472 12.952C15.0323 12.8506 12.9191 12.8421 11.0103 13.0771C9.37221 13.2782 7.89987 13.6569 6.97171 14.3093H6.96619C5.87781 15.0734 5.21208 15.9591 4.80601 17.2539C4.37232 18.6315 4.23144 20.452 4.20658 23.0196L2.05469 23.0145L2.06021 23.0162Z" fill="#2B2A29"/>
<path d="M64.0219 14.8267H62.1214C62.1214 14.0441 61.9087 13.4407 61.4805 13.013C60.9612 12.5025 60.1436 12.2473 59.0303 12.2473C57.5966 12.2473 56.6271 12.8474 56.1243 14.0458C55.8343 14.7236 55.6878 15.7091 55.6878 17.0022C55.6878 18.4407 55.8094 19.4937 56.0552 20.1614C56.5442 21.4849 57.5359 22.1476 59.0331 22.1476C60.0552 22.1476 60.8038 21.8872 61.2761 21.3649C61.6269 20.9795 61.8728 20.3896 62.0082 19.5969L62.1242 18.799H64.0247L63.9335 19.5191C63.9335 20.0515 63.8645 20.4995 63.7291 20.8646C63.591 21.2297 63.3258 21.61 62.928 22.0056C62.4695 22.4332 61.9363 22.7595 61.3258 22.9826C60.7154 23.2074 60.0054 23.319 59.1961 23.319C57.5635 23.319 56.3121 22.986 55.442 22.3183C54.7238 21.7655 54.2376 20.9626 53.9779 19.9096C53.8094 19.2115 53.7266 18.2513 53.7266 17.0326C53.7266 15.9373 53.8343 15.0363 54.047 14.3264C54.3509 13.3257 54.8647 12.5583 55.5801 12.0276C56.4503 11.392 57.6491 11.0742 59.174 11.0742C60.7458 11.0742 61.9584 11.4343 62.8148 12.1526C63.6241 12.8305 64.0274 13.7213 64.0274 14.8267H64.0219Z" fill="#2B2A29"/>
<path d="M69.381 23.0358H67.4805V11.3066H69.381V23.0358Z" fill="#2B2A29"/>
<path d="M80.9226 20.4395L84.3341 11.3066H87.6738V23.0358H85.7733V13.3705V11.8847L85.2042 13.4635L81.6049 23.0341H79.337L75.7431 13.3232L75.2404 11.8847V13.4026V23.0358H73.3398V11.3066H76.6961L80.08 20.453C80.1988 20.7961 80.2872 21.0869 80.348 21.3235C80.406 21.5585 80.4364 21.8475 80.4364 22.1923C80.511 21.8999 80.5662 21.6819 80.5966 21.5348C80.7016 21.1173 80.8148 20.7522 80.9198 20.4395H80.9226Z" fill="#2B2A29"/>
<path d="M99.859 23.0358H91.2266V11.3066H99.812V12.4797H93.1271V16.3573H99.4004V17.5304H93.1271V21.8627H99.859V23.0358Z" fill="#2B2A29"/>
<path d="M104.48 20.8788V22.1922C104.587 21.9724 104.698 21.7442 104.811 21.5042C104.924 21.2642 105.029 21.0664 105.121 20.9109L109.999 11.3082H113.09V23.0373H111.236V13.6864V11.8879C111.038 12.5658 110.814 13.154 110.554 13.656L105.761 23.0441L102.629 23.039V11.3098H104.482V20.8805L104.48 20.8788ZM104.342 8.03906H105.463C105.601 8.45657 105.877 8.76083 106.3 8.95353C106.72 9.14623 107.25 9.24258 107.891 9.24258C108.562 9.24258 109.093 9.1513 109.482 8.96874C109.872 8.78619 110.143 8.47686 110.294 8.03906H111.416C111.416 8.74731 111.085 9.27976 110.419 9.63473C109.756 9.9897 108.88 10.1672 107.797 10.1672C106.792 10.1672 105.982 9.99984 105.369 9.66685C104.681 9.2916 104.339 8.749 104.339 8.04075L104.342 8.03906Z" fill="#2B2A29"/>
<path d="M118.562 23.0358H116.664V11.3066H118.562V16.2018H125.133V11.3066H127.037V23.0358H125.133V17.3749H118.562V23.0358Z" fill="#2B2A29"/>
<path d="M129.094 23.0358L133.994 11.3066H136.513L141.345 23.0358L139.251 23.0324L137.884 19.6569H132.461L131.19 23.0324L129.097 23.0358H129.094ZM137.447 18.4855L135.226 12.2296L132.903 18.4855H137.447Z" fill="#2B2A29"/>
</svg>
