<svg width="150" height="30" viewBox="0 0 150 30" fill="none" xmlns="http://www.w3.org/2000/svg">
<path d="M146.126 3.23438H3.87075C2.22487 3.23438 0.890625 4.38048 0.890625 5.79427V26.6034C0.890625 28.0172 2.22487 29.1633 3.87075 29.1633H146.126C147.772 29.1633 149.107 28.0172 149.107 26.6034V5.79427C149.107 4.38048 147.772 3.23438 146.126 3.23438Z" fill="#64283E"/>
<path fill-rule="evenodd" clip-rule="evenodd" d="M20.544 21.7188C17.5942 23.5402 11.0618 20.9125 8.30859 27.8913C11.8797 24.9531 19.9618 28.3642 20.544 21.7188Z" fill="#B0CB1F"/>
<path fill-rule="evenodd" clip-rule="evenodd" d="M26.0091 16.1458C26.6476 13.4988 24.6974 11.8571 22.8179 11.8789C28.4906 6.2718 24.584 1.78063 19.9287 1.02604C17.0957 0.567175 12.9981 1.47458 10.4171 5.05917C7.5403 9.05431 7.20469 15.6709 7.69369 24.5512C13.2962 20.8844 16.2542 21.4994 20.2965 20.5247C23.9988 19.6317 25.5634 17.9949 26.0091 16.1463V16.1458Z" fill="#EF7F1A"/>
<path d="M34.8357 19.8941C36.03 19.8941 37.072 19.5447 37.961 18.8681C38.8501 18.1916 39.3073 17.1223 39.3073 15.7036V12.3428C39.3073 11.0117 38.7991 9.96385 37.7831 9.24354C36.7667 8.52365 35.5218 8.15234 34.0736 8.15234C32.6253 8.15234 31.3805 8.52365 30.3645 9.24354C29.3481 9.96385 28.8398 11.0117 28.8398 12.3428V23.4514C28.8398 24.106 29.526 24.4331 30.8728 24.4331C32.2191 24.4331 32.9052 24.106 32.9052 23.4514V19.4794C33.4389 19.7627 34.0736 19.8941 34.8357 19.8941ZM32.9052 12.2338C32.9052 10.706 35.2425 10.706 35.2425 12.2338V15.813C35.2425 17.3408 32.9052 17.3408 32.9052 15.813V12.2338ZM52.265 9.22248C52.265 8.56743 51.5788 8.24032 50.2325 8.24032C48.8857 8.24032 48.1996 8.56743 48.1996 9.22248V15.813C48.1996 17.3408 45.8623 17.3408 45.8623 15.813V9.22248C45.8623 8.56743 45.1762 8.24032 43.8299 8.24032C42.4831 8.24032 41.797 8.56743 41.797 9.22248V15.704C41.797 17.1227 42.2293 18.192 43.1183 18.8685C44.0073 19.5451 45.0748 19.8945 46.2686 19.8945C47.0562 19.8945 47.6914 19.7417 48.1991 19.436V20.2873C48.1991 21.0728 47.513 21.5969 46.599 21.5969C46.0143 21.5969 45.4301 21.4222 44.8454 21.0513C44.2357 20.6367 43.3717 20.8985 42.762 21.7064C42.1778 22.492 42.2288 23.1028 42.9149 23.5394C43.9564 24.194 45.2777 24.5211 46.8783 24.5211C48.479 24.5211 49.7743 24.1502 50.7653 23.3866C51.7563 22.6229 52.2645 21.6188 52.2645 20.331V9.22248H52.265ZM61.2587 9.68051C61.2587 10.8155 60.6745 11.6886 59.4802 12.278C59.3273 12.3432 59.2008 12.4308 59.0734 12.5398V9.22248C59.0734 8.56743 58.3873 8.24032 57.041 8.24032C55.6942 8.24032 55.008 8.56743 55.008 9.22248V18.8252C55.008 19.4798 55.6942 19.8069 57.041 19.8069C58.3873 19.8069 59.0734 19.4798 59.0734 18.8252V16.0972C59.0734 15.944 59.2003 15.7915 59.4542 15.6387L60.0129 15.3335C60.6226 15.7482 61.0548 16.1629 61.2837 16.6209C61.5121 17.0575 61.639 17.734 61.639 18.6509V18.8256C61.639 19.4802 62.3252 19.8073 63.6715 19.8073C65.0182 19.8073 65.7044 19.4802 65.7044 18.8256V18.52C65.7044 17.2107 65.5265 16.2066 65.1707 15.5086C64.8153 14.7883 64.1547 14.1556 63.1637 13.5658C64.7894 12.5403 65.3231 11.5147 65.3231 9.61567V9.22289C65.3231 8.56784 64.637 8.24073 63.2902 8.24073C61.9439 8.24073 61.2578 8.56784 61.2578 9.22289V9.68093L61.2587 9.68051ZM86.4624 19.6322C89.4098 19.6322 91.036 18.2573 91.036 16.3586C91.036 15.1146 90.4772 14.2415 89.3848 13.7611C90.2229 13.2593 90.6551 12.539 90.6551 11.6006C90.6551 9.67969 89.08 8.4142 86.3359 8.4142H81.483C80.7714 8.4142 80.5685 8.67605 80.5685 9.46203V18.5844C80.5685 19.3699 80.7719 19.6322 81.483 19.6322H86.4624ZM84.6333 15.2018H85.8532C87.3014 15.0708 87.3014 17.2532 85.8532 17.1227H84.6333V15.2018ZM85.5479 10.9245C86.1575 10.9245 86.5893 11.2735 86.5893 11.8191C86.5893 12.3647 86.1575 12.6923 85.5479 12.6923H84.6333V10.9245H85.5479ZM99.3436 18.8248C99.3436 19.4794 100.03 19.8065 101.376 19.8065C102.723 19.8065 103.409 19.4794 103.409 18.8248V9.22206C103.409 8.56702 102.723 8.2399 101.376 8.2399C100.411 8.2399 99.8008 8.39272 99.5725 8.67647L97.3621 11.4697V9.22206C97.3621 8.56702 96.676 8.2399 95.3297 8.2399C93.9829 8.2399 93.2968 8.56702 93.2968 9.22206V18.8248C93.2968 19.4794 93.9829 19.8065 95.3297 19.8065C96.676 19.8065 97.3621 19.4794 97.3621 18.8248V15.5508L99.3441 13.0413V18.8248H99.3436ZM112.403 18.8248C112.403 19.4794 113.089 19.8065 114.435 19.8065C115.782 19.8065 116.468 19.4794 116.468 18.8248V9.22206C116.468 8.56702 115.782 8.2399 114.435 8.2399C113.089 8.2399 112.403 8.56702 112.403 9.22206V12.4519C112.403 13.9796 110.065 13.9796 110.065 12.4519V9.22206C110.065 8.56702 109.379 8.2399 108.033 8.2399C106.686 8.2399 106 8.56702 106 9.22206V12.3428C106 13.7611 106.432 14.8309 107.321 15.5074C108.21 16.1839 109.277 16.5329 110.471 16.5329C111.259 16.5329 111.894 16.3801 112.402 16.0749V18.8248H112.403ZM125.462 9.6801C125.462 10.8151 124.878 11.6882 123.683 12.2776C123.53 12.3428 123.404 12.4304 123.276 12.5394V9.22206C123.276 8.56702 122.59 8.2399 121.244 8.2399C119.897 8.2399 119.211 8.56702 119.211 9.22206V18.8248C119.211 19.4794 119.897 19.8065 121.244 19.8065C122.59 19.8065 123.276 19.4794 123.276 18.8248V16.0968C123.276 15.9435 123.403 15.7911 123.657 15.6383L124.216 15.3331C124.826 15.7478 125.258 16.1624 125.487 16.6205C125.715 17.057 125.842 17.7336 125.842 18.6505V18.8252C125.842 19.4798 126.528 19.8069 127.875 19.8069C129.221 19.8069 129.907 19.4798 129.907 18.8252V18.5195C129.907 17.2103 129.73 16.2062 129.374 15.5082C129.018 14.7879 128.358 14.1552 127.367 13.5654C128.992 12.5398 129.526 11.5143 129.526 9.61526V9.22248C129.526 8.56743 128.84 8.24032 127.493 8.24032C126.147 8.24032 125.461 8.56743 125.461 9.22248V9.68051L125.462 9.6801ZM138.216 16.3586C138.368 17.5807 135.828 17.5807 135.98 16.3586C135.98 15.7688 136.31 15.4202 136.946 15.267L137.606 15.1361C137.886 15.0923 138.089 15.0047 138.216 14.8961V16.3586ZM136.082 11.6011C135.929 10.5094 138.368 10.4223 138.216 11.6882V12.081C138.216 12.3647 137.937 12.5828 137.377 12.6923L135.295 13.1069C133.033 13.565 131.915 14.6128 131.915 16.2496C131.915 17.2313 132.398 18.0826 133.338 18.8029C134.279 19.5228 135.523 19.8941 137.048 19.8941C138.496 19.8941 139.741 19.5447 140.757 18.8248C141.773 18.1045 142.281 17.0566 142.281 15.7036V12.3428C142.281 11.0117 141.773 9.98574 140.782 9.26543C139.791 8.52365 138.546 8.15234 137.048 8.15234C135.523 8.15234 134.304 8.47946 133.389 9.15598C132.475 9.83251 132.017 10.6185 132.017 11.5131V11.6878C132.017 12.3424 132.703 12.6695 134.05 12.6695C135.396 12.6695 136.083 12.3424 136.083 11.6878V11.6006L136.082 11.6011ZM74.013 16.3586C74.1654 17.5807 71.6247 17.5807 71.7772 16.3586C71.7772 15.7688 72.107 15.4202 72.7426 15.267L73.4033 15.1361C73.6826 15.0923 73.886 15.0047 74.013 14.8961V16.3586ZM71.8791 11.6011C71.7262 10.5094 74.1654 10.4223 74.013 11.6882V12.081C74.013 12.3647 73.7336 12.5828 73.1744 12.6923L71.0915 13.1069C68.8297 13.565 67.7123 14.6128 67.7123 16.2496C67.7123 17.2313 68.195 18.0826 69.135 18.8029C70.0755 19.5228 71.3199 19.8941 72.8446 19.8941C74.2928 19.8941 75.5377 19.5447 76.5536 18.8248C77.5701 18.1045 78.0783 17.0566 78.0783 15.7036V12.3428C78.0783 11.0117 77.5701 9.98574 76.5791 9.26543C75.5881 8.52365 74.3433 8.15234 72.8446 8.15234C71.3199 8.15234 70.1005 8.47946 69.186 9.15598C68.2715 9.83251 67.8142 10.6185 67.8142 11.5131V11.6878C67.8142 12.3424 68.5004 12.6695 69.8467 12.6695C71.193 12.6695 71.8796 12.3424 71.8796 11.6878V11.6006L71.8791 11.6011Z" fill="#FEFEFE"/>
<path fill-rule="evenodd" clip-rule="evenodd" d="M23.1666 15.4699C23.6047 12.7964 20.7601 13.1913 19.4773 13.2061C23.3493 9.37911 23.058 5.63427 19.1609 4.37704C17.3179 3.7827 14.2512 4.93007 12.4886 7.37679C10.5249 10.1035 9.97242 14.4349 10.3056 20.4955C12.2948 19.2907 15.6442 19.1549 18.4031 18.4891C20.9308 17.8786 22.957 16.7482 23.1661 15.4699H23.1666Z" fill="#FEFEFE"/>
</svg>
