<svg width="149" height="42" viewBox="0 0 149 42" fill="none" xmlns="http://www.w3.org/2000/svg">
<path fill-rule="evenodd" clip-rule="evenodd" d="M61.0338 0.777499C54.2574 0.887426 49.5126 4.17839 47.2865 6.12686C47.2865 6.12686 47.1883 6.20931 47.1113 6.27938C47.0188 6.26015 46.9264 6.23679 46.8378 6.21068C42.1893 5.02209 36.938 4.80086 31.6463 5.56073C26.551 6.30549 19.247 8.17289 13.9341 11.2C4.62162 16.5219 -0.279176 22.9348 0.129064 29.2653C0.363994 32.93 2.74603 36.0932 7.00366 38.4154C13.9938 42.245 25.5343 41.3601 30.1828 40.8063C35.3763 40.1852 116.668 29.8726 127.35 28.4216C137.055 27.108 146.29 24.772 148.147 16.6593C148.26 16.1811 148.322 15.6947 148.322 15.2083V15.1519C148.322 13.1622 147.442 11.31 145.921 10.0513C143.069 7.71532 138.285 7.43912 134.946 7.42538C130.298 7.41164 80.4271 8.08907 74.7637 8.17152H74.392C74.3728 8.04785 74.3535 7.9228 74.3535 7.9228C74.0762 6.35496 73.1423 4.87918 71.6788 3.69333C69.9592 2.31237 66.7164 0.681312 61.0338 0.777499Z" fill="#FE8422"/>
<path fill-rule="evenodd" clip-rule="evenodd" d="M60.9749 12.5544C63.8056 12.472 66.5786 11.5733 66.7943 9.48606C66.9502 8.08998 65.427 6.65267 62.3229 6.52763C62.1245 6.51526 61.9243 6.50977 61.724 6.50977C60.3568 6.50977 59.0184 6.80657 57.89 7.35758C57.0254 7.81928 56.415 8.48572 56.1723 9.23735C55.8604 10.136 56.0163 10.8821 56.621 11.462C57.4413 12.2219 59.003 12.6094 60.9749 12.5544Z" fill="white"/>
<path fill-rule="evenodd" clip-rule="evenodd" d="M142.091 15.9545C141.681 16.5907 140.841 17.253 140.1 17.3368L139.77 17.3918C139.77 17.3918 140.063 15.9819 140.082 15.567C140.142 13.6322 139.495 11.6151 135.241 11.78C132.624 11.8913 128.817 13.4935 128.232 16.9631V16.9768L128.213 16.9905C128.213 16.9919 128.213 16.9947 128.213 16.996C128.213 17.018 128.205 17.04 128.193 17.0592C127.548 18.2616 126.358 19.9613 125.499 20.0314C125.476 20.0328 125.453 20.0342 125.428 20.0342C125.28 20.0342 125.137 19.9929 125.03 19.9201C124.877 19.7992 124.793 19.6425 124.793 19.479C124.793 19.4653 124.793 19.4502 124.795 19.4364C124.881 18.8703 125.045 18.3083 125.282 17.7642C125.648 16.8146 125.913 15.8404 126.064 14.8607C126.376 12.4972 124.325 12.0273 122.197 12.1386C120.93 12.2265 119.73 12.6003 118.779 13.2035L118.016 13.8122C118.016 13.8122 118.369 12.6511 118.465 12.3323C117.86 12.3461 114.092 12.4436 113.701 12.4436L112.022 17.2392C111.434 17.7916 110.635 18.2478 109.952 18.3729L109.622 18.4278L109.582 18.1791C109.559 17.9332 109.505 17.6872 109.426 17.4467C109.328 16.9081 108.663 15.0695 106.125 15.2221C99.5839 15.6096 99.7803 21.345 103.686 20.5302L104.134 20.434L104.055 20.7789C103.528 23.0599 102.16 24.2623 100.267 24.4423C100.227 24.445 100.187 24.4478 100.148 24.4478C99.9093 24.4478 99.6782 24.3818 99.5069 24.2623C99.1833 23.9929 99.0062 23.6494 99.0062 23.2963C99.0062 23.2454 99.01 23.1932 99.0177 23.1424C99.0563 22.0225 102.201 12.7075 102.201 12.7075C102.201 12.7075 96.5375 12.86 96.1273 12.8737C95.8327 13.7312 94.5868 17.4344 94.5868 17.4344L94.3923 17.918C94.1882 18.4045 94.0168 18.9005 93.8839 19.3966V19.4254L93.8647 19.4392C93.8454 19.4667 93.8454 19.4941 93.8262 19.5079C92.8691 21.264 91.2092 23.1712 89.9209 23.2674C89.8805 23.2729 89.84 23.2757 89.7977 23.2757C89.6013 23.2757 89.4106 23.2179 89.2758 23.1163C89.0987 22.983 89.0024 22.8057 89.0024 22.623C89.0024 22.612 89.0024 22.601 89.0043 22.59V22.5762L89.1218 21.8177C89.1218 21.8177 92.3434 13.4825 92.5783 12.9301C91.8562 12.9438 85.6652 13.0263 85.6652 13.0263L85.0606 14.5474C84.9046 13.3038 81.2131 11.6453 78.4402 13.4138C75.5112 15.2798 74.7102 18.0857 74.2615 20.8504L74.223 20.9603C73.5991 24.2911 72.5034 26.5721 69.2432 26.862C69.0449 26.8909 68.8408 26.906 68.6386 26.906C68.1918 26.906 67.7508 26.8346 67.3503 26.6958C68.29 26.2341 69.0969 25.6391 69.7131 24.9534C70.9243 23.5299 70.3774 22.2863 69.1084 21.6913C66.5704 20.5165 63.7975 21.9524 63.3083 23.7786C63.2544 23.9902 63.2275 24.2073 63.2275 24.4217C63.2275 25.1211 63.5144 25.8067 64.0497 26.3907C63.1697 26.7507 62.4668 27.1369 61.2575 27.2482C61.1747 27.2564 61.09 27.2605 61.0072 27.2605C60.4757 27.2605 59.9673 27.1066 59.5995 26.8346C58.8774 26.1434 59.8537 23.9174 59.9904 23.6274C59.9904 23.6274 64.4811 14.1874 64.7352 13.6075C63.9554 13.635 55.6943 13.8287 55.2841 13.8425C55.0107 14.4375 53.9554 16.7446 52.8828 18.873C50.7742 23.0352 44.6429 28.7281 38.3152 29.8892C34.9569 30.5117 32.3207 30.4004 30.6607 29.668C28.3962 28.6731 27.0867 26.3097 27.9667 22.9926C28.3153 21.4083 29.0105 19.8638 30.0137 18.4306C35.3054 10.4691 43.8188 12.2664 43.2911 12.8737C42.7308 13.0153 42.1858 13.1912 41.6697 13.4C40.3025 13.9112 38.1169 15.4186 38.0379 17.2832C37.9802 18.4856 38.4481 19.4529 39.3666 20.0891C40.264 20.7102 41.5927 21.0015 43.0966 20.904C46.455 20.6827 49.1894 18.9005 49.3069 16.2458C49.3647 14.8085 48.7985 13.6336 47.6277 12.7624C45.7329 11.3664 43.528 10.6752 38.6041 10.7727C30.9688 10.9253 19.4091 14.781 16.0893 23.31C14.9763 26.1846 16.4417 29.668 18.8815 31.244C22.2591 33.4426 26.457 34.2437 33.8188 33.2626C40.3795 32.3914 45.7502 29.2269 49.7132 25.9098C49.7151 25.918 49.7151 25.9263 49.7151 25.9345C49.7151 25.9771 49.7074 26.0197 49.6959 26.0609C48.7581 28.4931 50.0271 31.0915 55.7886 30.5666C58.1899 30.3454 62.4091 29.378 65.3572 27.747C66.7052 28.5769 69.0487 29.0743 71.7023 28.7982C72.7961 28.6882 75.5883 28.1619 78.0473 25.6597C79.9807 23.6975 80.957 19.8542 81.502 17.782C81.7561 16.8133 81.9121 16.1784 82.1259 15.916C82.278 15.6123 82.5842 15.3609 82.9847 15.2111C84.0188 14.9074 84.5464 15.6123 84.3519 16.151C84.1574 16.6759 83.0829 19.3155 83.0829 19.3292L82.8865 19.7442C82.2626 21.029 81.5385 22.4952 81.4808 24.0424C81.4423 25.176 81.8524 26.0747 82.692 26.6271C83.4738 27.1382 84.5869 27.3457 85.8944 27.2069C89.5127 26.8304 92.0892 24.2334 93.3024 22.726L93.4776 22.5048L93.7125 22.2011L93.8493 22.7672C94.4154 25.0208 96.9342 25.9332 100.722 25.5319C105.623 25.0208 108.571 23.2234 109.47 20.1001L109.509 19.9627L109.684 19.9215C110.158 19.7951 110.612 19.6274 111.032 19.4241L111.404 19.2441L109.665 24.2609C110.368 24.1922 114.956 23.6398 115.328 23.6109C115.426 23.3073 117.437 17.2241 117.437 17.2241C117.789 16.1729 118.744 14.1695 119.838 14.1145C119.848 14.1145 119.857 14.1145 119.867 14.1145C120.077 14.1145 120.277 14.1736 120.423 14.2808C120.654 14.4801 120.782 14.7315 120.782 14.9898C120.782 15.0215 120.78 15.0517 120.776 15.0833C120.687 15.8542 120.464 16.6168 120.111 17.3505C119.632 18.5075 119.295 19.7003 119.116 20.9026C118.842 23.0173 121.361 23.0036 122.103 22.9211C123.88 22.7411 126.243 22.0788 128.255 18.9541L128.353 19.2853C128.744 20.7666 130.558 21.8397 132.671 21.8397C132.898 21.8397 133.127 21.8274 133.352 21.8012C136.183 21.4976 138.116 20.4052 139.191 18.6078L139.268 18.4842L139.443 18.4704C140.556 18.388 142.079 17.4756 142.47 16.4107C142.332 16.3557 142.312 16.1482 142.099 15.9558L142.091 15.9545ZM67.0865 22.6298C68.1013 22.6573 68.5115 23.1011 67.9453 23.9847C67.6719 24.4134 66.8708 25.062 65.8367 25.6157C64.5677 24.1922 65.8175 22.5886 67.0865 22.6298ZM104.697 18.8291C104.502 19.0228 104.109 19.1479 103.466 19.2303C102.802 19.3141 102.626 19.0503 102.607 18.9404C102.47 18.5254 103.116 17.848 103.662 17.6693C103.776 17.6267 103.901 17.6048 104.03 17.6048C104.184 17.6048 104.334 17.6364 104.463 17.6968C104.912 18.0692 104.698 18.8291 104.698 18.8291H104.697ZM134.827 17.4618C134.417 18.333 133.87 19.2729 132.776 19.3691C132.709 19.3787 132.638 19.3828 132.568 19.3828C132.31 19.3828 132.06 19.3196 131.858 19.2028C131.486 18.9679 131.33 18.7466 131.351 17.9593C131.409 16.107 132.776 11.4777 134.631 11.4213C134.64 11.4213 134.65 11.4213 134.66 11.4213C134.908 11.4213 135.147 11.4969 135.313 11.6288C135.703 11.9325 135.859 12.5137 135.761 13.2049L135.742 13.2873C135.742 13.2873 133.809 13.3423 133.595 15.3883C133.593 15.4241 133.591 15.4612 133.591 15.4969C133.591 16.1908 134.096 16.8353 134.922 17.198L134.823 17.4605L134.827 17.4618ZM134.124 14.0335C133.5 13.7573 133.52 12.9411 133.87 12.6511C133.965 12.5577 134.115 12.5027 134.277 12.5027C134.338 12.5027 134.4 12.511 134.458 12.5261C135.73 13.7367 136.418 15.2111 136.418 16.7253C136.418 16.9053 136.406 17.0881 136.387 17.2681L134.122 14.0335H134.124Z" fill="white"/>
</svg>
