<svg width="149" height="22" viewBox="0 0 149 22" fill="none" xmlns="http://www.w3.org/2000/svg">
<path fill-rule="evenodd" clip-rule="evenodd" d="M0.324219 0.683286L118.75 0.681641V21.385H0.324219V0.683286Z" fill="#EC1B24"/>
<path fill-rule="evenodd" clip-rule="evenodd" d="M84.5087 4.40563C85.5285 4.40563 86.1598 4.74946 87.1131 5.86317L94.1995 15.1381C94.5772 15.6234 94.5394 16.3983 93.8901 16.9C93.3146 17.3458 92.2948 17.3853 91.7426 16.7174L90.0466 14.5706H78.8846L77.1903 16.7569C76.5932 17.405 75.8611 17.405 75.1975 17.0004C74.5086 16.5792 74.3323 15.7649 74.755 15.1973L81.908 5.86153C82.8181 4.70668 83.5357 4.40234 84.5105 4.40234L84.5087 4.40563ZM84.9332 7.83727C84.7461 7.58722 84.6778 7.56254 84.4781 7.56254C84.2551 7.56254 84.1688 7.66453 84.0177 7.84878C83.7731 8.14654 80.9313 11.9779 80.899 11.9779H88.0753C88.0609 11.9779 85.3289 8.37356 84.9332 7.83727Z" fill="white"/>
<path fill-rule="evenodd" clip-rule="evenodd" d="M36.1736 4.42157H46.3824C48.9166 4.42157 49.1486 7.08659 49.1486 7.08659H36.5891C35.9668 7.08659 35.3912 7.51596 35.3912 8.26283C35.3912 9.11498 36.0981 9.51967 36.5459 9.51967H45.4219C47.181 9.51967 49.6828 10.8588 49.6828 13.1717C49.6828 16.174 46.7745 17.2417 45.7637 17.2417H35.3786C32.2923 17.2417 32.4631 14.5503 32.4631 14.5503H45.3338C45.8482 14.5503 46.6072 14.0831 46.6072 13.3856C46.6072 12.7193 45.9417 12.2094 45.4525 12.2094H36.7546C34.2869 12.2094 32.375 10.5347 32.375 8.26118C32.3696 5.70473 34.7689 4.41992 36.1718 4.41992L36.1736 4.42157Z" fill="white"/>
<path fill-rule="evenodd" clip-rule="evenodd" d="M101.607 4.4043H112.15C113.747 4.4043 116.226 5.59862 116.226 8.45448V8.63708C116.226 10.1571 115.184 11.4929 113.724 12.1395C113.724 12.1395 113.83 12.2859 116.093 15.0957C116.386 15.4592 116.402 16.3311 115.762 16.8575C115.148 17.3609 114.129 17.4234 113.614 16.8773C112.895 16.1173 112.064 15.1154 109.783 12.4635H105.664C104.49 12.4635 102.896 11.6114 102.896 9.72942H111.798C112.281 9.71132 113.057 9.28689 113.057 8.45613C113.057 7.68787 112.312 7.1598 111.794 7.1598H101.963L101.97 15.683C101.972 16.6141 101.191 17.2408 100.351 17.2408C99.5528 17.2408 98.7578 16.5927 98.7578 15.7224V7.03807C98.7542 5.57724 100.438 4.40594 101.609 4.40594L101.607 4.4043Z" fill="white"/>
<path fill-rule="evenodd" clip-rule="evenodd" d="M58.1608 4.42578H68.7023C70.2995 4.42578 72.7779 5.62175 72.7779 8.47596V8.65857C72.7779 10.1803 71.7366 11.5144 70.2761 12.1626C70.2761 12.1626 69.5207 12.3863 68.8121 12.4669H62.1897C61.0152 12.4669 59.5098 11.5967 59.5098 9.71306H68.3228C68.8067 9.69497 69.6052 9.31002 69.6052 8.47925C69.6052 7.711 68.8606 7.18293 68.3426 7.18293L58.5116 7.18129L58.517 15.7061C58.5188 16.6372 57.7382 17.264 56.8982 17.264C56.0997 17.264 55.3047 16.6175 55.3047 15.7456V7.0612C55.3029 5.60037 56.9864 4.42907 58.159 4.42907L58.1608 4.42578Z" fill="white"/>
<path fill-rule="evenodd" clip-rule="evenodd" d="M124.395 11.3113C124.395 15.2842 126.582 18.8408 130.434 20.5813C134.055 22.2182 138.88 22.2182 142.512 20.5813C146.093 18.9675 148.541 15.2842 148.541 11.3113C148.541 5.23438 143.226 0.269531 136.468 0.269531C129.679 0.269531 124.396 5.19654 124.396 11.3113H124.395Z" fill="#157946"/>
<path fill-rule="evenodd" clip-rule="evenodd" d="M136.474 3.1313C135.26 6.89853 131.637 12.4211 128.997 15.1272H135.26L135.274 16.7674C135.26 17.6985 134.45 18.6625 133.274 18.6493C131.639 18.6312 129.594 17.9403 128.359 16.0221C127.458 14.6222 126.805 13.5183 126.805 11.309C126.805 6.47904 131.058 2.47656 136.47 2.47656C141.821 2.47656 146.136 6.59584 146.136 11.309C146.136 13.52 145.008 15.4332 144.634 15.9827C143.312 17.9403 141.301 18.6312 139.744 18.6493C138.67 18.6608 137.679 17.9403 137.679 16.7608V15.1239H144.037C141.299 12.4178 137.679 6.89689 136.474 3.12801V3.1313Z" fill="white"/>
</svg>
