<svg width="71" height="70" viewBox="0 0 71 70" fill="none" xmlns="http://www.w3.org/2000/svg">
<g clip-path="url(#clip0_6665_37255)">
<path d="M35.4077 20.8927C35.5195 20.8927 35.6313 20.8928 35.7465 20.8929C46.2858 20.9138 57.0244 23.3345 64.7596 30.8988C65.0994 31.2491 65.4121 31.6112 65.7166 31.9925C65.823 32.1243 65.9295 32.2562 66.0392 32.392C67.6169 34.3754 68.9072 36.5693 69.7242 38.9737C69.7556 39.0654 69.7871 39.1571 69.8195 39.2515C70.3603 40.9299 70.5702 42.5659 70.5552 44.3179C70.553 44.6208 70.5552 44.9235 70.5578 45.2265C70.5635 49.0396 69.4612 52.7057 66.742 55.4569C66.6292 55.564 66.5164 55.6712 66.4002 55.7816C66.5158 55.795 66.6314 55.8084 66.7505 55.8222C68.0818 55.9976 69.0762 56.2126 69.9202 57.3095C70.6217 58.3301 70.6381 59.3469 70.5017 60.5667C70.1872 61.5552 69.4698 62.2987 68.5583 62.7761C68.4375 62.833 68.4375 62.833 68.3142 62.891C68.3123 63.0594 68.3104 63.2279 68.3084 63.4015C68.2603 65.4218 67.8759 67.0057 66.4167 68.4831C65.3523 69.4683 64.1542 70.0338 62.6894 70.0355C62.5938 70.036 62.4982 70.0365 62.3997 70.037C62.0794 70.0382 61.7591 70.0376 61.4388 70.0369C61.2069 70.0374 60.9749 70.038 60.7429 70.0388C60.1054 70.0404 59.468 70.0404 58.8305 70.0401C58.143 70.04 57.4554 70.0415 56.7679 70.0428C55.4208 70.0451 54.0738 70.0459 52.7267 70.046C51.6317 70.0461 50.5366 70.0467 49.4416 70.0476C46.337 70.05 43.2324 70.0512 40.1278 70.051C39.9604 70.051 39.793 70.051 39.6206 70.051C39.453 70.051 39.2854 70.051 39.1127 70.051C36.3969 70.0508 33.6812 70.0535 30.9654 70.0573C28.1769 70.0612 25.3884 70.0631 22.5999 70.0629C21.0344 70.0628 19.4689 70.0636 17.9034 70.0665C16.5703 70.069 15.2373 70.0696 13.9042 70.0677C13.2242 70.0668 12.5443 70.0668 11.8643 70.0692C11.2413 70.0713 10.6184 70.071 9.99537 70.0686C9.77051 70.0682 9.54565 70.0686 9.32079 70.0702C7.45422 70.082 6.01239 69.8043 4.60331 68.4964C3.94295 67.8439 3.44591 67.1727 3.0994 66.3089C3.04988 66.1896 3.00035 66.0703 2.94933 65.9474C2.76213 65.2512 2.79632 64.5519 2.82062 63.8344C2.81625 63.4895 2.80066 63.2179 2.68924 62.891C2.43076 62.6534 2.18262 62.5053 1.8681 62.3508C1.17446 61.9859 0.800504 61.2655 0.501744 60.5667C0.3342 59.3102 0.419117 58.1846 1.18534 57.1488C2.089 56.0949 3.27649 55.8869 4.60331 55.7816C4.52876 55.715 4.45421 55.6483 4.3774 55.5797C1.91445 53.2641 0.637211 49.868 0.477544 46.5249C0.402246 41.6518 0.402246 41.6518 1.04862 39.6488C1.07792 39.5559 1.10722 39.463 1.13741 39.3673C2.06068 36.5236 3.59619 33.9638 5.56034 31.7191C5.62273 31.6475 5.68511 31.576 5.74939 31.5022C6.66067 30.4643 7.60744 29.5557 8.70487 28.7113C8.83458 28.6052 8.96429 28.4991 9.09793 28.3898C14.5319 24.0232 21.457 22.1309 28.2556 21.2943C28.3471 21.2829 28.4385 21.2715 28.5327 21.2598C30.8202 20.9792 33.1046 20.8895 35.4077 20.8927ZM32.7478 23.3818C30.7342 23.4068 29.3328 23.6257 27.7904 24.967C27.484 25.233 27.1595 25.4742 26.8372 25.7205C26.1506 26.2854 25.4878 26.8744 24.8377 27.4808C24.7249 27.5846 24.6121 27.6884 24.4959 27.7954C21.1805 30.9605 19.371 35.5936 19.1936 40.1297C19.1393 41.4391 19.0284 42.5217 18.0445 43.4683C17.2834 44.067 16.407 44.3926 15.4271 44.3437C14.3491 44.1747 13.5635 43.8155 12.8662 42.9701C12.2867 42.0456 12.1925 41.3231 12.2083 40.2469C12.2097 40.1086 12.2111 39.9704 12.2125 39.8279C12.2944 35.7556 13.4537 31.8899 15.4323 28.3476C15.7361 27.8107 15.7361 27.8107 15.8142 27.2074C14.3472 27.9543 12.9108 28.6992 11.576 29.6683C11.4366 29.7688 11.2972 29.8692 11.1535 29.9727C7.13096 32.936 3.95682 37.1422 3.01395 42.1287C2.90735 42.942 2.91557 43.7602 2.91996 44.5792C2.92016 44.6729 2.92036 44.7666 2.92057 44.8632C2.92622 46.3059 3.00368 47.6805 3.37284 49.0824C3.4109 49.2278 3.44897 49.3732 3.48819 49.523C4.1932 51.878 5.48992 53.6103 7.61112 54.8245C9.5013 55.7638 11.5599 55.9811 13.6409 55.9704C13.8386 55.9709 14.0363 55.9715 14.2341 55.9723C14.7705 55.974 15.3069 55.9732 15.8433 55.9719C16.4245 55.971 17.0057 55.9724 17.5868 55.9735C18.7227 55.9754 19.8585 55.975 20.9943 55.9738C21.9181 55.9729 22.8419 55.9727 23.7656 55.9732C23.9634 55.9733 23.9634 55.9733 24.1653 55.9734C24.4332 55.9735 24.7012 55.9736 24.9692 55.9738C27.4773 55.9749 29.9853 55.9736 32.4934 55.9714C34.6417 55.9696 36.79 55.9699 38.9383 55.9718C41.4379 55.974 43.9374 55.9748 46.437 55.9736C46.704 55.9734 46.9709 55.9733 47.2379 55.9732C47.3692 55.9731 47.5005 55.9731 47.6358 55.973C48.5576 55.9726 49.4794 55.9732 50.4012 55.9742C51.5258 55.9754 52.6504 55.975 53.775 55.9729C54.3479 55.9718 54.9208 55.9713 55.4937 55.9727C56.0196 55.9739 56.5455 55.9732 57.0714 55.9711C57.3486 55.9704 57.6258 55.9717 57.9029 55.9732C60.4064 55.9574 62.759 55.4337 64.7596 53.8675C64.9034 53.7632 65.0472 53.6588 65.1954 53.5513C67.2575 51.5809 68.0004 48.5679 68.0734 45.8059C68.1002 43.8764 68.1209 42.0435 67.4939 40.1956C67.4511 40.0615 67.4511 40.0615 67.4073 39.9247C66.0093 35.5789 62.8869 32.2055 59.2908 29.5316C57.996 30.0439 57.2277 32.2639 56.6931 33.4964C55.8464 35.61 55.4296 37.7239 55.3776 39.9982C55.3414 41.3255 55.1557 42.4673 54.2322 43.4769C53.3421 44.1351 52.4653 44.3708 51.3611 44.2972C50.4152 44.0842 49.5376 43.7221 48.9675 42.9097C47.5772 40.5184 48.4431 36.6521 49.0856 34.1007C49.8175 31.3487 50.9249 28.5769 52.5916 26.2503C52.2657 25.9244 52.0344 25.8655 51.5956 25.7302C51.4478 25.6844 51.3001 25.6387 51.1479 25.5916C50.9899 25.5439 50.8318 25.4962 50.669 25.4471C50.4283 25.374 50.4283 25.374 50.1828 25.2994C47.6361 24.3536 47.6361 24.3536 45.1078 24.5323C44.9336 24.6679 44.9336 24.6679 44.7559 24.8062C44.6272 24.9062 44.4986 25.0061 44.366 25.109C43.763 25.6082 43.1802 26.1229 42.6111 26.6605C42.5186 26.7458 42.4261 26.8311 42.3307 26.919C38.6966 30.3856 36.9463 35.3624 36.7198 40.2829C36.6562 41.382 36.4782 42.3643 35.7992 43.2585C34.9505 43.9577 34.0577 44.4001 32.9271 44.3437C31.8491 44.1747 31.0635 43.8155 30.3662 42.9701C29.7598 42.0028 29.6933 41.2376 29.7083 40.1102C29.7097 39.9591 29.7111 39.808 29.7125 39.6523C29.8135 34.1984 31.7954 28.9385 35.0423 24.5869C35.338 24.1885 35.6245 23.7837 35.9119 23.3792C34.8566 23.358 33.8032 23.3754 32.7478 23.3818ZM38.6377 23.8919C38.4984 24.0818 38.365 24.2759 38.2361 24.473C38.0407 24.7046 37.844 24.9353 37.6465 25.1651C34.2276 29.43 32.1167 34.4751 32.024 39.9906C32.0209 40.0976 32.0179 40.2047 32.0147 40.315C32.0168 40.8258 32.065 41.123 32.3401 41.5586C32.681 41.8844 32.8432 41.973 33.3142 41.973C33.7909 41.7513 33.9764 41.595 34.2713 41.1527C34.3252 40.8272 34.3252 40.8272 34.3386 40.4611C34.3471 40.3222 34.3557 40.1834 34.3646 40.0404C34.3733 39.8914 34.382 39.7424 34.3909 39.5889C34.7736 34.1892 36.7938 29.43 40.4578 25.43C40.5238 25.3578 40.5899 25.2857 40.6579 25.2113C41.0976 24.7412 41.5628 24.3297 42.0642 23.9261C41.2488 23.3825 39.3856 23.1441 38.6377 23.8919ZM22.4024 24.8404C22.2546 24.8738 22.1068 24.9072 21.9546 24.9416C20.5801 25.2749 19.9489 25.8557 19.1211 26.9766C19.0502 27.0722 18.9794 27.1677 18.9063 27.2661C18.1935 28.2463 17.5965 29.2741 17.0447 30.3519C17.0012 30.4362 16.9577 30.5206 16.9129 30.6075C15.434 33.5151 14.5854 36.7575 14.541 40.0247C14.5371 40.1243 14.5331 40.2239 14.529 40.3265C14.523 40.8355 14.5646 41.1223 14.8391 41.5564C15.1804 41.884 15.3417 41.973 15.8142 41.973C16.2909 41.7513 16.4764 41.595 16.7713 41.1527C16.8251 40.8406 16.8251 40.8406 16.8386 40.491C16.8472 40.3583 16.8558 40.2255 16.8646 40.0888C16.8733 39.9464 16.882 39.804 16.8909 39.6573C17.3299 33.6358 19.8964 28.9199 24.1541 24.7464C24.2443 24.6562 24.3346 24.566 24.4275 24.473C23.7337 24.473 23.0742 24.6783 22.4024 24.8404ZM54.9158 27.2074C52.0593 30.2971 50.8162 35.4264 50.6775 39.512C50.6705 39.6381 50.6634 39.7641 50.6562 39.8939C50.6312 40.5991 50.6685 41.1008 51.0877 41.6995C51.4127 41.9487 51.5679 41.9763 51.9764 41.9559C52.4063 41.8054 52.5795 41.6446 52.865 41.2894C52.9666 40.8621 52.9666 40.8621 52.9841 40.3799C52.9974 40.1971 53.0107 40.0143 53.024 39.8315C53.03 39.7362 53.0361 39.6408 53.0423 39.5425C53.2992 35.6065 54.3362 31.9492 56.5927 28.6675C56.8546 28.3356 56.8546 28.3356 56.8299 28.0277C56.5625 27.8903 56.2946 27.7537 56.0266 27.6175C55.8775 27.5414 55.7285 27.4652 55.5748 27.3868C55.2188 27.1881 55.2188 27.1881 54.9158 27.2074ZM3.0994 58.7894C2.88553 59.2171 2.91397 59.549 2.96268 60.0199C3.34545 60.4336 3.57726 60.5571 4.13891 60.6353C4.33374 60.6382 4.52864 60.638 4.72348 60.6356C4.8857 60.6367 4.8857 60.6367 5.05121 60.638C5.41505 60.64 5.77876 60.6381 6.14259 60.6362C6.40549 60.6368 6.66839 60.6377 6.93129 60.6388C7.65484 60.6411 8.37836 60.6399 9.10191 60.6382C9.88179 60.637 10.6617 60.6389 11.4415 60.6404C12.9698 60.6428 14.498 60.6423 16.0262 60.6407C17.2679 60.6395 18.5096 60.6393 19.7513 60.6399C19.9278 60.64 20.1043 60.6401 20.2862 60.6402C20.6448 60.6403 21.0034 60.6405 21.362 60.6407C24.6307 60.6422 27.8995 60.6406 31.1683 60.6378C34.1532 60.6352 37.1381 60.6354 40.1229 60.638C43.4754 60.641 46.8279 60.6421 50.1804 60.6404C50.5376 60.6403 50.8949 60.6401 51.2522 60.6399C51.428 60.6398 51.6038 60.6397 51.785 60.6397C53.0256 60.6392 54.2662 60.64 55.5068 60.6413C57.0181 60.6428 58.5294 60.6424 60.0407 60.6395C60.8123 60.638 61.5837 60.6375 62.3553 60.6393C63.061 60.6409 63.7666 60.64 64.4723 60.6371C64.7281 60.6365 64.984 60.6368 65.2399 60.6381C65.5866 60.6398 65.9332 60.6381 66.28 60.6356C66.4303 60.6375 66.4303 60.6375 66.5837 60.6394C67.0686 60.6323 67.3451 60.5742 67.7621 60.3189C68.0861 60.0284 68.0861 60.0284 68.1092 59.5413C68.0395 59.0534 67.9811 58.8534 67.6307 58.516C67.1393 58.3522 66.6926 58.36 66.1812 58.3613C66.0738 58.361 65.9665 58.3607 65.8558 58.3604C65.493 58.3596 65.1302 58.3598 64.7674 58.36C64.5059 58.3597 64.2444 58.3593 63.9828 58.3588C63.2618 58.3577 62.5408 58.3575 61.8197 58.3574C61.043 58.3571 60.2663 58.3561 59.4896 58.3551C57.7902 58.3533 56.0909 58.3525 54.3915 58.3519C53.3312 58.3515 52.2708 58.3509 51.2104 58.3503C48.2765 58.3486 45.3425 58.3472 42.4086 58.3468C42.2188 58.3467 42.029 58.3467 41.8393 58.3467C41.649 58.3466 41.4588 58.3466 41.2686 58.3466C40.8869 58.3465 40.5053 58.3465 40.1237 58.3464C40.0291 58.3464 39.9344 58.3464 39.8369 58.3463C36.7676 58.3458 33.6983 58.3437 30.629 58.3405C27.3851 58.3371 24.1413 58.3352 20.8974 58.3351C19.1286 58.335 17.3599 58.3342 15.5911 58.3317C14.0853 58.3296 12.5795 58.3289 11.0737 58.33C10.3049 58.3305 9.53621 58.3304 8.76746 58.3285C8.0643 58.3268 7.36116 58.3269 6.658 58.3286C6.40305 58.3288 6.14811 58.3284 5.89317 58.3272C5.54764 58.3257 5.20221 58.3267 4.85669 58.3284C4.75683 58.3273 4.65696 58.3263 4.55407 58.3252C3.9558 58.3314 3.57534 58.4214 3.0994 58.7894ZM5.2869 63.0277C5.21179 64.9783 5.21179 64.9783 6.12003 66.4804C6.94871 67.2524 7.54679 67.5732 8.69578 67.5746C8.78996 67.575 8.88414 67.5755 8.98117 67.576C9.29745 67.5773 9.6137 67.5766 9.92997 67.576C10.1587 67.5765 10.3875 67.5771 10.6163 67.5778C11.2455 67.5795 11.8747 67.5795 12.5039 67.5791C13.1823 67.5791 13.8607 67.5806 14.5391 67.5819C15.8684 67.5842 17.1977 67.5849 18.5271 67.5851C19.6074 67.5852 20.6878 67.5858 21.7682 67.5866C24.8303 67.589 27.8923 67.5903 30.9544 67.5901C31.1196 67.5901 31.2847 67.5901 31.4548 67.5901C31.6202 67.59 31.7855 67.59 31.9558 67.59C34.6356 67.5899 37.3154 67.5925 39.9952 67.5964C42.7458 67.6003 45.4965 67.6022 48.2471 67.602C49.7918 67.6019 51.3364 67.6026 52.8811 67.6056C54.1962 67.6081 55.5113 67.6087 56.8264 67.6068C57.4974 67.6059 58.1685 67.6059 58.8395 67.6083C59.4539 67.6104 60.0682 67.61 60.6826 67.6076C60.9048 67.6072 61.127 67.6077 61.3492 67.6092C62.6646 67.6176 63.6526 67.6009 64.6859 66.6988C64.7722 66.5983 64.8586 66.4979 64.9475 66.3944C65.036 66.2946 65.1245 66.1949 65.2156 66.0921C65.9066 65.0897 65.7166 64.2836 65.7166 63.0277C45.7748 63.0277 25.833 63.0277 5.2869 63.0277Z" fill="#C18539"/>
<path d="M13.679 51.2527C13.8363 51.2523 13.9937 51.2518 14.1558 51.2514C14.4174 51.2517 14.4174 51.2517 14.6843 51.252C14.8702 51.2518 15.0561 51.2515 15.2421 51.2511C15.7548 51.2502 16.2676 51.2503 16.7803 51.2504C17.3326 51.2505 17.8849 51.2497 18.4372 51.2491C19.5199 51.2479 20.6026 51.2475 21.6853 51.2475C22.5651 51.2474 23.4449 51.2471 24.3246 51.2467C26.8169 51.2455 29.3092 51.2449 31.8015 51.245C32.0032 51.245 32.0032 51.245 32.209 51.245C32.3436 51.245 32.4782 51.245 32.6169 51.245C34.7994 51.245 36.9818 51.2437 39.1643 51.2418C41.4032 51.2398 43.6421 51.2389 45.8811 51.239C47.1389 51.2391 48.3966 51.2387 49.6544 51.2372C50.7253 51.236 51.7961 51.2357 52.867 51.2366C53.4136 51.2371 53.9603 51.2371 54.507 51.2359C55.007 51.2348 55.5071 51.235 56.0072 51.2362C56.2746 51.2365 56.5419 51.2355 56.8092 51.2344C57.0464 51.2353 57.0464 51.2353 57.2883 51.2363C57.425 51.2363 57.5617 51.2362 57.7025 51.2362C58.0774 51.272 58.2935 51.3369 58.6063 51.5437C58.9406 52.0452 58.9785 52.4645 58.8797 53.0477C58.6241 53.38 58.4311 53.5454 58.0594 53.7312C57.8141 53.7444 57.5683 53.7487 57.3227 53.7488C57.1653 53.7493 57.008 53.7497 56.8458 53.7502C56.6714 53.75 56.4971 53.7497 56.3174 53.7495C56.1315 53.7498 55.9455 53.7501 55.7596 53.7505C55.2468 53.7513 54.7341 53.7513 54.2214 53.7511C53.6691 53.7511 53.1168 53.7518 52.5645 53.7525C51.4818 53.7536 50.3991 53.754 49.3163 53.7541C48.4366 53.7541 47.5568 53.7544 46.677 53.7549C44.1847 53.7561 41.6925 53.7567 39.2002 53.7566C39.0657 53.7566 38.9312 53.7566 38.7927 53.7566C38.6581 53.7566 38.5234 53.7566 38.3847 53.7566C36.2023 53.7565 34.0198 53.7578 31.8374 53.7597C29.5984 53.7617 27.3595 53.7627 25.1206 53.7625C23.8628 53.7625 22.605 53.7629 21.3472 53.7643C20.2764 53.7656 19.2055 53.7659 18.1347 53.7649C17.588 53.7645 17.0414 53.7645 16.4947 53.7657C15.9946 53.7668 15.4945 53.7666 14.9944 53.7654C14.7271 53.7651 14.4597 53.7661 14.1924 53.7672C13.9553 53.7662 13.9553 53.7662 13.7134 53.7653C13.5767 53.7653 13.44 53.7653 13.2991 53.7654C12.9243 53.7295 12.7081 53.6646 12.3954 53.4578C12.061 52.9563 12.0232 52.5371 12.1219 51.9539C12.5878 51.3482 12.9401 51.2532 13.679 51.2527Z" fill="#C18539"/>
<path d="M48.8993 6.97285C49.2317 7.22853 49.3971 7.42148 49.5829 7.79316C49.6497 8.46926 49.5293 8.77695 49.1129 9.30561C48.7588 9.75854 48.532 10.0821 48.4892 10.6643C48.6849 11.3771 49.0622 11.7839 49.6385 12.2264C50.4075 12.986 50.7298 13.9995 50.7621 15.0563C50.6856 16.5691 50.127 17.5573 49.036 18.5939C48.656 18.784 48.3636 18.7559 47.9423 18.7307C47.4853 18.5656 47.4027 18.4681 47.122 18.0471C47.0218 17.3083 47.0694 16.9531 47.5236 16.3552C47.6629 16.1898 47.8025 16.0246 47.9423 15.8596C48.1518 15.4406 48.1104 15.0917 48.079 14.6291C47.8782 14.1606 47.6795 13.9538 47.2758 13.6379C46.5415 13.0552 46.1085 12.1316 45.9214 11.2234C45.7972 10.0363 46.1051 8.84019 46.8144 7.87915C47.4501 7.13612 47.8749 6.82071 48.8993 6.97285Z" fill="#C18539"/>
<path d="M23.1973 6.97175C23.681 7.30433 23.8464 7.51187 23.9834 8.08259C23.8756 8.63934 23.7152 8.90009 23.4023 9.36432C23.1046 9.80972 22.929 10.0946 22.8042 10.6204C22.9539 11.1871 23.2145 11.4687 23.6144 11.8872C23.8742 12.16 24.1056 12.4399 24.3337 12.7396C24.4302 12.8651 24.4302 12.8651 24.5287 12.9932C25.0964 13.8739 25.2127 14.879 25.0312 15.898C24.745 16.9424 24.3014 18.0419 23.3292 18.6222C22.9389 18.7781 22.6569 18.7806 22.2402 18.7296C21.8711 18.4835 21.6193 18.3079 21.4199 17.9092C21.3478 17.4768 21.3483 17.1976 21.5935 16.8256C21.7415 16.6402 21.8896 16.4549 22.0378 16.2697C22.3347 15.867 22.4507 15.5332 22.5137 15.0382C22.3417 14.3237 22.0283 13.9905 21.4968 13.4915C20.6093 12.6344 20.3054 11.8226 20.2578 10.5948C20.3092 9.18144 20.8785 8.13736 21.8301 7.10846C22.2716 6.88771 22.7199 6.89234 23.1973 6.97175Z" fill="#C18539"/>
<path d="M36.0481 -0.000672132C36.5462 0.341752 36.7027 0.543458 36.8257 1.1358C36.7142 1.73361 36.4906 2.03122 36.1042 2.48804C35.8313 2.83575 35.7743 3.14617 35.7063 3.57965C35.8048 4.33041 36.2204 4.66387 36.7317 5.19464C37.5672 6.11297 37.978 7.09283 37.9541 8.35092C37.801 9.57914 37.2881 10.58 36.3899 11.4324C36.0602 11.6881 35.906 11.7582 35.4841 11.8426C35.0004 11.7374 34.7601 11.5528 34.4075 11.2103C34.2115 10.8184 34.2289 10.5522 34.2708 10.1165C34.5186 9.69781 34.5186 9.69781 34.8176 9.2962C35.1718 8.81561 35.3249 8.41619 35.3031 7.80778C35.1507 7.22329 34.6876 6.84021 34.2708 6.42511C33.463 5.55307 33.0124 4.61553 33.0403 3.4173C33.2198 2.11162 33.7065 1.15499 34.5955 0.195861C35.0909 -0.0754387 35.4963 -0.127485 36.0481 -0.000672132Z" fill="#C18539"/>
</g>
<defs>
<clipPath id="clip0_6665_37255">
<rect width="70" height="70" fill="white" transform="translate(0.5)"/>
</clipPath>
</defs>
</svg>
