<svg width="71" height="70" viewBox="0 0 71 70" fill="none" xmlns="http://www.w3.org/2000/svg">
<path d="M34.4787 34.9626C34.7148 34.962 34.9508 34.9613 35.1868 34.9605C35.823 34.9587 36.4592 34.9586 37.0954 34.9589C37.629 34.9591 38.1627 34.9584 38.6964 34.9577C39.957 34.9562 41.2177 34.9562 42.4784 34.957C43.7728 34.9578 45.0671 34.9561 46.3615 34.9532C47.4782 34.9508 48.5949 34.95 49.7116 34.9504C50.3761 34.9507 51.0407 34.9503 51.7052 34.9484C52.3311 34.9467 52.9569 34.947 53.5828 34.9488C53.8104 34.9491 54.038 34.9487 54.2656 34.9476C56.4256 34.9375 58.4969 35.201 60.5452 35.9145C60.6842 35.9622 60.8232 36.0098 60.9665 36.059C63.922 37.1042 66.6043 38.8665 68.0535 41.7239C68.5778 43.0286 68.4771 44.5992 67.9392 45.8784C67.5953 46.5375 67.2009 47.1202 66.5944 47.5583C66.084 48.2182 66.1699 48.8429 66.1803 49.6551C66.1794 49.9087 66.1794 49.9087 66.1786 50.1673C66.1778 50.5344 66.1783 50.9012 66.1809 51.2682C66.1848 51.8492 66.1838 52.4301 66.182 53.0111C66.1791 54.1402 66.1813 55.2692 66.1841 56.3983C66.1875 57.834 66.1893 59.2696 66.1855 60.7052C66.1841 61.282 66.1855 61.8587 66.189 62.4355C66.1911 62.8799 66.1896 63.3243 66.1888 63.7687C66.1906 63.9273 66.1923 64.0859 66.1942 64.2494C66.1875 65.3216 66.0359 66.0598 65.3095 66.8887C65.2205 66.9624 65.1315 67.0361 65.0398 67.112C64.9512 67.1877 64.8625 67.2635 64.7712 67.3416C64.1267 67.7857 63.5769 67.847 62.8016 67.8478C62.7019 67.8483 62.6022 67.8488 62.4994 67.8493C62.1643 67.8506 61.8292 67.8499 61.4941 67.8492C61.2518 67.8497 61.0095 67.8504 60.7672 67.8511C60.1006 67.8528 59.4339 67.8527 58.7673 67.8524C58.0486 67.8523 57.33 67.8539 56.6113 67.8552C55.2031 67.8574 53.7948 67.8582 52.3865 67.8583C51.242 67.8585 50.0975 67.859 48.953 67.8599C45.7093 67.8623 42.4657 67.8636 39.222 67.8634C38.9596 67.8633 38.9596 67.8633 38.6919 67.8633C38.5168 67.8633 38.3416 67.8633 38.1612 67.8633C35.3222 67.8632 32.4833 67.8658 29.6444 67.8696C26.7306 67.8736 23.8168 67.8755 20.903 67.8752C19.2667 67.8751 17.6303 67.8759 15.994 67.8788C14.6008 67.8813 13.2077 67.8819 11.8145 67.8801C11.1036 67.8792 10.3927 67.8792 9.68175 67.8815C9.03093 67.8837 8.38017 67.8833 7.72935 67.8809C7.49391 67.8805 7.25847 67.881 7.02304 67.8825C4.63817 67.8969 4.63817 67.8969 3.61144 66.9971C3.50094 66.8636 3.50094 66.8636 3.3882 66.7274C3.31242 66.6388 3.23664 66.5501 3.15856 66.4588C2.55341 65.5805 2.63733 64.6619 2.63625 63.6342C2.63122 63.3816 2.63122 63.3816 2.6261 63.1239C2.62557 62.9622 2.62504 62.8005 2.6245 62.6339C2.62337 62.4865 2.62225 62.339 2.62109 62.1871C2.70369 61.702 2.84368 61.5416 3.23439 61.2502C3.60857 61.2103 3.92337 61.1978 4.29396 61.216C4.38931 61.2184 4.48465 61.2209 4.58289 61.2234C4.81706 61.2299 5.05114 61.2397 5.28517 61.2502C5.31866 61.1386 5.35214 61.027 5.38664 60.9121C5.93009 59.3881 6.69283 57.7269 8.207 56.991C8.61201 56.8605 8.93674 56.8478 9.3611 56.8581C9.49451 56.8605 9.62793 56.863 9.76538 56.8655C9.86602 56.8687 9.96665 56.8719 10.0703 56.8752C10.0857 56.7724 10.101 56.6697 10.1168 56.5638C10.2952 55.828 10.8631 55.2918 11.4973 54.9013C12.3166 54.5245 13.2907 54.6463 14.1719 54.6877C14.1268 54.5523 14.0817 54.4169 14.0352 54.2775C13.9165 52.9928 14.1778 52.0756 14.9938 51.0838C15.8636 50.3661 16.6789 50.2345 17.7821 50.2592C17.9141 50.26 18.0461 50.2608 18.182 50.2616C18.6 50.2646 19.0177 50.2715 19.4356 50.2785C19.7204 50.2812 20.0052 50.2837 20.2901 50.2859C20.9851 50.2919 21.68 50.3014 22.375 50.3126C22.3656 49.9373 22.3529 49.5626 22.3382 49.1874C22.3359 49.0815 22.3336 48.9756 22.3312 48.8664C22.3087 48.3558 22.2901 48.0651 21.9985 47.6334C21.816 47.4714 21.6284 47.315 21.4372 47.1633C20.6542 46.4445 20.2324 45.2762 20.1501 44.2329C20.0875 42.4849 20.4928 41.1955 21.6535 39.8446C23.6667 37.6933 26.0725 36.4697 28.8777 35.6496C28.9923 35.6159 29.1069 35.5822 29.2249 35.5475C30.9678 35.0603 32.6808 34.9596 34.4787 34.9626ZM43.8399 37.1876C44.1619 37.5189 44.4884 37.7689 44.8738 38.0251C46.5349 39.1801 48.0594 40.5994 48.4883 42.6564C48.5783 43.8152 48.5002 44.7961 48.2149 45.9376C49.433 45.9376 50.6512 45.9376 51.9063 45.9376C51.9063 46.6595 51.9063 47.3814 51.9063 48.1251C50.1016 48.1251 48.2969 48.1251 46.4375 48.1251C46.3924 53.9001 46.3473 59.6751 46.3008 65.6252C49.0135 65.6336 51.7261 65.6421 54.521 65.6508C55.3772 65.6545 56.2334 65.6583 57.1155 65.6621C57.8837 65.6635 57.8837 65.6635 58.652 65.6643C58.9938 65.6649 59.3357 65.6664 59.6776 65.6685C60.1958 65.6715 60.7139 65.6719 61.2321 65.6717C61.3841 65.6732 61.5361 65.6747 61.6927 65.6762C62.7409 65.6765 62.7409 65.6765 63.6641 65.215C63.8999 64.7389 63.9715 64.3544 63.9704 63.8263C63.9708 63.6874 63.9712 63.5484 63.9715 63.4052C63.9706 63.2542 63.9696 63.1033 63.9686 62.9478C63.9686 62.7876 63.9686 62.6275 63.9687 62.4625C63.9685 61.9336 63.9664 61.4047 63.9642 60.8758C63.9637 60.5089 63.9633 60.1421 63.9631 59.7752C63.9622 58.9085 63.96 58.0418 63.9572 57.1751C63.9539 56.0913 63.9524 55.0075 63.9509 53.9237C63.9482 51.9908 63.9427 50.058 63.9375 48.1251C61.05 48.1251 58.1625 48.1251 55.1875 48.1251C55.1875 47.4033 55.1875 46.6814 55.1875 45.9376C55.6284 45.9462 55.6284 45.9462 56.0781 45.955C57.0505 45.9732 58.0229 45.9852 58.9954 45.9943C59.5849 46 60.1743 46.0078 60.7637 46.0202C61.3328 46.0321 61.9018 46.0386 62.471 46.0414C62.6879 46.0434 62.9047 46.0474 63.1215 46.0533C64.2976 46.1258 64.2976 46.1258 65.3467 45.7013C65.9997 44.858 66.1099 43.9707 65.9883 42.9298C65.8237 42.4686 65.5908 42.0951 65.3047 41.6994C65.2077 41.5627 65.2077 41.5627 65.1087 41.4233C63.2101 39.0227 59.6388 37.7594 56.6939 37.3714C55.0874 37.1883 53.4917 37.169 51.8774 37.1743C51.6441 37.1746 51.4109 37.1747 51.1776 37.1749C50.5703 37.1754 49.963 37.1767 49.3557 37.1783C48.7333 37.1797 48.1109 37.1803 47.4885 37.181C46.2723 37.1824 45.0561 37.1848 43.8399 37.1876ZM23.7294 40.9992C22.9617 41.8535 22.4481 42.7667 22.4663 43.9157C22.5468 44.5913 22.8077 45.1111 23.1953 45.6642C23.4024 45.8268 23.6134 45.9844 23.8277 46.1374C24.3743 46.6099 24.5179 46.923 24.5759 47.6424C24.5804 47.9628 24.5786 48.2833 24.5711 48.6037C24.572 48.7683 24.573 48.9329 24.574 49.1025C24.5756 49.5062 24.5716 49.909 24.5625 50.3126C24.7268 50.3135 24.7268 50.3135 24.8944 50.3144C25.3963 50.3189 25.8979 50.3285 26.3997 50.3383C26.6581 50.3395 26.6581 50.3395 26.9217 50.3407C27.9759 50.3655 28.781 50.4615 29.6211 51.133C29.9159 51.4497 29.9159 51.4497 30.0996 51.7567C30.1631 51.8584 30.2265 51.9601 30.2919 52.0649C30.5898 52.6597 30.5933 53.1705 30.5867 53.8332C30.5855 53.9932 30.5842 54.1532 30.583 54.3181C30.5814 54.44 30.5798 54.562 30.5781 54.6877C30.7135 54.6912 30.8488 54.6947 30.9883 54.6983C33.007 54.7743 33.007 54.7743 33.7227 55.3712C34.1476 55.8355 34.4799 56.2758 34.6797 56.8752C34.7756 56.8787 34.8715 56.8822 34.9702 56.8858C36.0662 56.9514 36.9264 57.1274 37.6811 57.9689C38.0927 58.4608 38.3126 58.9751 38.5519 59.5655C38.9428 60.6275 38.9428 60.6275 39.7207 61.3823C40.1939 61.4889 40.5905 61.4599 41.0751 61.413C41.5156 61.3869 41.5156 61.3869 41.7458 61.5355C42.0087 61.9174 41.9721 62.2144 41.9659 62.6745C41.9645 62.8459 41.9632 63.0173 41.9619 63.1939C41.9584 63.373 41.955 63.5521 41.9514 63.7367C41.9494 63.9193 41.9475 64.1018 41.9458 64.2844C41.941 64.7314 41.9342 65.1782 41.9258 65.6252C42.1211 65.6296 42.3164 65.6327 42.5117 65.6353C42.6204 65.6372 42.7292 65.6391 42.8412 65.641C43.3055 65.6176 43.5998 65.4815 43.9766 65.215C44.2242 64.7246 44.2834 64.3272 44.2798 63.7818C44.2796 63.6329 44.2793 63.484 44.2791 63.3306C44.2774 63.1686 44.2758 63.0065 44.2741 62.8396C44.2732 62.576 44.2722 62.3125 44.2714 62.0489C44.2703 61.7663 44.2685 61.4836 44.2666 61.201C44.263 60.6108 44.2624 60.0207 44.2626 59.4305C44.2626 59.2281 44.2626 59.0258 44.2626 58.8234C44.2626 58.7221 44.2626 58.6208 44.2626 58.5164C44.2625 57.1431 44.2599 55.7698 44.2505 54.3966C44.2442 53.4692 44.2423 52.542 44.2453 51.6147C44.2467 51.1245 44.2459 50.6345 44.2397 50.1443C44.2328 49.597 44.2354 49.0501 44.2388 48.5028C44.2353 48.3416 44.2317 48.1805 44.228 48.0144C44.2457 46.9295 44.2457 46.9295 44.6558 46.4307C44.9851 46.1437 44.9851 46.1437 45.3124 45.9072C45.9303 45.4146 46.2233 44.7138 46.3654 43.9494C46.42 43.0465 46.1328 42.4246 45.6172 41.6994C45.5202 41.5624 45.5202 41.5624 45.4212 41.4227C43.5202 39.024 39.9587 37.7659 37.0151 37.3666C36.8761 37.3526 36.737 37.3387 36.5938 37.3244C36.5077 37.3154 36.4215 37.3064 36.3328 37.2972C31.905 36.8637 27.0644 37.9069 23.7294 40.9992ZM16.5202 53.025C16.3266 53.3807 16.3294 53.5489 16.3848 53.9467C16.4011 54.0671 16.4173 54.1876 16.4341 54.3117C16.5357 54.928 16.6488 55.5406 16.7738 56.1526C16.8006 56.2862 16.8274 56.4199 16.855 56.5576C16.9112 56.8374 16.9678 57.1171 17.0246 57.3968C17.1118 57.8257 17.1979 58.2547 17.2838 58.6837C17.3388 58.9566 17.3938 59.2294 17.4489 59.5022C17.4747 59.6303 17.5004 59.7585 17.527 59.8906C17.5512 60.0093 17.5754 60.128 17.6003 60.2504C17.6214 60.3546 17.6426 60.4589 17.6643 60.5663C17.7278 60.8659 17.7278 60.8659 17.8633 61.2502C20.841 61.2502 23.8188 61.2502 26.8867 61.2502C28.1042 57.2864 28.1042 57.2864 28.2539 53.047C27.9843 52.6618 27.7481 52.5851 27.2969 52.5002C26.9788 52.4868 26.6604 52.4813 26.342 52.4803C26.247 52.4798 26.152 52.4794 26.0542 52.4789C25.7408 52.4776 25.4275 52.4773 25.1142 52.4772C24.8959 52.4767 24.6776 52.4763 24.4594 52.4758C24.0021 52.475 23.5448 52.4747 23.0875 52.4748C22.5021 52.4748 21.9167 52.473 21.3314 52.4706C20.8806 52.4691 20.4299 52.4688 19.9791 52.4689C19.7633 52.4687 19.5475 52.4681 19.3317 52.4671C19.0297 52.4657 18.7277 52.4661 18.4257 52.4669C18.254 52.4667 18.0823 52.4665 17.9054 52.4663C17.315 52.5105 16.9416 52.6002 16.5202 53.025ZM12.2749 57.3793C12.0574 57.8264 12.1432 58.186 12.2578 58.6525C12.4224 59.1147 12.6156 59.5623 12.8133 60.0111C12.8648 60.1307 12.9164 60.2503 12.9695 60.3735C13.0958 60.6662 13.2236 60.9582 13.3516 61.2502C14.0735 61.2502 14.7953 61.2502 15.5391 61.2502C15.4252 60.649 15.3111 60.0478 15.1961 59.4469C15.1571 59.2423 15.1182 59.0376 15.0796 58.833C15.0241 58.5393 14.9679 58.2458 14.9116 57.9523C14.8779 57.7755 14.8443 57.5987 14.8096 57.4165C14.7606 57.0293 14.7606 57.0293 14.582 56.8752C13.7243 56.8068 12.9428 56.7782 12.2749 57.3793ZM30.168 56.8752C29.972 57.4312 29.8273 57.974 29.7183 58.5532C29.6734 58.7898 29.6734 58.7898 29.6275 59.0311C29.5972 59.1938 29.5669 59.3565 29.5357 59.5241C29.5043 59.6899 29.4729 59.8558 29.4406 60.0266C29.3635 60.4344 29.2872 60.8422 29.211 61.2502C29.9328 61.2502 30.6547 61.2502 31.3985 61.2502C31.6089 60.7669 31.8164 60.2827 32.0222 59.7975C32.0821 59.6609 32.1419 59.5243 32.2036 59.3836C32.2595 59.2506 32.3155 59.1175 32.3731 58.9804C32.4254 58.8587 32.4776 58.737 32.5315 58.6116C32.6491 58.1657 32.6041 57.8662 32.4922 57.422C32.218 57.0434 31.984 56.9619 31.5352 56.8752C31.2961 56.8661 31.0567 56.8635 30.8174 56.8666C30.6345 56.8685 30.6345 56.8685 30.4478 56.8703C30.3555 56.8719 30.2631 56.8735 30.168 56.8752ZM8.70314 59.4728C8.1222 60.3012 8.1222 60.3012 7.88283 61.2502C8.83029 61.2502 9.77775 61.2502 10.7539 61.2502C10.6475 60.7182 10.523 60.2747 10.3352 59.7719C10.2857 59.6385 10.2362 59.5051 10.1852 59.3676C10.1283 59.2166 10.1283 59.2166 10.0703 59.0627C9.43373 59.0627 9.22373 59.1084 8.70314 59.4728ZM34.6797 59.0627C34.5649 59.35 34.4512 59.6378 34.3379 59.9257C34.2745 60.0859 34.211 60.2461 34.1457 60.4111C33.9736 60.8288 33.9736 60.8288 33.9961 61.2502C34.9436 61.2502 35.891 61.2502 36.8672 61.2502C36.4659 60.009 36.4659 60.009 35.5598 59.131C35.194 59.0443 35.194 59.0443 34.6797 59.0627ZM4.87502 63.4377C4.84041 64.505 4.84041 64.505 5.28517 65.3517C5.91911 65.7139 6.58274 65.6637 7.29114 65.6608C7.42514 65.6613 7.55914 65.6618 7.69719 65.6624C8.14662 65.6638 8.59602 65.6632 9.04544 65.6627C9.36748 65.6633 9.68952 65.664 10.0116 65.6648C10.8867 65.6667 11.7618 65.6667 12.6369 65.6664C13.1834 65.6662 13.7299 65.6666 14.2764 65.6671C14.3671 65.6671 14.4579 65.6672 14.5514 65.6673C14.7357 65.6675 14.92 65.6676 15.1044 65.6678C16.8329 65.6693 18.5613 65.669 20.2898 65.6682C21.8709 65.6675 23.4519 65.669 25.033 65.6716C26.6567 65.6742 28.2805 65.6754 29.9042 65.6749C30.8157 65.6746 31.7272 65.675 32.6387 65.6769C33.4957 65.6786 34.3527 65.6783 35.2097 65.6765C35.5244 65.6762 35.8391 65.6766 36.1538 65.6777C36.5831 65.6791 37.0123 65.6781 37.4415 65.6763C37.6288 65.6778 37.6288 65.6778 37.8198 65.6794C38.5147 65.6734 39.0016 65.6063 39.6016 65.215C39.9817 64.6102 39.875 64.2086 39.875 63.4377C28.325 63.4377 16.775 63.4377 4.87502 63.4377Z" fill="#C18539"/>
<path d="M27.2864 2.11468C27.4618 2.11416 27.6371 2.11364 27.8178 2.1131C28.1859 2.1123 28.554 2.11344 28.9221 2.11602C29.3887 2.11913 29.855 2.11733 30.3215 2.11406C30.7739 2.11159 31.2262 2.11333 31.6785 2.11468C31.8432 2.11358 32.0079 2.11247 32.1776 2.11133C35.0466 2.14256 36.9984 3.5509 38.9407 5.49313C42.1325 8.89003 43.7034 13.6315 44.8479 18.0429C44.9069 18.3168 44.9069 18.3168 45.0684 18.4568C45.1358 18.3574 45.1358 18.3574 45.2046 18.256C46.2524 16.7796 47.6341 15.6698 49.4434 15.3123C49.9738 15.2703 50.5026 15.2675 51.0344 15.2664C51.2632 15.265 51.2632 15.265 51.4967 15.2636C51.8188 15.2622 52.1409 15.2616 52.463 15.2616C52.9514 15.2611 53.4397 15.2561 53.9282 15.2509C54.2425 15.2501 54.5568 15.2496 54.8711 15.2493C55.0151 15.2473 55.1591 15.2454 55.3075 15.2433C57.2201 15.2549 58.6877 15.9836 60.0733 17.2691C61.3117 18.5776 61.8164 20.1179 61.7947 21.8928C61.7947 22.0237 61.7948 22.1545 61.7949 22.2894C61.7946 22.717 61.7914 23.1445 61.7882 23.5721C61.7874 23.8705 61.7868 24.1689 61.7864 24.4674C61.7849 25.2491 61.7808 26.0308 61.7763 26.8125C61.7721 27.6117 61.7702 28.4109 61.7681 29.2101C61.7638 30.7754 61.7568 32.3407 61.7481 33.9061C61.0262 33.9061 60.3044 33.9061 59.5606 33.9061C59.5579 33.5495 59.5552 33.1929 59.5524 32.8255C59.5432 31.643 59.5326 30.4605 59.5213 29.2779C59.5145 28.5615 59.5082 27.845 59.5029 27.1286C59.4979 26.4362 59.4915 25.7439 59.4843 25.0516C59.4818 24.7884 59.4797 24.5252 59.4781 24.262C59.5113 21.4658 59.5113 21.4658 58.3302 19.0037C57.6868 18.3736 56.9922 18.0463 56.1427 17.7733C56.1971 17.8675 56.2516 17.9618 56.3077 18.059C56.3801 18.1875 56.4525 18.3159 56.5272 18.4483C56.5985 18.5736 56.6699 18.6989 56.7435 18.828C57.2246 19.8125 57.4343 20.683 57.4197 21.7768C57.4197 21.897 57.4198 22.0172 57.4199 22.1411C57.4196 22.5339 57.4164 22.9266 57.4132 23.3194C57.4124 23.5936 57.4118 23.8677 57.4114 24.1418C57.4099 24.8599 57.4058 25.578 57.4013 26.2961C57.3971 27.0302 57.3952 27.7643 57.3931 28.4985C57.3888 29.9364 57.3818 31.3744 57.3731 32.8123C56.6512 32.8123 55.9294 32.8123 55.1856 32.8123C55.1829 32.4889 55.1802 32.1654 55.1774 31.8322C55.1682 30.7588 55.1576 29.6854 55.1463 28.612C55.1395 27.9618 55.1332 27.3115 55.1279 26.6613C55.1229 26.0327 55.1165 25.4042 55.1093 24.7757C55.1068 24.537 55.1047 24.2982 55.1031 24.0594C55.1144 21.3688 55.1144 21.3688 53.9552 19.0037C53.0408 18.1083 52.0929 17.7559 50.8277 17.7134C49.6223 17.7431 48.6254 18.0647 47.7387 18.9012C46.3846 20.4488 46.5287 22.4828 46.5157 24.4143C46.5132 24.6573 46.5105 24.9004 46.5077 25.1435C46.5007 25.7784 46.4953 26.4133 46.4902 27.0483C46.4847 27.6981 46.4777 28.348 46.4709 28.9978C46.4577 30.2693 46.4463 31.5408 46.4356 32.8123C45.6686 32.8123 44.9016 32.8123 44.1114 32.8123C44.1063 32.5638 44.1012 32.3153 44.0959 32.0593C43.8894 23.6179 42.7818 12.9595 36.5919 6.56231C35.465 5.49288 34.2005 4.73732 32.627 4.64825C32.7193 4.731 32.7193 4.731 32.8134 4.81541C34.366 6.28088 35.4784 8.09872 36.4551 9.98028C36.5296 10.1206 36.5296 10.1206 36.6056 10.2637C40.1872 17.0794 41.053 25.2314 40.9669 32.8123C40.1999 32.8123 39.4329 32.8123 38.6426 32.8123C38.6375 32.5638 38.6324 32.3153 38.6272 32.0593C38.4207 23.6179 37.3131 12.9595 31.1231 6.56231C29.71 5.22123 28.1684 4.56074 26.2301 4.60232C24.5188 4.69556 23.0256 5.84589 21.8861 7.04938C20.5989 8.55489 19.6471 10.2407 18.8184 12.0311C18.7486 12.1789 18.6789 12.3268 18.6069 12.4791C16.8985 16.2681 16.0001 20.3793 15.4005 24.4725C15.3777 24.6226 15.3549 24.7727 15.3314 24.9274C14.962 27.4822 14.9476 30.0468 14.94 32.6235C14.9391 32.8921 14.9374 33.1607 14.9357 33.4293C14.9148 37.8348 15.3772 42.2124 16.4156 46.4978C16.4437 46.614 16.4717 46.7303 16.5006 46.85C16.5258 46.9514 16.5509 47.0528 16.5769 47.1573C16.6309 47.4412 16.6309 47.4412 16.6309 47.9881C15.5481 48.2588 15.5481 48.2588 14.4434 48.535C14.0813 47.6297 13.9043 46.7007 13.7086 45.7493C13.6874 45.6472 13.6663 45.5451 13.6445 45.4399C12.9547 42.0827 12.5134 38.6795 12.5016 35.2487C12.5012 35.1591 12.5008 35.0695 12.5004 34.9771C12.4984 34.5006 12.4971 34.0241 12.4965 33.5476C12.4959 33.1644 12.4941 32.7811 12.4909 32.3978C12.4184 23.3523 13.8134 12.1509 20.2855 5.23678C22.3062 3.18472 24.3673 2.09506 27.2864 2.11468Z" fill="#C18539"/>
<path d="M24.6705 26.1783C24.9031 26.1779 25.1356 26.1774 25.3682 26.1767C25.8526 26.1759 26.3369 26.1771 26.8212 26.1796C27.4417 26.1828 28.0621 26.1809 28.6826 26.1777C29.1615 26.1757 29.6403 26.1763 30.1192 26.1777C30.3481 26.1781 30.577 26.1777 30.8059 26.1764C31.1249 26.175 31.4437 26.1771 31.7628 26.1802C31.9039 26.1785 31.9039 26.1785 32.0479 26.1768C32.5021 26.1848 32.7339 26.2254 33.099 26.5045C33.5398 27.1052 33.392 27.8676 33.3142 28.5751C32.9564 30.1905 31.9564 31.3888 30.5799 32.2666C29.3202 32.9216 28.0256 32.8938 26.6455 32.8861C26.4129 32.8864 26.1803 32.887 25.9478 32.8876C25.4634 32.8884 24.9791 32.8873 24.4948 32.8847C23.8743 32.8816 23.2539 32.8834 22.6334 32.8867C22.1545 32.8887 21.6756 32.888 21.1967 32.8866C20.9679 32.8862 20.739 32.8867 20.5101 32.888C20.191 32.8894 19.8722 32.8872 19.5532 32.8842C19.4591 32.8853 19.365 32.8864 19.268 32.8875C18.8138 32.8795 18.5821 32.839 18.2169 32.5599C17.7762 31.9591 17.924 31.1968 18.0017 30.4892C18.3595 28.8739 19.3595 27.6756 20.7361 26.7978C21.9957 26.1427 23.2904 26.1705 24.6705 26.1783ZM20.9668 29.7458C20.7042 30.0553 20.5942 30.2315 20.4627 30.6259C21.4916 30.6329 22.5204 30.6377 23.5494 30.6409C23.899 30.6423 24.2487 30.6442 24.5984 30.6466C25.1024 30.6499 25.6063 30.6514 26.1103 30.6526C26.343 30.6547 26.343 30.6547 26.5804 30.6569C27.8087 30.6571 28.9145 30.6128 29.8963 29.8056C30.314 29.3761 30.6621 29.012 30.8533 28.4384C29.8244 28.4315 28.7955 28.4267 27.7666 28.4234C27.4169 28.422 27.0673 28.4202 26.7176 28.4178C26.2136 28.4145 25.7096 28.4129 25.2056 28.4117C25.0505 28.4103 24.8954 28.4089 24.7355 28.4074C23.1991 28.4072 22.0332 28.548 20.9668 29.7458Z" fill="#C18539"/>
<path d="M25.7643 15.2408C25.9968 15.2404 26.2294 15.2399 26.462 15.2392C26.9463 15.2384 27.4306 15.2396 27.9149 15.2421C28.5354 15.2453 29.1558 15.2434 29.7763 15.2402C30.2552 15.2382 30.7341 15.2388 31.213 15.2402C31.4419 15.2406 31.6707 15.2402 31.8996 15.2389C32.2187 15.2375 32.5375 15.2396 32.8565 15.2427C32.9977 15.241 32.9977 15.241 33.1417 15.2393C33.5959 15.2473 33.8277 15.2879 34.1928 15.567C34.6335 16.1677 34.4857 16.9301 34.408 17.6376C34.0502 19.253 33.0502 20.4513 31.6736 21.3291C30.414 21.9841 29.1193 21.9563 27.7392 21.9486C27.5066 21.9489 27.2741 21.9495 27.0415 21.9501C26.5572 21.9509 26.0729 21.9498 25.5885 21.9472C24.968 21.9441 24.3476 21.9459 23.7271 21.9492C23.2482 21.9512 22.7694 21.9505 22.2905 21.9491C22.0616 21.9487 21.8327 21.9492 21.6038 21.9505C21.2848 21.9519 20.966 21.9497 20.647 21.9467C20.5528 21.9478 20.4587 21.9489 20.3618 21.95C19.9076 21.942 19.6758 21.9015 19.3107 21.6224C18.87 21.0216 19.0178 20.2593 19.0955 19.5517C19.4533 17.9364 20.4533 16.7381 21.8299 15.8603C23.0895 15.2052 24.3842 15.233 25.7643 15.2408ZM22.0606 18.8083C21.7979 19.1178 21.6879 19.294 21.5564 19.6884C22.5853 19.6954 23.6142 19.7002 24.6431 19.7034C24.9928 19.7048 25.3425 19.7067 25.6921 19.7091C26.1961 19.7124 26.7001 19.7139 27.2041 19.7151C27.4368 19.7172 27.4368 19.7172 27.6742 19.7194C28.9024 19.7196 30.0083 19.6753 30.99 18.8681C31.4077 18.4386 31.7559 18.0745 31.947 17.5009C30.9182 17.494 29.8893 17.4892 28.8604 17.4859C28.5107 17.4845 28.161 17.4827 27.8113 17.4803C27.3073 17.477 26.8034 17.4754 26.2994 17.4742C26.1442 17.4728 25.9891 17.4714 25.8293 17.4699C24.2929 17.4697 23.127 17.6105 22.0606 18.8083Z" fill="#C18539"/>
<path d="M52.455 21.8758C52.7968 22.0809 52.7968 22.0809 53.0019 22.4227C53.1032 22.9753 53.1386 23.2965 52.8395 23.7776C52.5884 24.0715 52.3206 24.3392 52.0448 24.6102C51.9245 24.7401 51.8041 24.87 51.6801 25.0038C51.5512 25.1405 51.4221 25.277 51.2929 25.4134C51.173 25.54 51.0532 25.6665 50.9297 25.7969C50.4847 26.16 50.146 26.2837 49.5839 26.3875C49.131 26.2594 49.131 26.2594 48.7636 25.9774C48.5234 25.4682 48.4307 25.1867 48.6226 24.6497C49.003 24.0337 49.4854 23.5662 50.0026 23.0636C50.1028 22.9641 50.203 22.8646 50.3062 22.7621C51.0098 22.0689 51.4146 21.7339 52.455 21.8758Z" fill="#C18539"/>
<path d="M52.455 27.3446C52.7968 27.5496 52.7968 27.5496 53.0019 27.8914C53.1032 28.444 53.1386 28.7653 52.8395 29.2463C52.5884 29.5403 52.3206 29.8079 52.0448 30.0789C51.9245 30.2088 51.8041 30.3387 51.6801 30.4725C51.5512 30.6092 51.4221 30.7458 51.2929 30.8822C51.173 31.0087 51.0532 31.1352 50.9297 31.2656C50.4847 31.6288 50.146 31.7525 49.5839 31.8563C49.131 31.7281 49.131 31.7281 48.7636 31.4461C48.5234 30.9369 48.4307 30.6555 48.6226 30.1185C49.003 29.5025 49.4854 29.0349 50.0026 28.5323C50.1028 28.4328 50.203 28.3333 50.3062 28.2308C51.0098 27.5376 51.4146 27.2027 52.455 27.3446Z" fill="#C18539"/>
<path d="M36.5938 50.3125C37.3156 50.3125 38.0375 50.3125 38.7812 50.3125C38.7812 51.0344 38.7812 51.7563 38.7812 52.5C38.0594 52.5 37.3375 52.5 36.5938 52.5C36.5938 51.7781 36.5938 51.0563 36.5938 50.3125Z" fill="#C18539"/>
<path d="M26.75 43.75C27.4719 43.75 28.1938 43.75 28.9375 43.75C28.9375 44.4719 28.9375 45.1938 28.9375 45.9375C28.2156 45.9375 27.4938 45.9375 26.75 45.9375C26.75 45.2156 26.75 44.4938 26.75 43.75Z" fill="#C18539"/>
<path d="M35.5 40.4688C36.2219 40.4688 36.9438 40.4688 37.6875 40.4688C37.6875 41.1906 37.6875 41.9125 37.6875 42.6562C36.9656 42.6562 36.2438 42.6562 35.5 42.6562C35.5 41.9344 35.5 41.2125 35.5 40.4688Z" fill="#C18539"/>
</svg>
