<svg width="71" height="71" viewBox="0 0 71 71" fill="none" xmlns="http://www.w3.org/2000/svg">
<path d="M4.20699 12.6508C4.35264 12.6503 4.49829 12.6498 4.64835 12.6493C4.88923 12.6494 4.88923 12.6494 5.13498 12.6496C5.30513 12.6492 5.47528 12.6488 5.65059 12.6484C6.12378 12.6474 6.59696 12.647 7.07016 12.6469C7.58014 12.6467 8.09012 12.6456 8.6001 12.6447C9.71558 12.6429 10.8311 12.642 11.9466 12.6414C12.6428 12.6411 13.339 12.6405 14.0353 12.6399C15.9622 12.6382 17.8892 12.6368 19.8162 12.6363C19.9395 12.6363 20.0629 12.6363 20.19 12.6362C20.3755 12.6362 20.3755 12.6362 20.5647 12.6362C20.8153 12.6361 21.0658 12.636 21.3164 12.636C21.4407 12.6359 21.565 12.6359 21.6931 12.6359C23.7079 12.6353 25.7227 12.633 27.7375 12.6298C29.8051 12.6265 31.8727 12.6248 33.9403 12.6247C35.1016 12.6245 36.2629 12.6237 37.4241 12.6213C38.4128 12.6192 39.4015 12.6185 40.3902 12.6196C40.8948 12.6201 41.3994 12.62 41.9039 12.6181C42.4506 12.616 42.9972 12.6171 43.5439 12.6186C43.7039 12.6175 43.8639 12.6164 44.0287 12.6152C44.175 12.6161 44.3214 12.617 44.4722 12.618C44.5984 12.6179 44.7246 12.6178 44.8546 12.6177C45.2823 12.6798 45.5411 12.828 45.89 13.079C46.0897 13.4783 46.043 13.8286 46.0422 14.2745C46.0423 14.3692 46.0423 14.464 46.0423 14.5616C46.0422 14.8752 46.0411 15.1889 46.0401 15.5025C46.0398 15.7198 46.0396 15.937 46.0395 16.1543C46.039 16.7265 46.0376 17.2987 46.0361 17.871C46.0347 18.4547 46.0341 19.0385 46.0334 19.6222C46.0319 20.768 46.0296 21.9137 46.0267 23.0594C46.1029 23.0591 46.1791 23.0587 46.2575 23.0583C48.1118 23.0492 49.9661 23.0425 51.8204 23.0382C52.7171 23.036 53.6138 23.0331 54.5105 23.0285C55.3757 23.024 56.2409 23.0216 57.1061 23.0205C57.4364 23.0198 57.7667 23.0183 58.0969 23.0161C58.5591 23.0131 59.0213 23.0127 59.4835 23.0129C59.6204 23.0114 59.7573 23.0099 59.8983 23.0084C60.5781 23.0114 61.0673 23.0138 61.6127 23.4696C61.9536 23.9513 62.1895 24.4847 62.4394 25.0184C62.4787 25.1021 62.518 25.1859 62.5585 25.2723C62.688 25.5485 62.8169 25.8249 62.9457 26.1014C63.0374 26.2976 63.1291 26.4939 63.2207 26.6901C63.6806 27.6756 64.137 28.6627 64.5879 29.6524C64.6245 29.7325 64.6611 29.8127 64.6988 29.8953C64.9105 30.3598 65.1204 30.825 65.3254 31.2926C65.7031 32.1487 66.0842 32.9914 66.5537 33.8018C68.6004 37.3355 68.6059 40.7095 68.5019 44.713C68.4876 45.3704 68.4844 46.0276 68.4814 46.6851C68.4772 47.4729 68.4666 48.2606 68.4555 49.0483C68.454 49.197 68.4526 49.3458 68.451 49.499C68.4457 49.917 68.4357 50.3346 68.4242 50.7524C68.4232 50.8759 68.4222 50.9994 68.4212 51.1266C68.3913 51.956 68.3913 51.956 67.9954 52.3941C67.5011 52.6588 67.061 52.6593 66.5148 52.6441C66.4095 52.6433 66.3043 52.6425 66.1959 52.6418C65.8615 52.6387 65.5273 52.6318 65.193 52.6249C64.9656 52.6221 64.7381 52.6196 64.5107 52.6174C63.9548 52.6114 63.399 52.602 62.8431 52.5907C62.818 52.7007 62.7928 52.8107 62.7669 52.924C62.715 53.1426 62.715 53.1426 62.6621 53.3656C62.6285 53.5095 62.5949 53.6533 62.5602 53.8015C62.0815 55.4181 60.8585 56.6891 59.4252 57.5126C57.4507 58.4128 55.6277 58.5937 53.5463 57.9227C51.7425 57.1693 50.4389 55.8937 49.684 54.0983C49.308 53.1075 49.308 53.1075 49.308 52.5907C36.1112 52.6584 36.1112 52.6584 22.6478 52.7274C22.4674 53.3139 22.2869 53.9005 22.1009 54.5048C20.9608 56.3826 19.5796 57.5815 17.444 58.1791C15.624 58.5761 13.8161 58.2993 12.207 57.347C10.587 56.2462 9.64458 54.8813 9.11266 53.0008C9.11266 52.8655 9.11266 52.7301 9.11266 52.5907C8.9423 52.5936 8.77193 52.5964 8.5964 52.5994C7.96324 52.6093 7.3301 52.6156 6.69689 52.6207C6.42304 52.6235 6.1492 52.6272 5.87537 52.6319C5.48134 52.6386 5.08742 52.6417 4.69334 52.6441C4.51022 52.6483 4.51022 52.6483 4.32341 52.6526C4.2085 52.6527 4.09359 52.6527 3.9752 52.6528C3.87471 52.654 3.77421 52.6552 3.67068 52.6565C3.19697 52.5527 3.01459 52.4085 2.68688 52.0438C2.58116 51.5333 2.59596 51.0265 2.60192 50.5067C2.60104 50.348 2.60017 50.1893 2.59927 50.0257C2.59754 49.585 2.59889 49.1444 2.60153 48.7037C2.60363 48.2285 2.60181 47.7533 2.60047 47.2781C2.59848 46.3471 2.60016 45.4162 2.60308 44.4853C2.60636 43.4017 2.60613 42.3182 2.60578 41.2346C2.60527 39.3017 2.60812 37.3688 2.61278 35.4359C2.61731 33.5592 2.61924 31.6825 2.61839 29.8058C2.61747 27.7632 2.6178 25.7206 2.62049 23.6781C2.62063 23.5701 2.62077 23.4622 2.62092 23.351C2.62121 23.1341 2.62149 22.9173 2.62179 22.7005C2.62273 21.9447 2.62282 21.1889 2.62262 20.4332C2.62243 19.5126 2.62375 18.592 2.62699 17.6714C2.62861 17.2014 2.62958 16.7315 2.62879 16.2616C2.62829 15.7528 2.63029 15.2441 2.63296 14.7354C2.63187 14.5111 2.63187 14.5111 2.63075 14.2823C2.63199 14.1466 2.63323 14.0109 2.6345 13.871C2.63472 13.7535 2.63493 13.636 2.63516 13.515C2.69892 13.146 2.8018 13.0297 3.09704 12.8055C3.50742 12.6687 3.77828 12.6514 4.20699 12.6508ZM5.0111 14.993C5.0111 26.6333 5.0111 38.2735 5.0111 50.2665C6.36462 50.2665 7.71813 50.2665 9.11266 50.2665C9.29313 49.7251 9.4736 49.1837 9.65954 48.6258C10.4664 46.859 11.6846 45.7732 13.4877 45.0712C15.48 44.4415 17.3409 44.5889 19.2299 45.4813C19.6884 45.7585 20.0734 46.0687 20.4603 46.4383C20.5557 46.5282 20.651 46.6181 20.7492 46.7107C21.734 47.7233 22.2068 48.9435 22.6478 50.2665C29.5959 50.2665 36.5439 50.2665 43.7025 50.2665C43.7025 38.6262 43.7025 26.986 43.7025 14.993C30.9343 14.993 18.1662 14.993 5.0111 14.993ZM46.0267 25.3837C46.0267 33.595 46.0267 41.8063 46.0267 50.2665C47.1095 50.2665 48.1923 50.2665 49.308 50.2665C49.3785 50.0296 49.449 49.7927 49.5216 49.5487C50.146 47.6975 51.094 46.3773 52.8199 45.4386C54.6925 44.5699 56.5492 44.4519 58.5109 45.0882C59.2472 45.3712 59.8225 45.7197 60.4137 46.2397C60.6618 46.4676 60.6618 46.4676 61.0658 46.5751C61.2041 46.8239 61.2041 46.8239 61.3392 47.1219C61.466 47.2996 61.5942 47.4761 61.7237 47.6517C62.2757 48.4614 62.5382 49.3428 62.8431 50.2665C63.9259 50.2665 65.0088 50.2665 66.1244 50.2665C66.1244 48.0557 66.1244 45.845 66.1244 43.5673C64.7032 43.4996 64.7032 43.4996 63.2533 43.4305C62.5697 43.1571 62.5697 43.1571 62.2963 42.7469C62.245 42.3453 62.245 42.3453 62.2963 41.9266C62.5809 41.5598 62.747 41.3995 63.2064 41.3051C63.4083 41.3008 63.4083 41.3008 63.6143 41.2964C63.7606 41.292 63.9069 41.2876 64.0576 41.2831C64.2095 41.2811 64.3614 41.2792 64.5179 41.2772C64.672 41.2732 64.826 41.2691 64.9847 41.2649C65.3645 41.2553 65.7445 41.2488 66.1244 41.243C66.1244 40.7016 66.1244 40.1602 66.1244 39.6024C65.9372 39.601 65.75 39.5996 65.5571 39.5981C63.7948 39.5848 62.0325 39.5707 60.2702 39.556C59.3641 39.5485 58.458 39.5412 57.552 39.5344C56.6779 39.5279 55.8038 39.5207 54.9298 39.5131C54.596 39.5103 54.2621 39.5078 53.9283 39.5055C53.4615 39.5022 52.9947 39.4981 52.5279 39.4938C52.3893 39.493 52.2506 39.4922 52.1078 39.4914C51.9805 39.49 51.8532 39.4887 51.722 39.4873C51.6116 39.4864 51.5012 39.4856 51.3875 39.4846C51.0886 39.4659 50.8257 39.4114 50.5384 39.329C50.4306 38.9466 50.3837 38.6045 50.3801 38.2077C50.3788 38.0942 50.3774 37.9807 50.376 37.8638C50.3749 37.6788 50.3749 37.6788 50.3737 37.4901C50.3723 37.3593 50.3709 37.2286 50.3696 37.0938C50.3652 36.6618 50.3618 36.2298 50.3585 35.7978C50.3557 35.4982 50.3528 35.1986 50.3499 34.8989C50.3423 34.1105 50.3356 33.322 50.329 32.5335C50.3221 31.7289 50.3145 30.9243 50.3069 30.1197C50.2922 28.541 50.2784 26.9623 50.265 25.3837C48.8664 25.3837 47.4677 25.3837 46.0267 25.3837ZM52.5892 25.3837C52.5892 29.3089 52.5892 33.234 52.5892 37.2782C56.7851 37.2782 60.981 37.2782 65.3041 37.2782C65.1838 36.677 65.0379 36.2744 64.7775 35.7294C64.7377 35.6455 64.698 35.5616 64.657 35.4752C64.5709 35.2936 64.4844 35.1122 64.3977 34.931C64.1637 34.4417 63.9324 33.9512 63.7008 33.4607C63.6287 33.3082 63.6287 33.3082 63.5552 33.1526C63.0341 32.0487 62.5273 30.9385 62.0228 29.827C61.9815 29.7361 61.9401 29.6453 61.8975 29.5516C61.526 28.7347 61.156 27.9173 60.7982 27.0942C60.7544 26.9933 60.7105 26.8924 60.6653 26.7884C60.5806 26.5932 60.4963 26.3978 60.4123 26.2023C60.2429 25.7612 60.2429 25.7612 59.972 25.3837C59.7413 25.3709 59.5099 25.3676 59.2788 25.3681C59.1289 25.3682 58.979 25.3682 58.8246 25.3682C58.6659 25.3689 58.5072 25.3696 58.3437 25.3703C58.1987 25.3704 58.0537 25.3706 57.9043 25.3707C57.3602 25.3714 56.8162 25.3734 56.2721 25.3751C54.4491 25.3793 54.4491 25.3793 52.5892 25.3837ZM12.5434 48.3027C11.6414 49.3209 11.2265 50.3553 11.2665 51.7218C11.4267 53.2554 12.1916 54.291 13.3488 55.2604C14.2365 55.909 15.2737 56.1111 16.3588 56.0087C17.6546 55.762 18.776 55.1308 19.6016 54.0919C20.2747 53.0515 20.5727 51.9148 20.3749 50.6937C20.0223 49.1914 19.2897 48.1665 17.9775 47.3478C16.0835 46.3888 14.0184 46.8397 12.5434 48.3027ZM52.8397 48.2264C51.8676 49.2675 51.4429 50.2763 51.4666 51.7074C51.5876 53.1182 52.2487 54.0852 53.2643 55.026C54.144 55.763 55.0987 56.0575 56.2481 56.038C57.5433 55.9137 58.6452 55.3447 59.5277 54.4022C60.4144 53.3192 60.7397 52.1612 60.6305 50.7658C60.4212 49.5421 59.717 48.5014 58.7581 47.7329C56.8519 46.4129 54.5065 46.6286 52.8397 48.2264Z" fill="#C18539"/>
<path d="M38.277 27.3623C40.0205 28.9992 41.0799 31.1795 41.1646 33.5772C41.1241 35.1082 40.7105 36.4644 39.6009 37.5506C37.4628 39.3812 34.6809 39.715 31.973 39.8881C31.8832 39.8939 31.7934 39.8997 31.7009 39.9057C29.4803 40.0453 27.26 40.0533 25.0358 40.0472C24.4701 40.0456 23.9046 40.0465 23.3389 40.0481C21.1359 40.0533 18.9396 40.0299 16.7406 39.8881C16.5715 39.8773 16.4025 39.8665 16.2283 39.8554C13.5554 39.664 10.649 39.2172 8.72811 37.166C7.56337 35.7581 7.46703 34.1103 7.60873 32.3553C7.72916 31.7315 7.91395 31.1646 8.1556 30.5779C8.20354 30.4591 8.25148 30.3403 8.30087 30.218C9.64694 27.236 12.7284 25.3073 15.6751 24.1521C16.5733 23.8315 17.4867 23.5709 18.4095 23.3318C18.5775 23.2883 18.7454 23.2448 18.9185 23.1999C25.485 21.7119 33.1024 22.8887 38.277 27.3623ZM23.1947 25.1092C23.1277 27.1365 23.2836 28.9786 24.1517 30.8513C24.5588 30.7599 24.5588 30.7599 24.7071 30.5138C25.4883 28.8214 25.591 26.9437 25.5189 25.1092C25.2855 25.0822 25.0519 25.0569 24.8182 25.0323C24.6881 25.018 24.5581 25.0037 24.4241 24.989C23.9938 24.9716 23.6159 25.0248 23.1947 25.1092ZM30.4408 25.9295C30.5715 27.6699 30.7177 29.276 31.5345 30.8513C31.9572 30.7613 31.9572 30.7613 32.0947 30.4503C32.574 29.2065 32.808 28.0837 32.765 26.7498C32.5323 26.6229 32.5323 26.6229 32.295 26.4934C32.1642 26.4221 32.1642 26.4221 32.0307 26.3492C31.516 26.1397 30.9844 26.0385 30.4408 25.9295ZM16.8971 26.2456C16.7637 26.2894 16.7637 26.2894 16.6276 26.334C16.3965 26.4146 16.1718 26.5129 15.9486 26.6131C15.5574 27.7866 16.139 29.3528 16.6322 30.4412C16.7224 30.5765 16.8126 30.7119 16.9056 30.8513C16.9958 30.8513 17.0861 30.8513 17.179 30.8513C17.9681 29.3005 18.223 27.6593 18.1361 25.9295C17.6986 25.9295 17.306 26.1033 16.8971 26.2456ZM20.4603 25.3826C20.4552 25.5349 20.4501 25.6871 20.4448 25.844C20.353 28.1298 20.171 30.6319 18.6829 32.492C17.9803 33.111 17.5446 33.2442 16.6167 33.2284C15.9481 33.1389 15.5613 32.8633 15.1283 32.3553C14.5026 31.3784 14.1505 30.3355 13.8978 29.2107C13.8698 29.0895 13.8417 28.9682 13.8129 28.8433C13.7478 28.5561 13.6857 28.2682 13.6244 27.9803C11.8804 28.7941 10.7447 30.4078 10.0099 32.1331C9.84259 33.211 9.69502 34.4415 10.2929 35.4085C11.6175 37.0245 13.9429 37.3005 15.898 37.5093C17.7409 37.6743 19.5889 37.7094 21.4382 37.7102C21.6674 37.7107 21.8967 37.7112 22.126 37.7116C22.6029 37.7124 23.0798 37.7127 23.5567 37.7126C24.0366 37.7126 24.5165 37.7136 24.9965 37.7154C31.9935 38.1322 31.9935 38.1322 38.1429 35.6141C38.7951 34.8945 38.8548 34.123 38.8281 33.1916C38.6266 31.3849 37.5358 29.8189 36.1829 28.6638C35.8263 28.4107 35.4709 28.1954 35.0892 27.9803C35.0577 28.1191 35.0261 28.258 34.9936 28.4011C34.1342 32.074 34.1342 32.074 32.8077 33.0303C32.0464 33.2745 31.3033 33.3334 30.5775 32.9705C30.4872 32.9028 30.397 32.8351 30.304 32.7654C30.2138 32.7654 30.1236 32.7654 30.0306 32.7654C29.9936 32.6896 29.9566 32.6138 29.9185 32.5358C29.808 32.3185 29.6916 32.1042 29.5702 31.8928C28.4498 29.855 28.3009 27.6656 28.2533 25.3826C28.1179 25.3826 27.9826 25.3826 27.8431 25.3826C27.8377 25.4664 27.8323 25.5502 27.8267 25.6365C27.4659 30.9661 27.4659 30.9661 25.9771 32.6031C25.3148 33.1717 24.8301 33.2229 23.9824 33.214C23.3117 33.1457 22.9619 32.8061 22.5025 32.3467C21.1233 30.2557 20.9295 27.6892 20.8704 25.2459C20.7032 25.2357 20.7032 25.2357 20.4603 25.3826Z" fill="#C18539"/>
</svg>
