<svg width="71" height="70" viewBox="0 0 71 70" fill="none" xmlns="http://www.w3.org/2000/svg">
<g clip-path="url(#clip0_6665_37249)">
<path d="M40.8308 1.64151C41.4872 2.07982 41.898 2.54093 42.198 3.28213C42.312 3.26239 42.426 3.24265 42.5435 3.22232C44.5085 2.8982 46.3077 2.86788 48.039 4.01272C49.0438 4.74352 49.6934 5.44994 50.2644 6.56338C50.3111 6.64551 50.3578 6.72764 50.4059 6.81225C50.9587 7.95899 50.8437 9.64884 50.4353 10.8273C49.9139 12.0366 49.0457 13.1868 47.8013 13.7091C47.6554 13.7535 47.5095 13.7979 47.3591 13.8437C47.2146 13.8895 47.0701 13.9353 46.9212 13.9825C46.3401 14.1028 45.7965 14.1039 45.2058 14.0829C45.209 14.2415 45.2121 14.4001 45.2154 14.5636C45.2584 17.6251 45.2584 17.6251 44.5222 19.0048C44.6114 19.1322 44.7006 19.2596 44.7924 19.3909C46.7249 22.1923 47.9704 25.3901 47.3933 28.8485C46.8267 31.4929 45.3237 33.5435 43.155 35.1376C43.0648 35.1827 42.9746 35.2278 42.8816 35.2743C43.0694 36.5963 43.3113 37.809 44.3855 38.6923C45.2984 39.3713 46.2619 39.8262 47.3079 40.2646C50.5725 41.6427 52.5598 43.3159 53.9558 46.622C54.3539 47.6208 54.7298 48.6276 55.1024 49.6362C56.1833 52.5458 57.5752 54.7369 59.711 56.9703C61.9113 59.2856 63.6134 61.8106 63.555 65.1073C63.4731 66.5785 62.8456 67.7358 61.783 68.7448C60.8698 69.4913 59.9297 69.7886 58.7586 69.7867C58.3924 69.7121 58.2674 69.626 58.0574 69.3173C58.0317 68.9499 58.0317 68.9499 58.0574 68.6337C57.9596 68.6783 57.8617 68.7229 57.761 68.7688C56.3669 69.3802 54.9333 69.7779 53.4089 69.8642C53.2315 69.875 53.2315 69.875 53.0506 69.8861C51.2972 69.9408 49.4946 69.6559 47.9687 68.764C47.6119 68.61 47.3577 68.6016 46.9698 68.6051C46.8309 68.6057 46.692 68.6062 46.5489 68.6068C46.3987 68.6089 46.2484 68.611 46.0935 68.6132C45.9357 68.6143 45.7778 68.6155 45.6151 68.6166C45.1141 68.6208 44.6131 68.627 44.1121 68.6337C43.9573 68.6355 43.8026 68.6373 43.6431 68.6391C42.5283 68.6521 41.4136 68.6699 40.2989 68.6887C39.9424 68.6945 39.586 68.7003 39.2296 68.7061C38.4874 68.7182 37.7451 68.7305 37.0029 68.743C36.2538 68.7556 35.5046 68.7679 34.7554 68.78C34.3851 68.786 34.0148 68.7919 33.6445 68.7979C33.5535 68.7994 33.4624 68.8009 33.3686 68.8024C31.8643 68.8267 30.3601 68.854 28.8559 68.8824C27.97 68.8988 27.0841 68.9117 26.198 68.9192C25.7185 68.9236 25.239 68.9304 24.7595 68.9378C24.5491 68.9404 24.3387 68.9419 24.1283 68.9422C22.8685 68.9438 21.8081 69.1243 20.6324 69.5642C19.4033 70.0139 18.159 70.0494 16.8623 70.0436C16.7002 70.0435 16.5382 70.0434 16.3712 70.0434C15.3412 70.0326 14.4121 69.9524 13.4192 69.6671C13.0507 69.5849 12.8837 69.6164 12.53 69.7274C11.3448 69.8543 10.3792 69.6237 9.42501 68.8991C8.36216 67.975 7.61893 67.0097 7.4296 65.5845C7.41177 65.2667 7.40747 64.9529 7.41161 64.6347C7.41265 64.5217 7.41368 64.4087 7.41475 64.2923C7.49147 61.4117 9.28747 59.1784 11.1628 57.1493C11.3959 56.8885 11.6263 56.6257 11.855 56.361C12.0579 56.127 12.2635 55.8953 12.4702 55.6646C14.3207 53.5767 15.2555 51.2926 16.1963 48.7068C17.3952 45.4158 18.8072 42.4877 22.1003 40.8798C22.5787 40.6646 23.0611 40.4596 23.5444 40.256C25.9479 39.364 25.9479 39.364 27.536 37.4834C27.8445 36.6302 28.0897 35.7571 28.2527 34.8642C28.1896 34.8125 28.1265 34.7609 28.0615 34.7077C25.966 32.9394 24.2021 30.5934 23.9012 27.7816C23.6787 24.9428 23.9283 21.9611 25.7714 19.6435C26.0265 19.0502 25.8382 18.5242 25.6977 17.911C25.6436 17.6542 25.5896 17.3973 25.5359 17.1404C25.5092 17.0155 25.4824 16.8907 25.4548 16.7621C25.3092 16.0561 25.2088 15.3434 25.1081 14.6298C24.9941 14.59 24.8801 14.5501 24.7626 14.5091C23.1422 13.9188 21.9125 13.2441 21.0237 11.7331C20.6551 10.4841 20.7997 9.34189 21.4167 8.20401C22.1016 7.03837 23.0809 6.36834 24.3557 5.96C24.9504 5.82065 25.5347 5.83677 26.1421 5.85415C26.2669 5.856 26.3918 5.85785 26.5205 5.85976C26.8245 5.86454 27.1284 5.87124 27.4324 5.87979C27.4658 5.76365 27.4993 5.6475 27.5338 5.52784C27.7216 5.01642 27.9728 4.58095 28.2698 4.12808C28.3246 4.04426 28.3794 3.96043 28.4359 3.87407C31.418 -0.599686 36.4333 -0.971202 40.8308 1.64151ZM30.187 3.98228C29.3825 5.06036 28.7416 6.00199 28.7996 7.38369C28.6628 7.52041 28.6628 7.52041 28.21 7.5375C27.7058 7.52041 27.7058 7.52041 27.4665 7.45366C26.3655 7.20324 24.9908 7.22078 23.9904 7.76768C23.8669 7.84831 23.8669 7.84831 23.741 7.93057C23.6238 8.00485 23.6238 8.00485 23.5044 8.08064C22.8563 8.55268 22.4576 9.20568 22.3262 9.99257C22.2934 10.7393 22.4773 11.2714 22.9666 11.8308C24.2137 13.0262 25.9834 13.3778 27.6551 13.4084C29.4751 13.3458 31.0202 12.8145 32.5342 11.8073C32.9708 11.5868 33.2384 11.5548 33.7214 11.622C33.9377 11.8025 33.9377 11.8025 34.1059 12.0492C35.046 13.2485 36.3967 13.7604 37.8743 13.9985C39.279 14.076 40.7242 13.4654 41.7878 12.579C41.9611 12.4047 42.1321 12.2282 42.3005 12.0492C42.702 11.6348 42.702 11.6348 43.0867 11.5194C43.5128 11.6473 43.7947 11.8678 44.1462 12.1352C44.7943 12.5967 45.5257 12.6692 46.2996 12.579C47.2901 12.3637 48.008 11.989 48.5826 11.1435C49.1859 10.086 49.3705 9.1354 49.1706 7.93057C48.7978 6.76036 48.1424 5.87624 47.1199 5.19619C45.5471 4.39343 44.2191 4.42385 42.535 4.83303C42.047 4.92547 41.5997 4.9379 41.1042 4.92276C41.081 4.84186 41.0577 4.76097 41.0337 4.67762C41.0006 4.56959 40.9675 4.46156 40.9333 4.35025C40.9016 4.24397 40.8699 4.1377 40.8372 4.02821C40.4746 3.17717 39.9124 2.82553 39.1133 2.44473C39.0152 2.3975 38.9171 2.35027 38.816 2.3016C35.7209 0.846884 32.4705 1.28257 30.187 3.98228ZM33.0378 13.2626C32.9088 13.3269 32.7798 13.3913 32.6469 13.4575C30.7057 14.4075 28.9074 14.7665 26.7488 14.7665C26.8882 15.9622 27.0364 17.1444 27.2956 18.3212C29.5623 18.8616 31.8024 19.1792 34.1316 19.2782C34.2676 19.284 34.4037 19.2899 34.5439 19.2959C36.59 19.3369 38.6838 19.1353 40.7026 18.8083C40.7976 18.7932 40.8925 18.7782 40.9903 18.7627C41.7884 18.6224 42.8808 18.4062 43.4285 17.7743C43.7188 16.8828 43.7563 15.961 43.7873 15.0314C43.7926 14.9 43.7979 14.7686 43.8034 14.6333C43.8161 14.3131 43.8278 13.993 43.8386 13.6728C43.613 13.5374 43.3874 13.4021 43.155 13.2626C43.0366 13.3782 42.9182 13.4938 42.7961 13.6129C41.3864 14.8168 39.641 15.391 37.8022 15.347C36.0052 15.1917 34.4139 14.4039 33.0378 13.2626ZM41.5315 20.0131C38.5441 20.6336 35.5211 20.7604 32.4824 20.5343C32.3217 20.5225 32.1609 20.5108 31.9953 20.4986C30.8464 20.408 29.7228 20.2576 28.5913 20.0419C28.012 19.9362 28.012 19.9362 27.4324 19.9618C26.221 21.0738 25.5014 23.2901 25.3816 24.8837C25.3563 25.7042 25.3653 26.524 25.3816 27.3446C25.8125 27.4818 25.8125 27.4818 26.2377 27.343C28.2551 25.9494 29.2736 23.8173 29.7566 21.4657C30.5491 21.3109 30.5491 21.3109 30.7991 21.4743C30.9527 21.6907 31.0955 21.9149 31.2349 22.1408C31.8186 22.958 32.6089 23.2797 33.5762 23.4508C36.0925 23.6915 38.3973 22.6998 40.3352 21.1325C40.704 20.843 40.8141 20.7843 41.3008 20.7223C41.6511 20.7821 41.6511 20.7821 41.7878 20.9189C41.8144 21.1913 41.8403 21.4638 41.8622 21.7366C41.9566 22.8614 42.0903 23.7963 42.7449 24.747C42.8023 24.833 42.8598 24.919 42.919 25.0076C43.688 26.0211 44.8147 26.6267 46.0261 26.9345C45.8301 24.3932 44.9921 21.6873 43.155 19.8251C42.6099 19.7196 42.0694 19.8962 41.5315 20.0131ZM39.6906 23.3239C37.4504 24.6991 35.0223 25.1996 32.4306 24.6151C31.8029 24.4325 31.3731 24.1768 30.8503 23.7899C30.7601 23.7899 30.6699 23.7899 30.5769 23.7899C30.4727 24.0078 30.4727 24.0078 30.3665 24.23C29.3775 26.2717 29.3775 26.2717 28.6628 27.0712C28.5818 27.1648 28.5007 27.2584 28.4172 27.3548C27.6679 28.1655 26.8349 28.6375 25.7917 28.9853C26.4998 31.5259 28.4604 33.3646 30.6757 34.674C33.2072 36.0505 36.2349 36.245 38.984 35.4377C41.8548 34.4595 43.9839 32.8972 45.4109 30.173C45.6909 29.5844 45.8598 29.0889 45.8894 28.4384C45.7785 28.4001 45.6677 28.3619 45.5535 28.3225C43.6331 27.6272 42.1118 26.7322 41.1544 24.8565C40.8862 24.2333 40.6742 23.639 40.5574 22.9696C40.1953 22.9696 39.9913 23.1379 39.6906 23.3239ZM29.6199 35.8212C29.5468 36.057 29.476 36.2936 29.4062 36.5304C29.3666 36.6621 29.3269 36.7937 29.2861 36.9294C29.2036 37.357 29.197 37.6003 29.3464 38.0087C31.3703 39.8827 35.1179 39.7634 37.6646 39.6766C39.0549 39.5887 40.3531 39.2037 41.5144 38.4188C41.6497 38.3286 41.7851 38.2384 41.9246 38.1454C41.8629 37.8803 41.8 37.6154 41.7366 37.3507C41.7017 37.2032 41.6668 37.0557 41.6308 36.9037C41.5298 36.4836 41.5298 36.4836 41.241 36.0946C41.125 36.1392 41.009 36.1838 40.8895 36.2297C37.3896 37.5336 33.9106 37.6065 30.4514 36.1363C30.036 35.9539 30.036 35.9539 29.6199 35.8212ZM28.007 39.4266C27.9189 39.5198 27.8308 39.6131 27.74 39.7091C26.6368 40.7423 25.2152 41.2772 23.8305 41.8368C21.1393 42.9277 19.5809 44.5371 18.4089 47.1688C18.0208 48.1173 17.6748 49.0817 17.3258 50.045C16.2983 52.8701 15.1188 55.0696 13.0769 57.286C13.008 57.361 12.9391 57.4359 12.8681 57.5131C12.673 57.7253 12.4776 57.9372 12.2822 58.1491C10.4344 60.1552 8.81974 62.176 8.9246 65.039C9.06152 66.254 9.51882 66.9528 10.436 67.7456C10.7759 67.9651 11.0378 68.0355 11.4363 68.0868C11.4678 67.9282 11.4994 67.7696 11.5319 67.6062C12.0588 65.0423 12.9413 62.8612 15.1277 61.2509C15.9218 60.742 16.7432 60.3008 17.5886 59.8837C17.0342 59.5141 16.5997 59.5193 15.948 59.6103C15.6537 59.7329 15.3855 59.8781 15.1079 60.0343C14.7376 60.2136 14.4362 60.2146 14.0339 60.1571C13.7605 59.8837 13.7605 59.8837 13.7263 59.4992C13.9664 58.887 14.3369 58.7785 14.9167 58.5138C15.9612 58.1111 17.1109 58.0732 18.1697 58.4567C18.9907 58.8276 19.608 59.4063 20.2034 60.0717C20.5439 60.3668 20.841 60.3699 21.28 60.4306C21.1523 59.2878 20.9951 58.158 20.7915 57.0262C20.1194 53.2493 20.1194 53.2493 20.7502 52.1164C21.1688 51.5186 21.7958 51.3021 22.4923 51.1705C22.6748 51.1482 22.8575 51.1274 23.0403 51.1081C23.1344 51.0969 23.2285 51.0857 23.3255 51.0741C23.5549 51.0471 23.7847 51.0218 24.0144 50.997C24.0149 50.9155 24.0154 50.834 24.0159 50.75C24.0216 49.8982 24.0311 49.0466 24.0428 48.1948C24.0466 47.8774 24.0495 47.5599 24.0514 47.2425C24.0544 46.7849 24.0608 46.3275 24.0678 45.87C24.068 45.7291 24.0681 45.5882 24.0683 45.4431C24.0853 44.5976 24.1845 43.8989 24.698 43.204C25.6389 42.5699 26.7913 42.6186 27.8884 42.5589C28.0403 42.5503 28.1922 42.5417 28.3487 42.5328C28.6712 42.5147 28.9936 42.4968 29.3161 42.4791C29.7976 42.4526 30.2791 42.4254 30.7606 42.3981C32.7951 42.2839 34.8298 42.1887 36.866 42.1103C36.9562 41.7944 37.0464 41.4786 37.1394 41.1532C37.0273 41.1478 36.9152 41.1424 36.7998 41.1368C31.5475 40.8701 31.5475 40.8701 29.1899 39.5794C28.5919 39.2148 28.5919 39.2148 28.007 39.4266ZM43.2917 39.9228C42.9308 40.6446 42.5699 41.3665 42.198 42.1103C42.5364 42.1441 42.8747 42.1779 43.2234 42.2128C44.2929 42.3394 45.1707 42.4923 45.8723 43.3749C46.6361 44.4539 46.4907 45.9347 46.5132 47.1945C46.5212 47.5867 46.53 47.9789 46.5393 48.371C46.5426 48.5131 46.5426 48.5131 46.5459 48.6581C46.5686 49.5314 46.6312 50.4003 46.7097 51.2704C46.8524 51.2661 46.8524 51.2661 46.9979 51.2617C47.4316 51.2503 47.8653 51.2432 48.2991 51.2362C48.4487 51.2317 48.5983 51.2271 48.7525 51.2223C49.6192 51.2118 50.16 51.2203 50.8113 51.8173C51.3622 52.5886 51.2914 53.4482 51.1774 54.355C51.1167 54.7164 51.0486 55.0755 50.9774 55.435C50.9528 55.5653 50.9282 55.6956 50.9028 55.8298C50.8251 56.2414 50.7457 56.6527 50.666 57.0639C50.5605 57.6087 50.4566 58.1538 50.3536 58.6992C50.329 58.8236 50.3043 58.9481 50.2789 59.0763C50.257 59.1923 50.2351 59.3083 50.2126 59.4278C50.1928 59.5293 50.1731 59.6309 50.1528 59.7355C50.1255 60.0455 50.1723 60.2718 50.2644 60.5673C50.8114 60.3915 50.9363 60.0698 51.1969 59.5841C51.6474 58.8934 52.4329 58.541 53.2012 58.312C54.5074 58.0507 55.695 58.2261 56.8354 58.901C57.1003 59.2001 57.1003 59.2001 57.1516 59.6359C57.1003 60.0204 57.1003 60.0204 56.9636 60.1571C56.4203 60.2234 56.0939 60.1496 55.6306 59.8837C54.9946 59.5362 54.3934 59.5296 53.6824 59.6103C53.5921 59.6554 53.5019 59.7005 53.4089 59.747C53.4089 59.8372 53.4089 59.9274 53.4089 60.0204C53.5184 60.0654 53.5184 60.0654 53.63 60.1112C56.0991 61.1621 57.7702 62.7444 58.8777 65.2157C59.0522 65.7115 59.1805 66.2054 59.2878 66.7196C59.3157 66.8508 59.3435 66.9819 59.3722 67.117C59.4384 67.4398 59.5015 67.7628 59.5613 68.0868C60.3773 67.9032 60.9427 67.4864 61.4753 66.8564C62.2027 65.5642 62.1905 64.2038 61.8 62.8061C61.1055 60.7685 59.625 59.2523 58.1941 57.6962C57.8674 57.3377 57.5499 56.9732 57.2371 56.6024C57.1232 56.4699 57.0093 56.3374 56.8921 56.2008C55.1397 54.1095 54.2164 51.7536 53.3172 49.2119C52.3278 46.4231 51.1713 43.7463 48.3702 42.3845C47.8659 42.1481 47.357 41.9227 46.8464 41.7001C46.5128 41.554 46.1792 41.4078 45.8459 41.2611C45.6359 41.169 45.4255 41.0778 45.2146 40.9877C44.617 40.7279 44.0986 40.4338 43.5652 40.0595C43.4749 40.0144 43.3847 39.9692 43.2917 39.9228ZM41.241 40.1962C40.8372 40.3048 40.4369 40.4194 40.0361 40.538C39.9222 40.568 39.8082 40.5979 39.6909 40.6288C39.0485 40.8156 39.0485 40.8156 38.61 41.2905C38.4781 41.624 38.4781 41.624 38.3699 42.1103C39.0917 42.1103 39.8136 42.1103 40.5574 42.1103C40.6955 41.8452 40.8337 41.5801 40.9761 41.307C41.0538 41.1579 41.1315 41.0088 41.2116 40.8552C41.2664 40.728 41.3212 40.6007 41.3777 40.4696C41.3326 40.3794 41.2874 40.2892 41.241 40.1962ZM28.5261 43.8876C28.3815 43.8962 28.3815 43.8962 28.234 43.905C26.9214 43.9771 26.9214 43.9771 25.655 44.2978C25.4618 44.9765 25.4124 45.6498 25.5183 46.3485C26.1103 47.0772 26.9516 47.3766 27.8751 47.4749C28.9766 47.4508 29.9021 46.8596 30.8499 46.3552C31.2635 46.1386 31.6834 45.9395 32.1064 45.7418C32.2437 45.6772 32.381 45.6125 32.5225 45.5458C33.7449 45.0476 35.1151 45.1111 36.3276 45.5993C36.9056 45.8906 37.4441 46.2346 37.9791 46.5982C39.0207 47.3057 39.854 47.4442 41.1042 47.3056C41.7189 47.1225 42.294 46.8768 42.8816 46.622C43.4308 46.4168 43.9207 46.3059 44.5051 46.2631C44.6373 46.2529 44.7695 46.2426 44.9057 46.2321C45.0047 46.2254 45.1038 46.2187 45.2058 46.2118C45.1589 45.0113 45.1589 45.0113 44.5222 44.0243C43.5726 43.5427 42.5794 43.5563 41.5384 43.5645C41.2842 43.5642 41.2842 43.5642 41.0248 43.564C40.5676 43.5642 40.1105 43.5663 39.6533 43.5696C39.3687 43.5714 39.0841 43.5725 38.7995 43.5733C35.3713 43.5838 31.9485 43.6813 28.5261 43.8876ZM31.0469 47.8695C29.7551 48.5766 28.4107 49.0781 26.9298 48.7214C26.5925 48.6223 26.2604 48.515 25.9285 48.3993C25.7931 48.3542 25.6578 48.3091 25.5183 48.2626C25.5183 49.1649 25.5183 50.0673 25.5183 50.997C35.2636 51.0647 35.2636 51.0647 45.2058 51.1337C45.2133 49.4123 45.2133 49.4123 45.0691 47.7157C44.0205 47.6072 43.2875 47.9086 42.3534 48.3432C41.1856 48.8682 39.6273 48.8744 38.4126 48.4677C37.6746 48.1571 37.0063 47.7295 36.3383 47.2922C34.3493 46.0874 32.9419 46.8267 31.0469 47.8695ZM21.8269 53.0478C21.7887 53.5955 21.8049 54.1401 21.8269 54.6884C21.8313 54.8035 21.8357 54.9186 21.8402 55.0371C21.9015 55.5364 22.0074 55.8227 22.3604 56.188C23.7107 57.221 25.3444 57.6178 27.0222 57.4228C27.9846 57.2248 28.8696 56.85 29.7666 56.4598C31.7044 55.6176 33.4492 55.1791 35.5159 55.9103C36.2755 56.2218 36.9746 56.6133 37.6863 57.0211C39.1965 57.8821 40.6971 58.5123 42.4714 58.2431C43.2217 58.0312 43.9394 57.72 44.6589 57.4228C46.2059 56.7933 47.6639 56.8153 49.3074 56.8759C49.4778 56.1409 49.6282 55.4103 49.7346 54.6627C49.769 54.4272 49.769 54.4272 49.804 54.1869C49.8518 53.7534 49.8832 53.3464 49.8542 52.911C49.5295 52.5863 49.461 52.602 49.0191 52.5946C48.8414 52.5906 48.8414 52.5906 48.6601 52.5867C48.4634 52.5844 48.4634 52.5844 48.2628 52.5822C48.1238 52.5796 47.9849 52.5771 47.8417 52.5744C47.372 52.5663 46.9023 52.5602 46.4325 52.5543C46.0965 52.5492 45.7604 52.5441 45.4243 52.5389C41.4915 52.4822 37.5582 52.4706 33.6251 52.4682C33.5187 52.4682 33.4124 52.4681 33.3029 52.468C33.1964 52.468 33.09 52.4679 32.9803 52.4678C32.0985 52.4671 31.2167 52.4644 30.335 52.4613C29.4705 52.4583 28.606 52.4569 27.7415 52.4567C27.2313 52.4566 26.7211 52.4558 26.2109 52.4533C25.6497 52.4507 25.0885 52.4513 24.5273 52.4521C24.2791 52.4503 24.2791 52.4503 24.0258 52.4483C22.8235 52.4387 22.8235 52.4387 21.8269 53.0478ZM30.0898 57.8329C27.5162 58.9368 25.4414 59.1334 22.8032 58.0882C22.7066 58.0491 22.61 58.0099 22.5105 57.9696C22.5683 60.1972 22.5683 60.1972 23.3992 62.1908C23.9464 62.6559 24.377 62.6356 25.073 62.6373C25.1672 62.6377 25.2615 62.6381 25.3585 62.6385C25.675 62.6397 25.9914 62.6399 26.3078 62.6401C26.5344 62.6407 26.761 62.6414 26.9876 62.6422C27.6037 62.644 28.2198 62.6448 28.8359 62.6454C29.2206 62.6458 29.6054 62.6464 29.9902 62.647C31.1937 62.6489 32.3973 62.6502 33.6008 62.6507C34.9908 62.6513 36.3808 62.6537 37.7708 62.6577C38.8448 62.6607 39.9188 62.662 40.9928 62.6622C41.6345 62.6624 42.2761 62.6632 42.9178 62.6656C43.5213 62.6679 44.1248 62.6682 44.7283 62.667C44.9498 62.6669 45.1713 62.6675 45.3928 62.6688C45.6952 62.6705 45.9975 62.6697 46.3 62.6683C46.4692 62.6685 46.6384 62.6687 46.8128 62.6689C47.4118 62.6003 47.7701 62.3919 48.1761 61.9527C48.3743 61.621 48.4576 61.3365 48.5399 60.9593C48.5842 60.7602 48.5842 60.7602 48.6294 60.5571C48.6585 60.4195 48.6877 60.2819 48.7178 60.14C48.7485 60.0013 48.7793 59.8626 48.811 59.7197C48.9712 59.0557 48.9712 59.0557 49.0339 58.3798C47.5335 57.8796 46.0643 58.3842 44.6589 58.9267C44.3771 59.0296 44.0951 59.1322 43.813 59.2343C43.6409 59.2988 43.6409 59.2988 43.4653 59.3646C41.6805 59.9913 39.7807 59.6125 38.1189 58.8172C37.6539 58.5881 37.1932 58.3512 36.733 58.1129C34.218 56.813 32.7369 56.6951 30.0898 57.8329ZM14.9082 63.3439C13.7709 64.6221 13.0544 66.2482 12.9402 67.9501C16.0389 68.9845 19.2481 68.7018 22.2013 67.3616C23.2874 66.797 24.4092 66.0711 24.9714 64.9423C25.0258 64.6705 25.0731 64.397 25.1081 64.122C24.9276 64.0995 24.9276 64.0995 24.7434 64.0766C24.5052 64.0441 24.5052 64.0441 24.2622 64.0109C24.1052 63.9903 23.9481 63.9697 23.7864 63.9484C23.3265 63.8476 23.0384 63.692 22.6472 63.4384C22.557 63.4384 22.4667 63.4384 22.3738 63.4384C22.2145 63.1199 22.072 62.8149 21.9481 62.4797C21.6589 62.0217 21.4776 61.9436 20.9585 61.8247C20.8672 61.8074 20.7759 61.79 20.6819 61.7721C20.0365 61.6366 19.5154 61.4753 18.9558 61.1142C17.5334 61.1142 15.8921 62.4281 14.9082 63.3439ZM50.9736 61.7294C50.8519 61.7724 50.7302 61.8154 50.6049 61.8597C49.8169 62.1634 49.3857 62.477 48.9327 63.1949C48.5678 63.7108 47.9827 63.8558 47.3933 63.9853C47.0169 64.0159 46.6423 64.0418 46.2654 64.0622C46.1126 64.071 46.1126 64.071 45.9567 64.0801C45.7064 64.0945 45.4561 64.1083 45.2058 64.122C46.4806 65.9992 48.2111 67.6519 50.4818 68.1616C50.5905 68.182 50.6992 68.2025 50.8113 68.2235C50.9664 68.2546 51.1215 68.2856 51.2812 68.3175C53.3579 68.4997 55.8537 68.3164 57.6472 67.1298C57.8282 66.7093 57.7985 66.4989 57.6766 66.059C57.2999 65.1802 56.8944 64.4434 56.28 63.7118C56.1785 63.5737 56.077 63.4355 55.9724 63.2931C55.1446 62.323 53.9088 61.6782 52.7253 61.2509C52.092 61.2509 51.5601 61.5047 50.9736 61.7294ZM26.6121 64.122C26.5783 64.2421 26.5446 64.3621 26.5098 64.4858C26.4636 64.6444 26.4173 64.803 26.3696 64.9663C26.3246 65.1231 26.2796 65.2798 26.2332 65.4413C25.9427 66.2332 25.4239 66.814 24.8347 67.4032C27.0644 67.412 29.2928 67.3848 31.5222 67.3482C31.8823 67.3424 32.2424 67.3366 32.6026 67.3308C33.3515 67.3187 34.1004 67.3064 34.8493 67.2939C35.7108 67.2796 36.5723 67.2659 37.4339 67.2524C38.2705 67.2394 39.1072 67.2257 39.9438 67.2117C40.2967 67.2059 40.6495 67.2003 41.0024 67.1949C41.4952 67.1873 41.988 67.1789 42.4808 67.1704C42.6243 67.1683 42.7678 67.1663 42.9157 67.1642C43.8211 67.1476 44.7153 67.0875 45.616 66.9931C45.0967 66.2773 44.5484 65.6066 43.9524 64.953C43.7019 64.6689 43.7019 64.6689 43.5238 64.3818C43.3132 64.0947 43.3132 64.0947 42.9808 64.0547C42.8582 64.0552 42.7355 64.0557 42.6092 64.0562C42.4683 64.0555 42.3274 64.0547 42.1822 64.0539C41.9505 64.0569 41.9505 64.0569 41.714 64.0599C41.4699 64.0598 41.4699 64.0598 41.2209 64.0596C40.7746 64.06 40.3283 64.0627 39.882 64.0665C39.4157 64.0699 38.9493 64.0703 38.4829 64.0709C37.5997 64.0726 36.7165 64.0771 35.8334 64.0826C34.8279 64.0887 33.8224 64.0917 32.817 64.0945C30.7486 64.1002 28.6804 64.1098 26.6121 64.122Z" fill="#C18539"/>
</g>
<defs>
<clipPath id="clip0_6665_37249">
<rect width="70" height="70" fill="white" transform="translate(0.5)"/>
</clipPath>
</defs>
</svg>
