<svg width="71" height="71" viewBox="0 0 71 71" fill="none" xmlns="http://www.w3.org/2000/svg">
<path d="M52.3677 1.6122C52.9012 2.00963 53.368 2.43796 53.8203 2.9247C54.2464 2.81693 54.2464 2.81693 54.5295 2.49004C56.0065 1.01695 57.5656 0.567922 59.6016 0.563007C61.0215 0.58284 62.1051 1.01501 63.2539 1.83379C63.3921 1.92942 63.5303 2.02504 63.6726 2.12357C64.8454 3.1467 65.5218 4.7481 65.6347 6.27094C65.6435 6.49922 65.6503 6.72757 65.655 6.95596C65.6587 7.0579 65.6624 7.15984 65.6662 7.26488C65.6491 9.88532 64.3971 12.6385 63.6307 15.1277C63.3737 15.9633 63.1179 16.7993 62.862 17.6353C62.7979 17.8448 62.7337 18.0544 62.6696 18.2639C62.0671 20.2308 61.4739 22.2003 60.887 24.1719C60.8462 24.3087 60.8055 24.4456 60.7635 24.5866C60.545 25.3204 60.327 26.0543 60.1094 26.7884C60.2786 26.7771 60.4478 26.7659 60.6221 26.7543C61.0263 26.7274 61.1708 26.766 61.509 26.9999C61.83 27.4446 61.823 27.8196 61.8121 28.3471C61.8122 28.4483 61.8122 28.5494 61.8123 28.6537C61.8119 28.9872 61.8077 29.3206 61.8034 29.6541C61.8024 29.8857 61.8016 30.1173 61.8011 30.3489C61.799 30.9578 61.7936 31.5666 61.7876 32.1755C61.781 32.9063 61.7785 33.6372 61.7753 34.3681C61.77 35.478 61.7595 36.5876 61.75 37.6975C64.6375 37.6975 67.525 37.6975 70.5 37.6975C70.5 38.4175 70.5 39.1375 70.5 39.8793C68.905 39.9238 67.3101 39.9576 65.7146 39.9782C64.9735 39.9881 64.2327 40.0015 63.4918 40.0233C57.6058 40.1921 57.6058 40.1921 56.0258 38.7234C55.8675 38.5592 55.7126 38.3917 55.5617 38.2208C55.1319 37.7673 54.6162 37.4225 54.1108 37.0583C53.2618 36.413 52.4407 35.74 51.6312 35.0464C50.5597 34.1313 49.455 33.2555 48.3516 32.3793C48.3956 34.2576 49.3715 35.4479 50.5684 36.8164C50.9473 37.3373 50.8929 37.6112 50.8125 38.2429C50.5926 38.5464 50.5926 38.5464 50.2656 38.7884C49.8395 38.8478 49.8395 38.8478 49.341 38.8334C49.251 38.8312 49.1609 38.829 49.0681 38.8268C48.0611 38.7963 47.0578 38.7088 46.0551 38.6142C45.8567 38.5961 45.6583 38.5781 45.4599 38.5602C45.049 38.5228 44.6382 38.4848 44.2274 38.4463C43.7012 38.397 43.1748 38.349 42.6484 38.3014C42.2409 38.2645 41.8334 38.2271 41.426 38.1895C41.2318 38.1716 41.0375 38.1538 40.8432 38.1361C40.5733 38.1115 40.3035 38.0862 40.0337 38.0608C39.8039 38.0394 39.8039 38.0394 39.5695 38.0177C39.1914 37.9702 39.1914 37.9702 38.7812 37.8338C38.7812 38.1938 38.7812 38.5538 38.7812 38.9247C38.8871 38.9401 38.9929 38.9555 39.1019 38.9714C40.2403 39.141 41.3687 39.3448 42.4978 39.5677C42.6295 39.5936 42.6295 39.5936 42.764 39.6201C43.2268 39.7112 43.6896 39.8028 44.1524 39.8947C44.6273 39.989 45.1025 40.0818 45.5778 40.1743C46.0353 40.2637 46.4924 40.3547 46.9497 40.4455C47.1193 40.4783 47.2889 40.5112 47.4637 40.545C47.7013 40.5928 47.7013 40.5928 47.9438 40.6415C48.0823 40.6688 48.2209 40.6962 48.3636 40.7244C48.8084 40.8467 49.1817 41.0147 49.582 41.2429C49.796 41.6697 49.814 42.1444 49.7188 42.6066C49.3101 43.1115 49.0097 43.232 48.3711 43.3096C48.213 43.3297 48.0549 43.3497 47.892 43.3704C47.7279 43.3883 47.5637 43.4063 47.3945 43.4248C47.1607 43.4515 47.1607 43.4515 46.9222 43.4788C46.4287 43.5327 45.935 43.5822 45.4409 43.6304C45.2624 43.6481 45.0838 43.6659 44.8998 43.6842C44.526 43.7214 44.1521 43.7583 43.7782 43.7949C43.2993 43.8418 42.8205 43.8893 42.3417 43.937C41.8823 43.9828 41.4228 44.0282 40.9634 44.0735C40.7917 44.0906 40.6199 44.1076 40.443 44.1252C40.2845 44.1407 40.1261 44.1562 39.9628 44.1722C39.8233 44.1859 39.6839 44.1996 39.5402 44.2137C39.1914 44.2429 39.1914 44.2429 38.7812 44.2429C38.7812 44.6029 38.7812 44.9629 38.7812 45.3338C38.9102 45.3326 39.0392 45.3314 39.172 45.3302C40.3871 45.3191 41.6021 45.3109 42.8172 45.3056C43.4419 45.3027 44.0666 45.2989 44.6913 45.2927C45.2941 45.2868 45.8968 45.2835 46.4997 45.2821C46.7297 45.2811 46.9597 45.2791 47.1898 45.2762C47.5119 45.2722 47.8338 45.2717 48.156 45.2719C48.2512 45.27 48.3464 45.268 48.4444 45.266C48.9072 45.2699 49.1351 45.3051 49.5043 45.5934C49.7369 45.9035 49.7931 46.0426 49.7871 46.4248C49.7885 46.5148 49.7899 46.6048 49.7914 46.6975C49.6865 47.0912 49.4778 47.2504 49.1719 47.5157C48.8391 47.6621 48.8391 47.6621 48.4578 47.7751C48.3107 47.8196 48.1636 47.8642 48.012 47.9101C47.8505 47.9572 47.6891 48.0042 47.5227 48.0526C47.2623 48.1308 47.002 48.2089 46.7417 48.2871C46.4499 48.3745 46.1579 48.461 45.8658 48.5473C45.1219 48.7676 44.3794 48.9923 43.6369 49.217C42.2011 49.6514 40.7648 50.084 39.3281 50.5157C39.4184 50.8307 39.5086 51.1457 39.6016 51.4702C40.713 51.1976 41.8245 50.9249 42.9359 50.6521C43.5533 50.5006 44.1706 50.3492 44.7879 50.1978C45.0876 50.1242 45.3872 50.0507 45.6868 49.9771C46.0792 49.8808 46.4717 49.7847 46.8642 49.6888C47.6921 49.4862 48.5193 49.2821 49.3436 49.0654C49.4682 49.033 49.5928 49.0005 49.7212 48.9671C49.9402 48.9098 50.159 48.8513 50.3772 48.7913C51.1631 48.5865 52.0743 48.3854 52.8035 48.8111C53.0855 49.3003 53.1397 49.7045 53 50.2429C52.7471 50.6692 52.3966 50.9892 52.043 51.3339C51.8694 51.5082 51.696 51.6827 51.5228 51.8575C51.0155 52.3677 50.5048 52.8744 49.9922 53.3793C50.8043 52.8471 51.5998 52.2971 52.3848 51.7259C53.2356 51.1099 54.0893 50.4983 54.9482 49.8935C55.0426 49.827 55.137 49.7604 55.2342 49.6918C55.4915 49.511 55.7487 49.3303 56.0078 49.152C56.1209 49.0595 56.2339 48.967 56.3504 48.8717C56.9824 48.521 57.4657 48.5335 58.1763 48.5447C58.3098 48.5446 58.4432 48.5445 58.5807 48.5444C59.0202 48.5448 59.4595 48.549 59.899 48.5533C60.2043 48.5543 60.5097 48.5551 60.815 48.5556C61.6174 48.5577 62.4198 48.5631 63.2222 48.5691C64.0415 48.5747 64.8608 48.5772 65.6801 48.5799C67.2868 48.5858 68.8934 48.5951 70.5 48.6066C70.5 49.3266 70.5 50.0466 70.5 50.7884C70.341 50.7898 70.182 50.7912 70.0182 50.7927C68.5234 50.806 67.0285 50.82 65.5337 50.8347C64.7651 50.8422 63.9964 50.8495 63.2278 50.8562C62.4867 50.8627 61.7457 50.8698 61.0046 50.8774C60.7212 50.8802 60.4378 50.8828 60.1544 50.8851C59.7588 50.8884 59.3634 50.8925 58.9679 50.8968C58.8495 50.8975 58.7311 50.8983 58.6091 50.8991C58.0864 50.8551 58.0864 50.8551 57.6484 51.0611C57.6336 51.2836 57.6284 51.5068 57.6268 51.7298C57.6255 51.8746 57.6241 52.0193 57.6228 52.1685C57.622 52.3286 57.6212 52.4888 57.6204 52.6538C57.619 52.8214 57.6177 52.9891 57.6163 53.1617C57.6127 53.6226 57.6097 54.0835 57.607 54.5445C57.604 55.0257 57.6002 55.5069 57.5966 55.988C57.5897 56.8998 57.5836 57.8116 57.5777 58.7234C57.571 59.7612 57.5634 60.799 57.5559 61.8368C57.5403 63.9722 57.5257 66.1076 57.5117 68.243C58.1885 68.243 58.8652 68.243 59.5625 68.243C59.5625 63.203 59.5625 58.163 59.5625 52.9702C60.2844 52.9702 61.0062 52.9702 61.75 52.9702C61.7627 55.1655 61.7724 57.3607 61.7783 59.556C61.7812 60.5753 61.785 61.5945 61.7913 62.6138C61.7967 63.5022 61.8002 64.3905 61.8015 65.2789C61.8022 65.7493 61.8038 66.2197 61.8078 66.6902C61.8122 67.2152 61.8123 67.7402 61.8121 68.2652C61.814 68.4214 61.816 68.5775 61.818 68.7384C61.8173 68.8814 61.8165 69.0244 61.8158 69.1718C61.8163 69.296 61.8168 69.4202 61.8173 69.5481C61.727 69.9926 61.5509 70.1388 61.2031 70.4248C60.8834 70.4932 60.8834 70.4932 60.5224 70.4934C60.3845 70.4949 60.2466 70.4963 60.1045 70.4977C59.9533 70.4965 59.802 70.4953 59.6462 70.494C59.4853 70.4949 59.3245 70.4958 59.1587 70.4966C58.7121 70.4984 58.2655 70.4978 57.8188 70.4961C57.3371 70.4949 56.8555 70.4968 56.3739 70.4983C55.4303 70.5007 54.4867 70.5002 53.5431 70.4986C52.7764 70.4974 52.0096 70.4972 51.2429 70.4978C51.1338 70.4979 51.0248 70.4979 50.9124 70.498C50.6909 70.4982 50.4694 70.4984 50.2479 70.4986C48.1698 70.5001 46.0917 70.4983 44.0136 70.4954C42.2298 70.493 40.446 70.4934 38.6622 70.4959C36.5916 70.4988 34.5211 70.5 32.4505 70.4983C32.2298 70.4981 32.0091 70.4979 31.7884 70.4978C31.6798 70.4977 31.5712 70.4976 31.4593 70.4975C30.6933 70.497 29.9273 70.4978 29.1613 70.4991C28.2281 70.5007 27.2948 70.5002 26.3616 70.4973C25.8853 70.4959 25.409 70.4954 24.9326 70.4972C24.4167 70.4986 23.9009 70.4968 23.385 70.494C23.2338 70.4953 23.0826 70.4965 22.9267 70.4977C22.7888 70.4963 22.6509 70.4949 22.5088 70.4934C22.3897 70.4933 22.2706 70.4932 22.1479 70.4932C21.7137 70.4003 21.5479 70.2278 21.2812 69.8793C21.2739 69.4576 21.2951 69.0849 21.3421 68.6691C21.6523 66.0295 21.6523 66.0295 20.7842 63.6507C19.9542 62.8485 18.8855 62.3338 17.8546 61.8359C16.9487 61.3971 16.1957 60.837 15.4109 60.206C15.1906 60.034 14.97 59.8623 14.7492 59.6909C14.6154 59.5852 14.6154 59.5852 14.479 59.4774C14.327 59.3613 14.327 59.3613 14.1719 59.243C14.0339 59.1275 13.896 59.012 13.7539 58.893C13.1611 58.4745 12.6485 58.464 11.939 58.4712C11.8149 58.4698 11.6907 58.4684 11.5628 58.4669C11.1551 58.463 10.7477 58.4638 10.34 58.4647C10.0563 58.4629 9.7726 58.4608 9.4889 58.4585C8.74426 58.453 7.99967 58.4516 7.25501 58.4511C6.49433 58.4498 5.73367 58.4447 4.973 58.44C3.482 58.4312 1.99102 58.4266 0.5 58.4248C0.5 57.7048 0.5 56.9848 0.5 56.243C2.23762 56.1984 3.9751 56.1647 5.71318 56.144C6.52055 56.1341 7.32752 56.1207 8.13465 56.0989C8.91568 56.078 9.69633 56.0667 10.4776 56.0618C10.7736 56.0583 11.0695 56.0515 11.3652 56.0411C13.578 55.9664 14.8314 56.4412 16.4898 57.9089C16.9306 58.292 17.3985 58.6375 17.8676 58.9851C17.9607 59.055 18.0538 59.1248 18.1497 59.1968C19.226 60.0034 20.3575 60.7283 21.4863 61.4589C21.7069 61.6024 21.9275 61.7461 22.148 61.8898C22.6789 62.2356 23.2104 62.5804 23.7422 62.9248C23.4813 61.568 22.6954 60.5432 21.7421 59.5583C21.3871 59.1871 21.2332 58.9125 21.2043 58.4077C21.2812 57.8793 21.2812 57.8793 21.5018 57.5764C21.9402 57.2506 22.2077 57.2732 22.7505 57.2889C22.8406 57.2911 22.9306 57.2932 23.0233 57.2955C24.0426 57.3263 25.0583 57.414 26.0733 57.508C26.2751 57.5261 26.4769 57.5441 26.6787 57.5621C27.0966 57.5995 27.5144 57.6375 27.9322 57.6759C28.468 57.7253 29.0039 57.7732 29.5399 57.8208C29.9543 57.8577 30.3686 57.8951 30.7829 57.9328C30.9808 57.9507 31.1786 57.9685 31.3764 57.9861C31.6509 58.0107 31.9253 58.036 32.1997 58.0615C32.4336 58.0828 32.4336 58.0828 32.6722 58.1046C33.0391 58.152 33.0391 58.152 33.3125 58.2884C33.3125 57.9284 33.3125 57.5684 33.3125 57.1975C33.1538 57.1744 33.1538 57.1744 32.9919 57.1509C31.8535 56.9812 30.725 56.7774 29.596 56.5546C29.4642 56.5286 29.4642 56.5286 29.3298 56.5022C28.8669 56.411 28.4041 56.3195 27.9414 56.2275C27.4665 56.1333 26.9913 56.0404 26.516 55.9479C26.0585 55.8586 25.6013 55.7675 25.1441 55.6767C24.9745 55.6439 24.8048 55.6111 24.6301 55.5772C24.3924 55.5295 24.3924 55.5295 24.15 55.4807C24.0114 55.4534 23.8729 55.4261 23.7301 55.3979C23.2853 55.2756 22.912 55.1075 22.5117 54.8793C22.2978 54.4526 22.2797 53.9778 22.375 53.5157C22.6731 53.1401 22.857 52.9872 23.3259 52.8645C23.5566 52.8388 23.5566 52.8388 23.792 52.8126C23.9626 52.7926 24.1332 52.7725 24.3089 52.7518C24.4828 52.7339 24.6567 52.716 24.8359 52.6975C25.0732 52.6708 25.0732 52.6708 25.3152 52.6435C25.8009 52.5899 26.2868 52.5404 26.773 52.4919C26.9483 52.4741 27.1237 52.4563 27.3044 52.438C27.6709 52.4009 28.0375 52.364 28.4041 52.3274C28.8737 52.2804 29.3432 52.2329 29.8126 52.1852C30.2634 52.1395 30.7142 52.0941 31.1651 52.0487C31.3334 52.0317 31.5017 52.0146 31.6751 51.9971C31.8304 51.9816 31.9857 51.9661 32.1457 51.9501C32.2823 51.9364 32.4189 51.9227 32.5597 51.9085C32.9023 51.8793 32.9023 51.8793 33.3125 51.8793C33.3125 51.5193 33.3125 51.1593 33.3125 50.7884C33.1835 50.7896 33.0546 50.7908 32.9217 50.7921C31.7067 50.8031 30.4916 50.8113 29.2765 50.8167C28.6518 50.8195 28.0272 50.8234 27.4025 50.8295C26.7997 50.8355 26.1969 50.8387 25.5941 50.8401C25.3641 50.8412 25.134 50.8431 24.904 50.8461C24.5819 50.85 24.2599 50.8506 23.9378 50.8503C23.8426 50.8523 23.7474 50.8542 23.6493 50.8563C23.1866 50.8523 22.9587 50.8171 22.5895 50.5288C22.3569 50.2188 22.3007 50.0797 22.3066 49.6975C22.3052 49.6075 22.3038 49.5175 22.3024 49.4248C22.4069 49.0322 22.6179 48.8718 22.9219 48.6066C23.2391 48.4637 23.2391 48.4637 23.5932 48.3574C23.7267 48.3164 23.8601 48.2754 23.9976 48.2331C24.1417 48.1908 24.2859 48.1484 24.4343 48.1048C24.5849 48.0591 24.7354 48.0134 24.8905 47.9663C25.3731 47.8201 25.8565 47.6764 26.3398 47.5327C26.6568 47.4372 26.9736 47.3415 27.2905 47.2456C28.058 47.0138 28.8261 46.7839 29.5945 46.5549C30.1502 46.3893 30.7058 46.2229 31.2613 46.0566C31.7627 45.9064 32.2642 45.7565 32.7656 45.6066C32.6303 45.1341 32.6303 45.1341 32.4922 44.652C31.3807 44.9247 30.2693 45.1974 29.1578 45.4701C28.5405 45.6216 27.9232 45.7731 27.3058 45.9245C27.0062 45.998 26.7066 46.0715 26.407 46.1451C26.0146 46.2414 25.6221 46.3375 25.2296 46.4334C24.4017 46.636 23.5745 46.8401 22.7502 47.0568C22.5632 47.1055 22.5632 47.1055 22.3725 47.1551C22.1535 47.2124 21.9348 47.2709 21.7165 47.331C20.9307 47.5358 20.0194 47.7368 19.2903 47.3111C19.0083 46.8219 18.954 46.4178 19.0938 45.8793C19.3466 45.453 19.6971 45.133 20.0508 44.7884C20.2244 44.6141 20.3978 44.4395 20.571 44.2648C21.0782 43.7545 21.5889 43.2478 22.1016 42.7429C21.2894 43.2751 20.494 43.8251 19.709 44.3963C18.8581 45.0123 18.0044 45.624 17.1455 46.2287C17.0511 46.2953 16.9568 46.3618 16.8595 46.4304C16.6022 46.6113 16.345 46.792 16.0859 46.9702C15.9749 47.0627 15.864 47.1553 15.7496 47.2506C15.148 47.6465 14.5156 47.5877 13.8171 47.5776C13.6729 47.5777 13.5288 47.5777 13.3803 47.5778C12.9053 47.5774 12.4305 47.5732 11.9555 47.5689C11.6257 47.5679 11.2958 47.5671 10.9659 47.5666C10.0988 47.5645 9.23165 47.5592 8.36452 47.5531C7.47924 47.5475 6.59395 47.545 5.70866 47.5423C3.97242 47.5365 2.23621 47.5271 0.5 47.5157C0.5 46.7957 0.5 46.0757 0.5 45.3338C0.66753 45.3361 0.835061 45.3383 1.00767 45.3406C2.59638 45.3605 4.18491 45.371 5.77374 45.3724C6.59038 45.3734 7.40672 45.3776 8.22327 45.3895C9.01324 45.4009 9.8028 45.4034 10.5928 45.4001C10.8923 45.4003 11.1917 45.4036 11.4911 45.4102C13.6309 45.4544 14.8799 45.0662 16.4977 43.6536C16.9519 43.2712 17.4419 42.9415 17.9316 42.6066C18.886 41.9388 19.8316 41.2593 20.7739 40.5747C20.8721 40.5036 20.9702 40.4325 21.0714 40.3592C21.1582 40.2961 21.2451 40.233 21.3346 40.1679C21.8422 39.8168 22.3218 39.7925 22.9219 39.8793C23.3995 40.0585 23.836 40.2955 24.2805 40.5441C24.3983 40.6068 24.5161 40.6696 24.6375 40.7342C25.4986 41.2012 25.4986 41.2012 25.6562 41.5157C25.7816 42.4223 25.7816 42.4223 25.4522 42.9065C25.2845 43.0942 25.1123 43.2781 24.9353 43.4572C24.6729 43.7094 24.6729 43.7094 24.4258 44.1066C24.5258 44.0809 24.6259 44.0553 24.7289 44.0289C25.6758 43.7866 26.623 43.5458 27.5707 43.3065C28.0578 43.1834 28.5447 43.0599 29.0313 42.935C29.5017 42.8144 29.9725 42.6952 30.4435 42.5769C30.7088 42.5099 30.9738 42.4415 31.2388 42.373C32.1299 42.1507 32.9407 41.9535 33.8594 42.0611C34.5596 42.5445 34.7242 43.3609 34.9873 44.1321C35.037 44.269 35.0867 44.4058 35.1379 44.5468C35.7093 46.1934 35.7093 46.1934 35.5 46.9702C35.1325 47.4282 34.7988 47.6098 34.2418 47.7777C34.0408 47.8397 34.0408 47.8397 33.8359 47.9029C33.6276 47.9644 33.6276 47.9644 33.415 48.027C33.274 48.0701 33.1331 48.1132 32.9878 48.1575C32.6407 48.2633 32.2933 48.3675 31.9453 48.4702C32.0777 48.4721 32.0777 48.4721 32.2127 48.4741C32.6136 48.4814 33.0143 48.4928 33.415 48.5043C33.5539 48.5062 33.6928 48.5082 33.8359 48.5102C34.0368 48.5168 34.0368 48.5168 34.2418 48.5235C34.4265 48.5278 34.4265 48.5278 34.6149 48.5321C35.0731 48.633 35.2294 48.7704 35.5 49.152C35.5708 49.6059 35.5708 49.6059 35.5726 50.1407C35.5732 50.2355 35.5737 50.3302 35.5742 50.4279C35.5746 50.6278 35.5736 50.8277 35.5713 51.0276C35.5684 51.3329 35.5713 51.6379 35.5748 51.9432C35.5744 52.1378 35.5737 52.3324 35.5726 52.527C35.572 52.7035 35.5714 52.88 35.5708 53.0618C35.4888 53.5874 35.3756 53.7474 34.9531 54.0611C33.9406 54.3512 32.8562 54.3763 31.8086 54.3339C31.8086 54.4239 31.8086 54.5139 31.8086 54.6066C31.8867 54.6117 31.9647 54.6168 32.0452 54.622C34.5112 54.8215 34.5112 54.8215 35.2467 55.3716C35.5949 55.8196 35.5707 56.1233 35.5726 56.6861C35.5732 56.7809 35.5737 56.8757 35.5742 56.9734C35.5746 57.1733 35.5736 57.3732 35.5713 57.573C35.5684 57.8784 35.5713 58.1833 35.5748 58.4887C35.5744 58.6833 35.5737 58.8779 35.5726 59.0725C35.572 59.249 35.5714 59.4255 35.5708 59.6073C35.5 60.0611 35.5 60.0611 35.2731 60.3922C34.8604 60.6687 34.6322 60.6726 34.1355 60.6615C34.049 60.6596 33.9624 60.6577 33.8733 60.6558C32.4293 60.6094 30.9876 60.4577 29.55 60.3228C29.0266 60.2738 28.5032 60.2263 27.9797 60.1791C27.6472 60.1486 27.3148 60.118 26.9823 60.0872C26.8257 60.073 26.669 60.0588 26.5077 60.0442C26.3638 60.0305 26.2198 60.0169 26.0716 60.0028C25.9448 59.991 25.818 59.9792 25.6874 59.9671C25.3828 59.9248 25.3828 59.9248 25.1094 59.7884C25.1769 59.9215 25.2444 60.0545 25.3139 60.1916C25.4024 60.3669 25.4909 60.5421 25.5793 60.7174C25.6238 60.805 25.6683 60.8926 25.7142 60.9829C26.3122 62.1698 26.4641 63.5827 26.0648 64.8712C25.799 65.4142 25.6195 65.7219 25.1094 66.0611C24.8445 66.0974 24.8445 66.0974 24.5625 66.0952C24.4694 66.0959 24.3764 66.0966 24.2805 66.0974C24.0156 66.0611 24.0156 66.0611 23.6055 65.7884C23.5604 66.5984 23.5152 67.4084 23.4688 68.243C33.9811 68.243 44.4934 68.243 55.3242 68.243C55.3242 63.113 55.3242 57.983 55.3242 52.6975C53.9854 53.6401 52.6485 54.5819 51.3244 55.5444C51.2247 55.6165 51.1251 55.6887 51.0224 55.763C50.9355 55.8262 50.8486 55.8893 50.7591 55.9543C50.2516 56.3055 49.7719 56.3298 49.1719 56.243C48.6943 56.0638 48.2578 55.8267 47.8132 55.5782C47.6365 55.484 47.6365 55.484 47.4562 55.388C46.5951 54.921 46.5951 54.921 46.4375 54.6066C46.3121 53.7 46.3121 53.7 46.6415 53.2158C46.8092 53.028 46.9815 52.8441 47.1585 52.665C47.4209 52.4129 47.4209 52.4129 47.668 52.0157C47.5679 52.0413 47.4679 52.0669 47.3648 52.0933C46.4179 52.3356 45.4707 52.5765 44.5231 52.8158C44.036 52.9388 43.549 53.0624 43.0624 53.1872C42.592 53.3079 42.1213 53.4271 41.6503 53.5453C41.3849 53.6123 41.1199 53.6808 40.8549 53.7493C39.9639 53.9716 39.1531 54.1687 38.2344 54.0611C37.5342 53.5778 37.3695 52.7613 37.1064 51.9901C37.0319 51.7848 37.0319 51.7848 36.9558 51.5754C36.3844 49.9289 36.3844 49.9289 36.5938 49.152C36.9682 48.6816 37.31 48.5093 37.8819 48.3445C38.0921 48.2825 38.0921 48.2825 38.3065 48.2193C38.5246 48.1579 38.5246 48.1579 38.7471 48.0952C38.8946 48.0521 39.0421 48.0091 39.1941 47.9647C39.5573 47.8589 39.921 47.7547 40.2852 47.652C40.1466 47.6501 40.1466 47.6501 40.0052 47.6482C39.5857 47.6408 39.1664 47.6294 38.7471 47.6179C38.6017 47.616 38.4563 47.6141 38.3065 47.6121C38.1664 47.6077 38.0263 47.6033 37.8819 47.5988C37.6886 47.5945 37.6886 47.5945 37.4914 47.5901C37.0243 47.491 36.8677 47.3597 36.5938 46.9702C36.523 46.5164 36.523 46.5164 36.5211 45.9816C36.5206 45.8868 36.5201 45.792 36.5195 45.6943C36.5192 45.4944 36.5202 45.2946 36.5225 45.0947C36.5254 44.7893 36.5225 44.4844 36.519 44.179C36.5193 43.9844 36.52 43.7898 36.5211 43.5952C36.5217 43.4187 36.5224 43.2422 36.523 43.0604C36.6049 42.5348 36.7182 42.3748 37.1406 42.0611C38.1531 41.771 39.2375 41.7459 40.2852 41.7884C40.2852 41.6984 40.2852 41.6084 40.2852 41.5157C40.2071 41.5106 40.129 41.5055 40.0486 41.5002C37.5826 41.3008 37.5826 41.3008 36.8471 40.7506C36.4988 40.3026 36.5231 39.999 36.5211 39.4361C36.5206 39.3413 36.5201 39.2465 36.5195 39.1489C36.5192 38.949 36.5202 38.7491 36.5225 38.5492C36.5254 38.2438 36.5225 37.9389 36.519 37.6336C36.5193 37.4389 36.52 37.2443 36.5211 37.0497C36.5217 36.8733 36.5224 36.6968 36.523 36.5149C36.5938 36.0611 36.5938 36.0611 36.8212 35.7301C37.2316 35.4546 37.4544 35.4494 37.9487 35.4603C38.0349 35.4621 38.1211 35.4639 38.2099 35.4658C39.8817 35.5195 41.5513 35.7038 43.2161 35.8566C43.5821 35.8896 43.9482 35.9224 44.3144 35.9551C45.2044 36.0349 46.0944 36.1158 46.9844 36.1975C46.9272 36.0849 46.8701 35.9723 46.8112 35.8563C46.6995 35.6349 46.6995 35.6349 46.5854 35.4091C46.5114 35.2628 46.4373 35.1164 46.361 34.9657C45.6621 33.5301 45.6366 31.9937 46.0273 30.4702C46.2529 30.0202 46.4785 29.5702 46.7109 29.1066C35.2061 29.0391 35.2061 29.0391 23.4688 28.9702C23.4688 32.2102 23.4688 35.4502 23.4688 38.7884C22.7469 38.7884 22.025 38.7884 21.2812 38.7884C21.2361 37.7534 21.191 36.7184 21.1445 35.652C20.4 36.2518 19.6642 36.85 18.957 37.4929C18.3253 38.0663 17.68 38.6249 16.9981 39.1388C16.7524 39.3379 16.7524 39.3379 16.5175 39.6318C15.7829 40.3993 15.2053 40.6334 14.1614 40.6917C13.4032 40.7074 12.6469 40.6965 11.8888 40.681C11.5599 40.6787 11.231 40.6769 10.9021 40.6757C10.0405 40.671 9.1791 40.659 8.31758 40.6454C7.43685 40.6328 6.55608 40.6272 5.67529 40.621C3.95008 40.6079 2.22506 40.587 0.5 40.5611C0.5 39.8411 0.5 39.1211 0.5 38.3793C0.669352 38.3809 0.838704 38.3825 1.01319 38.3842C2.61423 38.3986 4.21514 38.4049 5.81625 38.4037C6.6393 38.4033 7.46215 38.4056 8.28516 38.4143C9.08041 38.4227 9.87537 38.4237 10.6707 38.4196C10.9731 38.4194 11.2755 38.4217 11.5778 38.4268C13.4482 38.5076 13.4482 38.5076 15.0731 37.7248C15.3869 37.4157 15.6661 37.0799 15.9492 36.7429C16.201 36.5273 16.4568 36.3161 16.7183 36.1122C17.2045 35.7217 17.6753 35.3215 18.1367 34.902C18.7289 34.3641 19.3404 33.8552 19.9632 33.353C20.0823 33.2567 20.2015 33.1604 20.3242 33.0611C20.4651 32.9663 20.6061 32.8715 20.7513 32.7739C21.1348 32.4526 21.1441 32.3817 21.2415 31.8474C21.2434 31.641 21.2411 31.4345 21.2353 31.2282C21.2359 31.1185 21.2365 31.0087 21.2371 30.8957C21.2386 30.5463 21.2347 30.1973 21.23 29.848C21.2267 29.4983 21.2246 29.1487 21.2258 28.7989C21.2264 28.5817 21.2244 28.3645 21.2195 28.1474C21.2197 27.6739 21.2439 27.3876 21.5174 26.9936C21.876 26.7568 22.0535 26.7242 22.4797 26.7351C22.6013 26.7369 22.7229 26.7386 22.8482 26.7404C23.0369 26.7473 23.0369 26.7473 23.2295 26.7543C23.3574 26.7567 23.4854 26.7592 23.6172 26.7617C23.9325 26.7682 24.2474 26.7771 24.5625 26.7884C24.5681 26.614 24.5738 26.4396 24.5796 26.26C24.882 23.3469 26.5832 20.6873 28.794 18.8227C31.3222 16.794 34.4098 15.8314 37.6277 15.8281C37.8827 15.8231 37.8827 15.8231 38.1428 15.818C39.1341 15.815 40.0093 15.9161 40.9676 16.1559C41.0736 16.1817 41.1796 16.2074 41.2889 16.2339C41.5469 16.2967 41.8048 16.3606 42.0625 16.4247C42.0613 16.2951 42.0601 16.1655 42.0588 16.0319C42.0477 14.8043 42.0395 13.5767 42.0342 12.3491C42.0313 11.7181 42.0275 11.0871 42.0212 10.4561C42.0153 9.84606 42.012 9.23601 42.0106 8.6259C42.0096 8.39432 42.0077 8.16274 42.0047 7.93117C41.9766 5.65372 42.4264 3.98934 44.0193 2.27698C46.2511 0.170225 49.827 -0.0784046 52.3677 1.6122ZM45.207 4.42471C44.0981 5.91358 44.25 7.51011 44.25 9.3338C45.6937 9.3338 47.1375 9.3338 48.625 9.3338C48.625 10.0538 48.625 10.7738 48.625 11.5156C47.1813 11.5156 45.7375 11.5156 44.25 11.5156C44.25 12.2356 44.25 12.9556 44.25 13.6974C45.6937 13.6974 47.1375 13.6974 48.625 13.6974C48.625 14.4174 48.625 15.1374 48.625 15.8793C47.1813 15.8793 45.7375 15.8793 44.25 15.8793C44.0833 17.2679 44.0833 17.2679 44.5512 17.7164C44.6887 17.788 44.8261 17.8595 44.9678 17.9332C47.7526 19.5489 49.5467 21.9152 50.4328 25.0066C50.583 25.5975 50.7047 26.1883 50.8125 26.7884C51.5344 26.7884 52.2562 26.7884 53 26.7884C53.0063 24.254 53.0112 21.7197 53.0142 19.1853C53.0156 18.0084 53.0175 16.8316 53.0206 15.6547C53.0234 14.6285 53.0251 13.6022 53.0257 12.576C53.0261 12.033 53.0269 11.4901 53.0289 10.9472C53.0308 10.4351 53.0313 9.92305 53.0309 9.41098C53.031 9.13558 53.0325 8.86017 53.034 8.58476C53.0301 6.84069 52.8774 5.38962 51.6878 4.04065C50.8135 3.21806 49.8129 2.89512 48.625 2.85652C47.219 2.90367 46.1469 3.3704 45.207 4.42471ZM56.418 3.87925C55.7453 4.51293 55.231 5.11639 55.1539 6.06597C55.1541 6.22121 55.1544 6.37645 55.1546 6.53639C55.1542 6.71517 55.1539 6.89396 55.1535 7.07816C55.1544 7.27532 55.1554 7.47248 55.1565 7.66964C55.1565 7.87798 55.1565 8.08632 55.1563 8.29465C55.1563 8.8595 55.1579 9.42432 55.1598 9.98916C55.1615 10.5797 55.1616 11.1703 55.162 11.7609C55.1628 12.8789 55.1651 13.9969 55.1678 15.1149C55.1709 16.3878 55.1724 17.6607 55.1737 18.9337C55.1766 21.5519 55.1815 24.1701 55.1875 26.7884C55.9996 26.7884 56.8117 26.7884 57.6484 26.7884C57.9729 25.729 58.2964 24.6694 58.6181 23.6092C58.7675 23.117 58.9174 22.6249 59.0683 22.1331C59.2138 21.6586 59.3582 21.1837 59.5017 20.7087C59.5568 20.5273 59.6122 20.3461 59.6681 20.165C59.7462 19.9117 59.8226 19.6579 59.899 19.4041C59.943 19.2596 59.987 19.1152 60.0324 18.9664C60.1439 18.5944 60.1439 18.5944 59.9727 18.1975C59.6864 18.0264 59.6864 18.0264 59.3313 17.889C59.2022 17.835 59.0731 17.7809 58.9401 17.7252C58.8043 17.6701 58.6685 17.615 58.5286 17.5582C58.3922 17.5016 58.2559 17.4449 58.1155 17.3865C57.778 17.2464 57.4401 17.1077 57.1016 16.9702C57.1016 16.398 57.2012 16.1478 57.4434 15.6406C57.5068 15.5063 57.5703 15.372 57.6356 15.2337C57.685 15.1317 57.7343 15.0298 57.7852 14.9247C57.8992 14.9692 58.0132 15.0137 58.1307 15.0595C59.012 15.4008 59.893 15.7266 60.793 16.0156C61.0978 15.3456 61.322 14.6914 61.5022 13.9787C61.5264 13.8854 61.5507 13.7922 61.5756 13.6961C61.6344 13.4695 61.6923 13.2426 61.75 13.0156C60.5828 12.4686 59.3951 11.9856 58.1953 11.5156C58.2642 11.0428 58.3371 10.6258 58.5457 10.1946C58.7694 9.76242 58.7694 9.76242 58.7422 9.3338C58.8436 9.37583 58.945 9.41785 59.0494 9.46114C59.5076 9.65015 59.9665 9.83717 60.4255 10.0241C60.5851 10.0903 60.7447 10.1565 60.9091 10.2247C61.062 10.2867 61.2149 10.3486 61.3724 10.4125C61.5135 10.4703 61.6545 10.5281 61.7998 10.5877C62.1695 10.7382 62.1695 10.7382 62.5703 10.5611C62.7184 10.1911 62.8342 9.84434 62.9377 9.46164C62.9825 9.29673 62.9825 9.29673 63.0282 9.12849C63.3673 7.78347 63.5809 6.23247 62.8881 4.9643C62.0918 3.79049 61.312 3.18613 59.9214 2.87357C58.5707 2.66917 57.494 3.06132 56.418 3.87925ZM37.6875 18.0611C37.6875 19.1411 37.6875 20.2211 37.6875 21.3338C36.9656 21.3338 36.2438 21.3338 35.5 21.3338C35.5 20.3438 35.5 19.3538 35.5 18.3338C34.0084 18.6572 32.8387 19.0413 31.5352 19.8338C31.9113 21.0475 32.4106 22.2088 32.9023 23.3793C32.7506 23.4064 32.7506 23.4064 32.5958 23.4341C32.1668 23.5269 31.7856 23.6756 31.3803 23.84C31.125 23.9247 31.125 23.9247 30.7148 23.9247C30.2411 22.7772 30.2411 22.7772 29.7578 21.6065C29.3411 21.5598 29.3411 21.5598 29.102 21.8377C27.8311 23.4146 27.3171 24.7849 26.8867 26.7884C34.0152 26.7884 41.1437 26.7884 48.4883 26.7884C48.2922 25.5223 48.2922 25.5223 47.8047 24.4702C47.228 25.0116 46.7639 25.6032 46.3008 26.2429C45.605 26.026 45.0875 25.5959 44.5234 25.152C44.7571 24.4421 45.2033 23.9243 45.6674 23.3542C46.0095 22.9252 46.2656 22.5379 46.4375 22.0156C46.219 21.7904 45.9995 21.5661 45.7795 21.3423C45.6574 21.2174 45.5353 21.0924 45.4094 20.9636C45.0902 20.6275 45.0902 20.6275 44.6602 20.5156C44.1188 21.3256 43.5773 22.1356 43.0195 22.9702C41.7891 22.2884 41.7891 22.2884 41.2422 21.8793C41.4998 21.1464 41.936 20.5667 42.3797 19.935C42.6451 19.576 42.6451 19.576 42.6094 19.152C40.9326 18.5287 39.4803 18.174 37.6875 18.0611ZM48.0781 28.9702C48.5321 29.423 48.9505 29.8188 49.4453 30.2145C50.0212 30.6793 50.5902 31.1506 51.1543 31.6293C51.822 32.1951 52.4954 32.7532 53.1752 33.3045C53.441 33.5205 53.7058 33.7374 53.9698 33.9555C54.1066 34.0681 54.2434 34.1808 54.3843 34.2969C54.5087 34.3997 54.6331 34.5026 54.7613 34.6085C55.0075 34.8478 55.0075 34.8478 55.1875 34.8338C55.1875 32.8988 55.1875 30.9638 55.1875 28.9702C52.8414 28.9702 50.4953 28.9702 48.0781 28.9702ZM57.375 28.9702C57.3377 30.0377 57.3105 31.1049 57.2924 32.1729C57.2857 32.5361 57.2746 32.8985 57.2615 33.2617C57.2432 33.7844 57.2348 34.3066 57.2281 34.8296C57.2204 34.991 57.2126 35.1524 57.2046 35.3187C57.2041 36.0117 57.2172 36.433 57.6958 36.9592C58.3598 37.4666 58.7083 37.6975 59.5625 37.6975C59.5625 34.8175 59.5625 31.9375 59.5625 28.9702C58.8406 28.9702 58.1188 28.9702 57.375 28.9702Z" fill="#C18539"/>
</svg>
