<svg width="71" height="70" viewBox="0 0 71 70" fill="none" xmlns="http://www.w3.org/2000/svg">
<g clip-path="url(#clip0_6665_37240)">
<path d="M39.4091 12.1461C39.5562 12.1448 39.7032 12.1435 39.8547 12.1421C40.012 12.1415 40.1692 12.141 40.3312 12.1404C40.5775 12.1392 40.5775 12.1392 40.8289 12.138C41.1764 12.1367 41.5239 12.1358 41.8714 12.1353C42.3977 12.134 42.9238 12.1297 43.4501 12.1254C46.5705 12.1119 49.0231 12.4275 51.4951 14.4923C51.6299 14.6036 51.6299 14.6036 51.7675 14.7172C53.0896 15.9205 53.8792 17.5893 54.3662 19.2775C54.3997 19.3905 54.4332 19.5034 54.4677 19.6198C54.9673 21.6423 54.5925 23.9622 54.4285 26.0106C54.3918 26.4724 54.3575 26.9343 54.3232 27.3962C54.2035 28.954 54.0592 30.4734 53.6826 31.9923C53.6572 32.0948 53.6318 32.1973 53.6057 32.3028C53.1142 34.1209 52.2001 35.8166 51.085 37.3244C51.1606 37.3305 51.2363 37.3367 51.3143 37.343C53.6021 37.5341 55.801 37.8021 57.5107 39.5119C58.3311 40.5823 58.3311 40.5823 58.3311 41.1525C59.4243 40.7645 60.5007 40.3437 61.569 39.8916C61.7084 39.8327 61.7084 39.8327 61.8505 39.7726C62.3223 39.5728 62.7935 39.3718 63.2642 39.1694C64.8516 38.4912 66.3127 37.9175 68.0114 38.5597C69.1988 39.0815 69.8957 39.7775 70.3815 40.9971C70.6944 42.1389 70.6136 43.3421 70.1193 44.4156C69.8777 44.8371 69.6025 45.175 69.2686 45.5275C69.4293 45.739 69.4293 45.739 69.5933 45.9548C70.3365 46.9327 70.3305 48.0386 70.2256 49.2189C69.9745 50.2309 69.3194 51.1173 68.473 51.7203C67.3484 52.3358 66.1107 52.5318 64.8668 52.7808C64.4406 52.8668 64.0154 52.9561 63.5902 53.0466C62.3819 53.3037 61.1735 53.5595 59.9622 53.8014C56.4965 54.4963 53.515 55.1392 50.7405 57.4223C50.2305 57.8331 49.6877 58.1884 49.1367 58.5414C49.04 58.6035 48.9433 58.6656 48.8437 58.7296C45.7746 60.684 41.9044 61.7495 38.2802 61.8364C38.1813 61.8388 38.0824 61.8412 37.9806 61.8437C36.6779 61.8735 35.375 61.8891 34.072 61.8996C33.8831 61.9012 33.8831 61.9012 33.6903 61.9029C29.5907 61.9349 25.8472 61.6393 21.9006 60.4312C21.4351 60.2744 21.4351 60.2744 21.0068 60.2931C21.0971 60.4031 21.1873 60.5131 21.2803 60.6264C21.5824 61.0906 21.6694 61.4885 21.6381 62.0406C21.4659 62.6596 20.9652 62.9459 20.46 63.3009C20.3239 63.4002 20.1879 63.4994 20.0477 63.6016C19.7294 63.8325 19.4091 64.0602 19.0874 64.2863C18.6083 64.6232 18.1327 64.9647 17.6581 65.308C17.452 65.4571 17.2457 65.6059 17.0392 65.7543C16.4935 66.1472 15.9517 66.5444 15.4147 66.9491C15.3051 67.0307 15.1956 67.1124 15.0827 67.1965C14.8734 67.3525 14.6651 67.51 14.4581 67.6692C13.871 68.1042 13.4253 68.3703 12.667 68.3595C11.913 68.0942 11.514 67.3712 11.0691 66.7445C10.9845 66.6275 10.8999 66.5105 10.8128 66.39C10.5637 66.0448 10.3163 65.6984 10.0693 65.3517C9.94728 65.1815 9.82516 65.0113 9.70298 64.8412C9.48474 64.5367 9.2673 64.2317 9.05036 63.9263C8.64946 63.3626 8.24435 62.802 7.83912 62.2414C7.7645 62.1381 7.68988 62.0349 7.61301 61.9285C7.38365 61.6112 7.15424 61.294 6.92481 60.9767C5.16426 58.5423 5.16426 58.5423 4.30058 57.3294C3.91265 56.7853 3.52109 56.2438 3.12829 55.7031C2.82633 55.2865 2.52647 54.8684 2.22657 54.4503C2.00514 54.1438 1.78045 53.84 1.55539 53.5362C1.41678 53.3448 1.27827 53.1532 1.1399 52.9616C1.07505 52.876 1.01021 52.7903 0.943397 52.7021C0.491123 52.0664 0.376435 51.6394 0.499028 50.8595C0.972884 50.2339 1.66423 49.8063 2.30201 49.3556C2.52312 49.1977 2.74422 49.0398 2.96531 48.8819C3.07797 48.8018 3.19063 48.7216 3.3067 48.639C3.73193 48.3355 4.15491 48.029 4.57779 47.7223C5.5158 47.0423 6.45756 46.3676 7.40332 45.6984C7.50238 45.6282 7.60144 45.5579 7.7035 45.4855C8.72386 44.7656 8.72386 44.7656 9.52247 44.8439C9.91553 45.1173 9.91553 45.1173 10.2061 45.3908C10.5825 45.2121 10.9165 45.014 11.2533 44.7691C11.3971 44.665 11.3971 44.665 11.5438 44.5588C11.698 44.4461 11.698 44.4461 11.8552 44.3312C12.0177 44.2132 12.0177 44.2132 12.1834 44.0927C13.397 43.2095 14.6045 42.318 15.8115 41.4259C17.1841 40.4115 18.5589 39.4008 19.9443 38.404C20.6929 37.8646 21.4359 37.3179 22.1775 36.769C23.0371 36.1333 23.902 35.506 24.7752 34.8891C24.8737 34.8194 24.9722 34.7496 25.0737 34.6778C26.0009 34.0258 26.0009 34.0258 26.6487 34.0276C26.8293 34.0276 26.8293 34.0276 27.0136 34.0276C27.1438 34.0283 27.2739 34.0291 27.4081 34.0298C27.6078 34.0301 27.6078 34.0301 27.8115 34.0304C28.2378 34.0311 28.6641 34.0328 29.0903 34.0346C29.3789 34.0353 29.6675 34.0359 29.956 34.0365C30.6644 34.038 31.3727 34.0403 32.0811 34.0431C32.0365 33.9354 31.9919 33.8278 31.9459 33.7168C31.8862 33.5679 31.8265 33.419 31.7649 33.2655C31.7062 33.1212 31.6475 32.9769 31.5871 32.8281C31.0796 31.4177 30.9041 29.9637 30.7881 28.4777C30.7728 28.2893 30.7574 28.1009 30.7419 27.9125C30.7101 27.5205 30.6794 27.1283 30.6493 26.7361C30.6111 26.2401 30.5697 25.7443 30.5274 25.2486C30.4948 24.8603 30.4642 24.4719 30.4342 24.0834C30.4129 23.8137 30.3897 23.5442 30.3664 23.2748C30.1661 20.5358 30.7147 17.7879 32.4923 15.6251C32.5822 15.522 32.672 15.4189 32.7647 15.3127C32.9122 15.1432 32.9122 15.1432 33.0627 14.9703C34.7012 13.211 36.9884 12.1637 39.4091 12.1461ZM34.542 16.9533C33.7349 18.0193 33.1394 19.1874 32.9014 20.508C33.0593 20.5756 33.2172 20.6433 33.3799 20.7131C33.8154 20.9052 34.2429 21.1091 34.667 21.3251C34.7617 21.3733 34.8564 21.4215 34.954 21.4711C35.1429 21.5678 35.3315 21.6651 35.5196 21.7633C38.0619 23.0633 40.9234 22.3755 43.5654 21.7384C44.2807 21.5675 44.9965 21.3988 45.7126 21.2315C46.0167 21.1597 46.3201 21.0855 46.6236 21.0111C48.4886 20.5635 50.2815 20.3466 52.1787 20.7814C51.9456 19.6095 51.5774 18.6522 50.9482 17.6369C50.8948 17.5468 50.8414 17.4568 50.7864 17.364C49.8942 15.9777 48.2018 15.0664 46.6334 14.6866C45.9608 14.5706 45.2816 14.5874 44.601 14.5879C44.4392 14.5874 44.2774 14.5868 44.1107 14.5862C43.7695 14.5854 43.4284 14.5853 43.0872 14.5859C42.5688 14.5863 42.0504 14.5831 41.532 14.5797C41.1992 14.5794 40.8664 14.5793 40.5336 14.5794C40.3803 14.5781 40.227 14.5769 40.0691 14.5756C37.9192 14.588 36.0084 15.3483 34.542 16.9533ZM47.6499 23.1825C47.4796 23.2187 47.3092 23.2549 47.1337 23.2921C45.6258 23.6134 44.1218 23.9534 42.6193 24.2987C42.4509 24.3373 42.2825 24.3759 42.1091 24.4157C41.961 24.4498 41.813 24.484 41.6605 24.5192C39.1078 25.0693 36.2873 24.9623 33.9839 23.6461C33.7093 23.4854 33.7093 23.4854 33.3115 23.5158C33.3047 24.2596 33.2998 25.0033 33.2965 25.7471C33.2951 25.9993 33.2933 26.2515 33.2909 26.5036C33.2728 28.4691 33.3194 30.3322 33.9866 32.206C34.021 32.309 34.0555 32.412 34.091 32.5181C34.1891 32.8034 34.286 33.0824 34.4053 33.3595C34.4509 33.4815 34.4966 33.6035 34.5437 33.7292C34.8582 34.0926 34.922 34.0947 35.3804 34.1311C35.6177 34.1358 35.8551 34.1369 36.0924 34.135C36.2179 34.1367 36.3435 34.1385 36.4729 34.1403C36.8746 34.1452 37.2762 34.1456 37.678 34.1457C38.0792 34.1486 38.4804 34.1525 38.8816 34.1569C39.1313 34.1593 39.381 34.1608 39.6307 34.161C39.7443 34.1616 39.8579 34.1621 39.9749 34.1626C40.0745 34.1627 40.174 34.1628 40.2766 34.1628C40.5757 34.1809 40.8236 34.2103 41.1045 34.3166C41.5078 35.5266 41.2207 36.7604 40.814 37.9284C40.6797 38.2625 40.6797 38.2625 40.6943 38.5548C43.1466 38.8415 45.7094 38.6696 47.7695 37.1535C49.8785 35.3745 51.2764 32.6823 51.6318 29.9416C51.6526 29.4627 51.6543 28.9842 51.6548 28.505C51.6553 28.3678 51.6557 28.2307 51.6562 28.0894C51.6569 27.8005 51.6572 27.5116 51.6572 27.2227C51.6575 26.7805 51.66 26.3383 51.6625 25.8961C51.663 25.615 51.6632 25.3339 51.6633 25.0528C51.6648 24.8546 51.6648 24.8546 51.6663 24.6523C51.6659 24.5291 51.6655 24.4058 51.6651 24.2789C51.6652 24.1709 51.6654 24.0628 51.6656 23.9515C51.6273 23.6122 51.5381 23.3948 51.3584 23.1056C50.2813 22.4528 48.7882 22.9342 47.6499 23.1825ZM24.5306 38.0751C24.2231 38.3367 23.8999 38.5727 23.5709 38.8064C23.3797 38.9474 23.1887 39.0886 22.9978 39.2299C22.7801 39.3907 22.5624 39.5514 22.3447 39.7122C22.2366 39.792 22.1286 39.8718 22.0173 39.954C21.3678 40.4338 20.7174 40.9125 20.0672 41.3914C19.5241 41.7916 18.9811 42.1919 18.4386 42.5929C17.2761 43.4514 16.1094 44.3033 14.9362 45.1471C13.8955 45.8975 12.87 46.6678 11.8467 47.4416C11.9298 47.8682 12.0657 48.145 12.3231 48.4937C12.4289 48.6385 12.4289 48.6385 12.537 48.7863C12.6137 48.8896 12.6905 48.9929 12.7695 49.0993C12.9326 49.3218 13.0957 49.5443 13.2587 49.7669C13.3842 49.9372 13.3842 49.9372 13.5121 50.1109C13.8945 50.6315 14.2719 51.1557 14.6494 51.6798C15.0995 52.3036 15.55 52.927 16.0017 53.5496C16.117 53.7089 16.117 53.7089 16.2348 53.8714C16.3783 54.0694 16.5219 54.2674 16.6658 54.4652C16.7663 54.6041 16.7663 54.6041 16.869 54.7459C16.936 54.8366 17.003 54.9272 17.0721 55.0207C17.3154 55.3713 17.3154 55.3713 17.5618 55.7982C18.1989 56.8498 18.6763 57.3521 19.9068 57.6834C20.0811 57.7221 20.2553 57.7608 20.4349 57.8007C20.624 57.847 20.813 57.8936 21.002 57.9406C21.5128 58.0644 22.0255 58.1767 22.5397 58.2852C22.8628 58.3538 23.1853 58.4249 23.5078 58.4964C27.0936 59.2813 30.612 59.5336 34.2771 59.507C34.3932 59.5064 34.5092 59.5057 34.6288 59.5051C40.5136 59.4671 45.342 58.4086 50.1513 54.8668C50.5091 54.6105 50.881 54.3797 51.2559 54.1493C51.6576 53.9006 51.9437 53.6922 52.2813 53.3547C52.5988 53.0371 52.8722 52.9234 53.2813 52.7553C53.7319 52.5536 54.1393 52.2875 54.5542 52.0216C54.6491 51.9616 54.744 51.9015 54.8418 51.8396C55.5983 51.3596 56.3506 50.873 57.1019 50.385C57.9875 49.8099 58.8768 49.2407 59.7666 48.672C60.8142 48.0023 61.8612 47.3317 62.9033 46.6535C63.4919 46.2711 64.084 45.8944 64.6778 45.52C64.9116 45.3721 65.1454 45.2241 65.3792 45.076C65.606 44.9327 65.8334 44.7905 66.0607 44.6482C67.2975 43.8976 67.2975 43.8976 68.1065 42.7419C68.1938 42.1084 68.1017 41.8306 67.7647 41.2892C67.1998 40.8067 66.728 40.6858 65.9873 40.7423C65.5518 40.8764 65.1375 41.0543 64.7189 41.2337C64.595 41.2854 64.4712 41.3371 64.3435 41.3903C63.9367 41.5604 63.5308 41.7324 63.1248 41.9045C62.84 42.0239 62.5551 42.1431 62.2702 42.2622C61.6899 42.5048 61.11 42.748 60.5302 42.9917C59.7861 43.3038 59.0405 43.6123 58.2937 43.9179C58.1985 43.957 58.1033 43.9961 58.0052 44.0364C57.4605 44.2598 56.9151 44.4809 56.3668 44.6956C55.4014 45.0775 54.4553 45.4563 53.5578 45.9818C48.8926 48.7099 43.4278 48.1432 38.2189 48.05C36.8844 48.0269 35.5499 48.0212 34.2151 48.0153C33.193 48.0101 32.1709 48.0006 31.1488 47.9904C30.9026 47.988 30.6563 47.9858 30.41 47.9837C29.7124 47.9778 29.0149 47.9692 28.3174 47.9561C28.1066 47.9525 27.8959 47.9499 27.6851 47.9482C27.3978 47.9457 27.1108 47.9399 26.8236 47.9331C26.663 47.9306 26.5024 47.9281 26.3369 47.9255C25.8425 47.8361 25.6771 47.7063 25.3818 47.3048C25.2821 46.4779 25.4106 46.0265 25.847 45.3043C25.8957 45.2224 25.9443 45.1404 25.9945 45.056C26.1498 44.7959 26.3084 44.538 26.467 44.2799C26.5688 44.1102 26.6704 43.9404 26.7717 43.7705C27.1894 43.0738 27.6153 42.3832 28.0581 41.7022C28.1151 41.6144 28.1721 41.5267 28.2309 41.4363C28.3406 41.2682 28.451 41.1005 28.562 40.9333C28.8479 40.5301 28.8479 40.5301 28.9365 40.0588C29.3162 39.9517 29.6547 39.9046 30.0487 39.9026C30.2138 39.9012 30.2138 39.9012 30.3823 39.8997C30.5003 39.8992 30.6184 39.8986 30.74 39.898C30.9931 39.8948 31.2461 39.8915 31.4992 39.8881C31.8958 39.8833 32.2923 39.8793 32.6889 39.8775C34.7082 39.8662 36.2732 39.8116 37.7997 38.3434C38.2395 37.8466 38.7803 37.1984 38.7803 36.5041C37.2542 36.4626 35.7283 36.4312 34.2017 36.412C33.4926 36.4028 32.7839 36.3903 32.075 36.37C31.3888 36.3505 30.703 36.34 30.0166 36.3354C29.7568 36.3322 29.497 36.3259 29.2374 36.3161C27.2118 36.2435 26.0644 36.757 24.5306 38.0751ZM46.2998 40.4689C44.03 41.1294 41.8726 41.0619 39.5738 40.6943C38.9852 40.5835 38.9852 40.5835 38.4641 40.8278C38.2822 40.9885 38.2822 40.9885 38.0967 41.1525C36.8229 41.8395 35.6657 42.1295 34.2242 42.1229C34.0695 42.1228 34.0695 42.1228 33.9115 42.1227C33.4795 42.1219 33.0478 42.1206 32.6159 42.11C31.3683 42.0355 31.3683 42.0355 30.2678 42.4954C30.054 42.8139 29.9042 43.1232 29.7568 43.4767C29.6538 43.6453 29.5475 43.812 29.4375 43.9761C29.2995 44.1984 29.2995 44.1984 29.1587 44.4252C29.0175 44.6512 29.0175 44.6512 28.8735 44.8818C28.6407 45.2225 28.6407 45.2225 28.6631 45.5275C31.12 45.5792 33.5768 45.6175 36.0341 45.6408C37.1758 45.652 38.3172 45.6672 39.4586 45.6925C46.4655 45.9196 46.4655 45.9196 52.9946 43.6331C53.9994 43.0805 55.0821 42.6758 56.1436 42.2463C55.8498 41.3152 55.4593 40.8997 54.6007 40.4374C53.6675 40.0059 52.8409 39.899 51.814 39.8895C51.6998 39.8884 51.5857 39.8873 51.4681 39.8861C51.2269 39.8842 50.9857 39.8828 50.7445 39.8817C50.4999 39.8801 50.2553 39.8773 50.0107 39.8733C48.6534 39.8508 47.5342 39.8416 46.2998 40.4689ZM66.4514 47.1756C66.3518 47.2364 66.2522 47.2973 66.1495 47.3599C66.0424 47.4263 65.9353 47.4928 65.825 47.5612C65.7145 47.6292 65.604 47.6972 65.4902 47.7673C64.624 48.3039 63.7744 48.8626 62.9298 49.4325C62.1353 49.9679 61.3262 50.481 60.5186 50.9963C60.9266 51.1227 61.2008 51.1351 61.6165 51.042C61.7233 51.0187 61.8301 50.9954 61.9402 50.9714C62.0544 50.945 62.1686 50.9187 62.2863 50.8916C62.405 50.865 62.5236 50.8385 62.6459 50.8112C62.8968 50.7548 63.1475 50.6977 63.3981 50.6401C63.78 50.5525 64.1623 50.4674 64.5448 50.3826C64.7889 50.3274 65.033 50.272 65.277 50.2165C65.3907 50.1913 65.5044 50.1661 65.6215 50.1401C66.3693 49.9661 67.0931 49.7973 67.6108 49.1933C67.8116 48.6913 67.8604 48.2432 67.7647 47.715C67.5316 47.2395 67.5316 47.2395 67.2178 46.8947C66.8757 46.8947 66.7422 46.9974 66.4514 47.1756ZM7.79639 48.4328C6.98352 49.0771 6.14733 49.6804 5.2964 50.2733C4.64388 50.7288 4.00391 51.1986 3.37012 51.6798C3.91247 52.576 4.496 53.4189 5.14216 54.2433C5.60971 54.8432 6.05269 55.4576 6.48902 56.0805C7.05869 56.8936 7.63296 57.703 8.21509 58.5072C8.2889 58.6092 8.36271 58.7112 8.43876 58.8163C8.58845 59.023 8.73818 59.2297 8.88794 59.4364C9.18548 59.8473 9.48247 60.2585 9.77938 60.6698C9.92639 60.8734 10.0735 61.077 10.2207 61.2804C10.6066 61.8139 10.9907 62.3485 11.3724 62.8849C11.4518 62.996 11.5312 63.1071 11.613 63.2216C11.7643 63.4335 11.9152 63.6456 12.0654 63.8582C12.4579 64.4066 12.8579 64.8907 13.3506 65.3517C13.4123 65.3072 13.4739 65.2627 13.5374 65.2168C13.7253 65.0811 13.9131 64.9455 14.1009 64.8099C14.3204 64.6513 14.5398 64.4928 14.7592 64.3341C15.3415 63.9133 15.9243 63.4933 16.5085 63.075C16.6194 62.9954 16.7304 62.9158 16.8447 62.8337C17.0583 62.6805 17.272 62.5276 17.486 62.3751C17.5832 62.3052 17.6804 62.2354 17.7806 62.1634C17.8659 62.1024 17.9512 62.0414 18.039 61.9785C18.2733 61.7964 18.4776 61.6011 18.6826 61.3869C17.629 59.8871 16.5644 58.3958 15.489 56.9115C15.1175 56.3985 14.7468 55.8848 14.376 55.3713C14.2279 55.1662 14.0798 54.9611 13.9316 54.756C13.6354 54.3459 13.3392 53.9357 13.043 53.5256C12.9696 53.424 12.8962 53.3223 12.8206 53.2177C12.6731 53.0135 12.5257 52.8093 12.3783 52.6051C11.9981 52.0786 11.6176 51.5522 11.2368 51.0262C11.1591 50.9188 11.0815 50.8115 11.0015 50.7009C10.8493 50.4905 10.6969 50.2803 10.5445 50.0703C10.2311 49.6376 9.91995 49.2047 9.62287 48.7607C9.53898 48.6356 9.45509 48.5104 9.36866 48.3815C9.30063 48.2768 9.2326 48.1721 9.16251 48.0643C9.10083 47.9941 9.03914 47.924 8.97559 47.8517C8.41127 47.8517 8.23402 48.0805 7.79639 48.4328Z" fill="#C18539"/>
<path d="M51.6333 2.46198C52.1304 2.80376 52.2862 3.01009 52.4194 3.59846C52.1696 4.82676 50.6955 5.90841 49.829 6.79008C49.6696 6.95313 49.5113 7.11714 49.3538 7.28208C49.1235 7.52326 48.8901 7.76113 48.6559 7.99856C48.5868 8.07217 48.5177 8.14579 48.4465 8.22164C47.8809 8.78419 47.4824 8.87908 46.7114 8.88776C46.3204 8.6465 46.0965 8.4782 45.8911 8.06745C45.8228 7.70856 45.8228 7.70856 45.8911 7.24714C46.1683 6.84983 46.5174 6.50648 46.8481 6.15339C46.9126 6.08442 46.9771 6.01545 47.0436 5.9444C47.5027 5.45533 47.9679 4.97275 48.4374 4.49374C48.6035 4.32324 48.7686 4.15166 48.9325 3.97904C49.172 3.72702 49.415 3.47878 49.6589 3.23102C49.731 3.15371 49.8031 3.0764 49.8774 2.99674C50.4527 2.42433 50.8276 2.3597 51.6333 2.46198Z" fill="#C18539"/>
<path d="M14.7603 58.361C15.4029 58.7288 15.8668 59.1639 16.0874 59.8825C16.1997 60.696 16.1579 61.3811 15.6772 62.07C15.0763 62.6598 14.6475 62.913 13.8059 62.9331C13.0158 62.9236 12.6006 62.843 11.9858 62.3435C11.4121 61.6374 11.3535 61.0304 11.3861 60.1298C11.4833 59.4235 11.824 59.0715 12.3362 58.6093C13.043 58.1199 13.9579 58.0562 14.7603 58.361Z" fill="#C18539"/>
<path d="M34.9531 3.00724C35.3743 3.28859 35.7228 3.63657 36.0791 3.99511C36.3774 4.29516 36.6793 4.59148 36.9809 4.88819C37.4501 5.35203 37.9187 5.81645 38.3844 6.28368C38.4839 6.38325 38.5833 6.48281 38.6857 6.58539C39.0807 7.01053 39.1026 7.35508 39.0921 7.93285C39.0547 8.20255 39.0547 8.20255 38.8411 8.5358C38.391 8.82432 38.0858 8.88615 37.5508 8.88615C36.6994 8.39088 36.0384 7.69804 35.3476 7.0071C35.1331 6.79318 34.9165 6.58155 34.6997 6.36993C34.5613 6.23237 34.4231 6.09468 34.285 5.95684C34.1606 5.83359 34.0363 5.71035 33.9081 5.58337C33.534 5.13212 33.3578 4.79347 33.1758 4.23771C33.4695 3.24248 33.8957 2.82261 34.9531 3.00724Z" fill="#C18539"/>
<path d="M43.2919 2.05093C43.6638 2.39316 43.7314 2.67933 43.7573 3.16577C43.7609 3.39655 43.7621 3.62737 43.7613 3.85818C43.7621 3.98053 43.7628 4.10287 43.7635 4.22893C43.7644 4.48726 43.7642 4.7456 43.763 5.00393C43.7619 5.39917 43.7658 5.79413 43.7701 6.18934C43.7704 6.44052 43.7703 6.69171 43.7699 6.94289C43.7722 7.12001 43.7722 7.12001 43.7745 7.3007C43.7651 8.11593 43.7651 8.11593 43.4538 8.54747C43.03 8.83515 42.7074 8.87793 42.1981 8.88686C41.7728 8.71674 41.5772 8.5945 41.3614 8.18885C41.2071 7.68111 41.202 7.1992 41.2048 6.67373C41.2044 6.51374 41.2044 6.51374 41.204 6.35052C41.2038 6.12576 41.2043 5.901 41.2055 5.67624C41.2069 5.3333 41.2055 4.99046 41.2037 4.64752C41.2039 4.42855 41.2043 4.20959 41.2048 3.99062C41.2042 3.88864 41.2037 3.78665 41.2031 3.68157C41.2081 3.12698 41.24 2.67575 41.5146 2.18765C42.186 1.78733 42.5882 1.68307 43.2919 2.05093Z" fill="#C18539"/>
</g>
<defs>
<clipPath id="clip0_6665_37240">
<rect width="70" height="70" fill="white" transform="translate(0.5)"/>
</clipPath>
</defs>
</svg>
